<svg version="1.1" xmlns="http://www.w3.org/2000/svg" xmlns:xlink="http://www.w3.org/1999/xlink" stroke-linecap="round" stroke-linejoin="round" stroke-width="0" fill-rule="evenodd" clip-rule="evenodd" id="VPkqXzdTgEKU_bottom" viewBox="121750 -112500 62750 18500" width="62.75mm" height="18.5mm"><defs><style>.VPkqXzdTgEKU_fr4 {color: #666666;}
.VPkqXzdTgEKU_cu {color: #cccccc;}
.VPkqXzdTgEKU_cf {color: #cc9933;}
.VPkqXzdTgEKU_sm {color: #004200; opacity: 0.7490196078431373;}
.VPkqXzdTgEKU_ss {color: #ffffff;}
.VPkqXzdTgEKU_sp {color: #999999;}
.VPkqXzdTgEKU_out {color: #000000;}</style><rect x="-850" y="-850" width="1700" height="1700" id="Om6fw3LfD4od_pad-10"/><rect x="-850" y="-850" width="1700" height="1700" rx="850" ry="850" id="Om6fw3LfD4od_pad-11"/><circle cx="0" cy="0" r="1000" id="Om6fw3LfD4od_pad-12"/><circle cx="0" cy="0" r="400" id="Om6fw3LfD4od_pad-13"/><g id="vGUuQ4CR2tfN_pad-10"><polygon points="850,-850 850,850 -850,850 -850,-850"/><circle cx="850" cy="-850" r="200"/><circle cx="850" cy="850" r="200"/><circle cx="-850" cy="850" r="200"/><circle cx="-850" cy="-850" r="200"/><polygon points="1050,-850 1050,850 650,850 650,-850"/><polygon points="850,650 -850,650 -850,1050 850,1050"/><polygon points="-650,850 -650,-850 -1050,-850 -1050,850"/><polygon points="-850,-1050 850,-1050 850,-650 -850,-650"/></g><rect x="-1050" y="-1050" width="2100" height="2100" rx="1050" ry="1050" id="vGUuQ4CR2tfN_pad-11"/><circle cx="0" cy="0" r="1200" id="vGUuQ4CR2tfN_pad-12"/><circle cx="0" cy="0" r="7.85" id="EFi4uLNU_75U_pad-1"/><circle cx="0" cy="0" r="19.7" id="EFi4uLNU_75U_pad-2"/><circle cx="0" cy="0" r="21.65" id="EFi4uLNU_75U_pad-3"/><g id="VPkqXzdTgEKU_bottom_copper"><use xlink:href="#Om6fw3LfD4od_pad-10" x="148050" y="-110250"/><use xlink:href="#Om6fw3LfD4od_pad-11" x="150590" y="-110250"/><use xlink:href="#Om6fw3LfD4od_pad-11" x="153130" y="-110250"/><use xlink:href="#Om6fw3LfD4od_pad-11" x="155670" y="-110250"/><use xlink:href="#Om6fw3LfD4od_pad-11" x="158210" y="-110250"/><use xlink:href="#Om6fw3LfD4od_pad-11" x="160750" y="-110250"/><use xlink:href="#Om6fw3LfD4od_pad-11" x="163290" y="-110250"/><use xlink:href="#Om6fw3LfD4od_pad-11" x="165830" y="-110250"/><use xlink:href="#Om6fw3LfD4od_pad-10" x="130000" y="-110250"/><use xlink:href="#Om6fw3LfD4od_pad-11" x="132540" y="-110250"/><use xlink:href="#Om6fw3LfD4od_pad-11" x="135080" y="-110250"/><use xlink:href="#Om6fw3LfD4od_pad-11" x="137620" y="-110250"/><use xlink:href="#Om6fw3LfD4od_pad-10" x="173960" y="-110250"/><use xlink:href="#Om6fw3LfD4od_pad-11" x="176500" y="-110250"/><use xlink:href="#Om6fw3LfD4od_pad-11" x="179040" y="-110250"/><use xlink:href="#Om6fw3LfD4od_pad-12" x="123750" y="-95957.5"/><use xlink:href="#Om6fw3LfD4od_pad-12" x="123750" y="-102457.5"/><use xlink:href="#Om6fw3LfD4od_pad-12" x="128250" y="-102457.5"/><use xlink:href="#Om6fw3LfD4od_pad-12" x="128250" y="-95957.5"/><use xlink:href="#Om6fw3LfD4od_pad-12" x="139250" y="-102500"/><use xlink:href="#Om6fw3LfD4od_pad-12" x="139250" y="-96000"/><use xlink:href="#Om6fw3LfD4od_pad-12" x="143750" y="-102500"/><use xlink:href="#Om6fw3LfD4od_pad-12" x="143750" y="-96000"/><use xlink:href="#Om6fw3LfD4od_pad-12" x="147000" y="-102500"/><use xlink:href="#Om6fw3LfD4od_pad-12" x="147000" y="-96000"/><use xlink:href="#Om6fw3LfD4od_pad-12" x="151500" y="-102500"/><use xlink:href="#Om6fw3LfD4od_pad-12" x="151500" y="-96000"/><use xlink:href="#Om6fw3LfD4od_pad-12" x="154750" y="-102500"/><use xlink:href="#Om6fw3LfD4od_pad-12" x="154750" y="-96000"/><use xlink:href="#Om6fw3LfD4od_pad-12" x="159250" y="-102500"/><use xlink:href="#Om6fw3LfD4od_pad-12" x="159250" y="-96000"/><use xlink:href="#Om6fw3LfD4od_pad-12" x="162500" y="-96000"/><use xlink:href="#Om6fw3LfD4od_pad-12" x="162500" y="-102500"/><use xlink:href="#Om6fw3LfD4od_pad-12" x="167000" y="-102500"/><use xlink:href="#Om6fw3LfD4od_pad-12" x="167000" y="-96000"/><use xlink:href="#Om6fw3LfD4od_pad-12" x="170250" y="-102500"/><use xlink:href="#Om6fw3LfD4od_pad-12" x="170250" y="-96000"/><use xlink:href="#Om6fw3LfD4od_pad-12" x="174750" y="-96000"/><use xlink:href="#Om6fw3LfD4od_pad-12" x="174750" y="-102500"/><use xlink:href="#Om6fw3LfD4od_pad-12" x="178000" y="-96000"/><use xlink:href="#Om6fw3LfD4od_pad-12" x="178000" y="-102500"/><use xlink:href="#Om6fw3LfD4od_pad-12" x="182500" y="-102500"/><use xlink:href="#Om6fw3LfD4od_pad-12" x="182500" y="-96000"/><use xlink:href="#Om6fw3LfD4od_pad-12" x="131500" y="-96000"/><use xlink:href="#Om6fw3LfD4od_pad-12" x="131500" y="-102500"/><use xlink:href="#Om6fw3LfD4od_pad-12" x="136000" y="-96000"/><use xlink:href="#Om6fw3LfD4od_pad-12" x="136000" y="-102500"/><use xlink:href="#Om6fw3LfD4od_pad-13" x="164750" y="-99250"/><use xlink:href="#Om6fw3LfD4od_pad-13" x="133750" y="-99250"/><use xlink:href="#Om6fw3LfD4od_pad-13" x="180250" y="-99250"/><use xlink:href="#Om6fw3LfD4od_pad-13" x="157000" y="-99250"/><use xlink:href="#Om6fw3LfD4od_pad-13" x="172500" y="-99250"/><use xlink:href="#Om6fw3LfD4od_pad-13" x="141500" y="-99250"/><use xlink:href="#Om6fw3LfD4od_pad-13" x="126000" y="-99250"/><use xlink:href="#Om6fw3LfD4od_pad-13" x="149250" y="-99250"/><path d="M 137620 -109380 137620 -110250 M 165830 -109420 166750 -108500 178500 -108500 M 165830 -110250 165830 -109420 M 179040 -109040 179040 -110250 M 166750 -108500 138500 -108500 M 178500 -108500 179040 -109040 M 138500 -108500 137620 -109380 M 148050 -111500 148550 -112000 M 173460 -112000 173960 -111500 M 130000 -110250 130000.001 -111500.001 M 130500 -112000 149750 -112000 M 148050 -110250 148050 -111500 M 130000.001 -111500.001 130500 -112000 M 149750 -112000 173460 -112000 M 148550 -112000 149750 -112000 M 173960 -111500 173960 -110250 M 182500 -96000 182500 -102500 M 167000 -96000 167000 -102500 M 153250 -97750 157500 -97750 M 167000 -96000 168750 -97750 M 137750 -97750 142000 -97750 M 128250 -95957.5 130042.5 -97750 M 174750 -96000 174750 -102500 M 134250 -97750 136000 -96000 137750 -97750 M 128250 -95957.5 128250 -102457.5 M 159250 -96000 161000 -97750 M 151500 -96000 153250 -97750 M 145500 -97750 149750 -97750 M 136000 -96000 136000 -102500 M 143750 -96000 145500 -97750 M 176500 -97750 180750 -97750 M 130042.5 -97750 134250 -97750 M 173000 -97750 174750 -96000 M 180750 -97750 182500 -96000 M 159250 -96000 159250 -102500 M 151500 -96000 151500 -102500 M 142000 -97750 143750 -96000 M 168750 -97750 173000 -97750 M 157500 -97750 159250 -96000 M 161000 -97750 165250 -97750 167000 -96000 M 149750 -97750 151500 -96000 M 174750 -96000 176500 -97750 M 143750 -96000 143750 -102500" fill="none" stroke-width="400"/><path d="M 127351.021 -94528.502 127397.514 -94582.158 127407.618 -94652.432 127378.124 -94717.012 127360.482 -94733.204 127360.584 -94733.324 127180.031 -94887.531 127025.824 -95068.084 127023.245 -95072.292 127023.241 -95072.298 126947.879 -95195.278 126901.76 -95270.537 126810.895 -95489.906 126755.465 -95720.789 126736.835 -95957.5 126755.465 -96194.211 126756.619 -96199.018 126756.62 -96199.024 126768.703 -96249.353 126810.895 -96425.094 126812.788 -96429.665 126812.789 -96429.667 126898.986 -96637.765 126901.76 -96644.463 126904.346 -96648.683 127023.241 -96842.702 127023.245 -96842.708 127025.824 -96846.916 127180.031 -97027.469 127360.584 -97181.676 127364.797 -97184.258 127364.807 -97184.265 127481.335 -97255.674 127528.966 -97308.321 127541.5 -97363.106 127541.5 -101051.894 127521.498 -101120.015 127481.335 -101159.326 127364.807 -101230.735 127364.799 -101230.741 127360.584 -101233.324 127180.031 -101387.531 127025.824 -101568.084 127023.245 -101572.292 127023.241 -101572.298 126947.879 -101695.278 126901.76 -101770.537 126810.895 -101989.906 126755.465 -102220.789 126736.835 -102457.5 126755.465 -102694.211 126756.619 -102699.018 126756.62 -102699.024 126768.703 -102749.353 126810.895 -102925.094 126901.76 -103144.463 126904.346 -103148.683 127023.241 -103342.702 127023.245 -103342.708 127025.824 -103346.916 127180.031 -103527.469 127360.584 -103681.676 127364.792 -103684.255 127364.798 -103684.259 127424.697 -103720.965 127563.037 -103805.74 127567.607 -103807.633 127567.611 -103807.635 127777.833 -103894.711 127782.406 -103896.605 127862.609 -103915.86 128008.476 -103950.88 128008.482 -103950.881 128013.289 -103952.035 128250 -103970.665 128486.711 -103952.035 128491.518 -103950.881 128491.524 -103950.88 128637.391 -103915.86 128717.594 -103896.605 128722.167 -103894.711 128932.389 -103807.635 128932.393 -103807.633 128936.963 -103805.74 129075.303 -103720.965 129135.202 -103684.259 129135.208 -103684.255 129139.416 -103681.676 129319.969 -103527.469 129474.176 -103346.916 129476.755 -103342.708 129476.759 -103342.702 129595.654 -103148.683 129598.24 -103144.463 129689.105 -102925.094 129731.297 -102749.353 129743.38 -102699.024 129743.381 -102699.018 129744.535 -102694.211 129744.924 -102689.274 129744.925 -102689.265 129747.717 -102653.798 129773.002 -102587.456 129830.141 -102545.317 129900.991 -102540.759 129963.058 -102575.229 129996.637 -102637.783 129998.939 -102653.794 130005.465 -102736.711 130060.895 -102967.594 130151.76 -103186.963 130154.346 -103191.183 130273.241 -103385.202 130273.245 -103385.208 130275.824 -103389.416 130430.031 -103569.969 130610.584 -103724.176 130614.792 -103726.755 130614.798 -103726.759 130746.776 -103807.635 130813.037 -103848.24 130817.607 -103850.133 130817.611 -103850.135 131027.833 -103937.211 131032.406 -103939.105 131087.88 -103952.423 131258.476 -103993.38 131258.482 -103993.381 131263.289 -103994.535 131500 -104013.165 131736.711 -103994.535 131741.518 -103993.381 131741.524 -103993.38 131912.12 -103952.423 131967.594 -103939.105 131972.167 -103937.211 132182.389 -103850.135 132182.393 -103850.133 132186.963 -103848.24 132253.224 -103807.635 132385.202 -103726.759 132385.208 -103726.755 132389.416 -103724.176 132569.969 -103569.969 132724.176 -103389.416 132726.755 -103385.208 132726.759 -103385.202 132845.654 -103191.183 132848.24 -103186.963 132939.105 -102967.594 132994.535 -102736.711 133013.165 -102500 132994.535 -102263.289 132985.517 -102225.724 132940.26 -102037.218 132939.105 -102032.406 132848.24 -101813.037 132776.077 -101695.278 132726.759 -101614.798 132726.755 -101614.792 132724.176 -101610.584 132569.969 -101430.031 132389.416 -101275.824 132385.208 -101273.245 132385.202 -101273.241 132191.183 -101154.346 132186.963 -101151.76 132182.393 -101149.867 132182.389 -101149.865 131972.167 -101062.789 131972.165 -101062.788 131967.594 -101060.895 131887.391 -101041.64 131741.524 -101006.62 131741.518 -101006.619 131736.711 -101005.465 131500 -100986.835 131263.289 -101005.465 131258.482 -101006.619 131258.476 -101006.62 131112.609 -101041.64 131032.406 -101060.895 131027.835 -101062.788 131027.833 -101062.789 130817.611 -101149.865 130817.607 -101149.867 130813.037 -101151.76 130808.817 -101154.346 130614.798 -101273.241 130614.792 -101273.245 130610.584 -101275.824 130430.031 -101430.031 130275.824 -101610.584 130273.245 -101614.792 130273.241 -101614.798 130223.923 -101695.278 130151.76 -101813.037 130060.895 -102032.406 130059.74 -102037.218 130014.484 -102225.724 130005.465 -102263.289 130005.077 -102268.223 130005.075 -102268.235 130002.283 -102303.702 129976.998 -102370.044 129919.859 -102412.183 129849.009 -102416.741 129786.942 -102382.271 129753.363 -102319.717 129751.061 -102303.706 129744.535 -102220.789 129689.105 -101989.906 129598.24 -101770.537 129552.121 -101695.278 129476.759 -101572.298 129476.755 -101572.292 129474.176 -101568.084 129319.969 -101387.531 129139.416 -101233.324 129135.201 -101230.741 129135.193 -101230.735 129018.665 -101159.326 128971.034 -101106.679 128958.5 -101051.894 128958.5 -97972.16 128978.502 -97904.039 129032.158 -97857.546 129102.432 -97847.442 129167.012 -97876.936 129173.595 -97883.065 129521.05 -98230.52 129526.904 -98236.785 129564.939 -98280.385 129571.157 -98284.755 129617.197 -98317.112 129622.493 -98321.045 129672.782 -98360.477 129679.704 -98363.602 129681.952 -98364.964 129696.685 -98373.368 129699.024 -98374.622 129705.239 -98378.99 129712.315 -98381.749 129712.319 -98381.751 129764.769 -98402.2 129770.834 -98404.749 129829.073 -98431.045 129836.538 -98432.429 129839.082 -98433.226 129855.348 -98437.859 129857.928 -98438.521 129865.009 -98441.282 129872.542 -98442.274 129872.543 -98442.274 129885.761 -98444.014 129928.357 -98449.622 129934.855 -98450.65 129997.687 -98462.296 130005.267 -98461.859 130005.268 -98461.859 130059.893 -98458.709 130067.147 -98458.5 134221.088 -98458.5 134229.658 -98458.792 134279.776 -98462.209 134279.78 -98462.209 134287.352 -98462.725 134294.829 -98461.42 134294.83 -98461.42 134321.308 -98456.799 134350.303 -98451.738 134356.821 -98450.777 134420.242 -98443.102 134427.343 -98440.419 134429.952 -98439.778 134446.262 -98435.315 134448.798 -98434.55 134456.284 -98433.243 134514.8 -98407.556 134520.904 -98405.065 134525.319 -98403.397 134580.656 -98382.487 134586.919 -98378.183 134589.285 -98376.946 134604.097 -98368.701 134606.351 -98367.368 134613.305 -98364.315 134664.002 -98325.413 134669.332 -98321.541 134715.72 -98289.661 134715.725 -98289.656 134721.981 -98285.357 134763.436 -98238.829 134768.416 -98233.554 135076.405 -97925.565 135138.717 -97891.539 135209.532 -97896.604 135266.368 -97939.151 135291.179 -98005.671 135291.5 -98014.66 135291.5 -101094.394 135271.498 -101162.515 135231.335 -101201.826 135114.807 -101273.235 135114.799 -101273.241 135110.584 -101275.824 134930.031 -101430.031 134775.824 -101610.584 134773.245 -101614.792 134773.241 -101614.798 134723.923 -101695.278 134651.76 -101813.037 134560.895 -102032.406 134559.74 -102037.218 134514.484 -102225.724 134505.465 -102263.289 134486.835 -102500 134505.465 -102736.711 134560.895 -102967.594 134651.76 -103186.963 134654.346 -103191.183 134773.241 -103385.202 134773.245 -103385.208 134775.824 -103389.416 134930.031 -103569.969 135110.584 -103724.176 135114.792 -103726.755 135114.798 -103726.759 135246.776 -103807.635 135313.037 -103848.24 135317.607 -103850.133 135317.611 -103850.135 135527.833 -103937.211 135532.406 -103939.105 135587.88 -103952.423 135758.476 -103993.38 135758.482 -103993.381 135763.289 -103994.535 136000 -104013.165 136236.711 -103994.535 136241.518 -103993.381 136241.524 -103993.38 136412.12 -103952.423 136467.594 -103939.105 136472.167 -103937.211 136682.389 -103850.135 136682.393 -103850.133 136686.963 -103848.24 136753.224 -103807.635 136885.202 -103726.759 136885.208 -103726.755 136889.416 -103724.176 137069.969 -103569.969 137224.176 -103389.416 137226.755 -103385.208 137226.759 -103385.202 137345.654 -103191.183 137348.24 -103186.963 137439.105 -102967.594 137494.535 -102736.711 137499.388 -102675.049 137524.674 -102608.708 137581.812 -102566.568 137652.662 -102562.009 137714.729 -102596.478 137748.309 -102659.032 137750.612 -102675.049 137755.465 -102736.711 137810.895 -102967.594 137901.76 -103186.963 137904.346 -103191.183 138023.241 -103385.202 138023.245 -103385.208 138025.824 -103389.416 138180.031 -103569.969 138360.584 -103724.176 138364.792 -103726.755 138364.798 -103726.759 138496.776 -103807.635 138563.037 -103848.24 138567.607 -103850.133 138567.611 -103850.135 138777.833 -103937.211 138782.406 -103939.105 138837.88 -103952.423 139008.476 -103993.38 139008.482 -103993.381 139013.289 -103994.535 139250 -104013.165 139486.711 -103994.535 139491.518 -103993.381 139491.524 -103993.38 139662.12 -103952.423 139717.594 -103939.105 139722.167 -103937.211 139932.389 -103850.135 139932.393 -103850.133 139936.963 -103848.24 140003.224 -103807.635 140135.202 -103726.759 140135.208 -103726.755 140139.416 -103724.176 140319.969 -103569.969 140474.176 -103389.416 140476.755 -103385.208 140476.759 -103385.202 140595.654 -103191.183 140598.24 -103186.963 140689.105 -102967.594 140744.535 -102736.711 140763.165 -102500 140744.535 -102263.289 140735.517 -102225.724 140690.26 -102037.218 140689.105 -102032.406 140598.24 -101813.037 140526.077 -101695.278 140476.759 -101614.798 140476.755 -101614.792 140474.176 -101610.584 140319.969 -101430.031 140139.416 -101275.824 140135.208 -101273.245 140135.202 -101273.241 139941.183 -101154.346 139936.963 -101151.76 139932.393 -101149.867 139932.389 -101149.865 139722.167 -101062.789 139722.165 -101062.788 139717.594 -101060.895 139637.391 -101041.64 139491.524 -101006.62 139491.518 -101006.619 139486.711 -101005.465 139250 -100986.835 139013.289 -101005.465 139008.482 -101006.619 139008.476 -101006.62 138862.609 -101041.64 138782.406 -101060.895 138777.835 -101062.788 138777.833 -101062.789 138567.611 -101149.865 138567.607 -101149.867 138563.037 -101151.76 138558.817 -101154.346 138364.798 -101273.241 138364.792 -101273.245 138360.584 -101275.824 138180.031 -101430.031 138025.824 -101610.584 138023.245 -101614.792 138023.241 -101614.798 137973.923 -101695.278 137901.76 -101813.037 137810.895 -102032.406 137809.74 -102037.218 137764.484 -102225.724 137755.465 -102263.289 137755.077 -102268.223 137750.612 -102324.951 137725.326 -102391.292 137668.188 -102433.432 137597.338 -102437.991 137535.271 -102403.522 137501.691 -102340.968 137499.388 -102324.951 137494.923 -102268.223 137494.535 -102263.289 137485.517 -102225.724 137440.26 -102037.218 137439.105 -102032.406 137348.24 -101813.037 137276.077 -101695.278 137226.759 -101614.798 137226.755 -101614.792 137224.176 -101610.584 137069.969 -101430.031 136889.416 -101275.824 136885.201 -101273.241 136885.193 -101273.235 136768.665 -101201.826 136721.034 -101149.179 136708.5 -101094.394 136708.5 -98014.66 136728.502 -97946.539 136782.158 -97900.046 136852.432 -97889.942 136917.012 -97919.436 136923.595 -97925.565 137228.55 -98230.52 137234.404 -98236.785 137272.439 -98280.385 137278.657 -98284.755 137324.697 -98317.112 137329.993 -98321.045 137380.282 -98360.477 137387.204 -98363.602 137389.452 -98364.964 137404.185 -98373.368 137406.524 -98374.622 137412.739 -98378.99 137419.815 -98381.749 137419.819 -98381.751 137472.269 -98402.2 137478.334 -98404.749 137536.573 -98431.045 137544.038 -98432.429 137546.582 -98433.226 137562.848 -98437.859 137565.428 -98438.521 137572.509 -98441.282 137580.042 -98442.274 137580.043 -98442.274 137593.261 -98444.014 137635.857 -98449.622 137642.355 -98450.65 137705.187 -98462.296 137712.767 -98461.859 137712.768 -98461.859 137767.398 -98458.709 137774.651 -98458.5 141971.088 -98458.5 141979.658 -98458.792 142029.776 -98462.209 142029.78 -98462.209 142037.352 -98462.725 142044.829 -98461.42 142044.83 -98461.42 142071.308 -98456.799 142100.303 -98451.738 142106.821 -98450.777 142170.242 -98443.102 142177.343 -98440.419 142179.952 -98439.778 142196.262 -98435.315 142198.798 -98434.55 142206.284 -98433.243 142264.8 -98407.556 142270.904 -98405.065 142275.319 -98403.397 142330.656 -98382.487 142336.919 -98378.183 142339.285 -98376.946 142354.097 -98368.701 142356.351 -98367.368 142363.305 -98364.315 142414.002 -98325.413 142419.332 -98321.541 142465.72 -98289.661 142465.725 -98289.656 142471.981 -98285.357 142513.436 -98238.829 142518.416 -98233.554 142826.405 -97925.565 142888.717 -97891.539 142959.532 -97896.604 143016.368 -97939.151 143041.179 -98005.671 143041.5 -98014.66 143041.5 -101094.394 143021.498 -101162.515 142981.335 -101201.826 142864.807 -101273.235 142864.799 -101273.241 142860.584 -101275.824 142680.031 -101430.031 142525.824 -101610.584 142523.245 -101614.792 142523.241 -101614.798 142473.923 -101695.278 142401.76 -101813.037 142310.895 -102032.406 142309.74 -102037.218 142264.484 -102225.724 142255.465 -102263.289 142236.835 -102500 142255.465 -102736.711 142310.895 -102967.594 142401.76 -103186.963 142404.346 -103191.183 142523.241 -103385.202 142523.245 -103385.208 142525.824 -103389.416 142680.031 -103569.969 142860.584 -103724.176 142864.792 -103726.755 142864.798 -103726.759 142996.776 -103807.635 143063.037 -103848.24 143067.607 -103850.133 143067.611 -103850.135 143277.833 -103937.211 143282.406 -103939.105 143337.88 -103952.423 143508.476 -103993.38 143508.482 -103993.381 143513.289 -103994.535 143750 -104013.165 143986.711 -103994.535 143991.518 -103993.381 143991.524 -103993.38 144162.12 -103952.423 144217.594 -103939.105 144222.167 -103937.211 144432.389 -103850.135 144432.393 -103850.133 144436.963 -103848.24 144503.224 -103807.635 144635.202 -103726.759 144635.208 -103726.755 144639.416 -103724.176 144819.969 -103569.969 144974.176 -103389.416 144976.755 -103385.208 144976.759 -103385.202 145095.654 -103191.183 145098.24 -103186.963 145189.105 -102967.594 145244.535 -102736.711 145249.388 -102675.049 145274.674 -102608.708 145331.812 -102566.568 145402.662 -102562.009 145464.729 -102596.478 145498.309 -102659.032 145500.612 -102675.049 145505.465 -102736.711 145560.895 -102967.594 145651.76 -103186.963 145654.346 -103191.183 145773.241 -103385.202 145773.245 -103385.208 145775.824 -103389.416 145930.031 -103569.969 146110.584 -103724.176 146114.792 -103726.755 146114.798 -103726.759 146246.776 -103807.635 146313.037 -103848.24 146317.607 -103850.133 146317.611 -103850.135 146527.833 -103937.211 146532.406 -103939.105 146587.88 -103952.423 146758.476 -103993.38 146758.482 -103993.381 146763.289 -103994.535 147000 -104013.165 147236.711 -103994.535 147241.518 -103993.381 147241.524 -103993.38 147412.12 -103952.423 147467.594 -103939.105 147472.167 -103937.211 147682.389 -103850.135 147682.393 -103850.133 147686.963 -103848.24 147753.224 -103807.635 147885.202 -103726.759 147885.208 -103726.755 147889.416 -103724.176 148069.969 -103569.969 148224.176 -103389.416 148226.755 -103385.208 148226.759 -103385.202 148345.654 -103191.183 148348.24 -103186.963 148439.105 -102967.594 148494.535 -102736.711 148513.165 -102500 148494.535 -102263.289 148485.517 -102225.724 148440.26 -102037.218 148439.105 -102032.406 148348.24 -101813.037 148276.077 -101695.278 148226.759 -101614.798 148226.755 -101614.792 148224.176 -101610.584 148069.969 -101430.031 147889.416 -101275.824 147885.208 -101273.245 147885.202 -101273.241 147691.183 -101154.346 147686.963 -101151.76 147682.393 -101149.867 147682.389 -101149.865 147472.167 -101062.789 147472.165 -101062.788 147467.594 -101060.895 147387.391 -101041.64 147241.524 -101006.62 147241.518 -101006.619 147236.711 -101005.465 147000 -100986.835 146763.289 -101005.465 146758.482 -101006.619 146758.476 -101006.62 146612.609 -101041.64 146532.406 -101060.895 146527.835 -101062.788 146527.833 -101062.789 146317.611 -101149.865 146317.607 -101149.867 146313.037 -101151.76 146308.817 -101154.346 146114.798 -101273.241 146114.792 -101273.245 146110.584 -101275.824 145930.031 -101430.031 145775.824 -101610.584 145773.245 -101614.792 145773.241 -101614.798 145723.923 -101695.278 145651.76 -101813.037 145560.895 -102032.406 145559.74 -102037.218 145514.484 -102225.724 145505.465 -102263.289 145505.077 -102268.223 145500.612 -102324.951 145475.326 -102391.292 145418.188 -102433.432 145347.338 -102437.991 145285.271 -102403.522 145251.691 -102340.968 145249.388 -102324.951 145244.923 -102268.223 145244.535 -102263.289 145235.517 -102225.724 145190.26 -102037.218 145189.105 -102032.406 145098.24 -101813.037 145026.077 -101695.278 144976.759 -101614.798 144976.755 -101614.792 144974.176 -101610.584 144819.969 -101430.031 144639.416 -101275.824 144635.201 -101273.241 144635.193 -101273.235 144518.665 -101201.826 144471.034 -101149.179 144458.5 -101094.394 144458.5 -98014.66 144478.502 -97946.539 144532.158 -97900.046 144602.432 -97889.942 144667.012 -97919.436 144673.595 -97925.565 144978.55 -98230.52 144984.404 -98236.785 145022.439 -98280.385 145028.657 -98284.755 145074.697 -98317.112 145079.993 -98321.045 145130.282 -98360.477 145137.204 -98363.602 145139.452 -98364.964 145154.185 -98373.368 145156.524 -98374.622 145162.739 -98378.99 145169.815 -98381.749 145169.819 -98381.751 145222.269 -98402.2 145228.334 -98404.749 145286.573 -98431.045 145294.038 -98432.429 145296.582 -98433.226 145312.848 -98437.859 145315.428 -98438.521 145322.509 -98441.282 145330.042 -98442.274 145330.043 -98442.274 145343.261 -98444.014 145385.857 -98449.622 145392.355 -98450.65 145455.187 -98462.296 145462.767 -98461.859 145462.768 -98461.859 145517.398 -98458.709 145524.651 -98458.5 149721.088 -98458.5 149729.658 -98458.792 149779.776 -98462.209 149779.78 -98462.209 149787.352 -98462.725 149794.829 -98461.42 149794.83 -98461.42 149821.308 -98456.799 149850.303 -98451.738 149856.821 -98450.777 149920.242 -98443.102 149927.343 -98440.419 149929.952 -98439.778 149946.262 -98435.315 149948.798 -98434.55 149956.284 -98433.243 150014.8 -98407.556 150020.904 -98405.065 150025.319 -98403.397 150080.656 -98382.487 150086.919 -98378.183 150089.285 -98376.946 150104.097 -98368.701 150106.351 -98367.368 150113.305 -98364.315 150164.002 -98325.413 150169.332 -98321.541 150215.72 -98289.661 150215.725 -98289.656 150221.981 -98285.357 150263.436 -98238.829 150268.416 -98233.554 150576.405 -97925.565 150638.717 -97891.539 150709.532 -97896.604 150766.368 -97939.151 150791.179 -98005.671 150791.5 -98014.66 150791.5 -101094.394 150771.498 -101162.515 150731.335 -101201.826 150614.807 -101273.235 150614.799 -101273.241 150610.584 -101275.824 150430.031 -101430.031 150275.824 -101610.584 150273.245 -101614.792 150273.241 -101614.798 150223.923 -101695.278 150151.76 -101813.037 150060.895 -102032.406 150059.74 -102037.218 150014.484 -102225.724 150005.465 -102263.289 149986.835 -102500 150005.465 -102736.711 150060.895 -102967.594 150151.76 -103186.963 150154.346 -103191.183 150273.241 -103385.202 150273.245 -103385.208 150275.824 -103389.416 150430.031 -103569.969 150610.584 -103724.176 150614.792 -103726.755 150614.798 -103726.759 150746.776 -103807.635 150813.037 -103848.24 150817.607 -103850.133 150817.611 -103850.135 151027.833 -103937.211 151032.406 -103939.105 151087.88 -103952.423 151258.476 -103993.38 151258.482 -103993.381 151263.289 -103994.535 151500 -104013.165 151736.711 -103994.535 151741.518 -103993.381 151741.524 -103993.38 151912.12 -103952.423 151967.594 -103939.105 151972.167 -103937.211 152182.389 -103850.135 152182.393 -103850.133 152186.963 -103848.24 152253.224 -103807.635 152385.202 -103726.759 152385.208 -103726.755 152389.416 -103724.176 152569.969 -103569.969 152724.176 -103389.416 152726.755 -103385.208 152726.759 -103385.202 152845.654 -103191.183 152848.24 -103186.963 152939.105 -102967.594 152994.535 -102736.711 152999.388 -102675.049 153024.674 -102608.708 153081.812 -102566.568 153152.662 -102562.009 153214.729 -102596.478 153248.309 -102659.032 153250.612 -102675.049 153255.465 -102736.711 153310.895 -102967.594 153401.76 -103186.963 153404.346 -103191.183 153523.241 -103385.202 153523.245 -103385.208 153525.824 -103389.416 153680.031 -103569.969 153860.584 -103724.176 153864.792 -103726.755 153864.798 -103726.759 153996.776 -103807.635 154063.037 -103848.24 154067.607 -103850.133 154067.611 -103850.135 154277.833 -103937.211 154282.406 -103939.105 154337.88 -103952.423 154508.476 -103993.38 154508.482 -103993.381 154513.289 -103994.535 154750 -104013.165 154986.711 -103994.535 154991.518 -103993.381 154991.524 -103993.38 155162.12 -103952.423 155217.594 -103939.105 155222.167 -103937.211 155432.389 -103850.135 155432.393 -103850.133 155436.963 -103848.24 155503.224 -103807.635 155635.202 -103726.759 155635.208 -103726.755 155639.416 -103724.176 155819.969 -103569.969 155974.176 -103389.416 155976.755 -103385.208 155976.759 -103385.202 156095.654 -103191.183 156098.24 -103186.963 156189.105 -102967.594 156244.535 -102736.711 156263.165 -102500 156244.535 -102263.289 156235.517 -102225.724 156190.26 -102037.218 156189.105 -102032.406 156098.24 -101813.037 156026.077 -101695.278 155976.759 -101614.798 155976.755 -101614.792 155974.176 -101610.584 155819.969 -101430.031 155639.416 -101275.824 155635.208 -101273.245 155635.202 -101273.241 155441.183 -101154.346 155436.963 -101151.76 155432.393 -101149.867 155432.389 -101149.865 155222.167 -101062.789 155222.165 -101062.788 155217.594 -101060.895 155137.391 -101041.64 154991.524 -101006.62 154991.518 -101006.619 154986.711 -101005.465 154750 -100986.835 154513.289 -101005.465 154508.482 -101006.619 154508.476 -101006.62 154362.609 -101041.64 154282.406 -101060.895 154277.835 -101062.788 154277.833 -101062.789 154067.611 -101149.865 154067.607 -101149.867 154063.037 -101151.76 154058.817 -101154.346 153864.798 -101273.241 153864.792 -101273.245 153860.584 -101275.824 153680.031 -101430.031 153525.824 -101610.584 153523.245 -101614.792 153523.241 -101614.798 153473.923 -101695.278 153401.76 -101813.037 153310.895 -102032.406 153309.74 -102037.218 153264.484 -102225.724 153255.465 -102263.289 153255.077 -102268.223 153250.612 -102324.951 153225.326 -102391.292 153168.188 -102433.432 153097.338 -102437.991 153035.271 -102403.522 153001.691 -102340.968 152999.388 -102324.951 152994.923 -102268.223 152994.535 -102263.289 152985.517 -102225.724 152940.26 -102037.218 152939.105 -102032.406 152848.24 -101813.037 152776.077 -101695.278 152726.759 -101614.798 152726.755 -101614.792 152724.176 -101610.584 152569.969 -101430.031 152389.416 -101275.824 152385.201 -101273.241 152385.193 -101273.235 152268.665 -101201.826 152221.034 -101149.179 152208.5 -101094.394 152208.5 -98014.66 152228.502 -97946.539 152282.158 -97900.046 152352.432 -97889.942 152417.012 -97919.436 152423.595 -97925.565 152728.55 -98230.52 152734.404 -98236.785 152772.439 -98280.385 152778.657 -98284.755 152824.697 -98317.112 152829.993 -98321.045 152880.282 -98360.477 152887.204 -98363.602 152889.452 -98364.964 152904.185 -98373.368 152906.524 -98374.622 152912.739 -98378.99 152919.815 -98381.749 152919.819 -98381.751 152972.269 -98402.2 152978.334 -98404.749 153036.573 -98431.045 153044.038 -98432.429 153046.582 -98433.226 153062.848 -98437.859 153065.428 -98438.521 153072.509 -98441.282 153080.042 -98442.274 153080.043 -98442.274 153093.261 -98444.014 153135.857 -98449.622 153142.355 -98450.65 153205.187 -98462.296 153212.767 -98461.859 153212.768 -98461.859 153267.398 -98458.709 153274.651 -98458.5 157471.088 -98458.5 157479.658 -98458.792 157529.776 -98462.209 157529.78 -98462.209 157537.352 -98462.725 157544.829 -98461.42 157544.83 -98461.42 157571.308 -98456.799 157600.303 -98451.738 157606.821 -98450.777 157670.242 -98443.102 157677.343 -98440.419 157679.952 -98439.778 157696.262 -98435.315 157698.798 -98434.55 157706.284 -98433.243 157764.8 -98407.556 157770.904 -98405.065 157775.319 -98403.397 157830.656 -98382.487 157836.919 -98378.183 157839.285 -98376.946 157854.097 -98368.701 157856.351 -98367.368 157863.305 -98364.315 157914.002 -98325.413 157919.332 -98321.541 157965.72 -98289.661 157965.725 -98289.656 157971.981 -98285.357 158013.436 -98238.829 158018.416 -98233.554 158326.405 -97925.565 158388.717 -97891.539 158459.532 -97896.604 158516.368 -97939.151 158541.179 -98005.671 158541.5 -98014.66 158541.5 -101094.394 158521.498 -101162.515 158481.335 -101201.826 158364.807 -101273.235 158364.799 -101273.241 158360.584 -101275.824 158180.031 -101430.031 158025.824 -101610.584 158023.245 -101614.792 158023.241 -101614.798 157973.923 -101695.278 157901.76 -101813.037 157810.895 -102032.406 157809.74 -102037.218 157764.484 -102225.724 157755.465 -102263.289 157736.835 -102500 157755.465 -102736.711 157810.895 -102967.594 157901.76 -103186.963 157904.346 -103191.183 158023.241 -103385.202 158023.245 -103385.208 158025.824 -103389.416 158180.031 -103569.969 158360.584 -103724.176 158364.792 -103726.755 158364.798 -103726.759 158496.776 -103807.635 158563.037 -103848.24 158567.607 -103850.133 158567.611 -103850.135 158777.833 -103937.211 158782.406 -103939.105 158837.88 -103952.423 159008.476 -103993.38 159008.482 -103993.381 159013.289 -103994.535 159250 -104013.165 159486.711 -103994.535 159491.518 -103993.381 159491.524 -103993.38 159662.12 -103952.423 159717.594 -103939.105 159722.167 -103937.211 159932.389 -103850.135 159932.393 -103850.133 159936.963 -103848.24 160003.224 -103807.635 160135.202 -103726.759 160135.208 -103726.755 160139.416 -103724.176 160319.969 -103569.969 160474.176 -103389.416 160476.755 -103385.208 160476.759 -103385.202 160595.654 -103191.183 160598.24 -103186.963 160689.105 -102967.594 160744.535 -102736.711 160749.388 -102675.049 160774.674 -102608.708 160831.812 -102566.568 160902.662 -102562.009 160964.729 -102596.478 160998.309 -102659.032 161000.612 -102675.049 161005.465 -102736.711 161060.895 -102967.594 161151.76 -103186.963 161154.346 -103191.183 161273.241 -103385.202 161273.245 -103385.208 161275.824 -103389.416 161430.031 -103569.969 161610.584 -103724.176 161614.792 -103726.755 161614.798 -103726.759 161746.776 -103807.635 161813.037 -103848.24 161817.607 -103850.133 161817.611 -103850.135 162027.833 -103937.211 162032.406 -103939.105 162087.88 -103952.423 162258.476 -103993.38 162258.482 -103993.381 162263.289 -103994.535 162500 -104013.165 162736.711 -103994.535 162741.518 -103993.381 162741.524 -103993.38 162912.12 -103952.423 162967.594 -103939.105 162972.167 -103937.211 163182.389 -103850.135 163182.393 -103850.133 163186.963 -103848.24 163253.224 -103807.635 163385.202 -103726.759 163385.208 -103726.755 163389.416 -103724.176 163569.969 -103569.969 163724.176 -103389.416 163726.755 -103385.208 163726.759 -103385.202 163845.654 -103191.183 163848.24 -103186.963 163939.105 -102967.594 163994.535 -102736.711 164013.165 -102500 163994.535 -102263.289 163985.517 -102225.724 163940.26 -102037.218 163939.105 -102032.406 163848.24 -101813.037 163776.077 -101695.278 163726.759 -101614.798 163726.755 -101614.792 163724.176 -101610.584 163569.969 -101430.031 163389.416 -101275.824 163385.208 -101273.245 163385.202 -101273.241 163191.183 -101154.346 163186.963 -101151.76 163182.393 -101149.867 163182.389 -101149.865 162972.167 -101062.789 162972.165 -101062.788 162967.594 -101060.895 162887.391 -101041.64 162741.524 -101006.62 162741.518 -101006.619 162736.711 -101005.465 162500 -100986.835 162263.289 -101005.465 162258.482 -101006.619 162258.476 -101006.62 162112.609 -101041.64 162032.406 -101060.895 162027.835 -101062.788 162027.833 -101062.789 161817.611 -101149.865 161817.607 -101149.867 161813.037 -101151.76 161808.817 -101154.346 161614.798 -101273.241 161614.792 -101273.245 161610.584 -101275.824 161430.031 -101430.031 161275.824 -101610.584 161273.245 -101614.792 161273.241 -101614.798 161223.923 -101695.278 161151.76 -101813.037 161060.895 -102032.406 161059.74 -102037.218 161014.484 -102225.724 161005.465 -102263.289 161005.077 -102268.223 161000.612 -102324.951 160975.326 -102391.292 160918.188 -102433.432 160847.338 -102437.991 160785.271 -102403.522 160751.691 -102340.968 160749.388 -102324.951 160744.923 -102268.223 160744.535 -102263.289 160735.517 -102225.724 160690.26 -102037.218 160689.105 -102032.406 160598.24 -101813.037 160526.077 -101695.278 160476.759 -101614.798 160476.755 -101614.792 160474.176 -101610.584 160319.969 -101430.031 160139.416 -101275.824 160135.201 -101273.241 160135.193 -101273.235 160018.665 -101201.826 159971.034 -101149.179 159958.5 -101094.394 159958.5 -98014.66 159978.502 -97946.539 160032.158 -97900.046 160102.432 -97889.942 160167.012 -97919.436 160173.595 -97925.565 160478.55 -98230.52 160484.404 -98236.785 160522.439 -98280.385 160528.657 -98284.755 160574.697 -98317.112 160579.993 -98321.045 160630.282 -98360.477 160637.204 -98363.602 160639.452 -98364.964 160654.185 -98373.368 160656.524 -98374.622 160662.739 -98378.99 160669.815 -98381.749 160669.819 -98381.751 160722.269 -98402.2 160728.334 -98404.749 160786.573 -98431.045 160794.038 -98432.429 160796.582 -98433.226 160812.848 -98437.859 160815.428 -98438.521 160822.509 -98441.282 160830.042 -98442.274 160830.043 -98442.274 160843.261 -98444.014 160885.857 -98449.622 160892.355 -98450.65 160955.187 -98462.296 160962.767 -98461.859 160962.768 -98461.859 161017.398 -98458.709 161024.651 -98458.5 165221.088 -98458.5 165229.658 -98458.792 165279.776 -98462.209 165279.78 -98462.209 165287.352 -98462.725 165294.829 -98461.42 165294.83 -98461.42 165321.308 -98456.799 165350.303 -98451.738 165356.821 -98450.777 165420.242 -98443.102 165427.343 -98440.419 165429.952 -98439.778 165446.262 -98435.315 165448.798 -98434.55 165456.284 -98433.243 165514.8 -98407.556 165520.904 -98405.065 165525.319 -98403.397 165580.656 -98382.487 165586.919 -98378.183 165589.285 -98376.946 165604.097 -98368.701 165606.351 -98367.368 165613.305 -98364.315 165664.002 -98325.413 165669.332 -98321.541 165715.72 -98289.661 165715.725 -98289.656 165721.981 -98285.357 165763.436 -98238.829 165768.416 -98233.554 166076.405 -97925.565 166138.717 -97891.539 166209.532 -97896.604 166266.368 -97939.151 166291.179 -98005.671 166291.5 -98014.66 166291.5 -101094.394 166271.498 -101162.515 166231.335 -101201.826 166114.807 -101273.235 166114.799 -101273.241 166110.584 -101275.824 165930.031 -101430.031 165775.824 -101610.584 165773.245 -101614.792 165773.241 -101614.798 165723.923 -101695.278 165651.76 -101813.037 165560.895 -102032.406 165559.74 -102037.218 165514.484 -102225.724 165505.465 -102263.289 165486.835 -102500 165505.465 -102736.711 165560.895 -102967.594 165651.76 -103186.963 165654.346 -103191.183 165773.241 -103385.202 165773.245 -103385.208 165775.824 -103389.416 165930.031 -103569.969 166110.584 -103724.176 166114.792 -103726.755 166114.798 -103726.759 166246.776 -103807.635 166313.037 -103848.24 166317.607 -103850.133 166317.611 -103850.135 166527.833 -103937.211 166532.406 -103939.105 166587.88 -103952.423 166758.476 -103993.38 166758.482 -103993.381 166763.289 -103994.535 167000 -104013.165 167236.711 -103994.535 167241.518 -103993.381 167241.524 -103993.38 167412.12 -103952.423 167467.594 -103939.105 167472.167 -103937.211 167682.389 -103850.135 167682.393 -103850.133 167686.963 -103848.24 167753.224 -103807.635 167885.202 -103726.759 167885.208 -103726.755 167889.416 -103724.176 168069.969 -103569.969 168224.176 -103389.416 168226.755 -103385.208 168226.759 -103385.202 168345.654 -103191.183 168348.24 -103186.963 168439.105 -102967.594 168494.535 -102736.711 168499.388 -102675.049 168524.674 -102608.708 168581.812 -102566.568 168652.662 -102562.009 168714.729 -102596.478 168748.309 -102659.032 168750.612 -102675.049 168755.465 -102736.711 168810.895 -102967.594 168901.76 -103186.963 168904.346 -103191.183 169023.241 -103385.202 169023.245 -103385.208 169025.824 -103389.416 169180.031 -103569.969 169360.584 -103724.176 169364.792 -103726.755 169364.798 -103726.759 169496.776 -103807.635 169563.037 -103848.24 169567.607 -103850.133 169567.611 -103850.135 169777.833 -103937.211 169782.406 -103939.105 169837.88 -103952.423 170008.476 -103993.38 170008.482 -103993.381 170013.289 -103994.535 170250 -104013.165 170486.711 -103994.535 170491.518 -103993.381 170491.524 -103993.38 170662.12 -103952.423 170717.594 -103939.105 170722.167 -103937.211 170932.389 -103850.135 170932.393 -103850.133 170936.963 -103848.24 171003.224 -103807.635 171135.202 -103726.759 171135.208 -103726.755 171139.416 -103724.176 171319.969 -103569.969 171474.176 -103389.416 171476.755 -103385.208 171476.759 -103385.202 171595.654 -103191.183 171598.24 -103186.963 171689.105 -102967.594 171744.535 -102736.711 171763.165 -102500 171744.535 -102263.289 171735.517 -102225.724 171690.26 -102037.218 171689.105 -102032.406 171598.24 -101813.037 171526.077 -101695.278 171476.759 -101614.798 171476.755 -101614.792 171474.176 -101610.584 171319.969 -101430.031 171139.416 -101275.824 171135.208 -101273.245 171135.202 -101273.241 170941.183 -101154.346 170936.963 -101151.76 170932.393 -101149.867 170932.389 -101149.865 170722.167 -101062.789 170722.165 -101062.788 170717.594 -101060.895 170637.391 -101041.64 170491.524 -101006.62 170491.518 -101006.619 170486.711 -101005.465 170250 -100986.835 170013.289 -101005.465 170008.482 -101006.619 170008.476 -101006.62 169862.609 -101041.64 169782.406 -101060.895 169777.835 -101062.788 169777.833 -101062.789 169567.611 -101149.865 169567.607 -101149.867 169563.037 -101151.76 169558.817 -101154.346 169364.798 -101273.241 169364.792 -101273.245 169360.584 -101275.824 169180.031 -101430.031 169025.824 -101610.584 169023.245 -101614.792 169023.241 -101614.798 168973.923 -101695.278 168901.76 -101813.037 168810.895 -102032.406 168809.74 -102037.218 168764.484 -102225.724 168755.465 -102263.289 168755.077 -102268.223 168750.612 -102324.951 168725.326 -102391.292 168668.188 -102433.432 168597.338 -102437.991 168535.271 -102403.522 168501.691 -102340.968 168499.388 -102324.951 168494.923 -102268.223 168494.535 -102263.289 168485.517 -102225.724 168440.26 -102037.218 168439.105 -102032.406 168348.24 -101813.037 168276.077 -101695.278 168226.759 -101614.798 168226.755 -101614.792 168224.176 -101610.584 168069.969 -101430.031 167889.416 -101275.824 167885.201 -101273.241 167885.193 -101273.235 167768.665 -101201.826 167721.034 -101149.179 167708.5 -101094.394 167708.5 -98014.66 167728.502 -97946.539 167782.158 -97900.046 167852.432 -97889.942 167917.012 -97919.436 167923.595 -97925.565 168228.55 -98230.52 168234.404 -98236.785 168272.439 -98280.385 168278.657 -98284.755 168324.697 -98317.112 168329.993 -98321.045 168380.282 -98360.477 168387.204 -98363.602 168389.452 -98364.964 168404.185 -98373.368 168406.524 -98374.622 168412.739 -98378.99 168419.815 -98381.749 168419.819 -98381.751 168472.269 -98402.2 168478.334 -98404.749 168536.573 -98431.045 168544.038 -98432.429 168546.582 -98433.226 168562.848 -98437.859 168565.428 -98438.521 168572.509 -98441.282 168580.042 -98442.274 168580.043 -98442.274 168593.261 -98444.014 168635.857 -98449.622 168642.355 -98450.65 168705.187 -98462.296 168712.767 -98461.859 168712.768 -98461.859 168767.398 -98458.709 168774.651 -98458.5 172971.088 -98458.5 172979.658 -98458.792 173029.776 -98462.209 173029.78 -98462.209 173037.352 -98462.725 173044.829 -98461.42 173044.83 -98461.42 173071.308 -98456.799 173100.303 -98451.738 173106.821 -98450.777 173170.242 -98443.102 173177.343 -98440.419 173179.952 -98439.778 173196.262 -98435.315 173198.798 -98434.55 173206.284 -98433.243 173264.8 -98407.556 173270.904 -98405.065 173275.319 -98403.397 173330.656 -98382.487 173336.919 -98378.183 173339.285 -98376.946 173354.097 -98368.701 173356.351 -98367.368 173363.305 -98364.315 173414.002 -98325.413 173419.332 -98321.541 173465.72 -98289.661 173465.725 -98289.656 173471.981 -98285.357 173513.436 -98238.829 173518.416 -98233.554 173826.405 -97925.565 173888.717 -97891.539 173959.532 -97896.604 174016.368 -97939.151 174041.179 -98005.671 174041.5 -98014.66 174041.5 -101094.394 174021.498 -101162.515 173981.335 -101201.826 173864.807 -101273.235 173864.799 -101273.241 173860.584 -101275.824 173680.031 -101430.031 173525.824 -101610.584 173523.245 -101614.792 173523.241 -101614.798 173473.923 -101695.278 173401.76 -101813.037 173310.895 -102032.406 173309.74 -102037.218 173264.484 -102225.724 173255.465 -102263.289 173236.835 -102500 173255.465 -102736.711 173310.895 -102967.594 173401.76 -103186.963 173404.346 -103191.183 173523.241 -103385.202 173523.245 -103385.208 173525.824 -103389.416 173680.031 -103569.969 173860.584 -103724.176 173864.792 -103726.755 173864.798 -103726.759 173996.776 -103807.635 174063.037 -103848.24 174067.607 -103850.133 174067.611 -103850.135 174277.833 -103937.211 174282.406 -103939.105 174337.88 -103952.423 174508.476 -103993.38 174508.482 -103993.381 174513.289 -103994.535 174750 -104013.165 174986.711 -103994.535 174991.518 -103993.381 174991.524 -103993.38 175162.12 -103952.423 175217.594 -103939.105 175222.167 -103937.211 175432.389 -103850.135 175432.393 -103850.133 175436.963 -103848.24 175503.224 -103807.635 175635.202 -103726.759 175635.208 -103726.755 175639.416 -103724.176 175819.969 -103569.969 175974.176 -103389.416 175976.755 -103385.208 175976.759 -103385.202 176095.654 -103191.183 176098.24 -103186.963 176189.105 -102967.594 176244.535 -102736.711 176249.388 -102675.049 176274.674 -102608.708 176331.812 -102566.568 176402.662 -102562.009 176464.729 -102596.478 176498.309 -102659.032 176500.612 -102675.049 176505.465 -102736.711 176560.895 -102967.594 176651.76 -103186.963 176654.346 -103191.183 176773.241 -103385.202 176773.245 -103385.208 176775.824 -103389.416 176930.031 -103569.969 177110.584 -103724.176 177114.792 -103726.755 177114.798 -103726.759 177246.776 -103807.635 177313.037 -103848.24 177317.607 -103850.133 177317.611 -103850.135 177527.833 -103937.211 177532.406 -103939.105 177587.88 -103952.423 177758.476 -103993.38 177758.482 -103993.381 177763.289 -103994.535 178000 -104013.165 178236.711 -103994.535 178241.518 -103993.381 178241.524 -103993.38 178412.12 -103952.423 178467.594 -103939.105 178472.167 -103937.211 178682.389 -103850.135 178682.393 -103850.133 178686.963 -103848.24 178753.224 -103807.635 178885.202 -103726.759 178885.208 -103726.755 178889.416 -103724.176 179069.969 -103569.969 179224.176 -103389.416 179226.755 -103385.208 179226.759 -103385.202 179345.654 -103191.183 179348.24 -103186.963 179439.105 -102967.594 179494.535 -102736.711 179513.165 -102500 179494.535 -102263.289 179485.517 -102225.724 179440.26 -102037.218 179439.105 -102032.406 179348.24 -101813.037 179276.077 -101695.278 179226.759 -101614.798 179226.755 -101614.792 179224.176 -101610.584 179069.969 -101430.031 178889.416 -101275.824 178885.208 -101273.245 178885.202 -101273.241 178691.183 -101154.346 178686.963 -101151.76 178682.393 -101149.867 178682.389 -101149.865 178472.167 -101062.789 178472.165 -101062.788 178467.594 -101060.895 178387.391 -101041.64 178241.524 -101006.62 178241.518 -101006.619 178236.711 -101005.465 178000 -100986.835 177763.289 -101005.465 177758.482 -101006.619 177758.476 -101006.62 177612.609 -101041.64 177532.406 -101060.895 177527.835 -101062.788 177527.833 -101062.789 177317.611 -101149.865 177317.607 -101149.867 177313.037 -101151.76 177308.817 -101154.346 177114.798 -101273.241 177114.792 -101273.245 177110.584 -101275.824 176930.031 -101430.031 176775.824 -101610.584 176773.245 -101614.792 176773.241 -101614.798 176723.923 -101695.278 176651.76 -101813.037 176560.895 -102032.406 176559.74 -102037.218 176514.484 -102225.724 176505.465 -102263.289 176505.077 -102268.223 176500.612 -102324.951 176475.326 -102391.292 176418.188 -102433.432 176347.338 -102437.991 176285.271 -102403.522 176251.691 -102340.968 176249.388 -102324.951 176244.923 -102268.223 176244.535 -102263.289 176235.517 -102225.724 176190.26 -102037.218 176189.105 -102032.406 176098.24 -101813.037 176026.077 -101695.278 175976.759 -101614.798 175976.755 -101614.792 175974.176 -101610.584 175819.969 -101430.031 175639.416 -101275.824 175635.201 -101273.241 175635.193 -101273.235 175518.665 -101201.826 175471.034 -101149.179 175458.5 -101094.394 175458.5 -98014.66 175478.502 -97946.539 175532.158 -97900.046 175602.432 -97889.942 175667.012 -97919.436 175673.595 -97925.565 175978.55 -98230.52 175984.404 -98236.785 176022.439 -98280.385 176028.657 -98284.755 176074.697 -98317.112 176079.993 -98321.045 176130.282 -98360.477 176137.204 -98363.602 176139.452 -98364.964 176154.185 -98373.368 176156.524 -98374.622 176162.739 -98378.99 176169.815 -98381.749 176169.819 -98381.751 176222.269 -98402.2 176228.334 -98404.749 176286.573 -98431.045 176294.038 -98432.429 176296.582 -98433.226 176312.848 -98437.859 176315.428 -98438.521 176322.509 -98441.282 176330.042 -98442.274 176330.043 -98442.274 176343.261 -98444.014 176385.857 -98449.622 176392.355 -98450.65 176455.187 -98462.296 176462.767 -98461.859 176462.768 -98461.859 176517.398 -98458.709 176524.651 -98458.5 180721.088 -98458.5 180729.658 -98458.792 180779.776 -98462.209 180779.78 -98462.209 180787.352 -98462.725 180794.829 -98461.42 180794.83 -98461.42 180821.308 -98456.799 180850.303 -98451.738 180856.821 -98450.777 180920.242 -98443.102 180927.343 -98440.419 180929.952 -98439.778 180946.262 -98435.315 180948.798 -98434.55 180956.284 -98433.243 181014.8 -98407.556 181020.904 -98405.065 181025.319 -98403.397 181080.656 -98382.487 181086.919 -98378.183 181089.285 -98376.946 181104.097 -98368.701 181106.351 -98367.368 181113.305 -98364.315 181164.002 -98325.413 181169.332 -98321.541 181215.72 -98289.661 181215.725 -98289.656 181221.981 -98285.357 181263.436 -98238.829 181268.416 -98233.554 181576.405 -97925.565 181638.717 -97891.539 181709.532 -97896.604 181766.368 -97939.151 181791.179 -98005.671 181791.5 -98014.66 181791.5 -101094.394 181771.498 -101162.515 181731.335 -101201.826 181614.807 -101273.235 181614.799 -101273.241 181610.584 -101275.824 181430.031 -101430.031 181275.824 -101610.584 181273.245 -101614.792 181273.241 -101614.798 181223.923 -101695.278 181151.76 -101813.037 181060.895 -102032.406 181059.74 -102037.218 181014.484 -102225.724 181005.465 -102263.289 180986.835 -102500 181005.465 -102736.711 181060.895 -102967.594 181151.76 -103186.963 181154.346 -103191.183 181273.241 -103385.202 181273.245 -103385.208 181275.824 -103389.416 181430.031 -103569.969 181610.584 -103724.176 181614.792 -103726.755 181614.798 -103726.759 181746.776 -103807.635 181813.037 -103848.24 181817.607 -103850.133 181817.611 -103850.135 182027.833 -103937.211 182032.406 -103939.105 182087.88 -103952.423 182258.476 -103993.38 182258.482 -103993.381 182263.289 -103994.535 182500 -104013.165 182736.711 -103994.535 182741.518 -103993.381 182741.524 -103993.38 182912.12 -103952.423 182967.594 -103939.105 182972.167 -103937.211 183182.389 -103850.135 183182.393 -103850.133 183186.963 -103848.24 183253.224 -103807.635 183385.202 -103726.759 183385.208 -103726.755 183389.416 -103724.176 183569.969 -103569.969 183724.176 -103389.416 183758.067 -103334.111 183810.715 -103286.48 183880.756 -103274.873 183945.954 -103302.976 183985.608 -103361.867 183991.5 -103399.946 183991.5 -111865.5 183971.498 -111933.621 183917.842 -111980.114 183865.5 -111991.5 122384.5 -111991.5 122316.379 -111971.498 122269.886 -111917.842 122258.5 -111865.5 122258.5 -111144.669 128642.001 -111144.669 128642.371 -111151.49 128647.895 -111202.352 128651.521 -111217.604 128696.676 -111338.054 128705.214 -111353.649 128781.715 -111455.724 128794.276 -111468.285 128896.351 -111544.786 128911.946 -111553.324 129032.394 -111598.478 129047.649 -111602.105 129098.514 -111607.631 129105.328 -111608 129727.885 -111608 129743.124 -111603.525 129744.329 -111602.135 129746 -111594.452 129746 -111589.884 130254 -111589.884 130258.475 -111605.123 130259.865 -111606.328 130267.548 -111607.999 130894.669 -111607.999 130901.49 -111607.629 130952.352 -111602.105 130967.604 -111598.479 131088.054 -111553.324 131103.649 -111544.786 131205.724 -111468.285 131218.285 -111455.724 131294.786 -111353.649 131303.324 -111338.054 131344.225 -111228.952 131386.867 -111172.188 131453.428 -111147.488 131522.777 -111162.696 131557.444 -111190.684 131582.865 -111220.031 131582.869 -111220.035 131586.25 -111223.938 131758.126 -111366.632 131951 -111479.338 132159.692 -111559.03 132164.76 -111560.061 132164.763 -111560.062 132272.017 -111581.883 132378.597 -111603.567 132383.772 -111603.757 132383.774 -111603.757 132596.673 -111611.564 132596.677 -111611.564 132601.837 -111611.753 132606.957 -111611.097 132606.959 -111611.097 132818.288 -111584.025 132818.289 -111584.025 132823.416 -111583.368 132828.366 -111581.883 133032.429 -111520.661 133032.434 -111520.659 133037.384 -111519.174 133237.994 -111420.896 133419.86 -111291.173 133578.096 -111133.489 133708.453 -110952.077 133709.776 -110953.028 133756.645 -110909.857 133826.58 -110897.625 133892.026 -110925.144 133919.875 -110956.994 133979.987 -111055.088 134126.25 -111223.938 134298.126 -111366.632 134491 -111479.338 134699.692 -111559.03 134704.76 -111560.061 134704.763 -111560.062 134812.017 -111581.883 134918.597 -111603.567 134923.772 -111603.757 134923.774 -111603.757 135136.673 -111611.564 135136.677 -111611.564 135141.837 -111611.753 135146.957 -111611.097 135146.959 -111611.097 135358.288 -111584.025 135358.289 -111584.025 135363.416 -111583.368 135368.366 -111581.883 135572.429 -111520.661 135572.434 -111520.659 135577.384 -111519.174 135777.994 -111420.896 135959.86 -111291.173 136118.096 -111133.489 136248.453 -110952.077 136249.776 -110953.028 136296.645 -110909.857 136366.58 -110897.625 136432.026 -110925.144 136459.875 -110956.994 136519.987 -111055.088 136666.25 -111223.938 136838.126 -111366.632 137031 -111479.338 137239.692 -111559.03 137244.76 -111560.061 137244.763 -111560.062 137352.017 -111581.883 137458.597 -111603.567 137463.772 -111603.757 137463.774 -111603.757 137676.673 -111611.564 137676.677 -111611.564 137681.837 -111611.753 137686.957 -111611.097 137686.959 -111611.097 137898.288 -111584.025 137898.289 -111584.025 137903.416 -111583.368 137908.366 -111581.883 138112.429 -111520.661 138112.434 -111520.659 138117.384 -111519.174 138317.994 -111420.896 138499.86 -111291.173 138646.877 -111144.669 146692.001 -111144.669 146692.371 -111151.49 146697.895 -111202.352 146701.521 -111217.604 146746.676 -111338.054 146755.214 -111353.649 146831.715 -111455.724 146844.276 -111468.285 146946.351 -111544.786 146961.946 -111553.324 147082.394 -111598.478 147097.649 -111602.105 147148.514 -111607.631 147155.328 -111608 147777.885 -111608 147793.124 -111603.525 147794.329 -111602.135 147796 -111594.452 147796 -110522.115 147791.525 -110506.876 147790.135 -110505.671 147782.452 -110504 146710.116 -110504 146694.877 -110508.475 146693.672 -110509.865 146692.001 -110517.548 146692.001 -111144.669 138646.877 -111144.669 138658.096 -111133.489 138788.453 -110952.077 138809.32 -110909.857 138885.136 -110756.453 138885.137 -110756.451 138887.43 -110751.811 138952.37 -110538.069 138981.529 -110316.59 138983.156 -110250 138964.852 -110027.361 138910.431 -109810.702 138821.354 -109605.84 138783.324 -109547.054 138709.645 -109433.163 138689.438 -109365.102 138709.234 -109296.922 138726.342 -109275.628 138756.565 -109245.405 138818.877 -109211.379 138845.66 -109208.5 146567.15 -109208.5 146635.271 -109228.502 146681.764 -109282.158 146691.926 -109345.083 146692.553 -109345.117 146692.397 -109347.998 146692.414 -109348.103 146692.369 -109348.52 146692 -109355.328 146692 -109977.885 146696.475 -109993.124 146697.865 -109994.329 146705.548 -109996 148178 -109996 148246.121 -110016.002 148292.614 -110069.658 148304 -110122 148304 -111589.884 148308.475 -111605.123 148309.865 -111606.328 148317.548 -111607.999 148944.669 -111607.999 148951.49 -111607.629 149002.352 -111602.105 149017.604 -111598.479 149138.054 -111553.324 149153.649 -111544.786 149255.724 -111468.285 149268.285 -111455.724 149344.786 -111353.649 149353.324 -111338.054 149394.225 -111228.952 149436.867 -111172.188 149503.428 -111147.488 149572.777 -111162.696 149607.444 -111190.684 149632.865 -111220.031 149632.869 -111220.035 149636.25 -111223.938 149808.126 -111366.632 150001 -111479.338 150209.692 -111559.03 150214.76 -111560.061 150214.763 -111560.062 150322.017 -111581.883 150428.597 -111603.567 150433.772 -111603.757 150433.774 -111603.757 150646.673 -111611.564 150646.677 -111611.564 150651.837 -111611.753 150656.957 -111611.097 150656.959 -111611.097 150868.288 -111584.025 150868.289 -111584.025 150873.416 -111583.368 150878.366 -111581.883 151082.429 -111520.661 151082.434 -111520.659 151087.384 -111519.174 151287.994 -111420.896 151469.86 -111291.173 151628.096 -111133.489 151758.453 -110952.077 151759.776 -110953.028 151806.645 -110909.857 151876.58 -110897.625 151942.026 -110925.144 151969.875 -110956.994 152029.987 -111055.088 152176.25 -111223.938 152348.126 -111366.632 152541 -111479.338 152749.692 -111559.03 152754.76 -111560.061 152754.763 -111560.062 152862.017 -111581.883 152968.597 -111603.567 152973.772 -111603.757 152973.774 -111603.757 153186.673 -111611.564 153186.677 -111611.564 153191.837 -111611.753 153196.957 -111611.097 153196.959 -111611.097 153408.288 -111584.025 153408.289 -111584.025 153413.416 -111583.368 153418.366 -111581.883 153622.429 -111520.661 153622.434 -111520.659 153627.384 -111519.174 153827.994 -111420.896 154009.86 -111291.173 154168.096 -111133.489 154298.453 -110952.077 154299.776 -110953.028 154346.645 -110909.857 154416.58 -110897.625 154482.026 -110925.144 154509.875 -110956.994 154569.987 -111055.088 154716.25 -111223.938 154888.126 -111366.632 155081 -111479.338 155289.692 -111559.03 155294.76 -111560.061 155294.763 -111560.062 155402.017 -111581.883 155508.597 -111603.567 155513.772 -111603.757 155513.774 -111603.757 155726.673 -111611.564 155726.677 -111611.564 155731.837 -111611.753 155736.957 -111611.097 155736.959 -111611.097 155948.288 -111584.025 155948.289 -111584.025 155953.416 -111583.368 155958.366 -111581.883 156162.429 -111520.661 156162.434 -111520.659 156167.384 -111519.174 156367.994 -111420.896 156549.86 -111291.173 156708.096 -111133.489 156838.453 -110952.077 156839.776 -110953.028 156886.645 -110909.857 156956.58 -110897.625 157022.026 -110925.144 157049.875 -110956.994 157109.987 -111055.088 157256.25 -111223.938 157428.126 -111366.632 157621 -111479.338 157829.692 -111559.03 157834.76 -111560.061 157834.763 -111560.062 157942.017 -111581.883 158048.597 -111603.567 158053.772 -111603.757 158053.774 -111603.757 158266.673 -111611.564 158266.677 -111611.564 158271.837 -111611.753 158276.957 -111611.097 158276.959 -111611.097 158488.288 -111584.025 158488.289 -111584.025 158493.416 -111583.368 158498.366 -111581.883 158702.429 -111520.661 158702.434 -111520.659 158707.384 -111519.174 158907.994 -111420.896 159089.86 -111291.173 159248.096 -111133.489 159378.453 -110952.077 159379.776 -110953.028 159426.645 -110909.857 159496.58 -110897.625 159562.026 -110925.144 159589.875 -110956.994 159649.987 -111055.088 159796.25 -111223.938 159968.126 -111366.632 160161 -111479.338 160369.692 -111559.03 160374.76 -111560.061 160374.763 -111560.062 160482.017 -111581.883 160588.597 -111603.567 160593.772 -111603.757 160593.774 -111603.757 160806.673 -111611.564 160806.677 -111611.564 160811.837 -111611.753 160816.957 -111611.097 160816.959 -111611.097 161028.288 -111584.025 161028.289 -111584.025 161033.416 -111583.368 161038.366 -111581.883 161242.429 -111520.661 161242.434 -111520.659 161247.384 -111519.174 161447.994 -111420.896 161629.86 -111291.173 161788.096 -111133.489 161918.453 -110952.077 161919.776 -110953.028 161966.645 -110909.857 162036.58 -110897.625 162102.026 -110925.144 162129.875 -110956.994 162189.987 -111055.088 162336.25 -111223.938 162508.126 -111366.632 162701 -111479.338 162909.692 -111559.03 162914.76 -111560.061 162914.763 -111560.062 163022.017 -111581.883 163128.597 -111603.567 163133.772 -111603.757 163133.774 -111603.757 163346.673 -111611.564 163346.677 -111611.564 163351.837 -111611.753 163356.957 -111611.097 163356.959 -111611.097 163568.288 -111584.025 163568.289 -111584.025 163573.416 -111583.368 163578.366 -111581.883 163782.429 -111520.661 163782.434 -111520.659 163787.384 -111519.174 163987.994 -111420.896 164169.86 -111291.173 164328.096 -111133.489 164458.453 -110952.077 164459.776 -110953.028 164506.645 -110909.857 164576.58 -110897.625 164642.026 -110925.144 164669.875 -110956.994 164729.987 -111055.088 164876.25 -111223.938 165048.126 -111366.632 165241 -111479.338 165449.692 -111559.03 165454.76 -111560.061 165454.763 -111560.062 165562.017 -111581.883 165668.597 -111603.567 165673.772 -111603.757 165673.774 -111603.757 165886.673 -111611.564 165886.677 -111611.564 165891.837 -111611.753 165896.957 -111611.097 165896.959 -111611.097 166108.288 -111584.025 166108.289 -111584.025 166113.416 -111583.368 166118.366 -111581.883 166322.429 -111520.661 166322.434 -111520.659 166327.384 -111519.174 166527.994 -111420.896 166709.86 -111291.173 166856.877 -111144.669 172602.001 -111144.669 172602.371 -111151.49 172607.895 -111202.352 172611.521 -111217.604 172656.676 -111338.054 172665.214 -111353.649 172741.715 -111455.724 172754.276 -111468.285 172856.351 -111544.786 172871.946 -111553.324 172992.394 -111598.478 173007.649 -111602.105 173058.514 -111607.631 173065.328 -111608 173687.885 -111608 173703.124 -111603.525 173704.329 -111602.135 173706 -111594.452 173706 -110522.115 173701.525 -110506.876 173700.135 -110505.671 173692.452 -110504 172620.116 -110504 172604.877 -110508.475 172603.672 -110509.865 172602.001 -110517.548 172602.001 -111144.669 166856.877 -111144.669 166868.096 -111133.489 166998.453 -110952.077 167019.32 -110909.857 167095.136 -110756.453 167095.137 -110756.451 167097.43 -110751.811 167162.37 -110538.069 167191.529 -110316.59 167193.156 -110250 167174.852 -110027.361 167120.431 -109810.702 167031.354 -109605.84 166935.357 -109457.451 166915.15 -109389.392 166934.946 -109321.211 166952.054 -109299.916 166969.577 -109282.394 167006.567 -109245.404 167068.88 -109211.379 167095.662 -109208.5 172477.15 -109208.5 172545.271 -109228.502 172591.764 -109282.158 172601.926 -109345.083 172602.553 -109345.117 172602.397 -109347.998 172602.414 -109348.103 172602.369 -109348.52 172602 -109355.328 172602 -109977.885 172606.475 -109993.124 172607.865 -109994.329 172615.548 -109996 174088 -109996 174156.121 -110016.002 174202.614 -110069.658 174214 -110122 174214 -111589.884 174218.475 -111605.123 174219.865 -111606.328 174227.548 -111607.999 174854.669 -111607.999 174861.49 -111607.629 174912.352 -111602.105 174927.604 -111598.479 175048.054 -111553.324 175063.649 -111544.786 175165.724 -111468.285 175178.285 -111455.724 175254.786 -111353.649 175263.324 -111338.054 175304.225 -111228.952 175346.867 -111172.188 175413.428 -111147.488 175482.777 -111162.696 175517.444 -111190.684 175542.865 -111220.031 175542.869 -111220.035 175546.25 -111223.938 175718.126 -111366.632 175911 -111479.338 176119.692 -111559.03 176124.76 -111560.061 176124.763 -111560.062 176232.017 -111581.883 176338.597 -111603.567 176343.772 -111603.757 176343.774 -111603.757 176556.673 -111611.564 176556.677 -111611.564 176561.837 -111611.753 176566.957 -111611.097 176566.959 -111611.097 176778.288 -111584.025 176778.289 -111584.025 176783.416 -111583.368 176788.366 -111581.883 176992.429 -111520.661 176992.434 -111520.659 176997.384 -111519.174 177197.994 -111420.896 177379.86 -111291.173 177538.096 -111133.489 177668.453 -110952.077 177669.776 -110953.028 177716.645 -110909.857 177786.58 -110897.625 177852.026 -110925.144 177879.875 -110956.994 177939.987 -111055.088 178086.25 -111223.938 178258.126 -111366.632 178451 -111479.338 178659.692 -111559.03 178664.76 -111560.061 178664.763 -111560.062 178772.017 -111581.883 178878.597 -111603.567 178883.772 -111603.757 178883.774 -111603.757 179096.673 -111611.564 179096.677 -111611.564 179101.837 -111611.753 179106.957 -111611.097 179106.959 -111611.097 179318.288 -111584.025 179318.289 -111584.025 179323.416 -111583.368 179328.366 -111581.883 179532.429 -111520.661 179532.434 -111520.659 179537.384 -111519.174 179737.994 -111420.896 179919.86 -111291.173 180078.096 -111133.489 180208.453 -110952.077 180229.32 -110909.857 180305.136 -110756.453 180305.137 -110756.451 180307.43 -110751.811 180372.37 -110538.069 180401.529 -110316.59 180403.156 -110250 180384.852 -110027.361 180330.431 -109810.702 180241.354 -109605.84 180201.906 -109544.862 180122.822 -109422.617 180122.82 -109422.614 180120.014 -109418.277 179969.67 -109253.051 179965.619 -109249.852 179965.615 -109249.848 179799.744 -109118.851 179758.681 -109060.934 179752.974 -109017.791 179752.606 -109017.81 179752.363 -109013.168 179752.129 -109011.397 179752.725 -109002.648 179751.104 -108993.357 179741.74 -108939.708 179740.777 -108933.182 179740.642 -108932.069 179733.102 -108869.758 179730.416 -108862.65 179729.779 -108860.056 179725.318 -108843.75 179724.548 -108841.199 179723.242 -108833.716 179697.561 -108775.212 179695.069 -108769.105 179675.173 -108716.452 179675.173 -108716.451 179672.487 -108709.344 179668.184 -108703.083 179666.947 -108700.717 179658.72 -108685.937 179657.369 -108683.652 179654.315 -108676.695 179649.695 -108670.675 179649.692 -108670.669 179615.421 -108626.009 179611.541 -108620.668 179579.661 -108574.28 179579.656 -108574.275 179575.357 -108568.019 179528.829 -108526.564 179523.554 -108521.584 179021.45 -108019.48 179015.596 -108013.215 179013.812 -108011.17 178977.561 -107969.615 178925.28 -107932.871 178919.986 -107928.939 178875.693 -107894.209 178869.718 -107889.524 178862.802 -107886.401 178860.516 -107885.017 178845.835 -107876.643 178843.475 -107875.378 178837.261 -107871.01 178830.182 -107868.25 178830.18 -107868.249 178777.725 -107847.798 178771.656 -107845.247 178713.427 -107818.955 178705.96 -107817.571 178703.405 -107816.77 178687.152 -107812.141 178684.572 -107811.478 178677.491 -107808.718 178669.96 -107807.727 178669.958 -107807.726 178640.339 -107803.827 178614.139 -107800.378 178607.641 -107799.348 178544.814 -107787.704 178537.234 -107788.141 178537.233 -107788.141 178482.608 -107791.291 178475.354 -107791.5 166778.911 -107791.5 166770.342 -107791.208 166720.223 -107787.791 166720.219 -107787.791 166712.647 -107787.275 166705.17 -107788.58 166705.168 -107788.58 166699.188 -107789.624 166677.525 -107791.5 138528.912 -107791.5 138520.342 -107791.208 138470.224 -107787.791 138470.22 -107787.791 138462.648 -107787.275 138455.171 -107788.58 138455.17 -107788.58 138428.692 -107793.201 138399.697 -107798.262 138393.179 -107799.223 138329.758 -107806.898 138322.657 -107809.581 138320.048 -107810.222 138303.738 -107814.685 138301.202 -107815.45 138293.716 -107816.757 138281.586 -107822.082 138235.205 -107842.442 138229.101 -107844.933 138169.344 -107867.513 138163.081 -107871.817 138160.715 -107873.054 138145.903 -107881.299 138143.649 -107882.632 138136.695 -107885.685 138085.998 -107924.587 138080.668 -107928.459 138034.28 -107960.339 138034.275 -107960.344 138028.019 -107964.643 138022.968 -107970.313 138022.966 -107970.314 137986.565 -108011.17 137981.584 -108016.446 137139.48 -108858.55 137133.215 -108864.404 137089.615 -108902.439 137067.578 -108933.795 137052.872 -108954.719 137048.939 -108960.014 137009.524 -109010.282 137006.441 -109017.111 136956.882 -109063.568 136893.607 -109096.507 136889.474 -109099.61 136889.471 -109099.612 136722.811 -109224.744 136714.965 -109230.635 136560.629 -109392.138 136453.201 -109549.621 136398.293 -109594.621 136327.768 -109602.792 136264.021 -109571.538 136243.324 -109547.054 136162.822 -109422.617 136162.82 -109422.614 136160.014 -109418.277 136009.67 -109253.051 136005.619 -109249.852 136005.615 -109249.848 135838.414 -109117.8 135838.41 -109117.798 135834.359 -109114.598 135638.789 -109006.638 135633.92 -109004.914 135633.916 -109004.912 135433.087 -108933.795 135433.083 -108933.794 135428.212 -108932.069 135423.119 -108931.162 135423.116 -108931.161 135213.373 -108893.8 135213.367 -108893.799 135208.284 -108892.894 135134.452 -108891.992 134990.081 -108890.228 134990.079 -108890.228 134984.911 -108890.165 134764.091 -108923.955 134551.756 -108993.357 134353.607 -109096.507 134349.474 -109099.61 134349.471 -109099.612 134182.811 -109224.744 134174.965 -109230.635 134020.629 -109392.138 133913.201 -109549.621 133858.293 -109594.621 133787.768 -109602.792 133724.021 -109571.538 133703.324 -109547.054 133622.822 -109422.617 133622.82 -109422.614 133620.014 -109418.277 133469.67 -109253.051 133465.619 -109249.852 133465.615 -109249.848 133298.414 -109117.8 133298.41 -109117.798 133294.359 -109114.598 133098.789 -109006.638 133093.92 -109004.914 133093.916 -109004.912 132893.087 -108933.795 132893.083 -108933.794 132888.212 -108932.069 132883.119 -108931.162 132883.116 -108931.161 132673.373 -108893.8 132673.367 -108893.799 132668.284 -108892.894 132594.452 -108891.992 132450.081 -108890.228 132450.079 -108890.228 132444.911 -108890.165 132224.091 -108923.955 132011.756 -108993.357 131813.607 -109096.507 131809.474 -109099.61 131809.471 -109099.612 131642.811 -109224.744 131634.965 -109230.635 131631.393 -109234.373 131553.898 -109315.466 131492.374 -109350.895 131421.462 -109347.438 131363.676 -109306.192 131344.823 -109272.644 131303.324 -109161.946 131294.786 -109146.351 131218.285 -109044.276 131205.724 -109031.715 131103.649 -108955.214 131088.054 -108946.676 130967.606 -108901.522 130952.351 -108897.895 130901.486 -108892.369 130894.672 -108892 130272.115 -108892 130256.876 -108896.475 130255.671 -108897.865 130254 -108905.548 130254 -111589.884 129746 -111589.884 129746 -110522.115 129741.525 -110506.876 129740.135 -110505.671 129732.452 -110504 128660.116 -110504 128644.877 -110508.475 128643.672 -110509.865 128642.001 -110517.548 128642.001 -111144.669 122258.5 -111144.669 122258.5 -109977.885 128642 -109977.885 128646.475 -109993.124 128647.865 -109994.329 128655.548 -109996 129727.885 -109996 129743.124 -109991.525 129744.329 -109990.135 129746 -109982.452 129746 -108910.116 129741.525 -108894.877 129740.135 -108893.672 129732.452 -108892.001 129105.331 -108892.001 129098.51 -108892.371 129047.648 -108897.895 129032.396 -108901.521 128911.946 -108946.676 128896.351 -108955.214 128794.276 -109031.715 128781.715 -109044.276 128705.214 -109146.351 128696.676 -109161.946 128651.522 -109282.394 128647.895 -109297.649 128642.369 -109348.514 128642 -109355.328 128642 -109977.885 122258.5 -109977.885 122258.5 -103357.446 122278.502 -103289.325 122332.158 -103242.832 122402.432 -103232.728 122467.012 -103262.222 122491.933 -103291.61 122525.824 -103346.916 122680.031 -103527.469 122860.584 -103681.676 122864.792 -103684.255 122864.798 -103684.259 122924.697 -103720.965 123063.037 -103805.74 123067.607 -103807.633 123067.611 -103807.635 123277.833 -103894.711 123282.406 -103896.605 123362.609 -103915.86 123508.476 -103950.88 123508.482 -103950.881 123513.289 -103952.035 123750 -103970.665 123986.711 -103952.035 123991.518 -103950.881 123991.524 -103950.88 124137.391 -103915.86 124217.594 -103896.605 124222.167 -103894.711 124432.389 -103807.635 124432.393 -103807.633 124436.963 -103805.74 124575.303 -103720.965 124635.202 -103684.259 124635.208 -103684.255 124639.416 -103681.676 124819.969 -103527.469 124974.176 -103346.916 124976.755 -103342.708 124976.759 -103342.702 125095.654 -103148.683 125098.24 -103144.463 125189.105 -102925.094 125231.297 -102749.353 125243.38 -102699.024 125243.381 -102699.018 125244.535 -102694.211 125263.165 -102457.5 125244.535 -102220.789 125189.105 -101989.906 125098.24 -101770.537 125052.121 -101695.278 124976.759 -101572.298 124976.755 -101572.292 124974.176 -101568.084 124819.969 -101387.531 124639.416 -101233.324 124635.208 -101230.745 124635.202 -101230.741 124441.183 -101111.846 124436.963 -101109.26 124432.393 -101107.367 124432.389 -101107.365 124222.167 -101020.289 124222.165 -101020.288 124217.594 -101018.395 124137.391 -100999.14 123991.524 -100964.12 123991.518 -100964.119 123986.711 -100962.965 123750 -100944.335 123513.289 -100962.965 123508.482 -100964.119 123508.476 -100964.12 123362.609 -100999.14 123282.406 -101018.395 123277.835 -101020.288 123277.833 -101020.289 123067.611 -101107.365 123067.607 -101107.367 123063.037 -101109.26 123058.817 -101111.846 122864.798 -101230.741 122864.792 -101230.745 122860.584 -101233.324 122680.031 -101387.531 122525.824 -101568.084 122491.933 -101623.389 122439.285 -101671.02 122369.244 -101682.627 122304.046 -101654.524 122264.392 -101595.633 122258.5 -101557.554 122258.5 -96857.446 122278.502 -96789.325 122332.158 -96742.832 122402.432 -96732.728 122467.012 -96762.222 122491.933 -96791.61 122525.824 -96846.916 122680.031 -97027.469 122860.584 -97181.676 122864.792 -97184.255 122864.798 -97184.259 122981.337 -97255.674 123063.037 -97305.74 123067.607 -97307.633 123067.611 -97307.635 123277.833 -97394.711 123282.406 -97396.605 123362.609 -97415.86 123508.476 -97450.88 123508.482 -97450.881 123513.289 -97452.035 123750 -97470.665 123986.711 -97452.035 123991.518 -97450.881 123991.524 -97450.88 124137.391 -97415.86 124217.594 -97396.605 124222.167 -97394.711 124432.389 -97307.635 124432.393 -97307.633 124436.963 -97305.74 124518.663 -97255.674 124635.202 -97184.259 124635.208 -97184.255 124639.416 -97181.676 124819.969 -97027.469 124974.176 -96846.916 124976.755 -96842.708 124976.759 -96842.702 125095.654 -96648.683 125098.24 -96644.463 125101.015 -96637.765 125187.211 -96429.667 125187.212 -96429.665 125189.105 -96425.094 125231.297 -96249.353 125243.38 -96199.024 125243.381 -96199.018 125244.535 -96194.211 125263.165 -95957.5 125244.535 -95720.789 125189.105 -95489.906 125098.24 -95270.537 125052.121 -95195.278 124976.759 -95072.298 124976.755 -95072.292 124974.176 -95068.084 124819.969 -94887.531 124639.416 -94733.324 124640.059 -94732.571 124599.685 -94680.213 124593.61 -94609.477 124626.742 -94546.685 124688.562 -94511.774 124717.1 -94508.5 127282.9 -94508.5 127351.021 -94528.502"/></g><g id="VPkqXzdTgEKU_bottom_soldermask"><use xlink:href="#vGUuQ4CR2tfN_pad-10" x="148050" y="-110250"/><use xlink:href="#vGUuQ4CR2tfN_pad-11" x="150590" y="-110250"/><use xlink:href="#vGUuQ4CR2tfN_pad-11" x="153130" y="-110250"/><use xlink:href="#vGUuQ4CR2tfN_pad-11" x="155670" y="-110250"/><use xlink:href="#vGUuQ4CR2tfN_pad-11" x="158210" y="-110250"/><use xlink:href="#vGUuQ4CR2tfN_pad-11" x="160750" y="-110250"/><use xlink:href="#vGUuQ4CR2tfN_pad-11" x="163290" y="-110250"/><use xlink:href="#vGUuQ4CR2tfN_pad-11" x="165830" y="-110250"/><use xlink:href="#vGUuQ4CR2tfN_pad-10" x="130000" y="-110250"/><use xlink:href="#vGUuQ4CR2tfN_pad-11" x="132540" y="-110250"/><use xlink:href="#vGUuQ4CR2tfN_pad-11" x="135080" y="-110250"/><use xlink:href="#vGUuQ4CR2tfN_pad-11" x="137620" y="-110250"/><use xlink:href="#vGUuQ4CR2tfN_pad-10" x="173960" y="-110250"/><use xlink:href="#vGUuQ4CR2tfN_pad-11" x="176500" y="-110250"/><use xlink:href="#vGUuQ4CR2tfN_pad-11" x="179040" y="-110250"/><use xlink:href="#vGUuQ4CR2tfN_pad-12" x="123750" y="-95957.5"/><use xlink:href="#vGUuQ4CR2tfN_pad-12" x="123750" y="-102457.5"/><use xlink:href="#vGUuQ4CR2tfN_pad-12" x="128250" y="-102457.5"/><use xlink:href="#vGUuQ4CR2tfN_pad-12" x="128250" y="-95957.5"/><use xlink:href="#vGUuQ4CR2tfN_pad-12" x="139250" y="-102500"/><use xlink:href="#vGUuQ4CR2tfN_pad-12" x="139250" y="-96000"/><use xlink:href="#vGUuQ4CR2tfN_pad-12" x="143750" y="-102500"/><use xlink:href="#vGUuQ4CR2tfN_pad-12" x="143750" y="-96000"/><use xlink:href="#vGUuQ4CR2tfN_pad-12" x="147000" y="-102500"/><use xlink:href="#vGUuQ4CR2tfN_pad-12" x="147000" y="-96000"/><use xlink:href="#vGUuQ4CR2tfN_pad-12" x="151500" y="-102500"/><use xlink:href="#vGUuQ4CR2tfN_pad-12" x="151500" y="-96000"/><use xlink:href="#vGUuQ4CR2tfN_pad-12" x="154750" y="-102500"/><use xlink:href="#vGUuQ4CR2tfN_pad-12" x="154750" y="-96000"/><use xlink:href="#vGUuQ4CR2tfN_pad-12" x="159250" y="-102500"/><use xlink:href="#vGUuQ4CR2tfN_pad-12" x="159250" y="-96000"/><use xlink:href="#vGUuQ4CR2tfN_pad-12" x="162500" y="-96000"/><use xlink:href="#vGUuQ4CR2tfN_pad-12" x="162500" y="-102500"/><use xlink:href="#vGUuQ4CR2tfN_pad-12" x="167000" y="-102500"/><use xlink:href="#vGUuQ4CR2tfN_pad-12" x="167000" y="-96000"/><use xlink:href="#vGUuQ4CR2tfN_pad-12" x="170250" y="-102500"/><use xlink:href="#vGUuQ4CR2tfN_pad-12" x="170250" y="-96000"/><use xlink:href="#vGUuQ4CR2tfN_pad-12" x="174750" y="-96000"/><use xlink:href="#vGUuQ4CR2tfN_pad-12" x="174750" y="-102500"/><use xlink:href="#vGUuQ4CR2tfN_pad-12" x="178000" y="-96000"/><use xlink:href="#vGUuQ4CR2tfN_pad-12" x="178000" y="-102500"/><use xlink:href="#vGUuQ4CR2tfN_pad-12" x="182500" y="-102500"/><use xlink:href="#vGUuQ4CR2tfN_pad-12" x="182500" y="-96000"/><use xlink:href="#vGUuQ4CR2tfN_pad-12" x="131500" y="-96000"/><use xlink:href="#vGUuQ4CR2tfN_pad-12" x="131500" y="-102500"/><use xlink:href="#vGUuQ4CR2tfN_pad-12" x="136000" y="-96000"/><use xlink:href="#vGUuQ4CR2tfN_pad-12" x="136000" y="-102500"/></g><g id="VPkqXzdTgEKU_bottom_silkscreen"><path d="M 168535.714 -106142.857 168321.428 -106214.285 168250 -106285.714 168178.571 -106428.571 168178.571 -106642.857 168250 -106785.714 168321.428 -106857.142 168464.285 -106928.571 169035.714 -106928.571 169035.714 -105428.571 168535.714 -105428.571 168392.857 -105500 168321.428 -105571.428 168250 -105714.285 168250 -105857.142 168321.428 -106000 168392.857 -106071.428 168535.714 -106142.857 169035.714 -106142.857 M 166892.857 -106928.571 166892.857 -106142.857 166964.285 -106000 167107.142 -105928.571 167392.857 -105928.571 167535.714 -106000 M 166892.857 -106857.142 167035.714 -106928.571 167392.857 -106928.571 167535.714 -106857.142 167607.142 -106714.285 167607.142 -106571.428 167535.714 -106428.571 167392.857 -106357.142 167035.714 -106357.142 166892.857 -106285.714 M 166250 -106857.142 166107.142 -106928.571 165821.428 -106928.571 165678.571 -106857.142 165607.142 -106714.285 165607.142 -106642.857 165678.571 -106500 165821.428 -106428.571 166035.714 -106428.571 166178.571 -106357.142 166250 -106214.285 166250 -106142.857 166178.571 -106000 166035.714 -105928.571 165821.428 -105928.571 165678.571 -106000 M 164964.285 -106928.571 164964.285 -105928.571 M 164964.285 -105428.571 165035.714 -105500 164964.285 -105571.428 164892.857 -105500 164964.285 -105428.571 164964.285 -105571.428 M 164035.714 -106928.571 164178.571 -106857.142 164250 -106714.285 164250 -105428.571 M 162964.285 -106142.857 163464.285 -106142.857 M 163464.285 -106928.571 163464.285 -105428.571 162750 -105428.571 M 162321.428 -105428.571 161321.428 -106928.571 M 161321.428 -105428.571 162321.428 -106928.571 M 157035.714 -105428.571 156892.857 -105428.571 156750 -105500 156678.571 -105571.428 156607.142 -105714.285 156535.714 -106000 156535.714 -106357.142 156607.142 -106642.857 156678.571 -106785.714 156750 -106857.142 156892.857 -106928.571 157035.714 -106928.571 157178.571 -106857.142 157250 -106785.714 157321.428 -106642.857 157392.857 -106357.142 157392.857 -106000 157321.428 -105714.285 157250 -105571.428 157178.571 -105500 157035.714 -105428.571 M 155821.428 -106928.571 155535.714 -106928.571 155392.857 -106857.142 155321.428 -106785.714 155178.571 -106571.428 155107.142 -106285.714 155107.142 -105714.285 155178.571 -105571.428 155250 -105500 155392.857 -105428.571 155678.571 -105428.571 155821.428 -105500 155892.857 -105571.428 155964.285 -105714.285 155964.285 -106071.428 155892.857 -106214.285 155821.428 -106285.714 155678.571 -106357.142 155392.857 -106357.142 155250 -106285.714 155178.571 -106214.285 155107.142 -106071.428 M 153392.857 -105357.142 154678.571 -107285.714 M 152964.285 -105571.428 152892.857 -105500 152750 -105428.571 152392.857 -105428.571 152250 -105500 152178.571 -105571.428 152107.142 -105714.285 152107.142 -105857.142 152178.571 -106071.428 153035.714 -106928.571 152107.142 -106928.571 M 151178.571 -105428.571 151035.714 -105428.571 150892.857 -105500 150821.428 -105571.428 150750 -105714.285 150678.571 -106000 150678.571 -106357.142 150750 -106642.857 150821.428 -106785.714 150892.857 -106857.142 151035.714 -106928.571 151178.571 -106928.571 151321.428 -106857.142 151392.857 -106785.714 151464.285 -106642.857 151535.714 -106357.142 151535.714 -106000 151464.285 -105714.285 151392.857 -105571.428 151321.428 -105500 151178.571 -105428.571 M 150107.142 -105571.428 150035.714 -105500 149892.857 -105428.571 149535.714 -105428.571 149392.857 -105500 149321.428 -105571.428 149250 -105714.285 149250 -105857.142 149321.428 -106071.428 150178.571 -106928.571 149250 -106928.571 M 148678.571 -105571.428 148607.142 -105500 148464.285 -105428.571 148107.142 -105428.571 147964.285 -105500 147892.857 -105571.428 147821.428 -105714.285 147821.428 -105857.142 147892.857 -106071.428 148750 -106928.571 147821.428 -106928.571 M 143964.285 -105428.571 143464.285 -106928.571 142964.285 -105428.571 M 141678.571 -106928.571 142535.714 -106928.571 M 142107.142 -106928.571 142107.142 -105428.571 142250 -105642.857 142392.857 -105785.714 142535.714 -105857.142 M 141035.714 -106785.714 140964.285 -106857.142 141035.714 -106928.571 141107.142 -106857.142 141035.714 -106785.714 141035.714 -106928.571 M 140392.857 -105571.428 140321.428 -105500 140178.571 -105428.571 139821.428 -105428.571 139678.571 -105500 139607.142 -105571.428 139535.714 -105714.285 139535.714 -105857.142 139607.142 -106071.428 140464.285 -106928.571 139535.714 -106928.571 M 138892.857 -106785.714 138821.428 -106857.142 138892.857 -106928.571 138964.285 -106857.142 138892.857 -106785.714 138892.857 -106928.571 M 137892.857 -105428.571 137750 -105428.571 137607.142 -105500 137535.714 -105571.428 137464.285 -105714.285 137392.857 -106000 137392.857 -106357.142 137464.285 -106642.857 137535.714 -106785.714 137607.142 -106857.142 137750 -106928.571 137892.857 -106928.571 138035.714 -106857.142 138107.142 -106785.714 138178.571 -106642.857 138250 -106357.142 138250 -106000 138178.571 -105714.285 138107.142 -105571.428 138035.714 -105500 137892.857 -105428.571" fill="none" stroke-width="300"/></g><g id="VPkqXzdTgEKU_bottom_drill1" transform="scale(25.4,25.4)"><use xlink:href="#EFi4uLNU_75U_pad-1" x="4960.6" y="-3907.5"/><use xlink:href="#EFi4uLNU_75U_pad-1" x="5265.7" y="-3907.5"/><use xlink:href="#EFi4uLNU_75U_pad-1" x="5570.9" y="-3907.5"/><use xlink:href="#EFi4uLNU_75U_pad-1" x="5876" y="-3907.5"/><use xlink:href="#EFi4uLNU_75U_pad-1" x="6181.1" y="-3907.5"/><use xlink:href="#EFi4uLNU_75U_pad-1" x="6486.2" y="-3907.5"/><use xlink:href="#EFi4uLNU_75U_pad-1" x="6791.3" y="-3907.5"/><use xlink:href="#EFi4uLNU_75U_pad-1" x="7096.5" y="-3907.5"/><use xlink:href="#EFi4uLNU_75U_pad-2" x="5118.1" y="-4340.6"/><use xlink:href="#EFi4uLNU_75U_pad-2" x="5218.1" y="-4340.6"/><use xlink:href="#EFi4uLNU_75U_pad-2" x="5318.1" y="-4340.6"/><use xlink:href="#EFi4uLNU_75U_pad-2" x="5418.1" y="-4340.6"/><use xlink:href="#EFi4uLNU_75U_pad-2" x="5828.7" y="-4340.6"/><use xlink:href="#EFi4uLNU_75U_pad-2" x="5928.7" y="-4340.6"/><use xlink:href="#EFi4uLNU_75U_pad-2" x="6028.7" y="-4340.6"/><use xlink:href="#EFi4uLNU_75U_pad-2" x="6128.7" y="-4340.6"/><use xlink:href="#EFi4uLNU_75U_pad-2" x="6228.7" y="-4340.6"/><use xlink:href="#EFi4uLNU_75U_pad-2" x="6328.7" y="-4340.6"/><use xlink:href="#EFi4uLNU_75U_pad-2" x="6428.7" y="-4340.6"/><use xlink:href="#EFi4uLNU_75U_pad-2" x="6528.7" y="-4340.6"/><use xlink:href="#EFi4uLNU_75U_pad-2" x="6848.8" y="-4340.6"/><use xlink:href="#EFi4uLNU_75U_pad-2" x="6948.8" y="-4340.6"/><use xlink:href="#EFi4uLNU_75U_pad-2" x="7048.8" y="-4340.6"/><use xlink:href="#EFi4uLNU_75U_pad-3" x="4872" y="-3777.9"/><use xlink:href="#EFi4uLNU_75U_pad-3" x="4872" y="-4033.8"/><use xlink:href="#EFi4uLNU_75U_pad-3" x="5049.2" y="-3777.9"/><use xlink:href="#EFi4uLNU_75U_pad-3" x="5049.2" y="-4033.8"/><use xlink:href="#EFi4uLNU_75U_pad-3" x="5177.2" y="-3779.5"/><use xlink:href="#EFi4uLNU_75U_pad-3" x="5177.2" y="-4035.4"/><use xlink:href="#EFi4uLNU_75U_pad-3" x="5354.3" y="-3779.5"/><use xlink:href="#EFi4uLNU_75U_pad-3" x="5354.3" y="-4035.4"/><use xlink:href="#EFi4uLNU_75U_pad-3" x="5482.3" y="-3779.5"/><use xlink:href="#EFi4uLNU_75U_pad-3" x="5482.3" y="-4035.4"/><use xlink:href="#EFi4uLNU_75U_pad-3" x="5659.4" y="-3779.5"/><use xlink:href="#EFi4uLNU_75U_pad-3" x="5659.4" y="-4035.4"/><use xlink:href="#EFi4uLNU_75U_pad-3" x="5787.4" y="-3779.5"/><use xlink:href="#EFi4uLNU_75U_pad-3" x="5787.4" y="-4035.4"/><use xlink:href="#EFi4uLNU_75U_pad-3" x="5964.6" y="-3779.5"/><use xlink:href="#EFi4uLNU_75U_pad-3" x="5964.6" y="-4035.4"/><use xlink:href="#EFi4uLNU_75U_pad-3" x="6092.5" y="-3779.5"/><use xlink:href="#EFi4uLNU_75U_pad-3" x="6092.5" y="-4035.4"/><use xlink:href="#EFi4uLNU_75U_pad-3" x="6269.7" y="-3779.5"/><use xlink:href="#EFi4uLNU_75U_pad-3" x="6269.7" y="-4035.4"/><use xlink:href="#EFi4uLNU_75U_pad-3" x="6397.6" y="-3779.5"/><use xlink:href="#EFi4uLNU_75U_pad-3" x="6397.6" y="-4035.4"/><use xlink:href="#EFi4uLNU_75U_pad-3" x="6574.8" y="-3779.5"/><use xlink:href="#EFi4uLNU_75U_pad-3" x="6574.8" y="-4035.4"/><use xlink:href="#EFi4uLNU_75U_pad-3" x="6702.8" y="-3779.5"/><use xlink:href="#EFi4uLNU_75U_pad-3" x="6702.8" y="-4035.4"/><use xlink:href="#EFi4uLNU_75U_pad-3" x="6879.9" y="-3779.5"/><use xlink:href="#EFi4uLNU_75U_pad-3" x="6879.9" y="-4035.4"/><use xlink:href="#EFi4uLNU_75U_pad-3" x="7007.9" y="-3779.5"/><use xlink:href="#EFi4uLNU_75U_pad-3" x="7007.9" y="-4035.4"/><use xlink:href="#EFi4uLNU_75U_pad-3" x="7185" y="-3779.5"/><use xlink:href="#EFi4uLNU_75U_pad-3" x="7185" y="-4035.4"/></g><clipPath id="VPkqXzdTgEKU_bottom_outline"><path d="M 121750 -112500 121750 -94000 184500 -94000 184500 -112500 121750 -112500" fill="none" stroke-width="200"/></clipPath><mask id="VPkqXzdTgEKU_bottom_mech-mask"><g fill="#000" stroke="#000"><rect x="121750" y="-112500" width="62750" height="18500" fill="#fff"/><use xlink:href="#VPkqXzdTgEKU_bottom_drill1"/></g></mask><mask id="VPkqXzdTgEKU_bottom_cf-mask"><g fill="#fff" stroke="#fff"><use xlink:href="#VPkqXzdTgEKU_bottom_soldermask"/></g></mask><mask id="VPkqXzdTgEKU_bottom_sm-mask"><g fill="#000" stroke="#000"><rect x="121750" y="-112500" width="62750" height="18500" fill="#fff"/><use xlink:href="#VPkqXzdTgEKU_bottom_soldermask"/></g></mask></defs><g transform="translate(0,-206500) scale(1,-1)"><g mask="url(#VPkqXzdTgEKU_bottom_mech-mask)" clip-path="url(#VPkqXzdTgEKU_bottom_outline)" transform="translate(306250,0) scale(-1,1)"><rect x="121750" y="-112500" width="62750" height="18500" fill="currentColor" class="VPkqXzdTgEKU_fr4"/><use xlink:href="#VPkqXzdTgEKU_bottom_copper" fill="currentColor" stroke="currentColor" class="VPkqXzdTgEKU_cu"/><use xlink:href="#VPkqXzdTgEKU_bottom_copper" fill="currentColor" stroke="currentColor" class="VPkqXzdTgEKU_cf" mask="url(#VPkqXzdTgEKU_bottom_cf-mask)"/><g mask="url(#VPkqXzdTgEKU_bottom_sm-mask)"><rect x="121750" y="-112500" width="62750" height="18500" fill="currentColor" class="VPkqXzdTgEKU_sm"/><use xlink:href="#VPkqXzdTgEKU_bottom_silkscreen" fill="currentColor" stroke="currentColor" class="VPkqXzdTgEKU_ss"/></g></g></g></svg>