<svg version="1.1" xmlns="http://www.w3.org/2000/svg" xmlns:xlink="http://www.w3.org/1999/xlink" stroke-linecap="round" stroke-linejoin="round" stroke-width="0" fill-rule="evenodd" clip-rule="evenodd" id="IarHJswmWpG0_bottom" viewBox="70000 -70000 30000 30000" width="30mm" height="30mm"><defs><style>.IarHJswmWpG0_fr4 {color: #666666;}
.IarHJswmWpG0_cu {color: #cccccc;}
.IarHJswmWpG0_cf {color: #cc9933;}
.IarHJswmWpG0_sm {color: #004200; opacity: 0.7490196078431373;}
.IarHJswmWpG0_ss {color: #ffffff;}
.IarHJswmWpG0_sp {color: #999999;}
.IarHJswmWpG0_out {color: #000000;}</style><rect x="-1090.93" y="-1090.93" width="2181.86" height="2181.86" id="xcSy1RO4bj_5_pad-10"/><circle cx="0" cy="0" r="500" id="xcSy1RO4bj_5_pad-11"/><g id="xcSy1RO4bj_5_pad-12"><polygon points="1425,-362.5 1425,362.5 -1425,362.5 -1425,-362.5"/><circle cx="1425" cy="-362.5" r="250"/><circle cx="1425" cy="362.5" r="250"/><circle cx="-1425" cy="362.5" r="250"/><circle cx="-1425" cy="-362.5" r="250"/><polygon points="1675,-362.5 1675,362.5 1175,362.5 1175,-362.5"/><polygon points="1425,112.5 -1425,112.5 -1425,612.5 1425,612.5"/><polygon points="-1175,362.5 -1175,-362.5 -1675,-362.5 -1675,362.5"/><polygon points="-1425,-612.5 1425,-612.5 1425,-112.5 -1425,-112.5"/></g><g id="xcSy1RO4bj_5_pad-13"><polygon points="275,-200 275,200 -275,200 -275,-200"/><circle cx="275" cy="-200" r="200"/><circle cx="275" cy="200" r="200"/><circle cx="-275" cy="200" r="200"/><circle cx="-275" cy="-200" r="200"/><polygon points="475,-200 475,200 75,200 75,-200"/><polygon points="275,0 -275,0 -275,400 275,400"/><polygon points="-75,200 -75,-200 -475,-200 -475,200"/><polygon points="-275,-400 275,-400 275,0 -275,0"/></g><rect x="-1250" y="-1150" width="2500" height="2300" id="xcSy1RO4bj_5_pad-14"/><g id="xcSy1RO4bj_5_pad-15"><polygon points="256.25,-218.75 256.25,218.75 -256.25,218.75 -256.25,-218.75"/><circle cx="256.25" cy="-218.75" r="218.75"/><circle cx="256.25" cy="218.75" r="218.75"/><circle cx="-256.25" cy="218.75" r="218.75"/><circle cx="-256.25" cy="-218.75" r="218.75"/><polygon points="475,-218.75 475,218.75 37.5,218.75 37.5,-218.75"/><polygon points="256.25,0 -256.25,0 -256.25,437.5 256.25,437.5"/><polygon points="-37.5,218.75 -37.5,-218.75 -475,-218.75 -475,218.75"/><polygon points="-256.25,-437.5 256.25,-437.5 256.25,0 -256.25,0"/></g><circle cx="0" cy="0" r="230" id="xcSy1RO4bj_5_pad-16"/><g id="ZnxanneGUH5D_pad-10"><polygon points="1090.93,-1090.93 1090.93,1090.93 -1090.93,1090.93 -1090.93,-1090.93"/><circle cx="1090.93" cy="-1090.93" r="200"/><circle cx="1090.93" cy="1090.93" r="200"/><circle cx="-1090.93" cy="1090.93" r="200"/><circle cx="-1090.93" cy="-1090.93" r="200"/><polygon points="1290.93,-1090.93 1290.93,1090.93 890.93,1090.93 890.93,-1090.93"/><polygon points="1090.93,890.93 -1090.93,890.93 -1090.93,1290.93 1090.93,1290.93"/><polygon points="-890.93,1090.93 -890.93,-1090.93 -1290.93,-1090.93 -1290.93,1090.93"/><polygon points="-1090.93,-1290.93 1090.93,-1290.93 1090.93,-890.93 -1090.93,-890.93"/></g><circle cx="0" cy="0" r="700" id="ZnxanneGUH5D_pad-11"/><g id="ZnxanneGUH5D_pad-12"><polygon points="1425,-362.5 1425,362.5 -1425,362.5 -1425,-362.5"/><circle cx="1425" cy="-362.5" r="450"/><circle cx="1425" cy="362.5" r="450"/><circle cx="-1425" cy="362.5" r="450"/><circle cx="-1425" cy="-362.5" r="450"/><polygon points="1875,-362.5 1875,362.5 975,362.5 975,-362.5"/><polygon points="1425,-87.5 -1425,-87.5 -1425,812.5 1425,812.5"/><polygon points="-975,362.5 -975,-362.5 -1875,-362.5 -1875,362.5"/><polygon points="-1425,-812.5 1425,-812.5 1425,87.5 -1425,87.5"/></g><g id="ZnxanneGUH5D_pad-13"><polygon points="275,-200 275,200 -275,200 -275,-200"/><circle cx="275" cy="-200" r="400"/><circle cx="275" cy="200" r="400"/><circle cx="-275" cy="200" r="400"/><circle cx="-275" cy="-200" r="400"/><polygon points="675,-200 675,200 -125,200 -125,-200"/><polygon points="275,-200 -275,-200 -275,600 275,600"/><polygon points="125,200 125,-200 -675,-200 -675,200"/><polygon points="-275,-600 275,-600 275,200 -275,200"/></g><g id="ZnxanneGUH5D_pad-14"><polygon points="-1250,-1150 1250,-1150 1250,1150 -1250,1150"/><circle cx="-1250" cy="-1150" r="200"/><circle cx="1250" cy="-1150" r="200"/><circle cx="1250" cy="1150" r="200"/><circle cx="-1250" cy="1150" r="200"/><polygon points="-1250,-1350 1250,-1350 1250,-950 -1250,-950"/><polygon points="1450,-1150 1450,1150 1050,1150 1050,-1150"/><polygon points="1250,950 -1250,950 -1250,1350 1250,1350"/><polygon points="-1050,1150 -1050,-1150 -1450,-1150 -1450,1150"/></g><g id="ZnxanneGUH5D_pad-15"><polygon points="256.25,-218.75 256.25,218.75 -256.25,218.75 -256.25,-218.75"/><circle cx="256.25" cy="-218.75" r="418.75"/><circle cx="256.25" cy="218.75" r="418.75"/><circle cx="-256.25" cy="218.75" r="418.75"/><circle cx="-256.25" cy="-218.75" r="418.75"/><polygon points="675,-218.75 675,218.75 -162.5,218.75 -162.5,-218.75"/><polygon points="256.25,-200 -256.25,-200 -256.25,637.5 256.25,637.5"/><polygon points="162.5,218.75 162.5,-218.75 -675,-218.75 -675,218.75"/><polygon points="-256.25,-637.5 256.25,-637.5 256.25,200 -256.25,200"/></g><circle cx="0" cy="0" r="4.15" id="JwGg2EBAOhtn_pad-1"/><circle cx="0" cy="0" r="23.6" id="JwGg2EBAOhtn_pad-2"/><g id="IarHJswmWpG0_bottom_copper"><use xlink:href="#xcSy1RO4bj_5_pad-10" x="87447.86" y="-62750"/><use xlink:href="#xcSy1RO4bj_5_pad-10" x="81702.38" y="-62750"/><use xlink:href="#xcSy1RO4bj_5_pad-11" x="98000" y="-58500"/><use xlink:href="#xcSy1RO4bj_5_pad-11" x="98000" y="-56250"/><use xlink:href="#xcSy1RO4bj_5_pad-11" x="98000" y="-54000"/><use xlink:href="#xcSy1RO4bj_5_pad-11" x="98000" y="-51750"/><use xlink:href="#xcSy1RO4bj_5_pad-12" x="74750" y="-66962.5"/><use xlink:href="#xcSy1RO4bj_5_pad-12" x="74750" y="-61037.5"/><use xlink:href="#xcSy1RO4bj_5_pad-13" x="84250" y="-46325"/><use xlink:href="#xcSy1RO4bj_5_pad-13" x="84250" y="-44675"/><use xlink:href="#xcSy1RO4bj_5_pad-13" x="77250" y="-46325"/><use xlink:href="#xcSy1RO4bj_5_pad-13" x="77250" y="-44675"/><use xlink:href="#xcSy1RO4bj_5_pad-13" x="75750" y="-46325"/><use xlink:href="#xcSy1RO4bj_5_pad-13" x="75750" y="-44675"/><use xlink:href="#xcSy1RO4bj_5_pad-13" x="90250" y="-46325"/><use xlink:href="#xcSy1RO4bj_5_pad-13" x="90250" y="-44675"/><use xlink:href="#xcSy1RO4bj_5_pad-13" x="88750" y="-46325"/><use xlink:href="#xcSy1RO4bj_5_pad-13" x="88750" y="-44675"/><use xlink:href="#xcSy1RO4bj_5_pad-13" x="87250" y="-46325"/><use xlink:href="#xcSy1RO4bj_5_pad-13" x="87250" y="-44675"/><use xlink:href="#xcSy1RO4bj_5_pad-13" x="85750" y="-46325"/><use xlink:href="#xcSy1RO4bj_5_pad-13" x="85750" y="-44675"/><use xlink:href="#xcSy1RO4bj_5_pad-13" x="82750" y="-46325"/><use xlink:href="#xcSy1RO4bj_5_pad-13" x="82750" y="-44675"/><use xlink:href="#xcSy1RO4bj_5_pad-14" x="82450" y="-58750"/><use xlink:href="#xcSy1RO4bj_5_pad-14" x="86750" y="-58750"/><use xlink:href="#xcSy1RO4bj_5_pad-14" x="82450" y="-66750"/><use xlink:href="#xcSy1RO4bj_5_pad-14" x="86750" y="-66750"/><use xlink:href="#xcSy1RO4bj_5_pad-15" x="75750" y="-43287.5"/><use xlink:href="#xcSy1RO4bj_5_pad-15" x="75750" y="-41712.5"/><use xlink:href="#xcSy1RO4bj_5_pad-15" x="90250" y="-43287.5"/><use xlink:href="#xcSy1RO4bj_5_pad-15" x="90250" y="-41712.5"/><use xlink:href="#xcSy1RO4bj_5_pad-15" x="88750" y="-43287.5"/><use xlink:href="#xcSy1RO4bj_5_pad-15" x="88750" y="-41712.5"/><use xlink:href="#xcSy1RO4bj_5_pad-15" x="87250" y="-43287.5"/><use xlink:href="#xcSy1RO4bj_5_pad-15" x="87250" y="-41712.5"/><use xlink:href="#xcSy1RO4bj_5_pad-15" x="85750" y="-43287.5"/><use xlink:href="#xcSy1RO4bj_5_pad-15" x="85750" y="-41712.5"/><use xlink:href="#xcSy1RO4bj_5_pad-15" x="84250" y="-43287.5"/><use xlink:href="#xcSy1RO4bj_5_pad-15" x="84250" y="-41712.5"/><use xlink:href="#xcSy1RO4bj_5_pad-15" x="77250" y="-43287.5"/><use xlink:href="#xcSy1RO4bj_5_pad-15" x="77250" y="-41712.5"/><use xlink:href="#xcSy1RO4bj_5_pad-15" x="82750" y="-43287.5"/><use xlink:href="#xcSy1RO4bj_5_pad-15" x="82750" y="-41712.5"/><use xlink:href="#xcSy1RO4bj_5_pad-16" x="77750" y="-56750"/><use xlink:href="#xcSy1RO4bj_5_pad-16" x="74250" y="-55000"/><use xlink:href="#xcSy1RO4bj_5_pad-16" x="89000" y="-51500"/><use xlink:href="#xcSy1RO4bj_5_pad-16" x="89000" y="-49500"/><use xlink:href="#xcSy1RO4bj_5_pad-16" x="91500" y="-53000"/><use xlink:href="#xcSy1RO4bj_5_pad-16" x="85750" y="-52350"/><use xlink:href="#xcSy1RO4bj_5_pad-16" x="92500" y="-53000"/><use xlink:href="#xcSy1RO4bj_5_pad-16" x="80250" y="-54250"/><use xlink:href="#xcSy1RO4bj_5_pad-16" x="80250" y="-53750"/><use xlink:href="#xcSy1RO4bj_5_pad-16" x="93500" y="-50000"/><use xlink:href="#xcSy1RO4bj_5_pad-16" x="76250" y="-53250"/><use xlink:href="#xcSy1RO4bj_5_pad-16" x="93500" y="-51500"/><use xlink:href="#xcSy1RO4bj_5_pad-16" x="76250" y="-52250"/><use xlink:href="#xcSy1RO4bj_5_pad-16" x="89000" y="-50000"/><use xlink:href="#xcSy1RO4bj_5_pad-16" x="92500" y="-48500"/><use xlink:href="#xcSy1RO4bj_5_pad-16" x="78750" y="-50750"/><use xlink:href="#xcSy1RO4bj_5_pad-16" x="89000" y="-52500"/><use xlink:href="#xcSy1RO4bj_5_pad-16" x="93000" y="-48500"/><use xlink:href="#xcSy1RO4bj_5_pad-16" x="93500" y="-51000"/><use xlink:href="#xcSy1RO4bj_5_pad-16" x="90500" y="-53000"/><use xlink:href="#xcSy1RO4bj_5_pad-16" x="92000" y="-53000"/><use xlink:href="#xcSy1RO4bj_5_pad-16" x="78250" y="-54750"/><use xlink:href="#xcSy1RO4bj_5_pad-16" x="93500" y="-52000"/><use xlink:href="#xcSy1RO4bj_5_pad-16" x="74250" y="-44250"/><use xlink:href="#xcSy1RO4bj_5_pad-16" x="76250" y="-52750"/><use xlink:href="#xcSy1RO4bj_5_pad-16" x="89000" y="-52000"/><use xlink:href="#xcSy1RO4bj_5_pad-16" x="76250" y="-54250"/><use xlink:href="#xcSy1RO4bj_5_pad-16" x="76500" y="-40750"/><use xlink:href="#xcSy1RO4bj_5_pad-16" x="80250" y="-52750"/><use xlink:href="#xcSy1RO4bj_5_pad-16" x="91500" y="-48500"/><use xlink:href="#xcSy1RO4bj_5_pad-16" x="76750" y="-50750"/><use xlink:href="#xcSy1RO4bj_5_pad-16" x="76750" y="-54750"/><use xlink:href="#xcSy1RO4bj_5_pad-16" x="79750" y="-54750"/><use xlink:href="#xcSy1RO4bj_5_pad-16" x="80250" y="-51250"/><use xlink:href="#xcSy1RO4bj_5_pad-16" x="92000" y="-48500"/><use xlink:href="#xcSy1RO4bj_5_pad-16" x="79250" y="-54750"/><use xlink:href="#xcSy1RO4bj_5_pad-16" x="89000" y="-51000"/><use xlink:href="#xcSy1RO4bj_5_pad-16" x="90000" y="-48500"/><use xlink:href="#xcSy1RO4bj_5_pad-16" x="95000" y="-57250"/><use xlink:href="#xcSy1RO4bj_5_pad-16" x="77750" y="-54750"/><use xlink:href="#xcSy1RO4bj_5_pad-16" x="80250" y="-53250"/><use xlink:href="#xcSy1RO4bj_5_pad-16" x="77250" y="-50750"/><use xlink:href="#xcSy1RO4bj_5_pad-16" x="89500" y="-53000"/><use xlink:href="#xcSy1RO4bj_5_pad-16" x="81500" y="-44250"/><use xlink:href="#xcSy1RO4bj_5_pad-16" x="83250" y="-47500"/><use xlink:href="#xcSy1RO4bj_5_pad-16" x="90000" y="-53000"/><use xlink:href="#xcSy1RO4bj_5_pad-16" x="85750" y="-54000"/><use xlink:href="#xcSy1RO4bj_5_pad-16" x="91000" y="-48500"/><use xlink:href="#xcSy1RO4bj_5_pad-16" x="91000" y="-53000"/><use xlink:href="#xcSy1RO4bj_5_pad-16" x="78250" y="-50750"/><use xlink:href="#xcSy1RO4bj_5_pad-16" x="78750" y="-54750"/><use xlink:href="#xcSy1RO4bj_5_pad-16" x="93500" y="-50500"/><use xlink:href="#xcSy1RO4bj_5_pad-16" x="92500" y="-41250"/><use xlink:href="#xcSy1RO4bj_5_pad-16" x="90500" y="-48500"/><use xlink:href="#xcSy1RO4bj_5_pad-16" x="80250" y="-52250"/><use xlink:href="#xcSy1RO4bj_5_pad-16" x="87000" y="-55250"/><use xlink:href="#xcSy1RO4bj_5_pad-16" x="77750" y="-50750"/><use xlink:href="#xcSy1RO4bj_5_pad-16" x="93000" y="-53000"/><use xlink:href="#xcSy1RO4bj_5_pad-16" x="89500" y="-48500"/><use xlink:href="#xcSy1RO4bj_5_pad-16" x="93500" y="-52500"/><use xlink:href="#xcSy1RO4bj_5_pad-16" x="76250" y="-51250"/><use xlink:href="#xcSy1RO4bj_5_pad-16" x="89000" y="-50500"/><use xlink:href="#xcSy1RO4bj_5_pad-16" x="76250" y="-51750"/><use xlink:href="#xcSy1RO4bj_5_pad-16" x="76250" y="-53750"/><use xlink:href="#xcSy1RO4bj_5_pad-16" x="80250" y="-51750"/><use xlink:href="#xcSy1RO4bj_5_pad-16" x="79750" y="-50750"/><use xlink:href="#xcSy1RO4bj_5_pad-16" x="77250" y="-54750"/><use xlink:href="#xcSy1RO4bj_5_pad-16" x="86500" y="-40750"/><use xlink:href="#xcSy1RO4bj_5_pad-16" x="78950" y="-47776"/><use xlink:href="#xcSy1RO4bj_5_pad-16" x="89000" y="-49000"/><use xlink:href="#xcSy1RO4bj_5_pad-16" x="79250" y="-50750"/><use xlink:href="#xcSy1RO4bj_5_pad-16" x="93500" y="-49000"/><use xlink:href="#xcSy1RO4bj_5_pad-16" x="93500" y="-49500"/><use xlink:href="#xcSy1RO4bj_5_pad-16" x="87850" y="-54250"/><use xlink:href="#xcSy1RO4bj_5_pad-16" x="84500" y="-52350"/><use xlink:href="#xcSy1RO4bj_5_pad-16" x="84500" y="-54000"/><use xlink:href="#xcSy1RO4bj_5_pad-16" x="74250" y="-47250"/><use xlink:href="#xcSy1RO4bj_5_pad-16" x="83250" y="-48500"/><use xlink:href="#xcSy1RO4bj_5_pad-16" x="86750" y="-48500"/><use xlink:href="#xcSy1RO4bj_5_pad-16" x="93750" y="-46250"/><use xlink:href="#xcSy1RO4bj_5_pad-16" x="92250" y="-46250"/><use xlink:href="#xcSy1RO4bj_5_pad-16" x="86650" y="-49500"/><use xlink:href="#xcSy1RO4bj_5_pad-16" x="86650" y="-50110"/><use xlink:href="#xcSy1RO4bj_5_pad-16" x="74250" y="-53250"/><use xlink:href="#xcSy1RO4bj_5_pad-16" x="79750" y="-59000"/><use xlink:href="#xcSy1RO4bj_5_pad-16" x="77762" y="-59000"/><use xlink:href="#xcSy1RO4bj_5_pad-16" x="77750" y="-58250"/><use xlink:href="#xcSy1RO4bj_5_pad-16" x="79750" y="-58250"/><use xlink:href="#xcSy1RO4bj_5_pad-16" x="74250" y="-51500"/><use xlink:href="#xcSy1RO4bj_5_pad-16" x="94250" y="-43750"/><use xlink:href="#xcSy1RO4bj_5_pad-16" x="95750" y="-50070.003"/><use xlink:href="#xcSy1RO4bj_5_pad-16" x="86650" y="-50720"/><use xlink:href="#xcSy1RO4bj_5_pad-16" x="78050" y="-48850"/><use xlink:href="#xcSy1RO4bj_5_pad-16" x="82750" y="-45500"/><use xlink:href="#xcSy1RO4bj_5_pad-16" x="84250" y="-45500"/><use xlink:href="#xcSy1RO4bj_5_pad-16" x="85750" y="-45500"/><use xlink:href="#xcSy1RO4bj_5_pad-16" x="87250" y="-45500"/><use xlink:href="#xcSy1RO4bj_5_pad-16" x="88750" y="-45500"/><use xlink:href="#xcSy1RO4bj_5_pad-16" x="90250" y="-45500"/><use xlink:href="#xcSy1RO4bj_5_pad-16" x="74250" y="-50750"/><use xlink:href="#xcSy1RO4bj_5_pad-16" x="74250" y="-52500"/><use xlink:href="#xcSy1RO4bj_5_pad-16" x="90250" y="-42525"/><use xlink:href="#xcSy1RO4bj_5_pad-16" x="88750" y="-42525"/><use xlink:href="#xcSy1RO4bj_5_pad-16" x="87250" y="-42525"/><use xlink:href="#xcSy1RO4bj_5_pad-16" x="85750" y="-42525"/><use xlink:href="#xcSy1RO4bj_5_pad-16" x="84250" y="-42525"/><use xlink:href="#xcSy1RO4bj_5_pad-16" x="82750" y="-42525"/><use xlink:href="#xcSy1RO4bj_5_pad-16" x="77250" y="-42525"/><use xlink:href="#xcSy1RO4bj_5_pad-16" x="75750" y="-42525"/><use xlink:href="#xcSy1RO4bj_5_pad-16" x="95750" y="-53500"/><use xlink:href="#xcSy1RO4bj_5_pad-16" x="95750" y="-54225"/><use xlink:href="#xcSy1RO4bj_5_pad-16" x="77300" y="-48850"/><use xlink:href="#xcSy1RO4bj_5_pad-16" x="74250" y="-46500"/><use xlink:href="#xcSy1RO4bj_5_pad-16" x="92250" y="-55500"/><use xlink:href="#xcSy1RO4bj_5_pad-16" x="86750" y="-52250"/><use xlink:href="#xcSy1RO4bj_5_pad-16" x="91500" y="-45750"/><use xlink:href="#xcSy1RO4bj_5_pad-16" x="97009.826" y="-57504.913"/><use xlink:href="#xcSy1RO4bj_5_pad-16" x="79750" y="-57500"/><use xlink:href="#xcSy1RO4bj_5_pad-16" x="96000" y="-55000"/><use xlink:href="#xcSy1RO4bj_5_pad-16" x="81250" y="-49750"/><use xlink:href="#xcSy1RO4bj_5_pad-16" x="75250" y="-55750"/><use xlink:href="#xcSy1RO4bj_5_pad-16" x="75250" y="-49750"/><use xlink:href="#xcSy1RO4bj_5_pad-16" x="95750" y="-49480"/><use xlink:href="#xcSy1RO4bj_5_pad-16" x="77750" y="-57500"/><use xlink:href="#xcSy1RO4bj_5_pad-16" x="96000" y="-45750"/><use xlink:href="#xcSy1RO4bj_5_pad-16" x="83250" y="-52300"/><path d="M 74250 -55750 74250 -55000 M 75250 -56750 74250 -55750 M 77750 -56750 75250 -56750" fill="none" stroke-width="310"/><path d="M 87250 -41650 88750 -41650 90250 -41650 M 82750 -41650 84250 -41650 85750 -41650 M 76250 -53750 76250 -53250 M 77750 -54750 77685.8 -54814.2 77314.2 -54814.2 M 83250 -47500 79226 -47500 M 86500 -41650 87250 -41650 M 76500 -41650 75975.1 -41650 M 78750 -54750 78250 -54750" fill="none" stroke-width="110"/><path d="M 82450 -56450 80250 -54250" fill="none" stroke-width="310"/><path d="M 92100 -41650 92500 -41250 M 77750 -50750 78250 -50750" fill="none" stroke-width="110"/><path d="M 81702.38 -62750 81702.38 -59497.62" fill="none" stroke-width="310"/><path d="M 76250 -52750 76250 -52250 M 77250 -41650 82750 -41650 M 80250 -54250 80250 -53750 M 77314.2 -54814.2 77250 -54750 M 76250 -53250 76250 -52750 M 80250 -51750 80250 -52250 80250 -52750 M 86500 -40750 86500 -41650 M 80250 -51250 80250 -51750 M 79226 -47500 78950 -47776 M 85750 -54000 87000 -55250 M 85750 -41650 86500 -41650" fill="none" stroke-width="110"/><path d="M 82450 -58750 82450 -56450" fill="none" stroke-width="310"/><path d="M 80250 -53750 80250 -53250 M 76500 -40750 76500 -41650 M 80250 -53250 80250 -52750 M 77250 -41650 76500 -41650 M 76250 -51750 76250 -52250 M 90250 -41650 92100 -41650 M 76250 -51250 76250 -51750 M 84500 -51622.28 81817.72 -48940 M 78410 -49330 77080 -49330 M 76870 -49120 76870 -48610 M 77080 -47880 76670 -47470 M 78800 -48940 78410 -49330 M 81817.72 -48940 78800 -48940 M 76870 -48610 77080 -48400 M 84500 -52350 84500 -51622.28 M 77080 -49330 76870 -49120 M 74470 -47470 74250 -47250 M 76670 -47470 74470 -47470 M 84979.99 -53520.01 87120.01 -53520.01 M 84500 -54000 84979.99 -53520.01 M 77080 -48400 77080 -47880 M 87120.01 -53520.01 87850 -54250 M 83250 -48500 86750 -48500 M 92250 -46250 93750 -46250 M 82091.13 -48279.99 83701.14 -49890 M 77250 -46287.5 77250 -47050 78479.99 -48279.99 82091.13 -48279.99 M 86260 -49890 86650 -49500 M 83701.14 -49890 86260 -49890 M 82000 -48500 83610 -50110 M 78388.874 -48500 82000 -48500 M 75955 -47030 76918.874 -47030 M 83610 -50110 86650 -50110 M 76918.874 -47030 78388.874 -48500 M 75750 -46287.5 75750 -46825 75955 -47030" fill="none" stroke-width="110"/><path d="M 73000 -56250 74750 -58000 M 77750 -66500 77350 -66900 M 74750 -58000 75250 -58000 M 82600 -66500 77750 -66500 M 75250 -58000 77750 -60500 77750 -66500 M 74250 -53250 73000 -54500 73000 -56250 M 77350 -66900 74750 -66900" fill="none" stroke-width="310"/><path d="M 79750 -59000 77762 -59000 M 79750 -58250 77750 -58250" fill="none" stroke-width="210"/><path d="M 71750 -56750 71750 -54000 74250 -51500 M 74750 -61100 74750 -59750 71750 -56750" fill="none" stroke-width="310"/><path d="M 95711.891 -50070.003 95750 -50070.003 M 95250 -49608.112 95711.891 -50070.003 M 94250 -43750 95250 -44750 95250 -49608.112 M 81908.86 -48720 83518.859 -50330 M 86650 -50720 86260 -50330 M 78050 -48850 78180 -48720 81908.86 -48720 M 86260 -50330 83518.859 -50330 M 82750 -45500 82750 -46250 M 84250 -45500 84250 -46250 M 85750 -45500 85750 -46250 M 87250 -45500 87250 -46250 M 88750 -45500 88750 -46250 M 90250 -45500 90250 -46250" fill="none" stroke-width="110"/><path d="M 87447.86 -62750 87447.86 -65952.14 M 87447.86 -62750 87447.86 -59547.86" fill="none" stroke-width="310"/><path d="M 74750 -52000 74250 -52500 M 74750 -51250 74750 -52000 M 74250 -50750 74750 -51250 M 90250 -43350 90250 -42500 M 90250 -43350 90250 -44750 M 88750 -43350 88750 -42500 M 88750 -43350 88750 -44750 M 87250 -44750 87250 -43350 87250 -42500 M 85750 -43350 85750 -44750 M 85750 -43350 85750 -42500 M 84250 -43350 84250 -44750 M 84250 -43350 84250 -42500 M 82750 -43350 82750 -44750 M 82750 -43350 82750 -42500 M 77250 -42525 77250 -44750 M 75750 -42525 75750 -44750 M 96250 -54000 98000 -54000 M 96250 -54000 95750 -53500 M 96725 -54225 95750 -54225 M 98000 -56250 98000 -55500 96725 -54225 M 74676 -47117 74676 -46736 74440 -46500 M 74809 -47250 76827.748 -47250 M 77300 -47722.252 76827.748 -47250 M 74440 -46500 74250 -46500 M 77300 -47722.252 77300 -48850 M 74809 -47250 74676 -47117" fill="none" stroke-width="110"/><path d="M 90750 -47250 91500 -46500 M 88500 -47250 90750 -47250 M 95270 -54423.823 95846.177 -55000 96000 -55000 M 75250 -55750 75250 -49750 M 86750 -52250 87750 -51250 M 86000 -53000 86750 -52250 M 95500 -55500 96000 -55000 M 77750 -57500 79750 -57500 M 95750 -46000 96000 -45750 M 83250 -51750 81250 -49750 M 96230 -52341.177 95335.588 -53235.589 M 75250 -49750 81250 -49750 M 91500 -46500 91500 -45750 M 96230 -52270 96230 -49871.18 M 87750 -48000 88500 -47250 M 95750 -49500 95750 -46000 M 92250 -55500 95500 -55500 M 83250 -52300 84000 -53000 M 95335.588 -53235.589 95270 -53301.177 M 84000 -53000 86000 -53000 M 83250 -52300 83250 -51750 M 95270 -53301.177 95270 -54423.823 M 95838.82 -49480 95750 -49480 M 96230 -52270 96230 -52341.177 M 87750 -51250 87750 -48000 M 97009.826 -57504.913 97009.826 -57509.826 98000 -58500 M 96230 -49871.18 95838.82 -49480" fill="none" stroke-width="210"/><path d="M 97305.304 -40528.502 97326.278 -40545.405 99454.595 -42673.722 99488.621 -42736.034 99491.5 -42762.817 99491.5 -67237.183 99471.498 -67305.304 99454.595 -67326.278 97326.278 -69454.595 97263.966 -69488.621 97237.183 -69491.5 90376 -69491.5 90307.879 -69471.498 90261.386 -69417.842 90250 -69365.5 90250 -55750 78750 -55750 78750 -56760.5 78729.998 -56828.621 78676.342 -56875.114 78624 -56886.5 78619.039 -56886.5 78550.918 -56866.498 78504.425 -56812.842 78493.051 -56758.741 78493.118 -56753.963 78493.118 -56753.957 78493.173 -56750 78474.705 -56585.351 78420.218 -56428.886 78332.42 -56288.38 78280.257 -56235.851 78220.637 -56175.814 78215.675 -56170.817 78207.775 -56165.803 78128.717 -56115.632 78075.786 -56082.041 77955.774 -56039.306 77926.338 -56028.824 77926.336 -56028.823 77919.704 -56026.462 77912.718 -56025.629 77912.714 -56025.628 77784.238 -56010.309 77755.188 -56006.845 77748.186 -56007.581 77748.184 -56007.581 77597.415 -56023.428 77597.413 -56023.428 77590.415 -56024.164 77433.572 -56077.557 77433.196 -56076.453 77388.247 -56086.5 76092.508 -56086.5 76024.387 -56066.498 75977.894 -56012.842 75967.79 -55942.568 75968.796 -55937.528 75969.825 -55934.82 75972.2 -55917.923 75992.332 -55774.675 75992.333 -55774.668 75992.883 -55770.751 75993.091 -55755.865 75993.118 -55753.962 75993.118 -55753.956 75993.173 -55750 75974.705 -55585.351 75920.218 -55428.886 75882.646 -55368.758 75863.5 -55301.988 75863.5 -50489.5 75883.502 -50421.379 75937.158 -50374.886 75989.5 -50363.5 80801.185 -50363.5 80870.177 -50384.067 80914.92 -50413.346 80921.524 -50415.802 80921.526 -50415.803 81063.605 -50468.642 81063.608 -50468.643 81070.21 -50471.098 81077.193 -50472.03 81079.545 -50472.616 81138.158 -50505.778 82532.27 -51899.89 82566.296 -51962.202 82561.576 -52032.079 82530.075 -52118.626 82530.074 -52118.631 82527.665 -52125.249 82506.899 -52289.624 82523.067 -52454.514 82575.364 -52611.725 82583.822 -52625.69 82651.443 -52737.345 82661.192 -52753.443 82666.083 -52758.508 82666.084 -52758.509 82690.186 -52783.467 82776.284 -52872.625 82782.176 -52876.48 82782.18 -52876.484 82909.024 -52959.488 82914.92 -52963.346 82921.524 -52965.802 82921.526 -52965.803 82977.569 -52986.645 83070.21 -53021.098 83077.193 -53022.03 83077.194 -53022.03 83092.461 -53024.067 83161.767 -53056.847 83340.51 -53223.674 83580.61 -53447.767 83636.528 -53500.277 83643.472 -53504.095 83643.474 -53504.096 83664.664 -53515.745 83677.712 -53523.997 83703.751 -53542.794 83731.542 -53553.699 83746.211 -53560.575 83758.056 -53567.087 83808.114 -53617.433 83823.007 -53686.85 83815.757 -53720.592 83777.665 -53825.249 83756.899 -53989.624 83773.067 -54154.514 83775.291 -54161.199 83775.291 -54161.2 83798.299 -54230.365 83825.364 -54311.725 83829.013 -54317.75 83903.9 -54441.402 83911.192 -54453.443 84026.284 -54572.625 84032.176 -54576.48 84032.18 -54576.484 84159.024 -54659.488 84164.92 -54663.346 84171.524 -54665.802 84171.526 -54665.803 84225.891 -54686.021 84320.21 -54721.098 84484.436 -54743.01 84491.447 -54742.372 84491.451 -54742.372 84642.415 -54728.633 84649.436 -54727.994 84656.138 -54725.816 84656.14 -54725.816 84800.309 -54678.973 84800.312 -54678.972 84807.008 -54676.796 84906.901 -54617.248 84943.267 -54595.57 84943.27 -54595.568 84949.322 -54591.96 85032.621 -54512.635 85064.2 -54482.563 85064.202 -54482.561 85069.304 -54477.702 85160.99 -54339.703 85219.825 -54184.82 85220.771 -54178.092 85257.035 -54117.169 85320.567 -54085.48 85342.762 -54083.51 86834.409 -54083.51 86902.53 -54103.512 86923.504 -54120.415 87081.975 -54278.886 87116.001 -54341.198 87118.279 -54355.685 87121.214 -54385.61 87123.067 -54404.514 87175.364 -54561.725 87184.983 -54577.607 87255.812 -54694.559 87261.192 -54703.443 87266.083 -54708.508 87266.084 -54708.509 87286.062 -54729.197 87376.284 -54822.625 87382.176 -54826.48 87382.18 -54826.484 87504.29 -54906.39 87514.92 -54913.346 87521.524 -54915.802 87521.526 -54915.803 87592.565 -54942.222 87670.21 -54971.098 87834.436 -54993.01 87841.447 -54992.372 87841.451 -54992.372 87992.415 -54978.633 87999.436 -54977.994 88006.138 -54975.816 88006.14 -54975.816 88150.309 -54928.973 88150.312 -54928.972 88157.008 -54926.796 88238.708 -54878.093 88293.267 -54845.57 88293.27 -54845.568 88299.322 -54841.96 88388.701 -54756.845 88414.2 -54732.563 88414.202 -54732.561 88419.304 -54727.702 88510.99 -54589.703 88551.689 -54482.563 88567.325 -54441.402 88567.326 -54441.4 88569.825 -54434.82 88578.435 -54373.556 88592.332 -54274.675 88592.333 -54274.668 88592.883 -54270.751 88593.026 -54260.5 88593.118 -54253.962 88593.118 -54253.956 88593.173 -54250 88574.705 -54085.351 88520.218 -53928.886 88499.771 -53896.163 88436.153 -53794.354 88432.42 -53788.38 88315.675 -53670.817 88175.786 -53582.041 88065.569 -53542.794 88026.338 -53528.824 88026.336 -53528.823 88019.704 -53526.462 88012.718 -53525.629 88012.714 -53525.628 87960.832 -53519.442 87953.653 -53518.586 87888.38 -53490.659 87879.477 -53482.567 87550.424 -53153.514 87539.556 -53141.123 87526.926 -53124.663 87521.903 -53118.117 87404.191 -53027.794 87304.34 -52986.434 87249.06 -52941.885 87226.639 -52874.521 87244.198 -52805.73 87265.663 -52778.784 87319.304 -52727.702 87410.99 -52589.703 87469.825 -52434.82 87470.806 -52427.84 87472.557 -52421.02 87475.336 -52421.734 87499.297 -52368.818 87505.691 -52361.929 88129.97 -51737.65 88137.859 -51730.471 88144.168 -51726.467 88189.287 -51678.42 88192.041 -51675.579 88211.103 -51656.517 88213.529 -51653.39 88213.951 -51652.911 88221.09 -51644.554 88244.851 -51619.25 88250.277 -51613.472 88259.578 -51596.554 88270.43 -51580.034 88277.403 -51571.045 88277.404 -51571.043 88282.263 -51564.779 88299.199 -51525.643 88304.418 -51514.99 88321.133 -51484.585 88321.134 -51484.582 88324.951 -51477.639 88329.751 -51458.943 88336.155 -51440.239 88337.79 -51436.461 88343.823 -51422.521 88350.493 -51380.404 88352.897 -51368.797 88363.5 -51327.503 88363.5 -51308.208 88365.051 -51288.497 88366.832 -51277.252 88368.072 -51269.423 88364.059 -51226.975 88363.5 -51215.116 88363.5 -48306.31 88383.502 -48238.189 88400.405 -48217.215 88717.215 -47900.405 88779.527 -47866.379 88806.31 -47863.5 90673.871 -47863.5 90684.512 -47864.002 90691.806 -47865.632 90699.732 -47865.383 90699.733 -47865.383 90757.673 -47863.562 90761.631 -47863.5 90788.598 -47863.5 90792.536 -47863.003 90793.277 -47862.956 90804.116 -47862.103 90846.736 -47860.763 90854.351 -47858.55 90854.354 -47858.55 90865.269 -47855.379 90884.634 -47851.368 90895.925 -47849.942 90895.927 -47849.941 90903.784 -47848.949 90911.148 -47846.033 90911.153 -47846.032 90943.425 -47833.254 90954.658 -47829.408 90987.972 -47819.73 90987.976 -47819.728 90995.587 -47817.517 91012.201 -47807.691 91029.955 -47798.994 91047.905 -47791.887 91082.397 -47766.827 91092.306 -47760.318 91129.007 -47738.613 91142.651 -47724.969 91157.685 -47712.128 91166.893 -47705.438 91166.894 -47705.437 91173.308 -47700.777 91200.487 -47667.923 91208.477 -47659.143 91879.97 -46987.65 91887.856 -46980.473 91894.168 -46976.467 91897.415 -46973.009 91961.351 -46945.558 92020.349 -46952.555 92070.21 -46971.098 92234.436 -46993.01 92241.447 -46992.372 92241.451 -46992.372 92392.415 -46978.633 92399.436 -46977.994 92406.138 -46975.816 92406.14 -46975.816 92550.309 -46928.973 92550.312 -46928.972 92557.008 -46926.796 92699.322 -46841.96 92702.65 -46838.79 92768.099 -46813.883 92777.922 -46813.5 93224.778 -46813.5 93293.77 -46834.068 93414.92 -46913.346 93421.524 -46915.802 93421.526 -46915.803 93492.565 -46942.222 93570.21 -46971.098 93734.436 -46993.01 93741.447 -46992.372 93741.451 -46992.372 93892.415 -46978.633 93899.436 -46977.994 93906.138 -46975.816 93906.14 -46975.816 94050.309 -46928.973 94050.312 -46928.972 94057.008 -46926.796 94126.881 -46885.143 94193.267 -46845.57 94193.27 -46845.568 94199.322 -46841.96 94264.118 -46780.255 94314.2 -46732.563 94314.202 -46732.561 94319.304 -46727.702 94410.99 -46589.703 94442.712 -46506.195 94485.601 -46449.617 94552.27 -46425.208 94621.551 -46440.718 94671.45 -46491.222 94686.5 -46550.939 94686.5 -49562.916 94685.422 -49579.363 94681.637 -49608.112 94701.004 -49755.215 94757.784 -49892.293 94822.373 -49976.467 94848.107 -50010.005 94854.657 -50015.031 94854.658 -50015.032 94871.109 -50027.655 94883.5 -50038.522 94939.268 -50094.289 94986.118 -50141.139 95020.143 -50203.451 95022.279 -50217.035 95022.38 -50217.51 95023.067 -50224.517 95075.364 -50381.728 95161.192 -50523.446 95166.083 -50528.511 95166.084 -50528.512 95211.217 -50575.249 95276.284 -50642.628 95282.176 -50646.483 95282.18 -50646.487 95409.024 -50729.491 95414.92 -50733.349 95421.524 -50735.805 95421.526 -50735.806 95534.42 -50777.791 95591.296 -50820.283 95616.17 -50886.78 95616.5 -50895.888 95616.5 -52034.867 95596.498 -52102.988 95579.595 -52123.962 94890.03 -52813.527 94882.141 -52820.706 94875.832 -52824.71 94870.407 -52830.487 94830.714 -52872.756 94827.959 -52875.598 94808.897 -52894.66 94806.471 -52897.787 94806.049 -52898.266 94798.91 -52906.623 94798.656 -52906.894 94769.723 -52937.705 94760.422 -52954.623 94749.571 -52971.142 94737.737 -52986.398 94734.59 -52993.671 94734.589 -52993.672 94731.936 -52999.803 94722.318 -53022.03 94720.803 -53025.53 94715.582 -53036.187 94699.302 -53065.802 94695.049 -53073.538 94693.079 -53081.213 94690.25 -53092.231 94683.846 -53110.934 94676.177 -53128.656 94674.937 -53136.483 94674.937 -53136.484 94669.508 -53170.762 94667.1 -53182.386 94658.472 -53215.989 94658.471 -53215.998 94656.5 -53223.674 94656.5 -53242.975 94654.949 -53262.685 94651.929 -53281.753 94652.675 -53289.644 94655.941 -53324.194 94656.5 -53336.052 94656.5 -54347.694 94655.998 -54358.335 94654.368 -54365.629 94654.617 -54373.555 94654.617 -54373.556 94656.438 -54431.496 94656.5 -54435.454 94656.5 -54462.421 94656.997 -54466.359 94657.044 -54467.1 94657.897 -54477.939 94659.237 -54520.559 94661.45 -54528.174 94661.45 -54528.177 94664.621 -54539.092 94668.632 -54558.457 94671.051 -54577.607 94673.967 -54584.971 94673.968 -54584.976 94686.746 -54617.248 94690.592 -54628.481 94700.27 -54661.795 94700.272 -54661.799 94702.483 -54669.41 94706.518 -54676.232 94706.518 -54676.233 94712.307 -54686.021 94721.006 -54703.778 94725.102 -54714.123 94731.577 -54784.824 94698.801 -54847.802 94637.179 -54883.062 94607.947 -54886.5 92698.206 -54886.5 92630.694 -54866.887 92575.786 -54832.041 92443.187 -54784.824 92426.338 -54778.824 92426.336 -54778.823 92419.704 -54776.462 92412.718 -54775.629 92412.714 -54775.628 92290.243 -54761.025 92255.188 -54756.845 92248.186 -54757.581 92248.184 -54757.581 92097.415 -54773.428 92097.413 -54773.428 92090.415 -54774.164 91933.572 -54827.557 91894.119 -54851.829 91798.459 -54910.679 91798.456 -54910.681 91792.457 -54914.372 91674.082 -55030.293 91670.263 -55036.218 91670.262 -55036.22 91664.192 -55045.639 91584.331 -55169.559 91581.92 -55176.182 91581.919 -55176.185 91530.075 -55318.626 91530.074 -55318.631 91527.665 -55325.249 91506.899 -55489.624 91523.067 -55654.514 91575.364 -55811.725 91579.013 -55817.75 91646.489 -55929.165 91661.192 -55953.443 91666.083 -55958.508 91666.084 -55958.509 91718.553 -56012.842 91776.284 -56072.625 91782.176 -56076.48 91782.18 -56076.484 91842.005 -56115.632 91914.92 -56163.346 91921.524 -56165.802 91921.526 -56165.803 91992.565 -56192.222 92070.21 -56221.098 92234.436 -56243.01 92241.447 -56242.372 92241.451 -56242.372 92392.415 -56228.633 92399.436 -56227.994 92406.138 -56225.816 92406.14 -56225.816 92550.309 -56178.973 92550.312 -56178.972 92557.008 -56176.796 92633.377 -56131.271 92697.894 -56113.5 95423.871 -56113.5 95434.512 -56114.002 95441.806 -56115.632 95449.732 -56115.383 95449.733 -56115.383 95507.673 -56113.562 95511.631 -56113.5 95538.598 -56113.5 95542.536 -56113.003 95543.277 -56112.956 95554.116 -56112.103 95596.736 -56110.763 95604.351 -56108.55 95604.354 -56108.55 95615.269 -56105.379 95634.634 -56101.368 95645.925 -56099.942 95645.927 -56099.941 95653.784 -56098.949 95661.148 -56096.033 95661.153 -56096.032 95693.425 -56083.254 95704.658 -56079.408 95737.972 -56069.73 95737.976 -56069.728 95745.587 -56067.517 95762.201 -56057.691 95779.955 -56048.994 95797.905 -56041.887 95832.397 -56016.827 95842.306 -56010.318 95879.007 -55988.613 95892.651 -55974.969 95907.685 -55962.128 95916.893 -55955.438 95916.894 -55955.437 95923.308 -55950.777 95950.487 -55917.923 95958.477 -55909.143 96113.514 -55754.106 96163.673 -55723.368 96300.309 -55678.973 96300.312 -55678.972 96307.008 -55676.796 96376.881 -55635.143 96443.267 -55595.57 96443.27 -55595.568 96449.322 -55591.96 96514.118 -55530.255 96564.2 -55482.563 96564.202 -55482.561 96569.304 -55477.702 96660.99 -55339.703 96668.997 -55318.626 96696.935 -55245.079 96739.824 -55188.501 96806.493 -55164.092 96875.775 -55179.602 96903.818 -55200.728 97181.084 -55477.994 97215.11 -55540.306 97210.045 -55611.121 97188.511 -55648.079 97177.502 -55661.2 97163.846 -55677.474 97160.879 -55682.872 97160.875 -55682.877 97093.717 -55805.039 97068.567 -55850.787 97066.706 -55856.654 97066.705 -55856.656 97012.839 -56026.462 97008.765 -56039.306 96986.719 -56235.851 97003.268 -56432.934 97004.967 -56438.858 97053.752 -56608.993 97053.301 -56679.988 97014.539 -56739.469 96945.804 -56769.033 96882 -56775.739 96857.242 -56778.341 96857.241 -56778.341 96850.241 -56779.077 96751.056 -56812.842 96704.705 -56828.621 96693.398 -56832.47 96687.394 -56836.164 96558.285 -56915.592 96558.282 -56915.594 96552.283 -56919.285 96433.908 -57035.206 96430.089 -57041.131 96430.088 -57041.133 96410.152 -57072.068 96344.157 -57174.472 96341.746 -57181.095 96341.745 -57181.098 96289.901 -57323.539 96289.9 -57323.544 96287.491 -57330.162 96266.725 -57494.537 96282.893 -57659.427 96335.19 -57816.638 96338.839 -57822.663 96406.527 -57934.428 96421.018 -57958.356 96536.11 -58077.538 96542.002 -58081.393 96542.006 -58081.397 96668.85 -58164.401 96674.746 -58168.259 96681.35 -58170.715 96681.352 -58170.716 96823.432 -58223.555 96830.036 -58226.011 96833.954 -58226.534 96891.44 -58259.06 96957.104 -58324.724 96991.13 -58387.036 96993.224 -58427.861 96986.719 -58485.851 96987.235 -58491.995 97002.375 -58672.294 97003.268 -58682.934 97057.783 -58873.05 97148.187 -59048.956 97271.035 -59203.953 97275.728 -59207.947 97275.729 -59207.948 97393.287 -59307.997 97421.65 -59332.136 97594.294 -59428.624 97782.392 -59489.74 97978.777 -59513.158 97984.912 -59512.686 97984.914 -59512.686 98169.83 -59498.457 98169.834 -59498.456 98175.972 -59497.984 98366.463 -59444.798 98371.967 -59442.018 98371.969 -59442.017 98537.495 -59358.404 98537.497 -59358.403 98542.996 -59355.625 98698.847 -59233.861 98828.078 -59084.145 98925.769 -58912.179 98988.197 -58724.513 99012.985 -58528.295 99013.38 -58500 98994.08 -58303.167 98936.916 -58113.831 98844.066 -57939.204 98773.709 -57852.938 98722.96 -57790.713 98722.957 -57790.71 98719.065 -57785.938 98714.316 -57782.009 98571.425 -57663.799 98571.421 -57663.797 98566.675 -57659.87 98392.701 -57565.802 98203.768 -57507.318 98197.645 -57506.675 98197.643 -57506.674 98161.924 -57502.92 98144.425 -57501.081 98078.768 -57474.068 98038.138 -57415.847 98035.435 -57344.901 98071.517 -57283.757 98134.928 -57251.827 98147.928 -57250.142 98169.83 -57248.457 98169.834 -57248.456 98175.972 -57247.984 98366.463 -57194.798 98371.967 -57192.018 98371.969 -57192.017 98537.495 -57108.404 98537.497 -57108.403 98542.996 -57105.625 98698.847 -56983.861 98814.18 -56850.246 98824.049 -56838.813 98824.05 -56838.811 98828.078 -56834.145 98925.769 -56662.179 98988.197 -56474.513 99012.985 -56278.295 99013.38 -56250 98994.08 -56053.167 98990.675 -56041.887 98964.574 -55955.438 98936.916 -55863.831 98844.066 -55689.204 98764.756 -55591.96 98722.96 -55540.713 98722.957 -55540.71 98719.065 -55535.938 98593.123 -55431.75 98551.731 -55367.273 98550.075 -55361.09 98548.996 -55352.897 98542.875 -55338.118 98495.376 -55223.449 98492.216 -55215.819 98473.24 -55191.089 98424.569 -55127.659 98401.893 -55098.107 98403.969 -55096.514 98376.188 -55045.639 98381.253 -54974.824 98423.8 -54917.988 98442.498 -54906.39 98542.996 -54855.625 98698.847 -54733.861 98818.216 -54595.57 98824.049 -54588.813 98824.05 -54588.811 98828.078 -54584.145 98925.769 -54412.179 98988.197 -54224.513 99012.985 -54028.295 99013.38 -54000 98994.08 -53803.167 98936.916 -53613.831 98844.066 -53439.204 98773.709 -53352.938 98722.96 -53290.713 98722.957 -53290.71 98719.065 -53285.938 98714.316 -53282.009 98571.425 -53163.799 98571.421 -53163.797 98566.675 -53159.87 98392.701 -53065.802 98203.768 -53007.318 98197.645 -53006.675 98197.643 -53006.674 98141.668 -53000.791 98076.011 -52973.778 98035.382 -52915.556 98032.679 -52844.611 98068.761 -52783.467 98132.173 -52751.537 98145.173 -52749.852 98169.741 -52747.962 98181.822 -52745.831 98360.345 -52695.986 98371.778 -52691.552 98495.507 -52629.052 98505.791 -52619.407 98503.553 -52612.763 98012.812 -52122.022 97998.868 -52114.408 97997.035 -52114.539 97990.42 -52118.79 97502.458 -52606.752 97495.698 -52619.132 97500.607 -52625.69 97589.118 -52675.157 97600.357 -52680.067 97776.641 -52737.345 97788.615 -52739.978 97866.007 -52749.207 97931.281 -52777.135 97971.093 -52835.918 97972.805 -52906.894 97935.872 -52967.528 97872.021 -52998.57 97862.541 -52999.799 97810.112 -53004.57 97804.206 -53006.308 97804.202 -53006.309 97725.783 -53029.389 97620.381 -53060.41 97614.923 -53063.263 97614.919 -53063.265 97541.143 -53101.835 97445.11 -53152.04 97290.975 -53275.968 97218.079 -53362.842 97194.039 -53391.492 97134.93 -53430.818 97097.518 -53436.5 96597.465 -53436.5 96529.344 -53416.498 96482.851 -53362.842 96475.274 -53340.423 96474.705 -53335.351 96420.218 -53178.886 96411.681 -53165.223 96392.544 -53096.856 96413.408 -53028.995 96429.439 -53009.358 96609.97 -52828.827 96617.859 -52821.648 96624.168 -52817.644 96669.287 -52769.597 96672.041 -52766.756 96691.103 -52747.694 96693.529 -52744.567 96693.951 -52744.088 96701.09 -52735.731 96724.851 -52710.427 96730.277 -52704.649 96739.578 -52687.731 96750.43 -52671.211 96757.403 -52662.222 96757.404 -52662.22 96762.263 -52655.956 96779.199 -52616.82 96784.418 -52606.167 96801.133 -52575.762 96801.134 -52575.759 96804.951 -52568.816 96809.751 -52550.12 96816.155 -52531.416 96823.823 -52513.698 96830.493 -52471.581 96832.897 -52459.974 96843.5 -52418.68 96843.5 -52399.385 96845.051 -52379.674 96846.832 -52368.429 96848.072 -52360.6 96844.059 -52318.152 96843.5 -52306.293 96843.5 -52225.828 96863.502 -52157.707 96917.158 -52111.214 96987.432 -52101.11 97052.012 -52130.604 97081.567 -52168.234 97121.147 -52245.25 97130.865 -52255.468 97137.666 -52253.124 97627.978 -51762.812 97634.356 -51751.132 98364.408 -51751.132 98364.539 -51752.965 98368.79 -51759.58 98856.661 -52247.451 98869.041 -52254.211 98875.775 -52249.17 98922.262 -52167.337 98927.256 -52156.121 98985.759 -51980.253 98988.479 -51968.281 99012.039 -51781.784 99012.531 -51774.757 99012.828 -51753.523 99012.533 -51746.494 98994.188 -51559.397 98991.805 -51547.362 98938.233 -51369.924 98933.559 -51358.584 98878.562 -51255.148 98868.702 -51245.067 98861.575 -51247.635 98372.022 -51737.188 98364.408 -51751.132 97634.356 -51751.132 97635.592 -51748.868 97635.461 -51747.035 97631.21 -51740.42 97143.121 -51252.331 97130.741 -51245.571 97124.353 -51250.353 97079.914 -51331.186 97029.569 -51381.244 96960.152 -51396.137 96893.703 -51371.136 96851.319 -51314.179 96843.5 -51270.484 96843.5 -50881.101 97494.82 -50881.101 97497.274 -50888.064 97987.188 -51377.978 98001.132 -51385.592 98002.965 -51385.461 98009.58 -51381.21 98497.834 -50892.956 98504.594 -50880.576 98499.935 -50874.353 98397.924 -50819.196 98386.619 -50814.444 98209.554 -50759.633 98197.541 -50757.167 98013.199 -50737.792 98000.931 -50737.707 97816.345 -50754.505 97804.296 -50756.803 97626.483 -50809.137 97615.108 -50813.732 97504.969 -50871.312 97494.82 -50881.101 96843.5 -50881.101 96843.5 -49947.309 96844.002 -49936.668 96845.632 -49929.374 96843.562 -49863.507 96843.5 -49859.549 96843.5 -49832.582 96843.003 -49828.644 96842.956 -49827.903 96842.102 -49817.056 96841.012 -49782.368 96840.763 -49774.444 96838.55 -49766.826 96835.379 -49755.911 96831.368 -49736.546 96829.942 -49725.255 96829.941 -49725.253 96828.949 -49717.396 96826.033 -49710.032 96826.032 -49710.027 96813.254 -49677.755 96809.408 -49666.522 96799.73 -49633.208 96799.728 -49633.204 96797.517 -49625.593 96787.691 -49608.979 96778.992 -49591.221 96771.887 -49573.275 96746.827 -49538.783 96740.318 -49528.874 96718.613 -49492.173 96704.969 -49478.529 96692.128 -49463.495 96685.438 -49454.287 96685.437 -49454.286 96680.777 -49447.872 96647.923 -49420.693 96639.143 -49412.703 96459.267 -49232.827 96429.371 -49185.17 96420.218 -49158.886 96382.646 -49098.758 96363.5 -49031.988 96363.5 -46464.698 96383.502 -46396.577 96424.981 -46356.47 96449.322 -46341.96 96545.889 -46250 96564.2 -46232.563 96564.202 -46232.561 96569.304 -46227.702 96660.99 -46089.703 96719.825 -45934.82 96733.355 -45838.55 96742.332 -45774.675 96742.333 -45774.668 96742.883 -45770.751 96743.067 -45757.581 96743.118 -45753.962 96743.118 -45753.956 96743.173 -45750 96724.705 -45585.351 96670.218 -45428.886 96582.42 -45288.38 96465.675 -45170.817 96325.786 -45082.041 96229.15 -45047.63 96176.338 -45028.824 96176.336 -45028.823 96169.704 -45026.462 96162.718 -45025.629 96162.714 -45025.628 96043.732 -45011.441 96005.188 -45006.845 95998.186 -45007.581 95998.184 -45007.581 95952.671 -45012.365 95882.833 -44999.593 95830.986 -44951.091 95813.5 -44887.055 95813.5 -44795.196 95814.578 -44778.749 95817.285 -44758.188 95818.363 -44750 95798.996 -44602.897 95742.217 -44465.819 95701.593 -44412.878 95651.893 -44348.107 95628.887 -44330.454 95616.495 -44319.586 95017.585 -43720.675 94983.56 -43658.363 94981.466 -43645.625 94975.49 -43592.35 94974.705 -43585.351 94920.218 -43428.886 94832.42 -43288.38 94715.675 -43170.817 94705.52 -43164.372 94661.447 -43136.403 94575.786 -43082.041 94479.15 -43047.63 94426.338 -43028.824 94426.336 -43028.823 94419.704 -43026.462 94412.718 -43025.629 94412.714 -43025.628 94296.501 -43011.771 94255.188 -43006.845 94248.186 -43007.581 94248.184 -43007.581 94097.415 -43023.428 94097.413 -43023.428 94090.415 -43024.164 93933.572 -43077.557 93920.141 -43085.82 93798.459 -43160.679 93798.456 -43160.681 93792.457 -43164.372 93674.082 -43280.293 93584.331 -43419.559 93581.92 -43426.182 93581.919 -43426.185 93530.075 -43568.626 93530.074 -43568.631 93527.665 -43575.249 93506.899 -43739.624 93523.067 -43904.514 93575.364 -44061.725 93661.192 -44203.443 93776.284 -44322.625 93782.176 -44326.48 93782.18 -44326.484 93909.024 -44409.488 93914.92 -44413.346 93921.524 -44415.802 93921.526 -44415.803 94063.605 -44468.642 94063.608 -44468.643 94070.21 -44471.098 94077.19 -44472.029 94077.193 -44472.03 94147.925 -44481.467 94212.802 -44510.302 94220.356 -44517.265 94649.595 -44946.504 94683.621 -45008.816 94686.5 -45035.599 94686.5 -45948.588 94666.498 -46016.709 94612.842 -46063.202 94542.568 -46073.306 94477.988 -46043.812 94441.509 -45990.025 94427.079 -45948.588 94420.218 -45928.886 94359.703 -45832.041 94336.153 -45794.354 94332.42 -45788.38 94322.931 -45778.824 94231.249 -45686.5 94215.675 -45670.817 94209.48 -45666.885 94142.119 -45624.137 94075.786 -45582.041 93969.046 -45544.032 93926.338 -45528.824 93926.336 -45528.823 93919.704 -45526.462 93912.718 -45525.629 93912.714 -45525.628 93772.539 -45508.914 93755.188 -45506.845 93748.186 -45507.581 93748.184 -45507.581 93597.415 -45523.428 93597.413 -45523.428 93590.415 -45524.164 93433.572 -45577.557 93292.457 -45664.372 93291.592 -45662.967 93233.596 -45685.968 93222.025 -45686.5 92776.993 -45686.5 92709.479 -45666.885 92703.305 -45662.967 92575.786 -45582.041 92469.046 -45544.032 92426.338 -45528.824 92426.336 -45528.823 92419.704 -45526.462 92412.716 -45525.629 92412.713 -45525.628 92272.542 -45508.914 92207.269 -45480.987 92173.83 -45438.242 92172.535 -45435.538 92170.218 -45428.886 92082.42 -45288.38 91965.675 -45170.817 91825.786 -45082.041 91729.15 -45047.63 91676.338 -45028.824 91676.336 -45028.823 91669.704 -45026.462 91662.718 -45025.629 91662.714 -45025.628 91543.732 -45011.441 91505.188 -45006.845 91498.186 -45007.581 91498.184 -45007.581 91461.414 -45011.446 91372.67 -45020.774 91302.833 -45008.002 91250.986 -44959.501 91233.5 -44895.464 91233.499 -44421.249 91233.499 -44418.366 91233.234 -44415.474 91227.364 -44351.592 91226.753 -44344.938 91220.639 -44325.428 91177.744 -44188.55 91177.743 -44188.548 91175.472 -44181.301 91100.879 -44058.132 91082.7 -43989.502 91101.395 -43926.745 91169.849 -43815.692 91223.238 -43654.731 91233.5 -43554.572 91233.5 -43020.428 91222.978 -42919.018 91169.308 -42758.151 91080.071 -42613.945 91054.841 -42588.759 91020.762 -42526.477 91025.765 -42455.657 91054.686 -42410.568 91075.298 -42389.92 91084.31 -42378.509 91165.553 -42246.709 91171.697 -42233.532 91220.579 -42086.157 91223.445 -42072.79 91232.614 -41983.3 91228.525 -41969.376 91227.135 -41968.171 91219.452 -41966.5 90784.517 -41966.5 90716.396 -41946.498 90716.239 -41946.385 90715.675 -41945.817 90575.786 -41857.041 90479.15 -41822.63 90426.338 -41803.824 90426.336 -41803.823 90419.704 -41801.462 90412.718 -41800.629 90412.714 -41800.628 90296.501 -41786.771 90255.188 -41781.845 90248.186 -41782.581 90248.184 -41782.581 90097.415 -41798.428 90097.413 -41798.428 90090.415 -41799.164 89933.572 -41852.557 89792.457 -41939.372 89791.235 -41940.568 89727.206 -41965.967 89715.626 -41966.5 89284.517 -41966.5 89216.396 -41946.498 89216.239 -41946.385 89215.675 -41945.817 89075.786 -41857.041 88979.15 -41822.63 88926.338 -41803.824 88926.336 -41803.823 88919.704 -41801.462 88912.718 -41800.629 88912.714 -41800.628 88796.501 -41786.771 88755.188 -41781.845 88748.186 -41782.581 88748.184 -41782.581 88597.415 -41798.428 88597.413 -41798.428 88590.415 -41799.164 88433.572 -41852.557 88292.457 -41939.372 88291.235 -41940.568 88227.206 -41965.967 88215.626 -41966.5 87784.517 -41966.5 87716.396 -41946.498 87716.239 -41946.385 87715.675 -41945.817 87575.786 -41857.041 87479.15 -41822.63 87426.338 -41803.824 87426.336 -41803.823 87419.704 -41801.462 87412.718 -41800.629 87412.714 -41800.628 87296.501 -41786.771 87255.188 -41781.845 87248.186 -41782.581 87248.184 -41782.581 87097.415 -41798.428 87097.413 -41798.428 87090.415 -41799.164 86933.572 -41852.557 86792.457 -41939.372 86791.235 -41940.568 86727.206 -41965.967 86715.626 -41966.5 86284.517 -41966.5 86216.396 -41946.498 86216.239 -41946.385 86215.675 -41945.817 86075.786 -41857.041 85979.15 -41822.63 85926.338 -41803.824 85926.336 -41803.823 85919.704 -41801.462 85912.718 -41800.629 85912.714 -41800.628 85796.501 -41786.771 85755.188 -41781.845 85748.186 -41782.581 85748.184 -41782.581 85597.415 -41798.428 85597.413 -41798.428 85590.415 -41799.164 85433.572 -41852.557 85292.457 -41939.372 85291.235 -41940.568 85227.206 -41965.967 85215.626 -41966.5 84784.517 -41966.5 84716.396 -41946.498 84716.239 -41946.385 84715.675 -41945.817 84575.786 -41857.041 84479.15 -41822.63 84426.338 -41803.824 84426.336 -41803.823 84419.704 -41801.462 84412.718 -41800.629 84412.714 -41800.628 84296.501 -41786.771 84255.188 -41781.845 84248.186 -41782.581 84248.184 -41782.581 84097.415 -41798.428 84097.413 -41798.428 84090.415 -41799.164 83933.572 -41852.557 83792.457 -41939.372 83791.235 -41940.568 83727.206 -41965.967 83715.626 -41966.5 83284.517 -41966.5 83216.396 -41946.498 83216.239 -41946.385 83215.675 -41945.817 83075.786 -41857.041 82979.15 -41822.63 82926.338 -41803.824 82926.336 -41803.823 82919.704 -41801.462 82912.718 -41800.629 82912.714 -41800.628 82796.501 -41786.771 82755.188 -41781.845 82748.186 -41782.581 82748.184 -41782.581 82597.415 -41798.428 82597.413 -41798.428 82590.415 -41799.164 82433.572 -41852.557 82292.457 -41939.372 82291.235 -41940.568 82227.206 -41965.967 82215.626 -41966.5 81785.115 -41966.5 81769.876 -41970.975 81768.671 -41972.365 81767.158 -41979.321 81767.337 -41982.782 81776.804 -42074.021 81779.697 -42087.417 81828.83 -42234.687 81835.004 -42247.866 81916.47 -42379.514 81925.506 -42390.915 81945.158 -42410.533 81979.237 -42472.816 81974.234 -42543.636 81945.314 -42588.723 81919.136 -42614.947 81830.151 -42759.308 81776.762 -42920.269 81766.5 -43020.428 81766.5 -43554.572 81766.837 -43557.818 81766.837 -43557.822 81770.342 -43591.603 81777.022 -43655.982 81830.692 -43816.849 81834.542 -43823.07 81898.535 -43926.483 81917.372 -43994.936 81899.166 -44058.057 81899.121 -44058.132 81824.528 -44181.301 81822.257 -44188.548 81822.256 -44188.55 81817.589 -44203.443 81773.247 -44344.938 81766.5 -44418.365 81766.501 -44931.634 81766.764 -44934.492 81766.764 -44934.501 81769.061 -44959.501 81773.247 -45005.062 81824.528 -45168.699 81913.361 -45315.381 81972.304 -45374.324 82006.33 -45436.636 82008.215 -45479.21 82006.899 -45489.624 82009.163 -45512.708 82010.147 -45522.745 81996.888 -45592.493 81973.843 -45624.137 81913.361 -45684.619 81824.528 -45831.301 81773.247 -45994.938 81766.5 -46068.365 81766.501 -46581.634 81766.764 -46584.492 81766.764 -46584.501 81770.026 -46620.004 81773.247 -46655.062 81775.246 -46661.44 81775.246 -46661.441 81794.172 -46721.832 81824.528 -46818.699 81913.361 -46965.381 82034.619 -47086.639 82181.301 -47175.472 82188.548 -47177.743 82188.55 -47177.744 82254.836 -47198.517 82344.938 -47226.753 82418.365 -47233.5 82421.263 -47233.5 82750.86 -47233.499 83081.634 -47233.499 83084.492 -47233.236 83084.501 -47233.236 83120.004 -47229.974 83155.062 -47226.753 83161.447 -47224.752 83311.45 -47177.744 83311.452 -47177.743 83318.699 -47175.472 83434.73 -47105.202 83503.358 -47087.023 83565.27 -47105.202 83681.301 -47175.472 83688.548 -47177.743 83688.55 -47177.744 83754.836 -47198.517 83844.938 -47226.753 83918.365 -47233.5 83921.263 -47233.5 84250.86 -47233.499 84581.634 -47233.499 84584.492 -47233.236 84584.501 -47233.236 84620.004 -47229.974 84655.062 -47226.753 84661.447 -47224.752 84811.45 -47177.744 84811.452 -47177.743 84818.699 -47175.472 84934.73 -47105.202 85003.358 -47087.023 85065.27 -47105.202 85181.301 -47175.472 85188.548 -47177.743 85188.55 -47177.744 85254.836 -47198.517 85344.938 -47226.753 85418.365 -47233.5 85421.263 -47233.5 85750.86 -47233.499 86081.634 -47233.499 86084.492 -47233.236 86084.501 -47233.236 86120.004 -47229.974 86155.062 -47226.753 86161.447 -47224.752 86311.45 -47177.744 86311.452 -47177.743 86318.699 -47175.472 86434.73 -47105.202 86503.358 -47087.023 86565.27 -47105.202 86681.301 -47175.472 86688.548 -47177.743 86688.55 -47177.744 86754.836 -47198.517 86844.938 -47226.753 86918.365 -47233.5 86926.379 -47233.5 87344.692 -47233.499 87412.811 -47253.501 87459.305 -47307.156 87469.409 -47377.43 87439.916 -47442.011 87433.786 -47448.594 87370.03 -47512.35 87362.141 -47519.529 87355.832 -47523.533 87350.407 -47529.31 87310.714 -47571.579 87307.959 -47574.421 87288.897 -47593.483 87286.471 -47596.61 87286.049 -47597.089 87278.91 -47605.446 87260.136 -47625.439 87249.723 -47636.528 87240.422 -47653.446 87229.571 -47669.965 87217.737 -47685.221 87204.206 -47716.49 87200.803 -47724.353 87195.582 -47735.009 87183.022 -47757.857 87132.678 -47807.917 87063.262 -47822.812 87030.342 -47815.859 86919.704 -47776.462 86912.718 -47775.629 86912.714 -47775.628 86784.238 -47760.309 86755.188 -47756.845 86748.186 -47757.581 86748.184 -47757.581 86597.415 -47773.428 86597.413 -47773.428 86590.415 -47774.164 86491.923 -47807.693 86447.511 -47822.812 86433.572 -47827.557 86292.457 -47914.372 86291.592 -47912.967 86233.596 -47935.968 86222.025 -47936.5 83776.993 -47936.5 83709.479 -47916.885 83704.136 -47913.494 83575.786 -47832.041 83463.022 -47791.887 83426.338 -47778.824 83426.336 -47778.823 83419.704 -47776.462 83412.718 -47775.629 83412.714 -47775.628 83284.238 -47760.309 83255.188 -47756.845 83248.186 -47757.581 83248.184 -47757.581 83097.415 -47773.428 83097.413 -47773.428 83090.415 -47774.164 82991.923 -47807.693 82947.511 -47822.812 82933.572 -47827.557 82898.8 -47848.949 82798.459 -47910.679 82798.456 -47910.681 82792.457 -47914.372 82787.424 -47919.301 82745.11 -47960.737 82682.445 -47994.107 82611.686 -47988.301 82567.858 -47959.808 82521.544 -47913.494 82510.676 -47901.103 82498.05 -47884.648 82498.049 -47884.647 82493.023 -47878.097 82486.473 -47873.071 82486.47 -47873.068 82457.715 -47851.004 82381.865 -47792.803 82375.311 -47787.774 82238.233 -47730.994 82091.13 -47711.627 82082.942 -47712.705 82062.381 -47715.412 82045.934 -47716.49 78765.59 -47716.49 78697.469 -47696.488 78676.495 -47679.585 78109.596 -47112.686 78075.57 -47050.374 78080.635 -46979.559 78090.915 -46958.32 78175.472 -46818.699 78226.753 -46655.062 78233.5 -46581.635 78233.499 -46068.366 78233.234 -46065.474 78227.364 -46001.592 78226.753 -45994.938 78207.913 -45934.82 78177.744 -45838.55 78177.743 -45838.548 78175.472 -45831.301 78086.639 -45684.619 77991.115 -45589.095 77957.089 -45526.783 77962.154 -45455.968 77991.115 -45410.905 78086.639 -45315.381 78175.472 -45168.699 78226.753 -45005.062 78233.5 -44931.635 78233.499 -44418.366 78233.234 -44415.474 78227.364 -44351.592 78226.753 -44344.938 78220.639 -44325.428 78177.744 -44188.55 78177.743 -44188.548 78175.472 -44181.301 78100.879 -44058.132 78082.7 -43989.502 78101.395 -43926.745 78169.849 -43815.692 78223.238 -43654.731 78233.5 -43554.572 78233.5 -43020.428 78222.978 -42919.018 78169.308 -42758.151 78080.071 -42613.945 78054.841 -42588.759 78020.762 -42526.477 78025.765 -42455.657 78054.686 -42410.568 78075.298 -42389.92 78084.31 -42378.509 78165.553 -42246.709 78171.697 -42233.532 78220.579 -42086.157 78223.445 -42072.79 78232.614 -41983.3 78228.525 -41969.376 78227.135 -41968.171 78219.452 -41966.5 77784.517 -41966.5 77716.396 -41946.498 77716.239 -41946.385 77715.675 -41945.817 77575.786 -41857.041 77479.15 -41822.63 77426.338 -41803.824 77426.336 -41803.823 77419.704 -41801.462 77412.718 -41800.629 77412.714 -41800.628 77296.501 -41786.771 77255.188 -41781.845 77248.186 -41782.581 77248.184 -41782.581 77097.415 -41798.428 77097.413 -41798.428 77090.415 -41799.164 76933.572 -41852.557 76792.457 -41939.372 76791.235 -41940.568 76727.206 -41965.967 76715.626 -41966.5 76284.517 -41966.5 76216.396 -41946.498 76216.239 -41946.385 76215.675 -41945.817 76075.786 -41857.041 75979.15 -41822.63 75926.338 -41803.824 75926.336 -41803.823 75919.704 -41801.462 75912.718 -41800.629 75912.714 -41800.628 75796.501 -41786.771 75755.188 -41781.845 75748.186 -41782.581 75748.184 -41782.581 75597.415 -41798.428 75597.413 -41798.428 75590.415 -41799.164 75433.572 -41852.557 75292.457 -41939.372 75291.235 -41940.568 75227.206 -41965.967 75215.626 -41966.5 74785.115 -41966.5 74769.876 -41970.975 74768.671 -41972.365 74767.158 -41979.321 74767.337 -41982.782 74776.804 -42074.021 74779.697 -42087.417 74828.83 -42234.687 74835.004 -42247.866 74916.47 -42379.514 74925.506 -42390.915 74945.158 -42410.533 74979.237 -42472.816 74974.234 -42543.636 74945.314 -42588.723 74919.136 -42614.947 74830.151 -42759.308 74776.762 -42920.269 74766.5 -43020.428 74766.5 -43554.572 74766.837 -43557.818 74766.837 -43557.822 74770.342 -43591.603 74777.022 -43655.982 74830.692 -43816.849 74834.542 -43823.07 74898.535 -43926.483 74917.372 -43994.936 74899.166 -44058.057 74899.121 -44058.132 74824.528 -44181.301 74822.257 -44188.548 74822.256 -44188.55 74817.589 -44203.443 74773.247 -44344.938 74766.5 -44418.365 74766.501 -44931.634 74766.764 -44934.492 74766.764 -44934.501 74769.061 -44959.501 74773.247 -45005.062 74824.528 -45168.699 74913.361 -45315.381 75008.885 -45410.905 75042.911 -45473.217 75037.846 -45544.032 75008.885 -45589.095 74913.361 -45684.619 74824.528 -45831.301 74822.89 -45830.309 74783.134 -45876.587 74715.099 -45896.879 74647.048 -45877.265 74635.165 -45869.724 74575.786 -45832.041 74469.95 -45794.354 74426.338 -45778.824 74426.336 -45778.823 74419.704 -45776.462 74412.718 -45775.629 74412.714 -45775.628 74296.501 -45761.771 74255.188 -45756.845 74248.186 -45757.581 74248.184 -45757.581 74097.415 -45773.428 74097.413 -45773.428 74090.415 -45774.164 73933.572 -45827.557 73881.168 -45859.796 73798.459 -45910.679 73798.456 -45910.681 73792.457 -45914.372 73674.082 -46030.293 73670.263 -46036.218 73670.262 -46036.22 73646.362 -46073.306 73584.331 -46169.559 73581.92 -46176.182 73581.919 -46176.185 73530.075 -46318.626 73530.074 -46318.631 73527.665 -46325.249 73506.899 -46489.624 73523.067 -46654.514 73525.291 -46661.199 73525.291 -46661.2 73545.461 -46721.832 73575.364 -46811.725 73579.009 -46817.743 73581.043 -46822.146 73591.456 -46892.375 73583.19 -46919.144 73584.331 -46919.559 73530.075 -47068.626 73530.074 -47068.631 73527.665 -47075.249 73506.899 -47239.624 73523.067 -47404.514 73525.291 -47411.199 73525.291 -47411.2 73537.73 -47448.594 73575.364 -47561.725 73579.013 -47567.75 73654.562 -47692.495 73661.192 -47703.443 73666.083 -47708.508 73666.084 -47708.509 73719.03 -47763.336 73776.284 -47822.625 73782.176 -47826.48 73782.18 -47826.484 73906.214 -47907.649 73914.92 -47913.346 73921.524 -47915.802 73921.526 -47915.803 73977.179 -47936.5 74070.21 -47971.098 74077.195 -47972.03 74227.457 -47992.079 74227.459 -47992.079 74234.436 -47993.01 74237.933 -47992.692 74281.424 -48001.818 74315.263 -48015.834 74322.897 -48018.996 74470 -48038.363 74498.749 -48034.578 74515.196 -48033.5 76346.584 -48033.5 76414.705 -48053.502 76461.198 -48107.158 76471.302 -48177.432 76446.562 -48236.184 76445.446 -48237.639 76445.431 -48237.659 76377.784 -48325.819 76321.004 -48462.897 76301.637 -48610 76302.715 -48618.188 76305.422 -48638.749 76306.5 -48655.196 76306.5 -49010.5 76286.498 -49078.621 76232.842 -49125.114 76180.5 -49136.5 75698.206 -49136.5 75630.694 -49116.887 75575.786 -49082.041 75435.223 -49031.988 75426.338 -49028.824 75426.336 -49028.823 75419.704 -49026.462 75412.718 -49025.629 75412.714 -49025.628 75285.84 -49010.5 75255.188 -49006.845 75248.186 -49007.581 75248.184 -49007.581 75097.415 -49023.428 75097.413 -49023.428 75090.415 -49024.164 74933.572 -49077.557 74881.168 -49109.796 74798.459 -49160.679 74798.456 -49160.681 74792.457 -49164.372 74674.082 -49280.293 74670.263 -49286.218 74670.262 -49286.22 74629.206 -49349.926 74584.331 -49419.559 74581.92 -49426.182 74581.919 -49426.185 74530.075 -49568.626 74530.074 -49568.631 74527.665 -49575.249 74506.899 -49739.624 74515.074 -49822.994 74521.096 -49884.41 74507.837 -49954.158 74458.974 -50005.665 74390.022 -50022.578 74380.779 -50021.82 74262.182 -50007.679 74255.188 -50006.845 74248.186 -50007.581 74248.184 -50007.581 74097.415 -50023.428 74097.413 -50023.428 74090.415 -50024.164 73933.572 -50077.557 73906.375 -50094.289 73798.459 -50160.679 73798.456 -50160.681 73792.457 -50164.372 73674.082 -50280.293 73584.331 -50419.559 73581.92 -50426.182 73581.919 -50426.185 73530.075 -50568.626 73530.074 -50568.631 73527.665 -50575.249 73506.899 -50739.624 73523.067 -50904.514 73525.291 -50911.199 73525.291 -50911.2 73567.389 -51037.75 73575.364 -51061.725 73579.009 -51067.743 73581.043 -51072.146 73591.456 -51142.375 73583.19 -51169.142 73584.332 -51169.558 73584.331 -51169.559 73560.82 -51234.156 73531.515 -51280.155 72412.284 -52399.385 71300.178 -53511.491 71293.913 -53517.344 71253.302 -53552.771 71219.023 -53601.546 71215.09 -53606.841 71178.298 -53653.764 71175.174 -53660.683 71171.573 -53666.629 71168.632 -53671.786 71165.33 -53677.944 71160.961 -53684.16 71158.202 -53691.236 71158.201 -53691.238 71139.308 -53739.696 71136.752 -53745.777 71112.211 -53800.129 71110.827 -53807.597 71108.746 -53814.238 71107.106 -53819.995 71105.383 -53826.709 71102.625 -53833.782 71101.634 -53841.312 71094.844 -53892.888 71093.812 -53899.405 71082.946 -53958.033 71083.383 -53965.613 71083.383 -53965.614 71086.291 -54016.047 71086.5 -54023.3 71086.5 -56722.651 71086.208 -56731.221 71084.658 -56753.963 71082.543 -56784.98 71092.798 -56843.742 71093.756 -56850.234 71100.92 -56909.429 71103.603 -56916.529 71105.259 -56923.272 71106.841 -56929.052 71108.849 -56935.704 71110.154 -56943.181 71113.203 -56950.126 71113.205 -56950.134 71134.115 -56997.768 71136.607 -57003.874 71150.686 -57041.133 71157.685 -57059.655 71161.987 -57065.914 71165.204 -57072.068 71168.103 -57077.277 71171.651 -57083.277 71174.703 -57090.229 71179.326 -57096.253 71179.329 -57096.259 71210.994 -57137.525 71214.862 -57142.848 71248.646 -57192.003 71254.316 -57197.055 71254.317 -57197.056 71292.047 -57230.672 71297.323 -57235.653 73763.075 -59701.405 73797.101 -59763.717 73792.036 -59834.532 73749.489 -59891.368 73682.969 -59916.179 73673.98 -59916.5 73274.6 -59916.5 73271.354 -59916.837 73271.35 -59916.837 73175.692 -59926.762 73175.688 -59926.763 73168.834 -59927.474 73162.298 -59929.655 73162.296 -59929.655 73030.194 -59973.728 73001.054 -59983.45 72850.652 -60076.522 72725.695 -60201.697 72721.855 -60207.927 72721.854 -60207.928 72650.227 -60324.129 72632.885 -60352.262 72577.203 -60520.139 72566.5 -60624.6 72566.5 -61450.4 72577.474 -61556.166 72633.45 -61723.946 72726.522 -61874.348 72851.697 -61999.305 72857.927 -62003.145 72857.928 -62003.146 72995.09 -62087.694 73002.262 -62092.115 73082.005 -62118.564 73163.611 -62145.632 73163.613 -62145.632 73170.139 -62147.797 73176.975 -62148.497 73176.978 -62148.498 73220.031 -62152.909 73274.6 -62158.5 76225.4 -62158.5 76228.646 -62158.163 76228.65 -62158.163 76324.308 -62148.238 76324.312 -62148.237 76331.166 -62147.526 76337.702 -62145.345 76337.704 -62145.345 76469.806 -62101.272 76498.946 -62091.55 76649.348 -61998.478 76774.305 -61873.303 76853.24 -61745.247 76906.012 -61697.754 76976.084 -61686.33 77041.208 -61714.604 77080.707 -61773.598 77086.5 -61811.363 77086.5 -66110.5 77066.498 -66178.621 77012.842 -66225.114 76960.5 -66236.5 76912.275 -66236.5 76844.154 -66216.498 76805.133 -66176.807 76773.478 -66125.652 76648.303 -66000.695 76642.072 -65996.854 76503.968 -65911.725 76503.966 -65911.724 76497.738 -65907.885 76337.254 -65854.655 76336.389 -65854.368 76336.387 -65854.368 76329.861 -65852.203 76323.025 -65851.503 76323.022 -65851.502 76279.969 -65847.091 76225.4 -65841.5 73274.6 -65841.5 73271.354 -65841.837 73271.35 -65841.837 73175.692 -65851.762 73175.688 -65851.763 73168.834 -65852.474 73162.298 -65854.655 73162.296 -65854.655 73030.194 -65898.728 73001.054 -65908.45 72850.652 -66001.522 72725.695 -66126.697 72721.855 -66132.927 72721.854 -66132.928 72665.03 -66225.114 72632.885 -66277.262 72577.203 -66445.139 72566.5 -66549.6 72566.5 -67375.4 72566.837 -67378.646 72566.837 -67378.65 72575.803 -67465.059 72577.474 -67481.166 72579.655 -67487.702 72579.655 -67487.704 72604.943 -67563.5 72633.45 -67648.946 72726.522 -67799.348 72851.697 -67924.305 72857.927 -67928.145 72857.928 -67928.146 72995.09 -68012.694 73002.262 -68017.115 73082.005 -68043.564 73163.611 -68070.632 73163.613 -68070.632 73170.139 -68072.797 73176.975 -68073.497 73176.978 -68073.498 73220.031 -68077.909 73274.6 -68083.5 76225.4 -68083.5 76228.646 -68083.163 76228.65 -68083.163 76324.308 -68073.238 76324.312 -68073.237 76331.166 -68072.526 76337.702 -68070.345 76337.704 -68070.345 76469.806 -68026.272 76498.946 -68016.55 76649.348 -67923.478 76774.305 -67798.303 76795.886 -67763.292 76863.273 -67653.972 76863.275 -67653.967 76867.115 -67647.738 76869.42 -67640.787 76871.535 -67636.252 76918.452 -67582.966 76985.731 -67563.5 77322.651 -67563.5 77331.221 -67563.792 77377.404 -67566.941 77377.408 -67566.941 77384.98 -67567.457 77443.742 -67557.202 77450.234 -67556.244 77478.723 -67552.796 77501.887 -67549.993 77501.889 -67549.992 77509.429 -67549.08 77516.529 -67546.397 77523.272 -67544.741 77529.052 -67543.159 77535.704 -67541.151 77543.181 -67539.846 77550.126 -67536.797 77550.134 -67536.795 77597.768 -67515.885 77603.874 -67513.393 77652.552 -67494.999 77659.655 -67492.315 77665.914 -67488.013 77672.068 -67484.796 77677.277 -67481.897 77683.277 -67478.349 77690.229 -67475.297 77696.253 -67470.674 77696.259 -67470.671 77737.525 -67439.006 77742.848 -67435.138 77792.003 -67401.354 77830.663 -67357.963 77835.644 -67352.686 77987.927 -67200.404 78050.239 -67166.379 78077.022 -67163.5 78624 -67163.5 78692.121 -67183.502 78738.614 -67237.158 78750 -67289.5 78750 -69365.5 78729.998 -69433.621 78676.342 -69480.114 78624 -69491.5 72762.817 -69491.5 72694.696 -69471.498 72673.722 -69454.595 70545.405 -67326.278 70511.379 -67263.966 70508.5 -67237.183 70508.5 -42762.817 70528.502 -42694.696 70545.405 -42673.722 71777.427 -41441.7 74767.386 -41441.7 74771.475 -41455.624 74772.865 -41456.829 74780.548 -41458.5 75477.885 -41458.5 75493.124 -41454.025 75494.329 -41452.635 75496 -41444.952 75496 -41440.385 76004 -41440.385 76008.475 -41455.624 76009.865 -41456.829 76017.548 -41458.5 76977.885 -41458.5 76993.124 -41454.025 76994.329 -41452.635 76996 -41444.952 76996 -41440.385 77504 -41440.385 77508.475 -41455.624 77509.865 -41456.829 77517.548 -41458.5 78214.885 -41458.5 78230.124 -41454.025 78231.329 -41452.635 78232.842 -41445.679 78232.663 -41442.218 78232.609 -41441.7 81767.386 -41441.7 81771.475 -41455.624 81772.865 -41456.829 81780.548 -41458.5 82477.885 -41458.5 82493.124 -41454.025 82494.329 -41452.635 82496 -41444.952 82496 -41440.385 83004 -41440.385 83008.475 -41455.624 83009.865 -41456.829 83017.548 -41458.5 83977.885 -41458.5 83993.124 -41454.025 83994.329 -41452.635 83996 -41444.952 83996 -41440.385 84504 -41440.385 84508.475 -41455.624 84509.865 -41456.829 84517.548 -41458.5 85477.885 -41458.5 85493.124 -41454.025 85494.329 -41452.635 85496 -41444.952 85496 -41440.385 86004 -41440.385 86008.475 -41455.624 86009.865 -41456.829 86017.548 -41458.5 86977.885 -41458.5 86993.124 -41454.025 86994.329 -41452.635 86996 -41444.952 86996 -41440.385 87504 -41440.385 87508.475 -41455.624 87509.865 -41456.829 87517.548 -41458.5 88477.885 -41458.5 88493.124 -41454.025 88494.329 -41452.635 88496 -41444.952 88496 -41440.385 89004 -41440.385 89008.475 -41455.624 89009.865 -41456.829 89017.548 -41458.5 89977.885 -41458.5 89993.124 -41454.025 89994.329 -41452.635 89996 -41444.952 89996 -41440.385 90504 -41440.385 90508.475 -41455.624 90509.865 -41456.829 90517.548 -41458.5 91214.885 -41458.5 91230.124 -41454.025 91231.329 -41452.635 91232.842 -41445.679 91232.663 -41442.218 91223.196 -41350.979 91220.303 -41337.583 91171.17 -41190.313 91164.996 -41177.134 91083.53 -41045.486 91074.494 -41034.085 90964.92 -40924.702 90953.509 -40915.69 90821.709 -40834.447 90808.532 -40828.303 90661.157 -40779.421 90647.79 -40776.555 90557.73 -40767.328 90551.315 -40767 90522.115 -40767 90506.876 -40771.475 90505.671 -40772.865 90504 -40780.548 90504 -41440.385 89996 -41440.385 89996 -40785.115 89991.525 -40769.876 89990.135 -40768.671 89982.452 -40767 89948.734 -40767 89942.218 -40767.337 89850.979 -40776.804 89837.583 -40779.697 89690.313 -40828.83 89677.141 -40835.001 89566.393 -40903.533 89497.941 -40922.37 89433.974 -40903.648 89321.709 -40834.447 89308.532 -40828.303 89161.157 -40779.421 89147.79 -40776.555 89057.73 -40767.328 89051.315 -40767 89022.115 -40767 89006.876 -40771.475 89005.671 -40772.865 89004 -40780.548 89004 -41440.385 88496 -41440.385 88496 -40785.115 88491.525 -40769.876 88490.135 -40768.671 88482.452 -40767 88448.734 -40767 88442.218 -40767.337 88350.979 -40776.804 88337.583 -40779.697 88190.313 -40828.83 88177.141 -40835.001 88066.393 -40903.533 87997.941 -40922.37 87933.974 -40903.648 87821.709 -40834.447 87808.532 -40828.303 87661.157 -40779.421 87647.79 -40776.555 87557.73 -40767.328 87551.315 -40767 87522.115 -40767 87506.876 -40771.475 87505.671 -40772.865 87504 -40780.548 87504 -41440.385 86996 -41440.385 86996 -40785.115 86991.525 -40769.876 86990.135 -40768.671 86982.452 -40767 86948.734 -40767 86942.218 -40767.337 86850.979 -40776.804 86837.583 -40779.697 86690.313 -40828.83 86677.141 -40835.001 86566.393 -40903.533 86497.941 -40922.37 86433.974 -40903.648 86321.709 -40834.447 86308.532 -40828.303 86161.157 -40779.421 86147.79 -40776.555 86057.73 -40767.328 86051.315 -40767 86022.115 -40767 86006.876 -40771.475 86005.671 -40772.865 86004 -40780.548 86004 -41440.385 85496 -41440.385 85496 -40785.115 85491.525 -40769.876 85490.135 -40768.671 85482.452 -40767 85448.734 -40767 85442.218 -40767.337 85350.979 -40776.804 85337.583 -40779.697 85190.313 -40828.83 85177.141 -40835.001 85066.393 -40903.533 84997.941 -40922.37 84933.974 -40903.648 84821.709 -40834.447 84808.532 -40828.303 84661.157 -40779.421 84647.79 -40776.555 84557.73 -40767.328 84551.315 -40767 84522.115 -40767 84506.876 -40771.475 84505.671 -40772.865 84504 -40780.548 84504 -41440.385 83996 -41440.385 83996 -40785.115 83991.525 -40769.876 83990.135 -40768.671 83982.452 -40767 83948.734 -40767 83942.218 -40767.337 83850.979 -40776.804 83837.583 -40779.697 83690.313 -40828.83 83677.141 -40835.001 83566.393 -40903.533 83497.941 -40922.37 83433.974 -40903.648 83321.709 -40834.447 83308.532 -40828.303 83161.157 -40779.421 83147.79 -40776.555 83057.73 -40767.328 83051.315 -40767 83022.115 -40767 83006.876 -40771.475 83005.671 -40772.865 83004 -40780.548 83004 -41440.385 82496 -41440.385 82496 -40785.115 82491.525 -40769.876 82490.135 -40768.671 82482.452 -40767 82448.734 -40767 82442.218 -40767.337 82350.979 -40776.804 82337.583 -40779.697 82190.313 -40828.83 82177.134 -40835.004 82045.486 -40916.47 82034.085 -40925.506 81924.702 -41035.08 81915.69 -41046.491 81834.447 -41178.291 81828.303 -41191.468 81779.421 -41338.843 81776.555 -41352.21 81767.386 -41441.7 78232.609 -41441.7 78223.196 -41350.979 78220.303 -41337.583 78171.17 -41190.313 78164.996 -41177.134 78083.53 -41045.486 78074.494 -41034.085 77964.92 -40924.702 77953.509 -40915.69 77821.709 -40834.447 77808.532 -40828.303 77661.157 -40779.421 77647.79 -40776.555 77557.73 -40767.328 77551.315 -40767 77522.115 -40767 77506.876 -40771.475 77505.671 -40772.865 77504 -40780.548 77504 -41440.385 76996 -41440.385 76996 -40785.115 76991.525 -40769.876 76990.135 -40768.671 76982.452 -40767 76948.734 -40767 76942.218 -40767.337 76850.979 -40776.804 76837.583 -40779.697 76690.313 -40828.83 76677.141 -40835.001 76566.393 -40903.533 76497.941 -40922.37 76433.974 -40903.648 76321.709 -40834.447 76308.532 -40828.303 76161.157 -40779.421 76147.79 -40776.555 76057.73 -40767.328 76051.315 -40767 76022.115 -40767 76006.876 -40771.475 76005.671 -40772.865 76004 -40780.548 76004 -41440.385 75496 -41440.385 75496 -40785.115 75491.525 -40769.876 75490.135 -40768.671 75482.452 -40767 75448.734 -40767 75442.218 -40767.337 75350.979 -40776.804 75337.583 -40779.697 75190.313 -40828.83 75177.134 -40835.004 75045.486 -40916.47 75034.085 -40925.506 74924.702 -41035.08 74915.69 -41046.491 74834.447 -41178.291 74828.303 -41191.468 74779.421 -41338.843 74776.555 -41352.21 74767.386 -41441.7 71777.427 -41441.7 72673.722 -40545.405 72736.034 -40511.379 72762.817 -40508.5 97237.183 -40508.5 97305.304 -40528.502"/><path d="M 85906.63 -50913.502 85953.123 -50967.158 85958.067 -50979.728 85975.364 -51031.725 86061.192 -51173.443 86176.284 -51292.625 86182.176 -51296.48 86182.18 -51296.484 86309.024 -51379.488 86314.92 -51383.346 86343.486 -51393.97 86400.361 -51436.461 86425.234 -51502.958 86410.209 -51572.347 86365.589 -51619.38 86292.457 -51664.372 86174.082 -51780.293 86084.331 -51919.559 86081.92 -51926.182 86081.919 -51926.185 86068.81 -51962.202 86027.665 -52075.249 86027.116 -52079.592 85994.283 -52138.097 85782.785 -52349.595 85720.473 -52383.621 85693.69 -52386.5 85359.925 -52386.5 85291.804 -52366.498 85245.311 -52312.842 85234.71 -52274.545 85225.49 -52192.35 85224.705 -52185.351 85170.218 -52028.886 85082.646 -51888.741 85063.5 -51821.972 85063.5 -51667.476 85064.578 -51651.029 85067.285 -51630.468 85068.363 -51622.28 85048.996 -51475.177 84992.216 -51338.099 84972.159 -51311.96 84939.519 -51269.423 84906.916 -51226.933 84901.893 -51220.387 84895.347 -51215.364 84895.344 -51215.361 84878.884 -51202.731 84866.492 -51191.863 84783.224 -51108.595 84749.198 -51046.283 84754.263 -50975.468 84796.81 -50918.632 84863.33 -50893.821 84872.319 -50893.5 85838.509 -50893.5 85906.63 -50913.502"/></g><g id="IarHJswmWpG0_bottom_soldermask"><use xlink:href="#ZnxanneGUH5D_pad-10" x="87447.86" y="-62750"/><use xlink:href="#ZnxanneGUH5D_pad-10" x="81702.38" y="-62750"/><use xlink:href="#ZnxanneGUH5D_pad-11" x="98000" y="-58500"/><use xlink:href="#ZnxanneGUH5D_pad-11" x="98000" y="-56250"/><use xlink:href="#ZnxanneGUH5D_pad-11" x="98000" y="-54000"/><use xlink:href="#ZnxanneGUH5D_pad-11" x="98000" y="-51750"/><use xlink:href="#ZnxanneGUH5D_pad-12" x="74750" y="-66962.5"/><use xlink:href="#ZnxanneGUH5D_pad-12" x="74750" y="-61037.5"/><use xlink:href="#ZnxanneGUH5D_pad-13" x="84250" y="-46325"/><use xlink:href="#ZnxanneGUH5D_pad-13" x="84250" y="-44675"/><use xlink:href="#ZnxanneGUH5D_pad-13" x="77250" y="-46325"/><use xlink:href="#ZnxanneGUH5D_pad-13" x="77250" y="-44675"/><use xlink:href="#ZnxanneGUH5D_pad-13" x="75750" y="-46325"/><use xlink:href="#ZnxanneGUH5D_pad-13" x="75750" y="-44675"/><use xlink:href="#ZnxanneGUH5D_pad-13" x="90250" y="-46325"/><use xlink:href="#ZnxanneGUH5D_pad-13" x="90250" y="-44675"/><use xlink:href="#ZnxanneGUH5D_pad-13" x="88750" y="-46325"/><use xlink:href="#ZnxanneGUH5D_pad-13" x="88750" y="-44675"/><use xlink:href="#ZnxanneGUH5D_pad-13" x="87250" y="-46325"/><use xlink:href="#ZnxanneGUH5D_pad-13" x="87250" y="-44675"/><use xlink:href="#ZnxanneGUH5D_pad-13" x="85750" y="-46325"/><use xlink:href="#ZnxanneGUH5D_pad-13" x="85750" y="-44675"/><use xlink:href="#ZnxanneGUH5D_pad-13" x="82750" y="-46325"/><use xlink:href="#ZnxanneGUH5D_pad-13" x="82750" y="-44675"/><use xlink:href="#ZnxanneGUH5D_pad-14" x="82450" y="-58750"/><use xlink:href="#ZnxanneGUH5D_pad-14" x="86750" y="-58750"/><use xlink:href="#ZnxanneGUH5D_pad-14" x="82450" y="-66750"/><use xlink:href="#ZnxanneGUH5D_pad-14" x="86750" y="-66750"/><use xlink:href="#ZnxanneGUH5D_pad-15" x="75750" y="-43287.5"/><use xlink:href="#ZnxanneGUH5D_pad-15" x="75750" y="-41712.5"/><use xlink:href="#ZnxanneGUH5D_pad-15" x="90250" y="-43287.5"/><use xlink:href="#ZnxanneGUH5D_pad-15" x="90250" y="-41712.5"/><use xlink:href="#ZnxanneGUH5D_pad-15" x="88750" y="-43287.5"/><use xlink:href="#ZnxanneGUH5D_pad-15" x="88750" y="-41712.5"/><use xlink:href="#ZnxanneGUH5D_pad-15" x="87250" y="-43287.5"/><use xlink:href="#ZnxanneGUH5D_pad-15" x="87250" y="-41712.5"/><use xlink:href="#ZnxanneGUH5D_pad-15" x="85750" y="-43287.5"/><use xlink:href="#ZnxanneGUH5D_pad-15" x="85750" y="-41712.5"/><use xlink:href="#ZnxanneGUH5D_pad-15" x="84250" y="-43287.5"/><use xlink:href="#ZnxanneGUH5D_pad-15" x="84250" y="-41712.5"/><use xlink:href="#ZnxanneGUH5D_pad-15" x="77250" y="-43287.5"/><use xlink:href="#ZnxanneGUH5D_pad-15" x="77250" y="-41712.5"/><use xlink:href="#ZnxanneGUH5D_pad-15" x="82750" y="-43287.5"/><use xlink:href="#ZnxanneGUH5D_pad-15" x="82750" y="-41712.5"/></g><g id="IarHJswmWpG0_bottom_silkscreen"><path d="M 97535.714 -62477.857 97321.428 -62549.285 97250 -62620.714 97178.571 -62763.571 97178.571 -62977.857 97250 -63120.714 97321.428 -63192.142 97464.285 -63263.571 98035.714 -63263.571 98035.714 -61763.571 97535.714 -61763.571 97392.857 -61835 97321.428 -61906.428 97250 -62049.285 97250 -62192.142 97321.428 -62335 97392.857 -62406.428 97535.714 -62477.857 98035.714 -62477.857 M 95892.857 -63263.571 95892.857 -62477.857 95964.285 -62335 96107.142 -62263.571 96392.857 -62263.571 96535.714 -62335 M 95892.857 -63192.142 96035.714 -63263.571 96392.857 -63263.571 96535.714 -63192.142 96607.142 -63049.285 96607.142 -62906.428 96535.714 -62763.571 96392.857 -62692.142 96035.714 -62692.142 95892.857 -62620.714 M 95250 -63192.142 95107.142 -63263.571 94821.428 -63263.571 94678.571 -63192.142 94607.142 -63049.285 94607.142 -62977.857 94678.571 -62835 94821.428 -62763.571 95035.714 -62763.571 95178.571 -62692.142 95250 -62549.285 95250 -62477.857 95178.571 -62335 95035.714 -62263.571 94821.428 -62263.571 94678.571 -62335 M 93964.285 -63263.571 93964.285 -62263.571 M 93964.285 -61763.571 94035.714 -61835 93964.285 -61906.428 93892.857 -61835 93964.285 -61763.571 93964.285 -61906.428 M 93035.714 -63263.571 93178.571 -63192.142 93250 -63049.285 93250 -61763.571 M 91964.285 -62477.857 92464.285 -62477.857 M 92464.285 -63263.571 92464.285 -61763.571 91750 -61763.571 M 91321.428 -61763.571 90321.428 -63263.571 M 90321.428 -61763.571 91321.428 -63263.571 M 98178.571 -65678.571 99035.714 -65678.571 M 98607.142 -65678.571 98607.142 -64178.571 98750 -64392.857 98892.857 -64535.714 99035.714 -64607.142 M 97250 -64178.571 97107.142 -64178.571 96964.285 -64250 96892.857 -64321.428 96821.428 -64464.285 96750 -64750 96750 -65107.142 96821.428 -65392.857 96892.857 -65535.714 96964.285 -65607.142 97107.142 -65678.571 97250 -65678.571 97392.857 -65607.142 97464.285 -65535.714 97535.714 -65392.857 97607.142 -65107.142 97607.142 -64750 97535.714 -64464.285 97464.285 -64321.428 97392.857 -64250 97250 -64178.571 M 95035.714 -64107.142 96321.428 -66035.714 M 94607.142 -64321.428 94535.714 -64250 94392.857 -64178.571 94035.714 -64178.571 93892.857 -64250 93821.428 -64321.428 93750 -64464.285 93750 -64607.142 93821.428 -64821.428 94678.571 -65678.571 93750 -65678.571 M 92821.428 -64178.571 92678.571 -64178.571 92535.714 -64250 92464.285 -64321.428 92392.857 -64464.285 92321.428 -64750 92321.428 -65107.142 92392.857 -65392.857 92464.285 -65535.714 92535.714 -65607.142 92678.571 -65678.571 92821.428 -65678.571 92964.285 -65607.142 93035.714 -65535.714 93107.142 -65392.857 93178.571 -65107.142 93178.571 -64750 93107.142 -64464.285 93035.714 -64321.428 92964.285 -64250 92821.428 -64178.571 M 91750 -64321.428 91678.571 -64250 91535.714 -64178.571 91178.571 -64178.571 91035.714 -64250 90964.285 -64321.428 90892.857 -64464.285 90892.857 -64607.142 90964.285 -64821.428 91821.428 -65678.571 90892.857 -65678.571 M 90321.428 -64321.428 90250 -64250 90107.142 -64178.571 89750 -64178.571 89607.142 -64250 89535.714 -64321.428 89464.285 -64464.285 89464.285 -64607.142 89535.714 -64821.428 90392.857 -65678.571 89464.285 -65678.571 M 97607.142 -66593.571 97107.142 -68093.571 96607.142 -66593.571 M 95321.428 -68093.571 96178.571 -68093.571 M 95750 -68093.571 95750 -66593.571 95892.857 -66807.857 96035.714 -66950.714 96178.571 -67022.142 M 94678.571 -67950.714 94607.142 -68022.142 94678.571 -68093.571 94750 -68022.142 94678.571 -67950.714 94678.571 -68093.571 M 94107.142 -66593.571 93178.571 -66593.571 93678.571 -67165 93464.285 -67165 93321.428 -67236.428 93250 -67307.857 93178.571 -67450.714 93178.571 -67807.857 93250 -67950.714 93321.428 -68022.142 93464.285 -68093.571 93892.857 -68093.571 94035.714 -68022.142 94107.142 -67950.714 M 92535.714 -67950.714 92464.285 -68022.142 92535.714 -68093.571 92607.142 -68022.142 92535.714 -67950.714 92535.714 -68093.571 M 91035.714 -68093.571 91892.857 -68093.571 M 91464.285 -68093.571 91464.285 -66593.571 91607.142 -66807.857 91750 -66950.714 91892.857 -67022.142" fill="none" stroke-width="300"/><path d="M 98700 -58500 A 700 700 0 0 1 97300 -58500 700 700 0 0 1 98700 -58500 M 98700 -56250 A 700 700 0 0 1 97300 -56250 700 700 0 0 1 98700 -56250 M 98700 -54000 A 700 700 0 0 1 97300 -54000 700 700 0 0 1 98700 -54000 M 98700 -51750 A 700 700 0 0 1 97300 -51750 700 700 0 0 1 98700 -51750 M 73040 -66177.064 73040 -61822.936 M 76460 -66177.064 76460 -61822.936 M 83727.5 -45737.258 83727.5 -45262.742 M 84772.5 -45737.258 84772.5 -45262.742 M 76727.5 -45737.258 76727.5 -45262.742 M 77772.5 -45737.258 77772.5 -45262.742 M 75227.5 -45737.258 75227.5 -45262.742 M 76272.5 -45737.258 76272.5 -45262.742 M 89727.5 -45737.258 89727.5 -45262.742 M 90772.5 -45737.258 90772.5 -45262.742 M 88227.5 -45737.258 88227.5 -45262.742 M 89272.5 -45737.258 89272.5 -45262.742 M 87772.5 -45737.258 87772.5 -45262.742 M 86727.5 -45737.258 86727.5 -45262.742 M 85227.5 -45737.258 85227.5 -45262.742 M 86272.5 -45737.258 86272.5 -45262.742 M 83272.5 -45737.258 83272.5 -45262.742 M 82227.5 -45737.258 82227.5 -45262.742 M 81050 -56600 86750 -56600 M 81050 -60900 81050 -56600 M 81050 -60900 86750 -60900 M 81050 -68900 86750 -68900 M 81050 -64600 86750 -64600 M 81050 -68900 81050 -64600 M 75015 -43985 75015 -41700 M 76485 -43985 75015 -43985 M 76485 -41700 76485 -43985 M 90985 -43985 89515 -43985 89515 -41700 M 90985 -41700 90985 -43985 M 88015 -43985 88015 -41700 M 89485 -43985 88015 -43985 M 89485 -41700 89485 -43985 M 87985 -43985 86515 -43985 M 87985 -41700 87985 -43985 M 86515 -43985 86515 -41700 M 86485 -43985 85015 -43985 85015 -41700 M 86485 -41700 86485 -43985 M 84985 -41700 84985 -43985 M 83515 -43985 83515 -41700 M 84985 -43985 83515 -43985 M 77985 -41700 77985 -43985 76515 -43985 76515 -41700 M 83485 -41700 83485 -43985 M 82015 -43985 82015 -41700 M 83485 -43985 82015 -43985" fill="none" stroke-width="120"/></g><g id="IarHJswmWpG0_bottom_drill1" transform="scale(25.4,25.4)"><use xlink:href="#JwGg2EBAOhtn_pad-1" x="2923.2" y="-1742.1"/><use xlink:href="#JwGg2EBAOhtn_pad-1" x="2923.2" y="-1830.7"/><use xlink:href="#JwGg2EBAOhtn_pad-1" x="2923.2" y="-1860.2"/><use xlink:href="#JwGg2EBAOhtn_pad-1" x="2923.2" y="-1998"/><use xlink:href="#JwGg2EBAOhtn_pad-1" x="2923.2" y="-2027.6"/><use xlink:href="#JwGg2EBAOhtn_pad-1" x="2923.2" y="-2066.9"/><use xlink:href="#JwGg2EBAOhtn_pad-1" x="2923.2" y="-2096.5"/><use xlink:href="#JwGg2EBAOhtn_pad-1" x="2923.2" y="-2165.4"/><use xlink:href="#JwGg2EBAOhtn_pad-1" x="2962.6" y="-1958.7"/><use xlink:href="#JwGg2EBAOhtn_pad-1" x="2962.6" y="-2194.9"/><use xlink:href="#JwGg2EBAOhtn_pad-1" x="2982.3" y="-1674.2"/><use xlink:href="#JwGg2EBAOhtn_pad-1" x="3002" y="-2017.7"/><use xlink:href="#JwGg2EBAOhtn_pad-1" x="3002" y="-2037.4"/><use xlink:href="#JwGg2EBAOhtn_pad-1" x="3002" y="-2057.1"/><use xlink:href="#JwGg2EBAOhtn_pad-1" x="3002" y="-2076.8"/><use xlink:href="#JwGg2EBAOhtn_pad-1" x="3002" y="-2096.5"/><use xlink:href="#JwGg2EBAOhtn_pad-1" x="3002" y="-2116.1"/><use xlink:href="#JwGg2EBAOhtn_pad-1" x="3002" y="-2135.8"/><use xlink:href="#JwGg2EBAOhtn_pad-1" x="3011.8" y="-1604.3"/><use xlink:href="#JwGg2EBAOhtn_pad-1" x="3021.7" y="-1998"/><use xlink:href="#JwGg2EBAOhtn_pad-1" x="3021.7" y="-2155.5"/><use xlink:href="#JwGg2EBAOhtn_pad-1" x="3041.3" y="-1674.2"/><use xlink:href="#JwGg2EBAOhtn_pad-1" x="3041.3" y="-1998"/><use xlink:href="#JwGg2EBAOhtn_pad-1" x="3041.3" y="-2155.5"/><use xlink:href="#JwGg2EBAOhtn_pad-1" x="3043.3" y="-1923.2"/><use xlink:href="#JwGg2EBAOhtn_pad-1" x="3061" y="-1998"/><use xlink:href="#JwGg2EBAOhtn_pad-1" x="3061" y="-2155.5"/><use xlink:href="#JwGg2EBAOhtn_pad-1" x="3061" y="-2234.3"/><use xlink:href="#JwGg2EBAOhtn_pad-1" x="3061" y="-2263.8"/><use xlink:href="#JwGg2EBAOhtn_pad-1" x="3061" y="-2293.3"/><use xlink:href="#JwGg2EBAOhtn_pad-1" x="3061.5" y="-2322.8"/><use xlink:href="#JwGg2EBAOhtn_pad-1" x="3072.8" y="-1923.2"/><use xlink:href="#JwGg2EBAOhtn_pad-1" x="3080.7" y="-1998"/><use xlink:href="#JwGg2EBAOhtn_pad-1" x="3080.7" y="-2155.5"/><use xlink:href="#JwGg2EBAOhtn_pad-1" x="3100.4" y="-1998"/><use xlink:href="#JwGg2EBAOhtn_pad-1" x="3100.4" y="-2155.5"/><use xlink:href="#JwGg2EBAOhtn_pad-1" x="3108.3" y="-1880.9"/><use xlink:href="#JwGg2EBAOhtn_pad-1" x="3120.1" y="-1998"/><use xlink:href="#JwGg2EBAOhtn_pad-1" x="3120.1" y="-2155.5"/><use xlink:href="#JwGg2EBAOhtn_pad-1" x="3139.8" y="-1998"/><use xlink:href="#JwGg2EBAOhtn_pad-1" x="3139.8" y="-2155.5"/><use xlink:href="#JwGg2EBAOhtn_pad-1" x="3139.8" y="-2263.8"/><use xlink:href="#JwGg2EBAOhtn_pad-1" x="3139.8" y="-2293.3"/><use xlink:href="#JwGg2EBAOhtn_pad-1" x="3139.8" y="-2322.8"/><use xlink:href="#JwGg2EBAOhtn_pad-1" x="3159.4" y="-2017.7"/><use xlink:href="#JwGg2EBAOhtn_pad-1" x="3159.4" y="-2037.4"/><use xlink:href="#JwGg2EBAOhtn_pad-1" x="3159.4" y="-2057.1"/><use xlink:href="#JwGg2EBAOhtn_pad-1" x="3159.4" y="-2076.8"/><use xlink:href="#JwGg2EBAOhtn_pad-1" x="3159.4" y="-2096.5"/><use xlink:href="#JwGg2EBAOhtn_pad-1" x="3159.4" y="-2116.1"/><use xlink:href="#JwGg2EBAOhtn_pad-1" x="3159.4" y="-2135.8"/><use xlink:href="#JwGg2EBAOhtn_pad-1" x="3198.8" y="-1958.7"/><use xlink:href="#JwGg2EBAOhtn_pad-1" x="3208.7" y="-1742.1"/><use xlink:href="#JwGg2EBAOhtn_pad-1" x="3257.9" y="-1674.2"/><use xlink:href="#JwGg2EBAOhtn_pad-1" x="3257.9" y="-1791.3"/><use xlink:href="#JwGg2EBAOhtn_pad-1" x="3277.6" y="-1870.1"/><use xlink:href="#JwGg2EBAOhtn_pad-1" x="3277.6" y="-1909.4"/><use xlink:href="#JwGg2EBAOhtn_pad-1" x="3277.6" y="-2059.1"/><use xlink:href="#JwGg2EBAOhtn_pad-1" x="3316.9" y="-1674.2"/><use xlink:href="#JwGg2EBAOhtn_pad-1" x="3316.9" y="-1791.3"/><use xlink:href="#JwGg2EBAOhtn_pad-1" x="3326.8" y="-2061"/><use xlink:href="#JwGg2EBAOhtn_pad-1" x="3326.8" y="-2126"/><use xlink:href="#JwGg2EBAOhtn_pad-1" x="3376" y="-1674.2"/><use xlink:href="#JwGg2EBAOhtn_pad-1" x="3376" y="-1791.3"/><use xlink:href="#JwGg2EBAOhtn_pad-1" x="3376" y="-2061"/><use xlink:href="#JwGg2EBAOhtn_pad-1" x="3376" y="-2126"/><use xlink:href="#JwGg2EBAOhtn_pad-1" x="3405.5" y="-1604.3"/><use xlink:href="#JwGg2EBAOhtn_pad-1" x="3411.4" y="-1948.8"/><use xlink:href="#JwGg2EBAOhtn_pad-1" x="3411.4" y="-1972.8"/><use xlink:href="#JwGg2EBAOhtn_pad-1" x="3411.4" y="-1996.9"/><use xlink:href="#JwGg2EBAOhtn_pad-1" x="3415.4" y="-1909.4"/><use xlink:href="#JwGg2EBAOhtn_pad-1" x="3415.4" y="-2057.1"/><use xlink:href="#JwGg2EBAOhtn_pad-1" x="3425.2" y="-2175.2"/><use xlink:href="#JwGg2EBAOhtn_pad-1" x="3435" y="-1674.2"/><use xlink:href="#JwGg2EBAOhtn_pad-1" x="3435" y="-1791.3"/><use xlink:href="#JwGg2EBAOhtn_pad-1" x="3458.7" y="-2135.8"/><use xlink:href="#JwGg2EBAOhtn_pad-1" x="3494.1" y="-1674.2"/><use xlink:href="#JwGg2EBAOhtn_pad-1" x="3494.1" y="-1791.3"/><use xlink:href="#JwGg2EBAOhtn_pad-1" x="3503.9" y="-1929.1"/><use xlink:href="#JwGg2EBAOhtn_pad-1" x="3503.9" y="-1948.8"/><use xlink:href="#JwGg2EBAOhtn_pad-1" x="3503.9" y="-1968.5"/><use xlink:href="#JwGg2EBAOhtn_pad-1" x="3503.9" y="-1988.2"/><use xlink:href="#JwGg2EBAOhtn_pad-1" x="3503.9" y="-2007.9"/><use xlink:href="#JwGg2EBAOhtn_pad-1" x="3503.9" y="-2027.6"/><use xlink:href="#JwGg2EBAOhtn_pad-1" x="3503.9" y="-2047.2"/><use xlink:href="#JwGg2EBAOhtn_pad-1" x="3503.9" y="-2066.9"/><use xlink:href="#JwGg2EBAOhtn_pad-1" x="3523.6" y="-1909.4"/><use xlink:href="#JwGg2EBAOhtn_pad-1" x="3523.6" y="-2086.6"/><use xlink:href="#JwGg2EBAOhtn_pad-1" x="3543.3" y="-1909.4"/><use xlink:href="#JwGg2EBAOhtn_pad-1" x="3543.3" y="-2086.6"/><use xlink:href="#JwGg2EBAOhtn_pad-1" x="3553.1" y="-1674.2"/><use xlink:href="#JwGg2EBAOhtn_pad-1" x="3553.1" y="-1791.3"/><use xlink:href="#JwGg2EBAOhtn_pad-1" x="3563" y="-1909.4"/><use xlink:href="#JwGg2EBAOhtn_pad-1" x="3563" y="-2086.6"/><use xlink:href="#JwGg2EBAOhtn_pad-1" x="3582.7" y="-1909.4"/><use xlink:href="#JwGg2EBAOhtn_pad-1" x="3582.7" y="-2086.6"/><use xlink:href="#JwGg2EBAOhtn_pad-1" x="3602.4" y="-1801.2"/><use xlink:href="#JwGg2EBAOhtn_pad-1" x="3602.4" y="-1909.4"/><use xlink:href="#JwGg2EBAOhtn_pad-1" x="3602.4" y="-2086.6"/><use xlink:href="#JwGg2EBAOhtn_pad-1" x="3622" y="-1909.4"/><use xlink:href="#JwGg2EBAOhtn_pad-1" x="3622" y="-2086.6"/><use xlink:href="#JwGg2EBAOhtn_pad-1" x="3631.9" y="-1820.9"/><use xlink:href="#JwGg2EBAOhtn_pad-1" x="3631.9" y="-2185"/><use xlink:href="#JwGg2EBAOhtn_pad-1" x="3641.7" y="-1624"/><use xlink:href="#JwGg2EBAOhtn_pad-1" x="3641.7" y="-1909.4"/><use xlink:href="#JwGg2EBAOhtn_pad-1" x="3641.7" y="-2086.6"/><use xlink:href="#JwGg2EBAOhtn_pad-1" x="3661.4" y="-1909.4"/><use xlink:href="#JwGg2EBAOhtn_pad-1" x="3661.4" y="-2086.6"/><use xlink:href="#JwGg2EBAOhtn_pad-1" x="3681.1" y="-1929.1"/><use xlink:href="#JwGg2EBAOhtn_pad-1" x="3681.1" y="-1948.8"/><use xlink:href="#JwGg2EBAOhtn_pad-1" x="3681.1" y="-1968.5"/><use xlink:href="#JwGg2EBAOhtn_pad-1" x="3681.1" y="-1988.2"/><use xlink:href="#JwGg2EBAOhtn_pad-1" x="3681.1" y="-2007.9"/><use xlink:href="#JwGg2EBAOhtn_pad-1" x="3681.1" y="-2027.6"/><use xlink:href="#JwGg2EBAOhtn_pad-1" x="3681.1" y="-2047.2"/><use xlink:href="#JwGg2EBAOhtn_pad-1" x="3681.1" y="-2066.9"/><use xlink:href="#JwGg2EBAOhtn_pad-1" x="3690.9" y="-1820.9"/><use xlink:href="#JwGg2EBAOhtn_pad-1" x="3710.6" y="-1722.4"/><use xlink:href="#JwGg2EBAOhtn_pad-1" x="3740.2" y="-2253.9"/><use xlink:href="#JwGg2EBAOhtn_pad-1" x="3769.7" y="-1948"/><use xlink:href="#JwGg2EBAOhtn_pad-1" x="3769.7" y="-1971.3"/><use xlink:href="#JwGg2EBAOhtn_pad-1" x="3769.7" y="-2106.3"/><use xlink:href="#JwGg2EBAOhtn_pad-1" x="3769.7" y="-2134.8"/><use xlink:href="#JwGg2EBAOhtn_pad-1" x="3779.5" y="-1801.2"/><use xlink:href="#JwGg2EBAOhtn_pad-1" x="3779.5" y="-2165.4"/><use xlink:href="#JwGg2EBAOhtn_pad-1" x="3819.3" y="-2264"/><use xlink:href="#JwGg2EBAOhtn_pad-2" x="3216.6" y="-2470.5"/><use xlink:href="#JwGg2EBAOhtn_pad-2" x="3442.8" y="-2470.5"/></g><clipPath id="IarHJswmWpG0_bottom_outline"><path d="M 100000 -67500 97500 -70000 72500 -70000 70000 -67500 70000 -42500 72500 -40000 97500 -40000 100000 -42500 100000 -67500" fill="none" stroke-width="150"/></clipPath><mask id="IarHJswmWpG0_bottom_mech-mask"><g fill="#000" stroke="#000"><rect x="70000" y="-70000" width="30000" height="30000" fill="#fff"/><use xlink:href="#IarHJswmWpG0_bottom_drill1"/></g></mask><mask id="IarHJswmWpG0_bottom_cf-mask"><g fill="#fff" stroke="#fff"><use xlink:href="#IarHJswmWpG0_bottom_soldermask"/></g></mask><mask id="IarHJswmWpG0_bottom_sm-mask"><g fill="#000" stroke="#000"><rect x="70000" y="-70000" width="30000" height="30000" fill="#fff"/><use xlink:href="#IarHJswmWpG0_bottom_soldermask"/></g></mask></defs><g transform="translate(0,-110000) scale(1,-1)"><g mask="url(#IarHJswmWpG0_bottom_mech-mask)" clip-path="url(#IarHJswmWpG0_bottom_outline)" transform="translate(170000,0) scale(-1,1)"><rect x="70000" y="-70000" width="30000" height="30000" fill="currentColor" class="IarHJswmWpG0_fr4"/><use xlink:href="#IarHJswmWpG0_bottom_copper" fill="currentColor" stroke="currentColor" class="IarHJswmWpG0_cu"/><use xlink:href="#IarHJswmWpG0_bottom_copper" fill="currentColor" stroke="currentColor" class="IarHJswmWpG0_cf" mask="url(#IarHJswmWpG0_bottom_cf-mask)"/><g mask="url(#IarHJswmWpG0_bottom_sm-mask)"><rect x="70000" y="-70000" width="30000" height="30000" fill="currentColor" class="IarHJswmWpG0_sm"/><use xlink:href="#IarHJswmWpG0_bottom_silkscreen" fill="currentColor" stroke="currentColor" class="IarHJswmWpG0_ss"/></g></g></g></svg>