<svg version="1.1" xmlns="http://www.w3.org/2000/svg" xmlns:xlink="http://www.w3.org/1999/xlink" stroke-linecap="round" stroke-linejoin="round" stroke-width="0" fill-rule="evenodd" clip-rule="evenodd" id="nde2_HPFZcR9_top" viewBox="108250 -88750 20250 18000" width="20.25mm" height="18mm"><defs><style>.nde2_HPFZcR9_fr4 {color: #666666;}
.nde2_HPFZcR9_cu {color: #cccccc;}
.nde2_HPFZcR9_cf {color: #cc9933;}
.nde2_HPFZcR9_sm {color: #004200; opacity: 0.7490196078431373;}
.nde2_HPFZcR9_ss {color: #ffffff;}
.nde2_HPFZcR9_sp {color: #999999;}
.nde2_HPFZcR9_out {color: #000000;}</style><g id="AJXXcNq_HVX9_pad-10"><polygon points="185,-135 185,135 -185,135 -185,-135"/><circle cx="185" cy="-135" r="135"/><circle cx="185" cy="135" r="135"/><circle cx="-185" cy="135" r="135"/><circle cx="-185" cy="-135" r="135"/><polygon points="320,-135 320,135 50,135 50,-135"/><polygon points="185,0 -185,0 -185,270 185,270"/><polygon points="-50,135 -50,-135 -320,-135 -320,135"/><polygon points="-185,-270 185,-270 185,0 -185,0"/></g><rect x="-200" y="-300" width="400" height="600" id="AJXXcNq_HVX9_pad-11"/><rect x="-800" y="-350" width="1600" height="700" id="AJXXcNq_HVX9_pad-12"/><rect x="-500" y="-500" width="1000" height="1000" id="AJXXcNq_HVX9_pad-13"/><rect x="-500" y="-500" width="1000" height="1000" rx="500" ry="500" id="AJXXcNq_HVX9_pad-14"/><g id="AJXXcNq_HVX9_pad-15"><polygon points="-170,140 -170,-140 170,-140 170,140"/><circle cx="-170" cy="140" r="140"/><circle cx="-170" cy="-140" r="140"/><circle cx="170" cy="-140" r="140"/><circle cx="170" cy="140" r="140"/><polygon points="-30,140 -30,-140 -310,-140 -310,140"/><polygon points="-170,-280 170,-280 170,0 -170,0"/><polygon points="310,-140 310,140 30,140 30,-140"/><polygon points="170,0 -170,0 -170,280 170,280"/></g><g id="AJXXcNq_HVX9_pad-16"><polygon points="170,-140 170,140 -170,140 -170,-140"/><circle cx="170" cy="-140" r="140"/><circle cx="170" cy="140" r="140"/><circle cx="-170" cy="140" r="140"/><circle cx="-170" cy="-140" r="140"/><polygon points="310,-140 310,140 30,140 30,-140"/><polygon points="170,0 -170,0 -170,280 170,280"/><polygon points="-30,140 -30,-140 -310,-140 -310,140"/><polygon points="-170,-280 170,-280 170,0 -170,0"/></g><rect x="-175" y="-250" width="350" height="500" id="AJXXcNq_HVX9_pad-17"/><circle cx="0" cy="0" r="1500" id="AJXXcNq_HVX9_pad-18"/><rect x="-150" y="-300" width="300" height="600" id="AJXXcNq_HVX9_pad-19"/><rect x="-1100" y="-450" width="2200" height="900" id="AJXXcNq_HVX9_pad-20"/><polygon points="-150,450 -150,-450 150,-150 150,150" id="AJXXcNq_HVX9_pad-21"/><circle cx="0" cy="0" r="125" id="AJXXcNq_HVX9_pad-22"/><circle cx="0" cy="0" r="400" id="AJXXcNq_HVX9_pad-23"/><g id="v_2hnfqdkAr1_pad-10"><polygon points="185,-135 185,135 -185,135 -185,-135"/><circle cx="185" cy="-135" r="335"/><circle cx="185" cy="135" r="335"/><circle cx="-185" cy="135" r="335"/><circle cx="-185" cy="-135" r="335"/><polygon points="520,-135 520,135 -150,135 -150,-135"/><polygon points="185,-200 -185,-200 -185,470 185,470"/><polygon points="150,135 150,-135 -520,-135 -520,135"/><polygon points="-185,-470 185,-470 185,200 -185,200"/></g><g id="v_2hnfqdkAr1_pad-11"><polygon points="-200,300 -200,-300 200,-300 200,300"/><circle cx="-200" cy="300" r="200"/><circle cx="-200" cy="-300" r="200"/><circle cx="200" cy="-300" r="200"/><circle cx="200" cy="300" r="200"/><polygon points="0,300 0,-300 -400,-300 -400,300"/><polygon points="-200,-500 200,-500 200,-100 -200,-100"/><polygon points="400,-300 400,300 0,300 0,-300"/><polygon points="200,100 -200,100 -200,500 200,500"/></g><g id="v_2hnfqdkAr1_pad-12"><polygon points="-800,350 -800,-350 800,-350 800,350"/><circle cx="-800" cy="350" r="200"/><circle cx="-800" cy="-350" r="200"/><circle cx="800" cy="-350" r="200"/><circle cx="800" cy="350" r="200"/><polygon points="-600,350 -600,-350 -1000,-350 -1000,350"/><polygon points="-800,-550 800,-550 800,-150 -800,-150"/><polygon points="1000,-350 1000,350 600,350 600,-350"/><polygon points="800,150 -800,150 -800,550 800,550"/></g><g id="v_2hnfqdkAr1_pad-13"><polygon points="500,-500 500,500 -500,500 -500,-500"/><circle cx="500" cy="-500" r="200"/><circle cx="500" cy="500" r="200"/><circle cx="-500" cy="500" r="200"/><circle cx="-500" cy="-500" r="200"/><polygon points="700,-500 700,500 300,500 300,-500"/><polygon points="500,300 -500,300 -500,700 500,700"/><polygon points="-300,500 -300,-500 -700,-500 -700,500"/><polygon points="-500,-700 500,-700 500,-300 -500,-300"/></g><rect x="-700" y="-700" width="1400" height="1400" rx="700" ry="700" id="v_2hnfqdkAr1_pad-14"/><g id="v_2hnfqdkAr1_pad-15"><polygon points="-170,140 -170,-140 170,-140 170,140"/><circle cx="-170" cy="140" r="340"/><circle cx="-170" cy="-140" r="340"/><circle cx="170" cy="-140" r="340"/><circle cx="170" cy="140" r="340"/><polygon points="170,140 170,-140 -510,-140 -510,140"/><polygon points="-170,-480 170,-480 170,200 -170,200"/><polygon points="510,-140 510,140 -170,140 -170,-140"/><polygon points="170,-200 -170,-200 -170,480 170,480"/></g><g id="v_2hnfqdkAr1_pad-16"><polygon points="170,-140 170,140 -170,140 -170,-140"/><circle cx="170" cy="-140" r="340"/><circle cx="170" cy="140" r="340"/><circle cx="-170" cy="140" r="340"/><circle cx="-170" cy="-140" r="340"/><polygon points="510,-140 510,140 -170,140 -170,-140"/><polygon points="170,-200 -170,-200 -170,480 170,480"/><polygon points="170,140 170,-140 -510,-140 -510,140"/><polygon points="-170,-480 170,-480 170,200 -170,200"/></g><g id="v_2hnfqdkAr1_pad-17"><polygon points="175,-250 175,250 -175,250 -175,-250"/><circle cx="175" cy="-250" r="200"/><circle cx="175" cy="250" r="200"/><circle cx="-175" cy="250" r="200"/><circle cx="-175" cy="-250" r="200"/><polygon points="375,-250 375,250 -25,250 -25,-250"/><polygon points="175,50 -175,50 -175,450 175,450"/><polygon points="25,250 25,-250 -375,-250 -375,250"/><polygon points="-175,-450 175,-450 175,-50 -175,-50"/></g><circle cx="0" cy="0" r="1700" id="v_2hnfqdkAr1_pad-18"/><g id="v_2hnfqdkAr1_pad-19"><polygon points="-150,300 -150,-300 150,-300 150,300"/><circle cx="-150" cy="300" r="200"/><circle cx="-150" cy="-300" r="200"/><circle cx="150" cy="-300" r="200"/><circle cx="150" cy="300" r="200"/><polygon points="50,300 50,-300 -350,-300 -350,300"/><polygon points="-150,-500 150,-500 150,-100 -150,-100"/><polygon points="350,-300 350,300 -50,300 -50,-300"/><polygon points="150,100 -150,100 -150,500 150,500"/></g><g id="v_2hnfqdkAr1_pad-20"><polygon points="-1100,450 -1100,-450 1100,-450 1100,450"/><circle cx="-1100" cy="450" r="200"/><circle cx="-1100" cy="-450" r="200"/><circle cx="1100" cy="-450" r="200"/><circle cx="1100" cy="450" r="200"/><polygon points="-900,450 -900,-450 -1300,-450 -1300,450"/><polygon points="-1100,-650 1100,-650 1100,-250 -1100,-250"/><polygon points="1300,-450 1300,450 900,450 900,-450"/><polygon points="1100,250 -1100,250 -1100,650 1100,650"/></g><polygon points="330.194,-236.777 291.421,-291.421 -8.579,-591.421 -83.944,-638.777 -172.393,-648.742 -256.406,-619.345 -319.345,-556.406 -348.742,-472.393 -350,-450 -350,450 -330.194,536.777 -274.698,606.366 -194.504,644.986 -105.496,644.986 -25.302,606.366 -8.579,591.421 291.421,291.421 338.777,216.056 350,150 350,-150 330.194,-236.777" id="v_2hnfqdkAr1_pad-21"/><circle cx="0" cy="0" r="7.85" id="tmL_X5vGPtYv_pad-1"/><circle cx="0" cy="0" r="12.8" id="tmL_X5vGPtYv_pad-2"/><circle cx="0" cy="0" r="39.35" id="tmL_X5vGPtYv_pad-3"/><g id="nde2_HPFZcR9_top_copper"><path d="M 121103.2 -81780 120857.2 -81780 120857.2 -81288 121103.2 -81288 121103.2 -81780"/><use xlink:href="#AJXXcNq_HVX9_pad-10" x="119888" y="-84260"/><use xlink:href="#AJXXcNq_HVX9_pad-10" x="119888" y="-83240"/><use xlink:href="#AJXXcNq_HVX9_pad-10" x="118618" y="-84260"/><use xlink:href="#AJXXcNq_HVX9_pad-10" x="118618" y="-83240"/><use xlink:href="#AJXXcNq_HVX9_pad-10" x="117250" y="-84260"/><use xlink:href="#AJXXcNq_HVX9_pad-10" x="117250" y="-83240"/><use xlink:href="#AJXXcNq_HVX9_pad-10" x="116000" y="-84260"/><use xlink:href="#AJXXcNq_HVX9_pad-10" x="116000" y="-83240"/><use xlink:href="#AJXXcNq_HVX9_pad-11" x="125975" y="-78800"/><use xlink:href="#AJXXcNq_HVX9_pad-11" x="125025" y="-78800"/><use xlink:href="#AJXXcNq_HVX9_pad-11" x="125025" y="-80700"/><use xlink:href="#AJXXcNq_HVX9_pad-11" x="125975" y="-80700"/><use xlink:href="#AJXXcNq_HVX9_pad-12" x="125500" y="-79750"/><use xlink:href="#AJXXcNq_HVX9_pad-13" x="116600" y="-86650"/><use xlink:href="#AJXXcNq_HVX9_pad-14" x="117870" y="-86650"/><use xlink:href="#AJXXcNq_HVX9_pad-14" x="119140" y="-86650"/><use xlink:href="#AJXXcNq_HVX9_pad-14" x="120410" y="-86650"/><use xlink:href="#AJXXcNq_HVX9_pad-15" x="127500" y="-79212.5"/><use xlink:href="#AJXXcNq_HVX9_pad-15" x="127500" y="-80172.5"/><use xlink:href="#AJXXcNq_HVX9_pad-15" x="121158" y="-83270"/><use xlink:href="#AJXXcNq_HVX9_pad-15" x="121158" y="-84230"/><use xlink:href="#AJXXcNq_HVX9_pad-16" x="117750" y="-80230"/><use xlink:href="#AJXXcNq_HVX9_pad-16" x="117750" y="-79270"/><use xlink:href="#AJXXcNq_HVX9_pad-17" x="119025" y="-78950"/><use xlink:href="#AJXXcNq_HVX9_pad-17" x="119675" y="-78950"/><use xlink:href="#AJXXcNq_HVX9_pad-17" x="120325" y="-78950"/><use xlink:href="#AJXXcNq_HVX9_pad-17" x="120975" y="-78950"/><use xlink:href="#AJXXcNq_HVX9_pad-17" x="120975" y="-80550"/><use xlink:href="#AJXXcNq_HVX9_pad-17" x="120325" y="-80550"/><use xlink:href="#AJXXcNq_HVX9_pad-17" x="119675" y="-80550"/><use xlink:href="#AJXXcNq_HVX9_pad-17" x="119025" y="-80550"/><use xlink:href="#AJXXcNq_HVX9_pad-16" x="109250" y="-80172.5"/><use xlink:href="#AJXXcNq_HVX9_pad-16" x="109250" y="-79212.5"/><use xlink:href="#AJXXcNq_HVX9_pad-18" x="110500" y="-73000"/><use xlink:href="#AJXXcNq_HVX9_pad-18" x="126250" y="-73000"/><use xlink:href="#AJXXcNq_HVX9_pad-18" x="126250" y="-86500"/><use xlink:href="#AJXXcNq_HVX9_pad-18" x="110500" y="-86500"/><use xlink:href="#AJXXcNq_HVX9_pad-11" x="113350" y="-78642.5"/><use xlink:href="#AJXXcNq_HVX9_pad-11" x="112750" y="-78642.5"/><use xlink:href="#AJXXcNq_HVX9_pad-11" x="112150" y="-78642.5"/><use xlink:href="#AJXXcNq_HVX9_pad-11" x="111550" y="-78642.5"/><use xlink:href="#AJXXcNq_HVX9_pad-11" x="110950" y="-78642.5"/><use xlink:href="#AJXXcNq_HVX9_pad-11" x="110950" y="-80742.5"/><use xlink:href="#AJXXcNq_HVX9_pad-11" x="111550" y="-80742.5"/><use xlink:href="#AJXXcNq_HVX9_pad-11" x="112150" y="-80742.5"/><use xlink:href="#AJXXcNq_HVX9_pad-11" x="112750" y="-80742.5"/><use xlink:href="#AJXXcNq_HVX9_pad-11" x="113350" y="-80742.5"/><use xlink:href="#AJXXcNq_HVX9_pad-19" x="113250" y="-79842.5"/><use xlink:href="#AJXXcNq_HVX9_pad-20" x="112000" y="-79692.5"/><use xlink:href="#AJXXcNq_HVX9_pad-21" x="113250" y="-79692.5"/><use xlink:href="#AJXXcNq_HVX9_pad-22" x="120980.2" y="-81784"/><use xlink:href="#AJXXcNq_HVX9_pad-22" x="120980.2" y="-81284"/><use xlink:href="#AJXXcNq_HVX9_pad-23" x="109250" y="-77250"/><use xlink:href="#AJXXcNq_HVX9_pad-23" x="119227.6" y="-77250"/><use xlink:href="#AJXXcNq_HVX9_pad-23" x="109250" y="-82250"/><use xlink:href="#AJXXcNq_HVX9_pad-23" x="119750" y="-82000"/><use xlink:href="#AJXXcNq_HVX9_pad-23" x="120250" y="-77250"/><use xlink:href="#AJXXcNq_HVX9_pad-23" x="112715.5" y="-83312"/><use xlink:href="#AJXXcNq_HVX9_pad-23" x="114000" y="-85500"/><use xlink:href="#AJXXcNq_HVX9_pad-23" x="121250" y="-77250"/><use xlink:href="#AJXXcNq_HVX9_pad-23" x="113423.705" y="-82550"/><use xlink:href="#AJXXcNq_HVX9_pad-23" x="125000" y="-77250"/><use xlink:href="#AJXXcNq_HVX9_pad-23" x="112000" y="-82250"/><use xlink:href="#AJXXcNq_HVX9_pad-23" x="111500" y="-77250"/><path d="M 118065 -78950 117750 -79265 M 119025 -78950 118065 -78950 M 110650 -79692.5 110165 -79207.5 M 111550 -80742.5 111550 -80142.5 M 110165 -79207.5 109250 -79207.5 M 113350 -78642.5 113350 -79192.5 112850 -79692.5 M 111550 -80142.5 112000 -79692.5 M 109250 -79207.5 109250 -77250 M 112000 -79692.5 110650 -79692.5 M 111550 -80742.5 111550 -81292.5 111000 -81750 M 113250 -79692.5 112000 -79692.5 M 111000 -82806 111000 -84000 M 119675 -80550 119675 -80175 M 117144.8 -75488.8 117271.8 -75615.8 M 119675 -80175 119025 -79525 M 122250 -83265 124985 -83265 M 126977.5 -80700 127500 -80177.5 M 125975 -80700 126977.5 -80700 M 119025 -79525 119025 -78950 M 109677.2 -75488.8 117144.8 -75488.8 M 124985 -83265 125975 -82275 M 113650 -86650 116600 -86650 M 125975 -80700 125975 -80225 M 120980.2 -81995.2 122250 -83265 M 120980.2 -81784 120980.2 -81995.2 M 109250 -75916 109677.2 -75488.8 M 125975 -82275 125975 -80700 M 117271.8 -75615.8 117750 -76094 M 125975 -80225 125500 -79750 M 109250 -77250 109250 -75916 M 111000 -84000 113650 -86650 M 111000 -81750 111000 -82806 M 117750 -79265 117750 -76094 M 119025 -81225 119025 -80550 M 119250 -81500 119025 -81225 M 119750 -82000 120325 -81425 M 119750 -82000 119250 -81500 M 120325 -81425 120325 -80550 M 118065 -80550 117750 -80235 M 119025 -80550 118065 -80550 M 109815 -80742.5 109250 -80177.5 M 110950 -80742.5 109815 -80742.5 M 109250 -82250 109250 -80177.5 M 119888 -83265 121158 -83265 M 125975 -76725 124750 -75500 M 125975 -78800 127092.5 -78800 M 125975 -78800 125975 -76725 M 119675 -77697.4 119227.6 -77250 M 127092.5 -78800 127500 -79207.5 M 117250 -83265 118618 -83265 M 119227.6 -77250 119227.6 -76772.4 M 119675 -78950 119675 -77697.4 M 119750 -82412 119750 -82000 M 119227.6 -76772.4 120500 -75500 M 119750 -83265 119750 -82412 M 116000 -83265 117250 -83265 M 118618 -83265 119888 -83265 M 124750 -75500 120500 -75500 M 120325 -77325 120250 -77250 M 120325 -78950 120325 -77325 M 120250 -76684.315 120934.315 -76000 M 120250 -77250 120250 -76684.315 M 112750 -80742.5 112750 -83540 M 124250 -82250 124750 -82250 M 125025 -81975 125025 -80700 M 124000 -76750 124000 -82000 M 112750 -84250 114000 -85500 M 119888 -84235 119888 -85090 M 112750 -83540 112715.5 -83312 M 119140 -85838 119140 -86650 M 123250 -76000 124000 -76750 M 119888 -85090 119140 -85838 M 112750 -83540 112750 -84250 M 124000 -82000 124250 -82250 M 124750 -82250 125025 -81975 M 120934.315 -76000 123250 -76000 M 120975 -78950 120975 -77525 121250 -77250 M 113372.65 -82969.35 113350 -82992 M 113350 -83850 113350 -82992 M 117885 -85500 118250 -85500 M 117870 -85515 117885 -85500 M 115000 -85500 113350 -83850 M 113423.705 -82550 113372.65 -82969.35 M 118296.1 -85453.9 118618 -85132 M 113350 -82992 113350 -80742.5 M 117870 -86650 117870 -85515 M 118250 -85500 118296.1 -85453.9 M 115000 -85500 117885 -85500 M 118618 -84235 118618 -85132 M 125025 -78800 125025 -77275 125000 -77250 M 114500 -77500 114500 -84240.868 M 115259.132 -85000 116930 -85000 117250 -84680 M 114500 -84240.868 115259.132 -85000 M 114250 -77250 114500 -77500 M 112750 -78642.5 112750 -77500 M 113000 -77250 114250 -77250 M 112750 -77500 113000 -77250 M 117250 -84235 117250 -84680 M 114500 -76750 115000 -77250 M 112150 -77350 112750 -76750 M 112150 -78642.5 112150 -77350 M 112750 -76750 114500 -76750 M 115000 -84000 115235 -84235 116000 -84235 M 115000 -77250 115000 -84000 M 112000 -82250 112150 -82100 112150 -80742.5 M 111550 -77300 111500 -77250 M 110950 -78642.5 111550 -78642.5 111550 -77300 M 120980.2 -81284 120980.2 -80555.2" fill="none" stroke-width="250"/><path d="M 110543.048 -81508.018 110639.684 -81544.245 110701.866 -81551 111136.285 -81551 111204.406 -81571.002 111250.899 -81624.658 111261.003 -81694.932 111245.404 -81739.999 111165.473 -81878.444 111106.458 -82060.072 111105.768 -82066.633 111105.768 -82066.635 111092.81 -82189.928 111086.496 -82250 111087.186 -82256.565 111103.935 -82415.92 111106.458 -82439.928 111165.473 -82621.556 111260.96 -82786.944 111265.378 -82791.851 111265.379 -82791.852 111352.148 -82888.219 111388.747 -82928.866 111487.843 -83000.864 111533.666 -83034.156 111543.248 -83041.118 111549.276 -83043.802 111549.278 -83043.803 111649.878 -83088.593 111717.712 -83118.794 111722.428 -83119.796 111780.489 -83159.498 111808.126 -83224.894 111808.257 -83252.427 111801.996 -83312 111802.686 -83318.565 111819.179 -83475.484 111821.958 -83501.928 111880.973 -83683.556 111976.46 -83848.944 112084.137 -83968.532 112114.853 -84032.537 112116.5 -84052.84 112116.5 -84171.233 112115.973 -84182.416 112114.298 -84189.909 112114.547 -84197.835 112114.547 -84197.836 112116.438 -84257.986 112116.5 -84261.945 112116.5 -84289.856 112116.997 -84293.79 112116.997 -84293.791 112117.005 -84293.856 112117.938 -84305.693 112119.327 -84349.889 112124.978 -84369.339 112128.987 -84388.7 112131.526 -84408.797 112134.445 -84416.168 112134.445 -84416.17 112147.804 -84449.912 112151.649 -84461.142 112160.266 -84490.802 112163.982 -84503.593 112168.015 -84510.412 112168.017 -84510.417 112174.293 -84521.028 112182.988 -84538.776 112190.448 -84557.617 112195.11 -84564.033 112195.11 -84564.034 112216.436 -84593.387 112222.952 -84603.307 112245.458 -84641.362 112259.779 -84655.683 112272.619 -84670.716 112284.528 -84687.107 112290.634 -84692.158 112318.605 -84715.298 112327.384 -84723.288 113052.878 -85448.782 113086.904 -85511.094 113089.092 -85524.703 113095.683 -85587.407 113105.537 -85681.161 113106.458 -85689.928 113165.473 -85871.556 113260.96 -86036.944 113265.378 -86041.851 113265.379 -86041.852 113352.148 -86138.219 113388.747 -86178.866 113543.248 -86291.118 113549.276 -86293.802 113549.278 -86293.803 113711.681 -86366.109 113717.712 -86368.794 113811.113 -86388.647 113898.056 -86407.128 113898.061 -86407.128 113904.513 -86408.5 114095.487 -86408.5 114101.939 -86407.128 114101.944 -86407.128 114188.887 -86388.647 114282.288 -86368.794 114288.319 -86366.109 114450.722 -86293.803 114450.724 -86293.802 114456.752 -86291.118 114611.253 -86178.866 114651.34 -86134.345 114711.786 -86097.106 114776.308 -86096.614 114784.558 -86098.732 114803.266 -86105.137 114821.855 -86113.181 114829.68 -86114.42 114829.682 -86114.421 114865.519 -86120.097 114877.14 -86122.504 114912.289 -86131.528 114919.97 -86133.5 114940.231 -86133.5 114959.94 -86135.051 114979.943 -86138.219 114987.835 -86137.473 114993.062 -86136.979 115023.954 -86134.059 115035.811 -86133.5 115466 -86133.5 115534.121 -86153.502 115580.614 -86207.158 115592 -86259.5 115592 -86377.885 115596.475 -86393.124 115597.865 -86394.329 115605.548 -86396 116728 -86396 116796.121 -86416.002 116842.614 -86469.658 116854 -86522 116854 -87639.884 116858.475 -87655.123 116859.865 -87656.328 116867.548 -87657.999 117144.669 -87657.999 117151.49 -87657.629 117202.352 -87652.105 117217.604 -87648.479 117338.054 -87603.324 117361.517 -87590.478 117362.792 -87592.806 117416.321 -87572.797 117464.333 -87578.637 117652.392 -87639.74 117848.777 -87663.158 117854.912 -87662.686 117854.914 -87662.686 118039.83 -87648.457 118039.834 -87648.456 118045.972 -87647.984 118236.463 -87594.798 118241.967 -87592.018 118241.969 -87592.017 118407.493 -87508.405 118407.495 -87508.404 118412.996 -87505.625 118417.85 -87501.833 118417.859 -87501.827 118426.548 -87495.038 118492.542 -87468.86 118565.592 -87484.339 118734.294 -87578.624 118922.392 -87639.74 119118.777 -87663.158 119124.912 -87662.686 119124.914 -87662.686 119309.83 -87648.457 119309.834 -87648.456 119315.972 -87647.984 119506.463 -87594.798 119511.967 -87592.018 119511.969 -87592.017 119677.493 -87508.405 119677.495 -87508.404 119682.996 -87505.625 119687.85 -87501.833 119687.859 -87501.827 119696.548 -87495.038 119762.542 -87468.86 119835.592 -87484.339 120004.294 -87578.624 120192.392 -87639.74 120388.777 -87663.158 120394.912 -87662.686 120394.914 -87662.686 120579.83 -87648.457 120579.834 -87648.456 120585.972 -87647.984 120776.463 -87594.798 120781.967 -87592.018 120781.969 -87592.017 120947.495 -87508.404 120947.497 -87508.403 120952.996 -87505.625 121108.847 -87383.861 121238.078 -87234.145 121335.769 -87062.179 121398.197 -86874.513 121422.985 -86678.295 121423.38 -86650 121404.08 -86453.167 121346.916 -86263.831 121254.066 -86089.204 121147.558 -85958.612 121132.96 -85940.713 121132.957 -85940.71 121129.065 -85935.938 121124.316 -85932.009 120981.425 -85813.799 120981.421 -85813.797 120976.675 -85809.87 120802.701 -85715.802 120613.768 -85657.318 120607.645 -85656.675 120607.643 -85656.674 120547.194 -85650.321 120504.834 -85645.869 120439.178 -85618.856 120398.548 -85560.635 120395.845 -85489.689 120407.591 -85459.858 120414.347 -85447.569 120425.199 -85431.047 120432.758 -85421.301 120437.614 -85415.041 120440.759 -85407.772 120440.762 -85407.768 120455.174 -85374.463 120460.391 -85363.813 120481.695 -85325.06 120486.733 -85305.437 120493.137 -85286.734 120498.033 -85275.42 120498.033 -85275.419 120501.181 -85268.145 120502.42 -85260.322 120502.423 -85260.312 120508.099 -85224.476 120510.505 -85212.856 120519.528 -85177.711 120519.528 -85177.71 120521.5 -85170.03 120521.5 -85149.776 120523.051 -85130.065 120524.98 -85117.886 120526.22 -85110.057 120523.428 -85080.519 120536.931 -85010.819 120585.973 -84959.483 120654.984 -84942.81 120713.009 -84960.209 120721.778 -84965.395 120736.216 -84971.643 120879.641 -85013.312 120887.609 -85014.768 120901.031 -85011.948 120904 -85000.487 120904 -84998.424 121412 -84998.424 121416.344 -85013.219 121426.775 -85015.063 121436.359 -85013.312 121579.784 -84971.643 121594.22 -84965.396 121721.499 -84890.124 121733.926 -84880.484 121838.484 -84775.926 121848.124 -84763.499 121923.396 -84636.22 121929.643 -84621.784 121964.619 -84501.395 121964.579 -84487.295 121957.309 -84484 121430.115 -84484 121414.876 -84488.475 121413.671 -84489.865 121412 -84497.548 121412 -84998.424 120904 -84998.424 120904 -84184.5 120924.002 -84116.379 120977.658 -84069.886 121030 -84058.5 121393.484 -84058.5 121395.932 -84058.307 121395.94 -84058.307 121423.844 -84056.111 121423.849 -84056.11 121430.254 -84055.606 121529.005 -84026.916 121579.984 -84012.106 121579.986 -84012.105 121587.597 -84009.894 121615.24 -83993.546 121679.379 -83976 121951.558 -83976 121965.089 -83972.027 121966.224 -83964.129 121929.643 -83838.216 121923.395 -83823.778 121917.984 -83814.628 121900.526 -83745.812 121917.985 -83686.353 121923.857 -83676.423 121927.894 -83669.597 121973.606 -83512.254 121974.936 -83495.365 121976.307 -83477.94 121976.307 -83477.932 121976.5 -83475.484 121976.5 -83064.516 121974.87 -83043.803 121974.111 -83034.156 121974.11 -83034.151 121973.606 -83027.746 121971.811 -83021.566 121934.556 -82893.332 121934.759 -82822.336 121973.313 -82762.72 122037.978 -82733.412 122092.093 -82737.662 122099.8 -82741.281 122108.667 -82742.662 122108.668 -82742.662 122111.353 -82743.08 122129.017 -82745.83 122145.732 -82749.613 122165.466 -82755.515 122165.472 -82755.516 122174.066 -82758.086 122183.037 -82758.141 122183.038 -82758.141 122193.097 -82758.202 122208.506 -82758.296 122209.289 -82758.329 122210.386 -82758.5 122241.377 -82758.5 122242.147 -82758.502 122315.785 -82758.952 122315.786 -82758.952 122319.721 -82758.976 122321.065 -82758.592 122322.41 -82758.5 123491.377 -82758.5 123492.148 -82758.502 123569.721 -82758.976 123598.152 -82750.85 123614.915 -82747.272 123615.753 -82747.152 123644.187 -82743.08 123667.564 -82732.451 123685.087 -82726.004 123701.144 -82721.415 123701.146 -82721.414 123709.771 -82718.949 123712.441 -82717.264 123779.892 -82708.099 123847.246 -82740.824 123852.576 -82745.83 123868.899 -82761.159 123868.903 -82761.162 123874.679 -82766.586 123881.628 -82770.406 123892.432 -82776.346 123908.956 -82787.199 123924.959 -82799.613 123965.543 -82817.176 123976.173 -82822.383 124014.94 -82843.695 124022.617 -82845.666 124022.622 -82845.668 124034.558 -82848.732 124053.266 -82855.137 124071.855 -82863.181 124079.68 -82864.42 124079.682 -82864.421 124115.519 -82870.097 124127.14 -82872.504 124158.959 -82880.673 124169.97 -82883.5 124190.231 -82883.5 124209.94 -82885.051 124229.943 -82888.219 124237.835 -82887.473 124243.062 -82886.979 124273.954 -82884.059 124285.811 -82883.5 124671.233 -82883.5 124682.416 -82884.027 124689.909 -82885.702 124697.835 -82885.453 124697.836 -82885.453 124757.986 -82883.562 124761.945 -82883.5 124789.856 -82883.5 124793.791 -82883.003 124793.856 -82882.995 124805.693 -82882.062 124837.951 -82881.048 124841.97 -82880.922 124849.889 -82880.673 124869.343 -82875.021 124888.7 -82871.013 124900.93 -82869.468 124900.931 -82869.468 124908.797 -82868.474 124916.168 -82865.555 124916.17 -82865.555 124949.912 -82852.196 124961.142 -82848.351 124995.983 -82838.229 124995.984 -82838.229 125003.593 -82836.018 125010.412 -82831.985 125010.417 -82831.983 125021.028 -82825.707 125038.776 -82817.012 125057.617 -82809.552 125077.987 -82794.753 125093.387 -82783.564 125103.307 -82777.048 125134.535 -82758.58 125134.538 -82758.578 125141.362 -82754.542 125155.686 -82740.218 125170.713 -82727.383 125187.107 -82715.472 125192.16 -82709.364 125215.289 -82681.406 125223.278 -82672.628 125417.258 -82478.648 125425.538 -82471.113 125432.018 -82467 125478.645 -82417.347 125481.399 -82414.506 125501.135 -82394.77 125503.615 -82391.573 125511.32 -82382.551 125536.159 -82356.1 125541.586 -82350.321 125545.405 -82343.375 125545.407 -82343.372 125551.348 -82332.566 125562.199 -82316.047 125569.758 -82306.301 125574.614 -82300.041 125577.759 -82292.772 125577.762 -82292.768 125592.174 -82259.463 125597.391 -82248.813 125618.695 -82210.06 125623.733 -82190.437 125630.137 -82171.734 125635.033 -82160.42 125635.033 -82160.419 125638.181 -82153.145 125639.42 -82145.322 125639.423 -82145.312 125645.099 -82109.476 125647.505 -82097.856 125656.528 -82062.711 125656.528 -82062.71 125658.5 -82055.03 125658.5 -82034.776 125660.051 -82015.065 125661.98 -82002.886 125663.22 -81995.057 125659.059 -81951.038 125658.5 -81939.181 125658.5 -81631.211 125678.502 -81563.09 125732.158 -81516.597 125749.001 -81510.315 125772.124 -81503.525 125773.329 -81502.135 125773.793 -81500 126177.971 -81500 126179.475 -81505.123 126180.865 -81506.328 126188.548 -81507.999 126219.669 -81507.999 126226.49 -81507.629 126285.207 -81501.252 126285.271 -81501.841 126300.978 -81500 127865.5 -81500 127933.621 -81520.002 127980.114 -81573.658 127991.5 -81626 127991.5 -85102.793 127971.498 -85170.914 127917.842 -85217.407 127847.568 -85227.511 127782.988 -85198.017 127773.2 -85188.564 127631.046 -85035.588 127631.043 -85035.585 127628.125 -85032.445 127624.81 -85029.731 127624.806 -85029.728 127419.523 -84861.706 127416.205 -84858.99 127182.704 -84715.901 127178.768 -84714.173 126935.873 -84607.549 126935.869 -84607.548 126931.945 -84605.825 126668.566 -84530.8 126664.324 -84530.196 126664.318 -84530.195 126434.928 -84497.548 126397.443 -84492.213 126253.589 -84491.46 126127.877 -84490.802 126127.871 -84490.802 126123.591 -84490.78 126119.347 -84491.339 126119.343 -84491.339 126000.302 -84507.011 125852.078 -84526.525 125847.938 -84527.658 125847.936 -84527.658 125775.008 -84547.609 125587.928 -84598.788 125583.98 -84600.472 125339.982 -84704.546 125339.978 -84704.548 125336.03 -84706.232 125240.343 -84763.499 125104.725 -84844.664 125104.721 -84844.667 125101.043 -84846.868 124887.318 -85018.094 124870.717 -85035.588 124702.496 -85212.856 124698.808 -85216.742 124539.002 -85439.136 124410.857 -85681.161 124409.385 -85685.184 124409.383 -85685.188 124339.087 -85877.279 124316.743 -85938.337 124258.404 -86205.907 124236.917 -86478.918 124252.682 -86752.32 124253.507 -86756.525 124253.508 -86756.533 124275.454 -86868.393 124305.405 -87021.053 124306.792 -87025.103 124306.793 -87025.108 124392.723 -87276.088 124394.112 -87280.144 124396.039 -87283.975 124507.517 -87505.625 124517.16 -87524.799 124519.586 -87528.328 124519.589 -87528.334 124612.252 -87663.158 124672.274 -87750.49 124675.161 -87753.663 124675.162 -87753.664 124738.334 -87823.089 124856.582 -87953.043 124859.877 -87955.798 124859.878 -87955.799 124935.271 -88018.837 124974.701 -88077.878 124975.952 -88148.863 124938.626 -88209.256 124874.574 -88239.882 124854.449 -88241.5 111899.007 -88241.5 111830.886 -88221.498 111784.393 -88167.842 111774.289 -88097.568 111803.783 -88032.988 111821.26 -88016.347 111833.656 -88006.627 111847.089 -87996.094 111888.809 -87953.043 112034.686 -87802.509 112037.669 -87799.431 112040.202 -87795.983 112040.206 -87795.978 112197.257 -87582.178 112199.795 -87578.723 112227.154 -87528.334 112328.418 -87341.83 112328.419 -87341.828 112330.468 -87338.054 112384.649 -87194.669 115592.001 -87194.669 115592.371 -87201.49 115597.895 -87252.352 115601.521 -87267.604 115646.676 -87388.054 115655.214 -87403.649 115731.715 -87505.724 115744.276 -87518.285 115846.351 -87594.786 115861.946 -87603.324 115982.394 -87648.478 115997.649 -87652.105 116048.514 -87657.631 116055.328 -87658 116327.885 -87658 116343.124 -87653.525 116344.329 -87652.135 116346 -87644.452 116346 -86922.115 116341.525 -86906.876 116340.135 -86905.671 116332.452 -86904 115610.116 -86904 115594.877 -86908.475 115593.672 -86909.865 115592.001 -86917.548 115592.001 -87194.669 112384.649 -87194.669 112427.269 -87081.877 112473.421 -86880.365 112487.449 -86819.117 112487.45 -86819.113 112488.407 -86814.933 112500.602 -86678.295 112512.531 -86544.627 112512.531 -86544.625 112512.751 -86542.161 112513.193 -86500 112511.125 -86469.658 112494.859 -86231.055 112494.858 -86231.049 112494.567 -86226.778 112483.63 -86173.963 112439.901 -85962.809 112439.032 -85958.612 112347.617 -85700.465 112222.013 -85457.112 112212.04 -85442.921 112067.008 -85236.562 112064.545 -85233.057 111953.667 -85113.738 111881.046 -85035.588 111881.043 -85035.585 111878.125 -85032.445 111874.81 -85029.731 111874.806 -85029.728 111669.523 -84861.706 111666.205 -84858.99 111432.704 -84715.901 111428.768 -84714.173 111185.873 -84607.549 111185.869 -84607.548 111181.945 -84605.825 110918.566 -84530.8 110914.324 -84530.196 110914.318 -84530.195 110684.928 -84497.548 110647.443 -84492.213 110503.589 -84491.46 110377.877 -84490.802 110377.871 -84490.802 110373.591 -84490.78 110369.347 -84491.339 110369.343 -84491.339 110250.302 -84507.011 110102.078 -84526.525 110097.938 -84527.658 110097.936 -84527.658 110025.008 -84547.609 109837.928 -84598.788 109833.98 -84600.472 109589.982 -84704.546 109589.978 -84704.548 109586.03 -84706.232 109490.343 -84763.499 109354.725 -84844.664 109354.721 -84844.667 109351.043 -84846.868 109137.318 -85018.094 109134.374 -85021.196 109134.37 -85021.2 108975.897 -85188.196 108914.497 -85223.84 108843.573 -85220.631 108785.643 -85179.586 108759.099 -85113.738 108758.5 -85101.463 108758.5 -83219.67 108778.502 -83151.549 108832.158 -83105.056 108902.432 -83094.952 108935.748 -83104.563 108967.712 -83118.794 109061.112 -83138.647 109148.056 -83157.128 109148.061 -83157.128 109154.513 -83158.5 109345.487 -83158.5 109351.939 -83157.128 109351.944 -83157.128 109438.888 -83138.647 109532.288 -83118.794 109538.319 -83116.109 109700.722 -83043.803 109700.724 -83043.802 109706.752 -83041.118 109716.335 -83034.156 109762.157 -83000.864 109861.253 -82928.866 109897.852 -82888.219 109984.621 -82791.852 109984.622 -82791.851 109989.04 -82786.944 110084.527 -82621.556 110143.542 -82439.928 110146.066 -82415.92 110162.814 -82256.565 110163.504 -82250 110157.19 -82189.928 110144.232 -82066.635 110144.232 -82066.633 110143.542 -82060.072 110084.527 -81878.444 109989.04 -81713.056 109984.62 -81708.148 109980.741 -81702.808 109982.393 -81701.608 109955.852 -81646.315 109964.609 -81575.861 110010.066 -81521.325 110080.203 -81500 110498.819 -81500 110543.048 -81508.018"/><path d="M 114683.621 -71278.502 114730.114 -71332.158 114741.5 -71384.5 114741.5 -71741.377 114741.498 -71742.147 114741.024 -71819.721 114743.491 -71828.352 114749.15 -71848.153 114752.728 -71864.915 114756.92 -71894.187 114760.634 -71902.355 114760.634 -71902.356 114767.548 -71917.562 114773.996 -71935.086 114781.051 -71959.771 114785.843 -71967.365 114785.844 -71967.368 114796.83 -71984.78 114804.969 -71999.863 114817.208 -72026.782 114823.069 -72033.584 114833.97 -72046.235 114845.073 -72061.239 114858.776 -72082.958 114865.501 -72088.897 114865.504 -72088.901 114880.938 -72102.532 114892.982 -72114.724 114906.427 -72130.327 114906.43 -72130.329 114912.287 -72137.127 114919.816 -72142.007 114919.817 -72142.008 114933.835 -72151.094 114948.709 -72162.385 114961.217 -72173.431 114967.951 -72179.378 114994.711 -72191.942 115009.691 -72200.263 115026.983 -72211.471 115026.988 -72211.473 115034.515 -72216.352 115043.108 -72218.922 115043.113 -72218.924 115059.12 -72223.711 115076.564 -72230.372 115091.676 -72237.467 115091.678 -72237.468 115099.8 -72241.281 115108.667 -72242.662 115108.668 -72242.662 115111.353 -72243.08 115129.017 -72245.83 115145.732 -72249.613 115165.466 -72255.515 115165.472 -72255.516 115174.066 -72258.086 115183.037 -72258.141 115183.038 -72258.141 115193.097 -72258.202 115208.506 -72258.296 115209.289 -72258.329 115210.386 -72258.5 115241.377 -72258.5 115242.147 -72258.502 115315.785 -72258.952 115315.786 -72258.952 115319.721 -72258.976 115321.065 -72258.592 115322.41 -72258.5 121491.377 -72258.5 121492.148 -72258.502 121569.721 -72258.976 121598.152 -72250.85 121614.915 -72247.272 121615.753 -72247.152 121644.187 -72243.08 121667.564 -72232.451 121685.087 -72226.004 121709.771 -72218.949 121717.365 -72214.157 121717.368 -72214.156 121734.78 -72203.17 121749.865 -72195.03 121776.782 -72182.792 121796.235 -72166.03 121811.239 -72154.927 121832.958 -72141.224 121838.897 -72134.499 121838.901 -72134.496 121852.532 -72119.062 121864.724 -72107.018 121880.327 -72093.573 121880.329 -72093.57 121887.127 -72087.713 121901.094 -72066.165 121912.385 -72051.291 121923.431 -72038.783 121923.432 -72038.782 121929.378 -72032.049 121941.943 -72005.287 121950.263 -71990.309 121961.471 -71973.017 121961.473 -71973.012 121966.352 -71965.485 121968.922 -71956.892 121968.924 -71956.887 121973.711 -71940.88 121980.372 -71923.436 121987.467 -71908.324 121987.468 -71908.322 121991.281 -71900.2 121995.83 -71870.983 121999.613 -71854.268 122005.515 -71834.534 122005.516 -71834.528 122008.086 -71825.934 122008.296 -71791.494 122008.329 -71790.711 122008.5 -71789.614 122008.5 -71758.623 122008.502 -71757.853 122008.952 -71684.215 122008.952 -71684.214 122008.976 -71680.279 122008.592 -71678.935 122008.5 -71677.59 122008.5 -71384.5 122028.502 -71316.379 122082.158 -71269.886 122134.5 -71258.5 124852.549 -71258.5 124920.67 -71278.502 124967.163 -71332.158 124977.267 -71402.432 124947.773 -71467.012 124931.332 -71482.832 124887.318 -71518.094 124698.808 -71716.742 124539.002 -71939.136 124410.857 -72181.161 124409.385 -72185.184 124409.383 -72185.188 124382.389 -72258.952 124316.743 -72438.337 124258.404 -72705.907 124236.917 -72978.918 124252.682 -73252.32 124253.507 -73256.525 124253.508 -73256.533 124264.127 -73310.657 124305.405 -73521.053 124306.792 -73525.103 124306.793 -73525.108 124327.605 -73585.895 124394.112 -73780.144 124517.16 -74024.799 124519.586 -74028.328 124519.589 -74028.334 124669.843 -74246.953 124672.274 -74250.49 124675.161 -74253.663 124675.162 -74253.664 124738.334 -74323.089 124856.582 -74453.043 125066.675 -74628.707 125070.316 -74630.991 125295.024 -74771.951 125295.028 -74771.953 125298.664 -74774.234 125366.544 -74804.883 125544.345 -74885.164 125544.349 -74885.166 125548.257 -74886.93 125552.377 -74888.15 125552.376 -74888.15 125806.723 -74963.491 125806.727 -74963.492 125810.836 -74964.709 125815.07 -74965.357 125815.075 -74965.358 126077.298 -75005.483 126077.3 -75005.483 126081.54 -75006.132 126220.912 -75008.322 126351.071 -75010.367 126351.077 -75010.367 126355.362 -75010.434 126627.235 -74977.534 126881.175 -74910.914 126887.976 -74909.13 126892.127 -74908.041 126896.087 -74906.401 126896.092 -74906.399 127018.632 -74855.641 127145.136 -74803.241 127381.582 -74665.073 127597.089 -74496.094 127638.809 -74453.043 127775.016 -74312.488 127836.786 -74277.488 127907.673 -74281.44 127965.17 -74323.089 127991.022 -74389.211 127991.5 -74400.173 127991.5 -77874 127971.498 -77942.121 127917.842 -77988.614 127865.5 -78000 126734.5 -78000 126666.379 -77979.998 126619.886 -77926.342 126608.5 -77874 126608.5 -76803.768 126609.027 -76792.585 126610.702 -76785.092 126610.078 -76765.22 126608.562 -76717.002 126608.5 -76713.044 126608.5 -76685.144 126607.996 -76681.153 126607.063 -76669.311 126605.994 -76635.276 126605.674 -76625.111 126603.461 -76617.493 126600.021 -76605.652 126596.012 -76586.293 126595.846 -76584.983 126593.474 -76566.203 126590.558 -76558.837 126590.556 -76558.831 126577.2 -76525.098 126573.355 -76513.868 126563.23 -76479.017 126563.23 -76479.016 126561.019 -76471.407 126550.705 -76453.966 126542.008 -76436.213 126537.472 -76424.758 126534.552 -76417.383 126508.563 -76381.612 126502.047 -76371.692 126492.66 -76355.819 126479.542 -76333.638 126465.221 -76319.317 126452.38 -76304.283 126445.131 -76294.306 126440.472 -76287.893 126406.395 -76259.702 126397.616 -76251.712 125253.652 -75107.747 125246.112 -75099.461 125242 -75092.982 125192.348 -75046.356 125189.507 -75043.602 125169.77 -75023.865 125166.573 -75021.385 125157.551 -75013.68 125125.321 -74983.414 125118.375 -74979.595 125118.372 -74979.593 125107.566 -74973.652 125091.047 -74962.801 125090.583 -74962.441 125075.041 -74950.386 125067.772 -74947.241 125067.768 -74947.238 125034.463 -74932.826 125023.813 -74927.609 124985.06 -74906.305 124965.437 -74901.267 124946.734 -74894.863 124935.42 -74889.967 124935.419 -74889.967 124928.145 -74886.819 124920.322 -74885.58 124920.312 -74885.577 124884.476 -74879.901 124872.856 -74877.495 124837.711 -74868.472 124837.71 -74868.472 124830.03 -74866.5 124809.776 -74866.5 124790.065 -74864.949 124787.534 -74864.548 124770.057 -74861.78 124762.165 -74862.526 124726.039 -74865.941 124714.181 -74866.5 120578.763 -74866.5 120567.579 -74865.973 120560.091 -74864.299 120552.168 -74864.548 120492.033 -74866.438 120488.075 -74866.5 120460.144 -74866.5 120456.229 -74866.995 120456.225 -74866.995 120456.167 -74867.003 120456.138 -74867.006 120444.296 -74867.939 120400.11 -74869.327 120382.744 -74874.372 120380.658 -74874.978 120361.306 -74878.986 120354.235 -74879.88 120341.203 -74881.526 120333.834 -74884.443 120333.832 -74884.444 120300.097 -74897.8 120288.869 -74901.645 120246.407 -74913.982 120239.585 -74918.016 120239.579 -74918.019 120228.968 -74924.294 120211.218 -74932.99 120199.756 -74937.528 120199.751 -74937.531 120192.383 -74940.448 120174.97 -74953.099 120156.625 -74966.427 120146.707 -74972.943 120138.072 -74978.05 120108.637 -74995.458 120094.313 -75009.782 120079.281 -75022.621 120062.893 -75034.528 120034.712 -75068.593 120026.722 -75077.373 118835.347 -76268.748 118827.061 -76276.288 118820.582 -76280.4 118815.157 -76286.177 118773.957 -76330.051 118771.202 -76332.893 118751.465 -76352.63 118748.985 -76355.827 118741.282 -76364.847 118711.014 -76397.079 118707.196 -76404.024 118707.195 -76404.025 118701.252 -76414.834 118690.401 -76431.353 118677.986 -76447.359 118674.841 -76454.628 118674.838 -76454.632 118660.426 -76487.937 118655.209 -76498.587 118633.905 -76537.34 118632.783 -76541.711 118610.545 -76577.578 118488.56 -76713.056 118393.073 -76878.444 118334.058 -77060.072 118314.096 -77250 118334.058 -77439.928 118393.073 -77621.556 118488.56 -77786.944 118492.98 -77791.852 118496.859 -77797.192 118495.207 -77798.392 118521.748 -77853.685 118512.991 -77924.139 118467.534 -77978.675 118397.397 -78000 117384.5 -78000 117316.379 -77979.998 117269.886 -77926.342 117258.5 -77874 117258.5 -77008.623 117258.502 -77007.853 117258.921 -76939.254 117258.976 -76930.279 117250.85 -76901.847 117247.272 -76885.085 117244.352 -76864.698 117243.08 -76855.813 117232.451 -76832.436 117226.004 -76814.913 117218.949 -76790.229 117214.156 -76782.632 117203.17 -76765.22 117195.03 -76750.135 117182.792 -76723.218 117166.03 -76703.765 117154.927 -76688.761 117141.224 -76667.042 117134.499 -76661.103 117134.496 -76661.099 117119.062 -76647.468 117107.018 -76635.276 117093.573 -76619.673 117093.57 -76619.671 117087.713 -76612.873 117066.165 -76598.906 117051.291 -76587.615 117038.783 -76576.569 117038.782 -76576.568 117032.049 -76570.622 117005.287 -76558.057 116990.309 -76549.737 116973.017 -76538.529 116973.012 -76538.527 116965.485 -76533.648 116956.892 -76531.078 116956.887 -76531.076 116940.88 -76526.289 116923.436 -76519.628 116908.324 -76512.533 116908.322 -76512.532 116900.2 -76508.719 116891.333 -76507.338 116891.332 -76507.338 116880.478 -76505.648 116870.983 -76504.17 116854.268 -76500.387 116834.534 -76494.485 116834.528 -76494.484 116825.934 -76491.914 116816.963 -76491.859 116816.962 -76491.859 116806.903 -76491.798 116791.494 -76491.704 116790.711 -76491.671 116789.614 -76491.5 116758.623 -76491.5 116757.853 -76491.498 116684.215 -76491.048 116684.214 -76491.048 116680.279 -76491.024 116678.935 -76491.408 116677.59 -76491.5 115508.623 -76491.5 115507.853 -76491.498 115507.037 -76491.493 115430.279 -76491.024 115407.918 -76497.415 115401.847 -76499.15 115385.085 -76502.728 115355.813 -76506.92 115347.645 -76510.634 115347.644 -76510.634 115332.438 -76517.548 115314.913 -76523.996 115298.859 -76528.584 115298.856 -76528.585 115290.229 -76531.051 115288.607 -76532.074 115221.777 -76541.155 115157.427 -76511.162 115151.58 -76505.675 115003.652 -76357.747 114996.112 -76349.461 114992 -76342.982 114979.751 -76331.479 114942.349 -76296.357 114939.507 -76293.602 114919.77 -76273.865 114916.573 -76271.385 114907.551 -76263.68 114894.122 -76251.069 114875.321 -76233.414 114868.375 -76229.595 114868.372 -76229.593 114857.566 -76223.652 114841.047 -76212.801 114840.583 -76212.441 114825.041 -76200.386 114817.772 -76197.241 114817.768 -76197.238 114784.463 -76182.826 114773.813 -76177.609 114735.06 -76156.305 114715.437 -76151.267 114696.734 -76144.863 114685.42 -76139.967 114685.419 -76139.967 114678.145 -76136.819 114670.322 -76135.58 114670.312 -76135.577 114634.476 -76129.901 114622.856 -76127.495 114587.711 -76118.472 114587.71 -76118.472 114580.03 -76116.5 114559.776 -76116.5 114540.065 -76114.949 114527.886 -76113.02 114520.057 -76111.78 114490.786 -76114.547 114476.039 -76115.941 114464.181 -76116.5 112828.767 -76116.5 112817.584 -76115.973 112810.091 -76114.298 112802.165 -76114.547 112802.164 -76114.547 112742.014 -76116.438 112738.055 -76116.5 112710.144 -76116.5 112706.21 -76116.997 112706.209 -76116.997 112706.144 -76117.005 112694.307 -76117.938 112662.49 -76118.938 112658.029 -76119.078 112650.11 -76119.327 112632.454 -76124.456 112630.658 -76124.978 112611.306 -76128.986 112604.235 -76129.88 112591.203 -76131.526 112583.834 -76134.443 112583.832 -76134.444 112550.097 -76147.8 112538.869 -76151.645 112496.407 -76163.982 112489.584 -76168.017 112489.582 -76168.018 112478.972 -76174.293 112461.224 -76182.988 112442.383 -76190.448 112435.967 -76195.11 112435.966 -76195.11 112406.613 -76216.436 112396.693 -76222.952 112365.465 -76241.42 112365.462 -76241.422 112358.638 -76245.458 112344.317 -76259.779 112329.284 -76272.619 112312.893 -76284.528 112289.916 -76312.303 112284.712 -76318.593 112276.722 -76327.374 112142.001 -76462.094 112079.689 -76496.119 112008.873 -76491.054 111978.844 -76474.933 111962.095 -76462.764 111956.752 -76458.882 111950.724 -76456.198 111950.722 -76456.197 111788.319 -76383.891 111788.318 -76383.891 111782.288 -76381.206 111671.923 -76357.747 111601.944 -76342.872 111601.939 -76342.872 111595.487 -76341.5 111404.513 -76341.5 111398.061 -76342.872 111398.056 -76342.872 111328.077 -76357.747 111217.712 -76381.206 111211.682 -76383.891 111211.681 -76383.891 111049.278 -76456.197 111049.276 -76456.198 111043.248 -76458.882 111037.907 -76462.762 111037.906 -76462.763 110995.753 -76493.389 110888.747 -76571.134 110884.326 -76576.044 110884.325 -76576.045 110769.326 -76703.765 110760.96 -76713.056 110665.473 -76878.444 110606.458 -77060.072 110586.496 -77250 110606.458 -77439.928 110665.473 -77621.556 110690.57 -77665.025 110707.307 -77734.018 110684.087 -77801.11 110625.679 -77846.005 110511.705 -77888.732 110511.704 -77888.733 110503.295 -77891.885 110436.265 -77942.121 110392.627 -77974.826 110326.121 -77999.674 110317.062 -78000 108884.5 -78000 108816.379 -77979.998 108769.886 -77926.342 108758.5 -77874 108758.5 -74396.195 108778.502 -74328.074 108832.158 -74281.581 108902.432 -74271.477 108967.012 -74300.971 108977.693 -74311.395 109106.582 -74453.043 109316.675 -74628.707 109320.316 -74630.991 109545.024 -74771.951 109545.028 -74771.953 109548.664 -74774.234 109616.544 -74804.883 109794.345 -74885.164 109794.349 -74885.166 109798.257 -74886.93 109802.377 -74888.15 109802.376 -74888.15 110056.723 -74963.491 110056.727 -74963.492 110060.836 -74964.709 110065.07 -74965.357 110065.075 -74965.358 110327.298 -75005.483 110327.3 -75005.483 110331.54 -75006.132 110470.912 -75008.322 110601.071 -75010.367 110601.077 -75010.367 110605.362 -75010.434 110877.235 -74977.534 111131.175 -74910.914 111137.976 -74909.13 111142.127 -74908.041 111146.087 -74906.401 111146.092 -74906.399 111268.632 -74855.641 111395.136 -74803.241 111631.582 -74665.073 111847.089 -74496.094 111888.809 -74453.043 112034.686 -74302.509 112037.669 -74299.431 112040.202 -74295.983 112040.206 -74295.978 112197.257 -74082.178 112199.795 -74078.723 112227.154 -74028.334 112328.418 -73841.83 112328.419 -73841.828 112330.468 -73838.054 112427.269 -73581.877 112488.407 -73314.933 112512.751 -73042.161 112513.193 -73000 112494.567 -72726.778 112439.032 -72458.612 112347.617 -72200.465 112246.879 -72005.289 112223.978 -71960.919 112223.978 -71960.918 112222.013 -71957.112 112217.815 -71951.138 112123.514 -71816.962 112064.545 -71733.057 111943.496 -71602.793 111881.046 -71535.588 111881.043 -71535.585 111878.125 -71532.445 111816.498 -71482.003 111776.452 -71423.379 111774.459 -71352.411 111811.15 -71291.63 111874.877 -71260.335 111896.304 -71258.5 114615.5 -71258.5 114683.621 -71278.502"/></g><g id="nde2_HPFZcR9_top_soldermask"><use xlink:href="#v_2hnfqdkAr1_pad-10" x="119888" y="-84260"/><use xlink:href="#v_2hnfqdkAr1_pad-10" x="119888" y="-83240"/><use xlink:href="#v_2hnfqdkAr1_pad-10" x="118618" y="-84260"/><use xlink:href="#v_2hnfqdkAr1_pad-10" x="118618" y="-83240"/><use xlink:href="#v_2hnfqdkAr1_pad-10" x="117250" y="-84260"/><use xlink:href="#v_2hnfqdkAr1_pad-10" x="117250" y="-83240"/><use xlink:href="#v_2hnfqdkAr1_pad-10" x="116000" y="-84260"/><use xlink:href="#v_2hnfqdkAr1_pad-10" x="116000" y="-83240"/><use xlink:href="#v_2hnfqdkAr1_pad-11" x="125975" y="-78800"/><use xlink:href="#v_2hnfqdkAr1_pad-11" x="125025" y="-78800"/><use xlink:href="#v_2hnfqdkAr1_pad-11" x="125025" y="-80700"/><use xlink:href="#v_2hnfqdkAr1_pad-11" x="125975" y="-80700"/><use xlink:href="#v_2hnfqdkAr1_pad-12" x="125500" y="-79750"/><use xlink:href="#v_2hnfqdkAr1_pad-13" x="116600" y="-86650"/><use xlink:href="#v_2hnfqdkAr1_pad-14" x="117870" y="-86650"/><use xlink:href="#v_2hnfqdkAr1_pad-14" x="119140" y="-86650"/><use xlink:href="#v_2hnfqdkAr1_pad-14" x="120410" y="-86650"/><use xlink:href="#v_2hnfqdkAr1_pad-15" x="127500" y="-79212.5"/><use xlink:href="#v_2hnfqdkAr1_pad-15" x="127500" y="-80172.5"/><use xlink:href="#v_2hnfqdkAr1_pad-15" x="121158" y="-83270"/><use xlink:href="#v_2hnfqdkAr1_pad-15" x="121158" y="-84230"/><use xlink:href="#v_2hnfqdkAr1_pad-16" x="117750" y="-80230"/><use xlink:href="#v_2hnfqdkAr1_pad-16" x="117750" y="-79270"/><use xlink:href="#v_2hnfqdkAr1_pad-17" x="119025" y="-78950"/><use xlink:href="#v_2hnfqdkAr1_pad-17" x="119675" y="-78950"/><use xlink:href="#v_2hnfqdkAr1_pad-17" x="120325" y="-78950"/><use xlink:href="#v_2hnfqdkAr1_pad-17" x="120975" y="-78950"/><use xlink:href="#v_2hnfqdkAr1_pad-17" x="120975" y="-80550"/><use xlink:href="#v_2hnfqdkAr1_pad-17" x="120325" y="-80550"/><use xlink:href="#v_2hnfqdkAr1_pad-17" x="119675" y="-80550"/><use xlink:href="#v_2hnfqdkAr1_pad-17" x="119025" y="-80550"/><use xlink:href="#v_2hnfqdkAr1_pad-16" x="109250" y="-80172.5"/><use xlink:href="#v_2hnfqdkAr1_pad-16" x="109250" y="-79212.5"/><use xlink:href="#v_2hnfqdkAr1_pad-18" x="110500" y="-73000"/><use xlink:href="#v_2hnfqdkAr1_pad-18" x="126250" y="-73000"/><use xlink:href="#v_2hnfqdkAr1_pad-18" x="126250" y="-86500"/><use xlink:href="#v_2hnfqdkAr1_pad-18" x="110500" y="-86500"/><use xlink:href="#v_2hnfqdkAr1_pad-11" x="113350" y="-78642.5"/><use xlink:href="#v_2hnfqdkAr1_pad-11" x="112750" y="-78642.5"/><use xlink:href="#v_2hnfqdkAr1_pad-11" x="112150" y="-78642.5"/><use xlink:href="#v_2hnfqdkAr1_pad-11" x="111550" y="-78642.5"/><use xlink:href="#v_2hnfqdkAr1_pad-11" x="110950" y="-78642.5"/><use xlink:href="#v_2hnfqdkAr1_pad-11" x="110950" y="-80742.5"/><use xlink:href="#v_2hnfqdkAr1_pad-11" x="111550" y="-80742.5"/><use xlink:href="#v_2hnfqdkAr1_pad-11" x="112150" y="-80742.5"/><use xlink:href="#v_2hnfqdkAr1_pad-11" x="112750" y="-80742.5"/><use xlink:href="#v_2hnfqdkAr1_pad-11" x="113350" y="-80742.5"/><use xlink:href="#v_2hnfqdkAr1_pad-19" x="113250" y="-79842.5"/><use xlink:href="#v_2hnfqdkAr1_pad-20" x="112000" y="-79692.5"/><use xlink:href="#v_2hnfqdkAr1_pad-21" x="113250" y="-79692.5"/></g><g id="nde2_HPFZcR9_top_silkscreen"><path d="M 117250 -76500 115000 -76500 M 117250 -77750 117250 -76500 M 115000 -81750 108750 -81750 M 115000 -77750 108750 -77750 M 124000 -81750 124000 -82750 M 121750 -77750 117250 -77750 M 128000 -77750 124000 -77750 M 115000 -88250 115000 -81750 M 128000 -88250 128000 -81750 M 122000 -72250 114750 -72250 M 128000 -71250 128000 -77750 M 128000 -71250 122000 -71250 M 124000 -76500 121750 -76500 M 115000 -88250 108750 -88250 M 122000 -71250 122000 -72250 M 124000 -77750 124000 -76500 M 121750 -76500 121750 -77750 M 108750 -81750 108750 -88250 M 114750 -72250 114750 -71250 M 115000 -76500 115000 -77750 M 108750 -77750 108750 -71250 M 114750 -71250 108750 -71250 M 128000 -88265 122000 -88250 M 128000 -81750 124000 -81750 M 124000 -82750 122000 -82750 122000 -88250" fill="none" stroke-width="200"/><path d="M 119508 -83903.641 119508 -83596.359 M 120268 -83903.641 120268 -83596.359 M 118998 -83903.641 118998 -83596.359 M 118238 -83903.641 118238 -83596.359 M 117630 -83903.641 117630 -83596.359 M 116870 -83903.641 116870 -83596.359 M 116380 -83903.641 116380 -83596.359 M 115620 -83903.641 115620 -83596.359" fill="none" stroke-width="120"/><path d="M 124400 -78650 124400 -79250 M 124400 -80850 124400 -80250 M 124400 -80850 124650 -80850 M 124400 -78650 124650 -78650 M 126600 -80850 126600 -80250 M 126600 -80850 126350 -80850 M 126600 -79260 126600 -78650" fill="none" stroke-width="100"/><path d="M 116600 -87760 115840 -87760 M 117360 -87760 117360 -87213.471 M 121105 -86342.47 121105 -85540 M 117360 -87760 121105 -87760 121105 -86957.53 M 115840 -87760 115840 -86650 M 117360 -86086.529 117360 -85540 121105 -85540 M 127860 -79584.664 127860 -79800.336 M 127140 -79584.664 127140 -79800.336 M 121518 -83642.164 121518 -83857.836 M 120798 -83642.164 120798 -83857.836 M 118110 -79857.836 118110 -79642.164 M 117390 -79857.836 117390 -79642.164" fill="none" stroke-width="120"/><path d="M 120870 -80850 121350 -80850 121350 -80210 M 118650 -79290 118650 -78650 M 118650 -80850 119130 -80850 M 118650 -80850 118650 -80210 M 120870 -78650 121350 -78650 M 121350 -79290 121350 -78650" fill="none" stroke-width="100"/><path d="M 108890 -79800.336 108890 -79584.664 M 109610 -79800.336 109610 -79584.664 M 112200 -73000 A 1700 1700 0 0 1 108800 -73000 1700 1700 0 0 1 112200 -73000 M 127950 -73000 A 1700 1700 0 0 1 124550 -73000 1700 1700 0 0 1 127950 -73000 M 127950 -86500 A 1700 1700 0 0 1 124550 -86500 1700 1700 0 0 1 127950 -86500 M 112200 -86500 A 1700 1700 0 0 1 108800 -86500 1700 1700 0 0 1 112200 -86500" fill="none" stroke-width="120"/><path d="M 110100 -78292.5 110100 -78932.5 M 110580 -78292.5 110100 -78292.5 M 110580 -81092.5 110100 -81092.5 M 110100 -80452.5 110100 -81092.5 M 114200 -81092.5 113720 -81092.5 M 114200 -80452.5 114200 -81092.5 M 114200 -78292.5 114200 -78932.5" fill="none" stroke-width="100"/></g><g id="nde2_HPFZcR9_top_drill1" transform="scale(25.4,25.4)"><use xlink:href="#tmL_X5vGPtYv_pad-1" x="4301.2" y="-3041.3"/><use xlink:href="#tmL_X5vGPtYv_pad-1" x="4301.2" y="-3238.2"/><use xlink:href="#tmL_X5vGPtYv_pad-1" x="4389.8" y="-3041.3"/><use xlink:href="#tmL_X5vGPtYv_pad-1" x="4409.4" y="-3238.2"/><use xlink:href="#tmL_X5vGPtYv_pad-1" x="4437.6" y="-3280"/><use xlink:href="#tmL_X5vGPtYv_pad-1" x="4465.5" y="-3250"/><use xlink:href="#tmL_X5vGPtYv_pad-1" x="4488.2" y="-3366.1"/><use xlink:href="#tmL_X5vGPtYv_pad-1" x="4694" y="-3041.3"/><use xlink:href="#tmL_X5vGPtYv_pad-1" x="4714.6" y="-3228.3"/><use xlink:href="#tmL_X5vGPtYv_pad-1" x="4734.3" y="-3041.3"/><use xlink:href="#tmL_X5vGPtYv_pad-1" x="4773.6" y="-3041.3"/><use xlink:href="#tmL_X5vGPtYv_pad-1" x="4921.3" y="-3041.3"/><use xlink:href="#tmL_X5vGPtYv_pad-2" x="4590.6" y="-3411.4"/><use xlink:href="#tmL_X5vGPtYv_pad-2" x="4640.6" y="-3411.4"/><use xlink:href="#tmL_X5vGPtYv_pad-2" x="4690.6" y="-3411.4"/><use xlink:href="#tmL_X5vGPtYv_pad-2" x="4740.6" y="-3411.4"/><use xlink:href="#tmL_X5vGPtYv_pad-3" x="4350.4" y="-2874"/><use xlink:href="#tmL_X5vGPtYv_pad-3" x="4350.4" y="-3405.5"/><use xlink:href="#tmL_X5vGPtYv_pad-3" x="4970.5" y="-2874"/><use xlink:href="#tmL_X5vGPtYv_pad-3" x="4970.5" y="-3405.5"/></g><clipPath id="nde2_HPFZcR9_top_outline"><path d="M 115500 -77000 116750 -77000 116750 -82250 115500 -82250 115500 -77000 M 123500 -82250 122250 -82250 122250 -77000 123500 -77000 123500 -82250 M 128500 -70750 128500 -88750 108250 -88750 108250 -70750 115250 -70750 115250 -71750 121500 -71750 121500 -70750 128500 -70750" fill="none" stroke-width="200"/></clipPath><mask id="nde2_HPFZcR9_top_mech-mask"><g fill="#000" stroke="#000"><rect x="108250" y="-88750" width="20250" height="18000" fill="#fff"/><use xlink:href="#nde2_HPFZcR9_top_drill1"/></g></mask><mask id="nde2_HPFZcR9_top_cf-mask"><g fill="#fff" stroke="#fff"><use xlink:href="#nde2_HPFZcR9_top_soldermask"/></g></mask><mask id="nde2_HPFZcR9_top_sm-mask"><g fill="#000" stroke="#000"><rect x="108250" y="-88750" width="20250" height="18000" fill="#fff"/><use xlink:href="#nde2_HPFZcR9_top_soldermask"/></g></mask></defs><g transform="translate(0,-159500) scale(1,-1)"><g mask="url(#nde2_HPFZcR9_top_mech-mask)" clip-path="url(#nde2_HPFZcR9_top_outline)"><rect x="108250" y="-88750" width="20250" height="18000" fill="currentColor" class="nde2_HPFZcR9_fr4"/><use xlink:href="#nde2_HPFZcR9_top_copper" fill="currentColor" stroke="currentColor" class="nde2_HPFZcR9_cu"/><use xlink:href="#nde2_HPFZcR9_top_copper" fill="currentColor" stroke="currentColor" class="nde2_HPFZcR9_cf" mask="url(#nde2_HPFZcR9_top_cf-mask)"/><g mask="url(#nde2_HPFZcR9_top_sm-mask)"><rect x="108250" y="-88750" width="20250" height="18000" fill="currentColor" class="nde2_HPFZcR9_sm"/><use xlink:href="#nde2_HPFZcR9_top_silkscreen" fill="currentColor" stroke="currentColor" class="nde2_HPFZcR9_ss"/></g></g></g></svg>