<svg version="1.1" xmlns="http://www.w3.org/2000/svg" xmlns:xlink="http://www.w3.org/1999/xlink" stroke-linecap="round" stroke-linejoin="round" stroke-width="0" fill-rule="evenodd" clip-rule="evenodd" id="nde2_HPFZcR9_bottom" viewBox="108250 -88750 20250 18000" width="20.25mm" height="18mm"><defs><style>.nde2_HPFZcR9_fr4 {color: #666666;}
.nde2_HPFZcR9_cu {color: #cccccc;}
.nde2_HPFZcR9_cf {color: #cc9933;}
.nde2_HPFZcR9_sm {color: #004200; opacity: 0.7490196078431373;}
.nde2_HPFZcR9_ss {color: #ffffff;}
.nde2_HPFZcR9_sp {color: #999999;}
.nde2_HPFZcR9_out {color: #000000;}</style><rect x="-500" y="-500" width="1000" height="1000" id="GTD0YV47wilF_pad-10"/><rect x="-500" y="-500" width="1000" height="1000" rx="500" ry="500" id="GTD0YV47wilF_pad-11"/><circle cx="0" cy="0" r="1500" id="GTD0YV47wilF_pad-12"/><circle cx="0" cy="0" r="500" id="GTD0YV47wilF_pad-13"/><circle cx="0" cy="0" r="400" id="GTD0YV47wilF_pad-14"/><g id="I4RafcDuA61V_pad-10"><polygon points="500,-500 500,500 -500,500 -500,-500"/><circle cx="500" cy="-500" r="200"/><circle cx="500" cy="500" r="200"/><circle cx="-500" cy="500" r="200"/><circle cx="-500" cy="-500" r="200"/><polygon points="700,-500 700,500 300,500 300,-500"/><polygon points="500,300 -500,300 -500,700 500,700"/><polygon points="-300,500 -300,-500 -700,-500 -700,500"/><polygon points="-500,-700 500,-700 500,-300 -500,-300"/></g><rect x="-700" y="-700" width="1400" height="1400" rx="700" ry="700" id="I4RafcDuA61V_pad-11"/><circle cx="0" cy="0" r="1700" id="I4RafcDuA61V_pad-12"/><circle cx="0" cy="0" r="700" id="I4RafcDuA61V_pad-13"/><circle cx="0" cy="0" r="7.85" id="tmL_X5vGPtYv_pad-1"/><circle cx="0" cy="0" r="12.8" id="tmL_X5vGPtYv_pad-2"/><circle cx="0" cy="0" r="39.35" id="tmL_X5vGPtYv_pad-3"/><g id="nde2_HPFZcR9_bottom_copper"><use xlink:href="#GTD0YV47wilF_pad-10" x="116600" y="-86650"/><use xlink:href="#GTD0YV47wilF_pad-11" x="117870" y="-86650"/><use xlink:href="#GTD0YV47wilF_pad-11" x="119140" y="-86650"/><use xlink:href="#GTD0YV47wilF_pad-11" x="120410" y="-86650"/><use xlink:href="#GTD0YV47wilF_pad-12" x="110500" y="-73000"/><use xlink:href="#GTD0YV47wilF_pad-12" x="126250" y="-73000"/><use xlink:href="#GTD0YV47wilF_pad-12" x="126250" y="-86500"/><use xlink:href="#GTD0YV47wilF_pad-12" x="110500" y="-86500"/><use xlink:href="#GTD0YV47wilF_pad-13" x="112000" y="-82250"/><use xlink:href="#GTD0YV47wilF_pad-13" x="111500" y="-77250"/><use xlink:href="#GTD0YV47wilF_pad-14" x="109250" y="-77250"/><use xlink:href="#GTD0YV47wilF_pad-14" x="119227.6" y="-77250"/><use xlink:href="#GTD0YV47wilF_pad-14" x="109250" y="-82250"/><use xlink:href="#GTD0YV47wilF_pad-14" x="119750" y="-82000"/><use xlink:href="#GTD0YV47wilF_pad-14" x="120250" y="-77250"/><use xlink:href="#GTD0YV47wilF_pad-14" x="112715.5" y="-83312"/><use xlink:href="#GTD0YV47wilF_pad-14" x="114000" y="-85500"/><use xlink:href="#GTD0YV47wilF_pad-14" x="121250" y="-77250"/><use xlink:href="#GTD0YV47wilF_pad-14" x="113423.705" y="-82550"/><use xlink:href="#GTD0YV47wilF_pad-14" x="125000" y="-77250"/><use xlink:href="#GTD0YV47wilF_pad-14" x="112000" y="-82250"/><use xlink:href="#GTD0YV47wilF_pad-14" x="111500" y="-77250"/><path d="M 119748 -84328 120410 -84990 M 109250 -82250 111328 -84328 M 119750 -82000 119750 -77772.4 M 120410 -86650 120410 -85104 M 119748 -83902 119748 -84328 M 119750 -82000 119750 -83900 M 119750 -77772.4 119227.6 -77250 M 111328 -84328 119748 -84328 M 119750 -83900 119748 -83902 M 120410 -84990 120410 -85076 M 119140 -86140 119140 -86650 M 118500 -85500 119140 -86140 M 120040.4 -76504.8 120096.602 -76561.002 M 115011.2 -82346.8 115011.2 -77012.8 M 115677.002 -76504.8 115900.2 -76504.8 M 115519.2 -76504.8 115677.002 -76504.8 M 114000 -85500 118500 -85500 M 120250 -76714.4 120250 -77250 M 115011.2 -77012.8 115519.2 -76504.8 M 115900.2 -76504.8 120040.4 -76504.8 M 115900.2 -76504.8 115807.438 -76504.8 M 115677.002 -76504.8 115807.438 -76504.8 M 114046 -83312 115011.2 -82346.8 M 112715.5 -83312 114046 -83312 M 120096.602 -76561.002 120250 -76714.4 M 121250 -77250 121250 -76000 M 114503.2 -76835 115338.2 -76000 124250 -76000 M 114110 -82550 114503.2 -82156.8 M 113423.705 -82550 114110 -82550 M 114503.2 -82066.8 114503.2 -76835 M 114503.2 -82156.8 114503.2 -82066.8 M 125000 -76750 125000 -77250 M 124250 -76000 125000 -76750" fill="none" stroke-width="250"/><path d="M 127933.621 -81520.002 127980.114 -81573.658 127991.5 -81626 127991.5 -85102.793 127971.498 -85170.914 127917.842 -85217.407 127847.568 -85227.511 127782.988 -85198.017 127773.2 -85188.564 127631.046 -85035.588 127631.043 -85035.585 127628.125 -85032.445 127624.81 -85029.731 127624.806 -85029.728 127419.523 -84861.706 127416.205 -84858.99 127216.165 -84736.406 127186.366 -84718.145 127186.365 -84718.145 127182.704 -84715.901 127170.25 -84710.434 126935.873 -84607.549 126935.869 -84607.548 126931.945 -84605.825 126668.566 -84530.8 126664.324 -84530.196 126664.318 -84530.195 126440.816 -84498.386 126397.443 -84492.213 126253.589 -84491.46 126127.877 -84490.802 126127.871 -84490.802 126123.591 -84490.78 126119.347 -84491.339 126119.343 -84491.339 126000.302 -84507.011 125852.078 -84526.525 125847.938 -84527.658 125847.936 -84527.658 125775.008 -84547.609 125587.928 -84598.788 125583.98 -84600.472 125339.982 -84704.546 125339.978 -84704.548 125336.03 -84706.232 125316.125 -84718.145 125104.725 -84844.664 125104.721 -84844.667 125101.043 -84846.868 124887.318 -85018.094 124698.808 -85216.742 124539.002 -85439.136 124410.857 -85681.161 124409.385 -85685.184 124409.383 -85685.188 124339.087 -85877.279 124316.743 -85938.337 124258.404 -86205.907 124236.917 -86478.918 124252.682 -86752.32 124253.507 -86756.525 124253.508 -86756.533 124275.454 -86868.393 124305.405 -87021.053 124306.792 -87025.103 124306.793 -87025.108 124392.723 -87276.088 124394.112 -87280.144 124396.039 -87283.975 124507.517 -87505.625 124517.16 -87524.799 124519.586 -87528.328 124519.589 -87528.334 124612.252 -87663.158 124672.274 -87750.49 124675.161 -87753.663 124675.162 -87753.664 124738.334 -87823.089 124856.582 -87953.043 124859.877 -87955.798 124859.878 -87955.799 124935.271 -88018.837 124974.701 -88077.878 124975.952 -88148.863 124938.626 -88209.256 124874.574 -88239.882 124854.449 -88241.5 111899.007 -88241.5 111830.886 -88221.498 111784.393 -88167.842 111774.289 -88097.568 111803.783 -88032.988 111821.26 -88016.347 111833.656 -88006.627 111847.089 -87996.094 111888.809 -87953.043 112034.686 -87802.509 112037.669 -87799.431 112040.202 -87795.983 112040.206 -87795.978 112197.257 -87582.178 112199.795 -87578.723 112227.154 -87528.334 112328.418 -87341.83 112328.419 -87341.828 112330.468 -87338.054 112384.649 -87194.669 115592.001 -87194.669 115592.371 -87201.49 115597.895 -87252.352 115601.521 -87267.604 115646.676 -87388.054 115655.214 -87403.649 115731.715 -87505.724 115744.276 -87518.285 115846.351 -87594.786 115861.946 -87603.324 115982.394 -87648.478 115997.649 -87652.105 116048.514 -87657.631 116055.328 -87658 116327.885 -87658 116343.124 -87653.525 116344.329 -87652.135 116346 -87644.452 116346 -86922.115 116341.525 -86906.876 116340.135 -86905.671 116332.452 -86904 115610.116 -86904 115594.877 -86908.475 115593.672 -86909.865 115592.001 -86917.548 115592.001 -87194.669 112384.649 -87194.669 112427.269 -87081.877 112473.421 -86880.365 112487.449 -86819.117 112487.45 -86819.113 112488.407 -86814.933 112500.602 -86678.295 112512.531 -86544.627 112512.531 -86544.625 112512.751 -86542.161 112513.193 -86500 112511.125 -86469.658 112494.859 -86231.055 112494.858 -86231.049 112494.567 -86226.778 112482.714 -86169.54 112439.901 -85962.809 112439.032 -85958.612 112347.617 -85700.465 112222.013 -85457.112 112212.04 -85442.921 112114.26 -85303.794 112064.545 -85233.057 112008.987 -85173.27 111977.269 -85109.754 111984.925 -85039.172 112029.526 -84983.933 112101.288 -84961.5 113046.534 -84961.5 113114.655 -84981.502 113161.148 -85035.158 113171.252 -85105.432 113164.687 -85128.189 113165.473 -85128.444 113106.458 -85310.072 113105.768 -85316.633 113105.768 -85316.635 113087.186 -85493.435 113086.496 -85500 113087.186 -85506.565 113105.537 -85681.161 113106.458 -85689.928 113165.473 -85871.556 113260.96 -86036.944 113388.747 -86178.866 113543.248 -86291.118 113549.276 -86293.802 113549.278 -86293.803 113711.681 -86366.109 113717.712 -86368.794 113811.113 -86388.647 113898.056 -86407.128 113898.061 -86407.128 113904.513 -86408.5 114095.487 -86408.5 114101.939 -86407.128 114101.944 -86407.128 114188.887 -86388.647 114282.288 -86368.794 114288.319 -86366.109 114450.722 -86293.803 114450.724 -86293.802 114456.752 -86291.118 114611.253 -86178.866 114615.668 -86173.963 114620.58 -86169.54 114621.705 -86170.789 114675.014 -86137.949 114708.2 -86133.5 115466 -86133.5 115534.121 -86153.502 115580.614 -86207.158 115592 -86259.5 115592 -86377.885 115596.475 -86393.124 115597.865 -86394.329 115605.548 -86396 116728 -86396 116796.121 -86416.002 116842.614 -86469.658 116854 -86522 116854 -87639.884 116858.475 -87655.123 116859.865 -87656.328 116867.548 -87657.999 117144.669 -87657.999 117151.49 -87657.629 117202.352 -87652.105 117217.604 -87648.479 117338.054 -87603.324 117361.517 -87590.478 117362.792 -87592.806 117416.321 -87572.797 117464.333 -87578.637 117652.392 -87639.74 117848.777 -87663.158 117854.912 -87662.686 117854.914 -87662.686 118039.83 -87648.457 118039.834 -87648.456 118045.972 -87647.984 118236.463 -87594.798 118241.967 -87592.018 118241.969 -87592.017 118407.493 -87508.405 118407.495 -87508.404 118412.996 -87505.625 118417.85 -87501.833 118417.859 -87501.827 118426.548 -87495.038 118492.542 -87468.86 118565.592 -87484.339 118734.294 -87578.624 118922.392 -87639.74 119118.777 -87663.158 119124.912 -87662.686 119124.914 -87662.686 119309.83 -87648.457 119309.834 -87648.456 119315.972 -87647.984 119506.463 -87594.798 119511.967 -87592.018 119511.969 -87592.017 119677.493 -87508.405 119677.495 -87508.404 119682.996 -87505.625 119687.85 -87501.833 119687.859 -87501.827 119696.548 -87495.038 119762.542 -87468.86 119835.592 -87484.339 120004.294 -87578.624 120192.392 -87639.74 120388.777 -87663.158 120394.912 -87662.686 120394.914 -87662.686 120579.83 -87648.457 120579.834 -87648.456 120585.972 -87647.984 120776.463 -87594.798 120781.967 -87592.018 120781.969 -87592.017 120947.495 -87508.404 120947.497 -87508.403 120952.996 -87505.625 121108.847 -87383.861 121238.078 -87234.145 121335.769 -87062.179 121398.197 -86874.513 121422.985 -86678.295 121423.38 -86650 121404.08 -86453.167 121346.916 -86263.831 121254.066 -86089.204 121147.558 -85958.612 121132.96 -85940.713 121132.957 -85940.71 121129.065 -85935.938 121089.184 -85902.945 121049.446 -85844.111 121043.5 -85805.861 121043.5 -85068.763 121044.027 -85057.579 121045.701 -85050.091 121043.562 -84982.032 121043.5 -84978.075 121043.5 -84950.144 121042.994 -84946.138 121042.061 -84934.292 121040.922 -84898.037 121040.673 -84890.11 121035.022 -84870.658 121031.014 -84851.306 121029.468 -84839.068 121029.467 -84839.066 121028.474 -84831.203 121012.194 -84790.086 121008.359 -84778.885 120996.018 -84736.406 120991.985 -84729.587 120991.983 -84729.582 120985.707 -84718.971 120977.01 -84701.221 120969.552 -84682.383 120943.571 -84646.623 120937.053 -84636.701 120918.578 -84605.46 120918.574 -84605.455 120914.542 -84598.637 120900.218 -84584.313 120887.376 -84569.278 120875.472 -84552.893 120841.406 -84524.711 120832.627 -84516.722 120418.405 -84102.5 120384.379 -84040.188 120381.5 -84013.405 120381.5 -83995.861 120382.171 -83985.208 120383.5 -83980.03 120383.5 -83959.769 120385.051 -83940.058 120386.979 -83927.885 120388.219 -83920.057 120384.059 -83876.046 120383.5 -83864.189 120383.5 -82702.524 120403.502 -82634.403 120415.858 -82618.221 120484.768 -82541.688 120545.213 -82504.45 120578.403 -82500 121736.377 -82500 121804.498 -82520.002 121831.82 -82543.741 121833.96 -82546.224 121845.073 -82561.239 121858.776 -82582.958 121865.501 -82588.897 121865.504 -82588.901 121880.938 -82602.532 121892.982 -82614.724 121906.427 -82630.327 121906.43 -82630.329 121912.287 -82637.127 121919.816 -82642.007 121919.817 -82642.008 121933.835 -82651.094 121948.709 -82662.385 121961.217 -82673.431 121967.951 -82679.378 121994.711 -82691.942 122009.691 -82700.263 122026.983 -82711.471 122026.988 -82711.473 122034.515 -82716.352 122043.108 -82718.922 122043.113 -82718.924 122059.12 -82723.711 122076.564 -82730.372 122091.676 -82737.467 122091.678 -82737.468 122099.8 -82741.281 122108.667 -82742.662 122108.668 -82742.662 122111.353 -82743.08 122129.017 -82745.83 122145.732 -82749.613 122165.466 -82755.515 122165.472 -82755.516 122174.066 -82758.086 122183.037 -82758.141 122183.038 -82758.141 122193.097 -82758.202 122208.506 -82758.296 122209.289 -82758.329 122210.386 -82758.5 122241.377 -82758.5 122242.147 -82758.502 122315.785 -82758.952 122315.786 -82758.952 122319.721 -82758.976 122321.065 -82758.592 122322.41 -82758.5 123491.377 -82758.5 123492.148 -82758.502 123569.721 -82758.976 123598.152 -82750.85 123614.915 -82747.272 123615.753 -82747.152 123644.187 -82743.08 123667.564 -82732.451 123685.087 -82726.004 123709.771 -82718.949 123717.365 -82714.157 123717.368 -82714.156 123734.78 -82703.17 123749.865 -82695.03 123776.782 -82682.792 123796.235 -82666.03 123811.239 -82654.927 123832.958 -82641.224 123838.897 -82634.499 123838.901 -82634.496 123852.532 -82619.062 123864.724 -82607.018 123880.327 -82593.573 123880.329 -82593.57 123887.127 -82587.713 123901.094 -82566.165 123912.385 -82551.291 123923.431 -82538.783 123923.432 -82538.782 123929.378 -82532.049 123941.943 -82505.287 123950.263 -82490.309 123961.471 -82473.017 123961.473 -82473.012 123966.352 -82465.485 123968.922 -82456.892 123968.924 -82456.887 123973.711 -82440.88 123980.372 -82423.436 123987.467 -82408.324 123987.468 -82408.322 123991.281 -82400.2 123995.83 -82370.983 123999.613 -82354.268 124005.515 -82334.534 124005.516 -82334.528 124008.086 -82325.934 124008.296 -82291.494 124008.329 -82290.711 124008.5 -82289.614 124008.5 -82258.623 124008.502 -82257.853 124008.952 -82184.215 124008.952 -82184.214 124008.976 -82180.279 124008.592 -82178.935 124008.5 -82177.59 124008.5 -81626 124028.502 -81557.879 124082.158 -81511.386 124134.5 -81500 127865.5 -81500 127933.621 -81520.002"/><path d="M 114683.621 -71278.502 114730.114 -71332.158 114741.5 -71384.5 114741.5 -71741.377 114741.498 -71742.147 114741.024 -71819.721 114743.491 -71828.352 114749.15 -71848.153 114752.728 -71864.915 114756.92 -71894.187 114760.634 -71902.355 114760.634 -71902.356 114767.548 -71917.562 114773.996 -71935.086 114781.051 -71959.771 114785.843 -71967.365 114785.844 -71967.368 114796.83 -71984.78 114804.969 -71999.863 114817.208 -72026.782 114823.069 -72033.584 114833.97 -72046.235 114845.073 -72061.239 114858.776 -72082.958 114865.501 -72088.897 114865.504 -72088.901 114880.938 -72102.532 114892.982 -72114.724 114906.427 -72130.327 114906.43 -72130.329 114912.287 -72137.127 114919.816 -72142.007 114919.817 -72142.008 114933.835 -72151.094 114948.709 -72162.385 114961.217 -72173.431 114967.951 -72179.378 114994.711 -72191.942 115009.691 -72200.263 115026.983 -72211.471 115026.988 -72211.473 115034.515 -72216.352 115043.108 -72218.922 115043.113 -72218.924 115059.12 -72223.711 115076.564 -72230.372 115091.676 -72237.467 115091.678 -72237.468 115099.8 -72241.281 115108.667 -72242.662 115108.668 -72242.662 115111.353 -72243.08 115129.017 -72245.83 115145.732 -72249.613 115165.466 -72255.515 115165.472 -72255.516 115174.066 -72258.086 115183.037 -72258.141 115183.038 -72258.141 115193.097 -72258.202 115208.506 -72258.296 115209.289 -72258.329 115210.386 -72258.5 115241.377 -72258.5 115242.147 -72258.502 115315.785 -72258.952 115315.786 -72258.952 115319.721 -72258.976 115321.065 -72258.592 115322.41 -72258.5 121491.377 -72258.5 121492.148 -72258.502 121569.721 -72258.976 121598.152 -72250.85 121614.915 -72247.272 121615.753 -72247.152 121644.187 -72243.08 121667.564 -72232.451 121685.087 -72226.004 121709.771 -72218.949 121717.365 -72214.157 121717.368 -72214.156 121734.78 -72203.17 121749.865 -72195.03 121776.782 -72182.792 121796.235 -72166.03 121811.239 -72154.927 121832.958 -72141.224 121838.897 -72134.499 121838.901 -72134.496 121852.532 -72119.062 121864.724 -72107.018 121880.327 -72093.573 121880.329 -72093.57 121887.127 -72087.713 121901.094 -72066.165 121912.385 -72051.291 121923.431 -72038.783 121923.432 -72038.782 121929.378 -72032.049 121941.943 -72005.287 121950.263 -71990.309 121961.471 -71973.017 121961.473 -71973.012 121966.352 -71965.485 121968.922 -71956.892 121968.924 -71956.887 121973.711 -71940.88 121980.372 -71923.436 121987.467 -71908.324 121987.468 -71908.322 121991.281 -71900.2 121995.83 -71870.983 121999.613 -71854.268 122005.515 -71834.534 122005.516 -71834.528 122008.086 -71825.934 122008.296 -71791.494 122008.329 -71790.711 122008.5 -71789.614 122008.5 -71758.623 122008.502 -71757.853 122008.952 -71684.215 122008.952 -71684.214 122008.976 -71680.279 122008.592 -71678.935 122008.5 -71677.59 122008.5 -71384.5 122028.502 -71316.379 122082.158 -71269.886 122134.5 -71258.5 124852.549 -71258.5 124920.67 -71278.502 124967.163 -71332.158 124977.267 -71402.432 124947.773 -71467.012 124931.332 -71482.832 124887.318 -71518.094 124698.808 -71716.742 124539.002 -71939.136 124410.857 -72181.161 124409.385 -72185.184 124409.383 -72185.188 124382.389 -72258.952 124316.743 -72438.337 124258.404 -72705.907 124236.917 -72978.918 124252.682 -73252.32 124253.507 -73256.525 124253.508 -73256.533 124264.127 -73310.657 124305.405 -73521.053 124306.792 -73525.103 124306.793 -73525.108 124327.605 -73585.895 124394.112 -73780.144 124517.16 -74024.799 124519.586 -74028.328 124519.589 -74028.334 124669.843 -74246.953 124672.274 -74250.49 124675.161 -74253.663 124675.162 -74253.664 124738.334 -74323.089 124856.582 -74453.043 125066.675 -74628.707 125070.316 -74630.991 125295.024 -74771.951 125295.028 -74771.953 125298.664 -74774.234 125366.544 -74804.883 125544.345 -74885.164 125544.349 -74885.166 125548.257 -74886.93 125552.377 -74888.15 125552.376 -74888.15 125806.723 -74963.491 125806.727 -74963.492 125810.836 -74964.709 125815.07 -74965.357 125815.075 -74965.358 126077.298 -75005.483 126077.3 -75005.483 126081.54 -75006.132 126220.912 -75008.322 126351.071 -75010.367 126351.077 -75010.367 126355.362 -75010.434 126627.235 -74977.534 126892.127 -74908.041 126896.087 -74906.401 126896.092 -74906.399 127018.632 -74855.641 127145.136 -74803.241 127381.582 -74665.073 127597.089 -74496.094 127638.809 -74453.043 127775.016 -74312.488 127836.786 -74277.488 127907.673 -74281.44 127965.17 -74323.089 127991.022 -74389.211 127991.5 -74400.173 127991.5 -77874 127971.498 -77942.121 127917.842 -77988.614 127865.5 -78000 125830.203 -78000 125762.082 -77979.998 125715.589 -77926.342 125705.485 -77856.068 125732.469 -77798.448 125730.741 -77797.192 125734.62 -77791.852 125739.04 -77786.944 125811.073 -77662.179 125831.223 -77627.279 125831.224 -77627.278 125834.527 -77621.556 125893.542 -77439.928 125910.901 -77274.771 125912.814 -77256.565 125913.504 -77250 125893.542 -77060.072 125834.527 -76878.444 125823.279 -76858.961 125742.341 -76718.774 125739.04 -76713.056 125625.358 -76586.799 125597.999 -76537.645 125588.23 -76504.019 125588.229 -76504.016 125586.018 -76496.407 125581.984 -76489.585 125581.981 -76489.579 125575.706 -76478.968 125567.01 -76461.218 125562.472 -76449.756 125562.469 -76449.751 125559.552 -76442.383 125542.096 -76418.356 125533.573 -76406.625 125527.057 -76396.707 125508.575 -76365.457 125504.542 -76358.637 125490.218 -76344.313 125477.376 -76329.278 125465.472 -76312.893 125431.406 -76284.711 125422.627 -76276.722 124753.652 -75607.747 124746.112 -75599.461 124742 -75592.982 124692.348 -75546.356 124689.507 -75543.602 124669.77 -75523.865 124666.573 -75521.385 124657.551 -75513.68 124644.116 -75501.064 124625.321 -75483.414 124618.375 -75479.595 124618.372 -75479.593 124607.566 -75473.652 124591.047 -75462.801 124590.583 -75462.441 124575.041 -75450.386 124567.772 -75447.241 124567.768 -75447.238 124534.463 -75432.826 124523.813 -75427.609 124485.06 -75406.305 124465.437 -75401.267 124446.734 -75394.863 124435.42 -75389.967 124435.419 -75389.967 124428.145 -75386.819 124420.322 -75385.58 124420.312 -75385.577 124384.476 -75379.901 124372.856 -75377.495 124337.711 -75368.472 124337.71 -75368.472 124330.03 -75366.5 124309.776 -75366.5 124290.065 -75364.949 124287.534 -75364.548 124270.057 -75361.78 124244.351 -75364.21 124226.039 -75365.941 124214.181 -75366.5 121321.793 -75366.5 121298.184 -75364.268 121297.881 -75364.21 121297.877 -75364.21 121290.094 -75362.725 121234.049 -75366.251 121226.138 -75366.5 115416.963 -75366.5 115405.779 -75365.973 115398.291 -75364.299 115390.368 -75364.548 115330.233 -75366.438 115326.275 -75366.5 115298.344 -75366.5 115294.429 -75366.995 115294.425 -75366.995 115294.367 -75367.003 115294.338 -75367.006 115282.496 -75367.939 115238.31 -75369.327 115220.944 -75374.372 115218.858 -75374.978 115199.506 -75378.986 115192.435 -75379.88 115179.403 -75381.526 115172.034 -75384.443 115172.032 -75384.444 115138.297 -75397.8 115127.069 -75401.645 115084.607 -75413.982 115077.785 -75418.016 115077.779 -75418.019 115067.168 -75424.294 115049.418 -75432.99 115037.956 -75437.528 115037.951 -75437.531 115030.583 -75440.448 115013.17 -75453.099 114994.825 -75466.427 114984.907 -75472.943 114973.663 -75479.593 114946.837 -75495.458 114932.513 -75509.782 114917.481 -75522.621 114901.093 -75534.528 114872.912 -75568.593 114864.922 -75577.373 114110.947 -76331.348 114102.661 -76338.888 114096.182 -76343 114090.757 -76348.777 114049.557 -76392.651 114046.802 -76395.493 114027.065 -76415.23 114024.585 -76418.427 114016.882 -76427.447 113986.614 -76459.679 113982.795 -76466.625 113982.793 -76466.628 113976.852 -76477.434 113966.001 -76493.953 113953.586 -76509.959 113950.441 -76517.228 113950.438 -76517.232 113936.026 -76550.537 113930.809 -76561.187 113909.505 -76599.94 113907.534 -76607.615 113907.534 -76607.616 113904.467 -76619.562 113898.063 -76638.266 113896.542 -76641.782 113890.019 -76656.855 113888.78 -76664.678 113888.777 -76664.688 113883.101 -76700.524 113880.695 -76712.144 113869.7 -76754.97 113869.7 -76775.224 113868.149 -76794.934 113864.98 -76814.943 113865.726 -76822.835 113869.141 -76858.961 113869.7 -76870.819 113869.7 -77874 113849.698 -77942.121 113796.042 -77988.614 113743.7 -78000 112450.349 -78000 112382.228 -77979.998 112335.735 -77926.342 112325.631 -77856.068 112340.793 -77811.763 112422.722 -77667.542 112425.769 -77662.179 112488.197 -77474.513 112512.985 -77278.295 112513.38 -77250 112494.08 -77053.167 112436.916 -76863.831 112344.066 -76689.204 112260.55 -76586.803 112222.96 -76540.713 112222.957 -76540.71 112219.065 -76535.938 112212.724 -76530.692 112071.425 -76413.799 112071.421 -76413.797 112066.675 -76409.87 111892.701 -76315.802 111703.768 -76257.318 111697.643 -76256.674 111697.642 -76256.674 111513.204 -76237.289 111513.202 -76237.289 111507.075 -76236.645 111424.576 -76244.153 111316.251 -76254.011 111316.248 -76254.012 111310.112 -76254.57 111304.206 -76256.308 111304.202 -76256.309 111220.554 -76280.928 111120.381 -76310.41 111114.923 -76313.263 111114.919 -76313.265 111068.947 -76337.299 110945.11 -76402.04 110790.975 -76525.968 110663.846 -76677.474 110660.879 -76682.872 110660.875 -76682.877 110610.108 -76775.224 110568.567 -76850.787 110566.706 -76856.654 110566.705 -76856.656 110518.639 -77008.18 110508.765 -77039.306 110486.719 -77235.851 110503.268 -77432.934 110557.783 -77623.05 110648.187 -77798.956 110652.017 -77803.788 110653.278 -77805.745 110673.366 -77873.841 110653.45 -77941.987 110599.853 -77988.547 110547.366 -78000 108884.5 -78000 108816.379 -77979.998 108769.886 -77926.342 108758.5 -77874 108758.5 -74396.195 108778.502 -74328.074 108832.158 -74281.581 108902.432 -74271.477 108967.012 -74300.971 108977.693 -74311.395 109106.582 -74453.043 109316.675 -74628.707 109320.316 -74630.991 109545.024 -74771.951 109545.028 -74771.953 109548.664 -74774.234 109616.544 -74804.883 109794.345 -74885.164 109794.349 -74885.166 109798.257 -74886.93 109802.377 -74888.15 109802.376 -74888.15 110056.723 -74963.491 110056.727 -74963.492 110060.836 -74964.709 110065.07 -74965.357 110065.075 -74965.358 110327.298 -75005.483 110327.3 -75005.483 110331.54 -75006.132 110470.912 -75008.322 110601.071 -75010.367 110601.077 -75010.367 110605.362 -75010.434 110877.235 -74977.534 111142.127 -74908.041 111146.087 -74906.401 111146.092 -74906.399 111268.632 -74855.641 111395.136 -74803.241 111631.582 -74665.073 111847.089 -74496.094 111888.809 -74453.043 112034.686 -74302.509 112037.669 -74299.431 112040.202 -74295.983 112040.206 -74295.978 112197.257 -74082.178 112199.795 -74078.723 112227.154 -74028.334 112328.418 -73841.83 112328.419 -73841.828 112330.468 -73838.054 112427.269 -73581.877 112488.407 -73314.933 112512.751 -73042.161 112513.193 -73000 112494.567 -72726.778 112439.032 -72458.612 112347.617 -72200.465 112246.879 -72005.289 112223.978 -71960.919 112223.978 -71960.918 112222.013 -71957.112 112217.815 -71951.138 112123.514 -71816.962 112064.545 -71733.057 111943.496 -71602.793 111881.046 -71535.588 111881.043 -71535.585 111878.125 -71532.445 111816.498 -71482.003 111776.452 -71423.379 111774.459 -71352.411 111811.15 -71291.63 111874.877 -71260.335 111896.304 -71258.5 114615.5 -71258.5 114683.621 -71278.502"/></g><g id="nde2_HPFZcR9_bottom_soldermask"><use xlink:href="#I4RafcDuA61V_pad-10" x="116600" y="-86650"/><use xlink:href="#I4RafcDuA61V_pad-11" x="117870" y="-86650"/><use xlink:href="#I4RafcDuA61V_pad-11" x="119140" y="-86650"/><use xlink:href="#I4RafcDuA61V_pad-11" x="120410" y="-86650"/><use xlink:href="#I4RafcDuA61V_pad-12" x="110500" y="-73000"/><use xlink:href="#I4RafcDuA61V_pad-12" x="126250" y="-73000"/><use xlink:href="#I4RafcDuA61V_pad-12" x="126250" y="-86500"/><use xlink:href="#I4RafcDuA61V_pad-12" x="110500" y="-86500"/><use xlink:href="#I4RafcDuA61V_pad-13" x="112000" y="-82250"/><use xlink:href="#I4RafcDuA61V_pad-13" x="111500" y="-77250"/></g><g id="nde2_HPFZcR9_bottom_silkscreen"><path d="M 120681.476 -72994.571 120538.619 -73042.19 120491 -73089.809 120443.38 -73185.047 120443.38 -73327.904 120491 -73423.142 120538.619 -73470.761 120633.857 -73518.38 121014.809 -73518.38 121014.809 -72518.38 120681.476 -72518.38 120586.238 -72566 120538.619 -72613.619 120491 -72708.857 120491 -72804.095 120538.619 -72899.333 120586.238 -72946.952 120681.476 -72994.571 121014.809 -72994.571 M 119586.238 -73518.38 119586.238 -72994.571 119633.857 -72899.333 119729.095 -72851.714 119919.571 -72851.714 120014.809 -72899.333 M 119586.238 -73470.761 119681.476 -73518.38 119919.571 -73518.38 120014.809 -73470.761 120062.428 -73375.523 120062.428 -73280.285 120014.809 -73185.047 119919.571 -73137.428 119681.476 -73137.428 119586.238 -73089.809 M 119157.666 -73470.761 119062.428 -73518.38 118871.952 -73518.38 118776.714 -73470.761 118729.095 -73375.523 118729.095 -73327.904 118776.714 -73232.666 118871.952 -73185.047 119014.809 -73185.047 119110.047 -73137.428 119157.666 -73042.19 119157.666 -72994.571 119110.047 -72899.333 119014.809 -72851.714 118871.952 -72851.714 118776.714 -72899.333 M 118300.523 -73518.38 118300.523 -72851.714 M 118300.523 -72518.38 118348.142 -72566 118300.523 -72613.619 118252.904 -72566 118300.523 -72518.38 118300.523 -72613.619 M 117681.476 -73518.38 117776.714 -73470.761 117824.333 -73375.523 117824.333 -72518.38 M 116967.19 -72994.571 117300.523 -72994.571 M 117300.523 -73518.38 117300.523 -72518.38 116824.333 -72518.38 M 116538.619 -72518.38 115871.952 -73518.38 M 115871.952 -72518.38 116538.619 -73518.38 M 121443.38 -74128.38 121348.142 -74128.38 121252.904 -74176 121205.285 -74223.619 121157.666 -74318.857 121110.047 -74509.333 121110.047 -74747.428 121157.666 -74937.904 121205.285 -75033.142 121252.904 -75080.761 121348.142 -75128.38 121443.38 -75128.38 121538.619 -75080.761 121586.238 -75033.142 121633.857 -74937.904 121681.476 -74747.428 121681.476 -74509.333 121633.857 -74318.857 121586.238 -74223.619 121538.619 -74176 121443.38 -74128.38 M 120633.857 -75128.38 120443.38 -75128.38 120348.142 -75080.761 120300.523 -75033.142 120205.285 -74890.285 120157.666 -74699.809 120157.666 -74318.857 120205.285 -74223.619 120252.904 -74176 120348.142 -74128.38 120538.619 -74128.38 120633.857 -74176 120681.476 -74223.619 120729.095 -74318.857 120729.095 -74556.952 120681.476 -74652.19 120633.857 -74699.809 120538.619 -74747.428 120348.142 -74747.428 120252.904 -74699.809 120205.285 -74652.19 120157.666 -74556.952 M 119014.809 -74080.761 119871.952 -75366.476 M 118729.095 -74223.619 118681.476 -74176 118586.238 -74128.38 118348.142 -74128.38 118252.904 -74176 118205.285 -74223.619 118157.666 -74318.857 118157.666 -74414.095 118205.285 -74556.952 118776.714 -75128.38 118157.666 -75128.38 M 117538.619 -74128.38 117443.38 -74128.38 117348.142 -74176 117300.523 -74223.619 117252.904 -74318.857 117205.285 -74509.333 117205.285 -74747.428 117252.904 -74937.904 117300.523 -75033.142 117348.142 -75080.761 117443.38 -75128.38 117538.619 -75128.38 117633.857 -75080.761 117681.476 -75033.142 117729.095 -74937.904 117776.714 -74747.428 117776.714 -74509.333 117729.095 -74318.857 117681.476 -74223.619 117633.857 -74176 117538.619 -74128.38 M 116824.333 -74223.619 116776.714 -74176 116681.476 -74128.38 116443.38 -74128.38 116348.142 -74176 116300.523 -74223.619 116252.904 -74318.857 116252.904 -74414.095 116300.523 -74556.952 116871.952 -75128.38 116252.904 -75128.38 M 115871.952 -74223.619 115824.333 -74176 115729.095 -74128.38 115491 -74128.38 115395.761 -74176 115348.142 -74223.619 115300.523 -74318.857 115300.523 -74414.095 115348.142 -74556.952 115919.571 -75128.38 115300.523 -75128.38 M 120729.095 -75738.38 120395.761 -76738.38 120062.428 -75738.38 M 119205.285 -76738.38 119776.714 -76738.38 M 119491 -76738.38 119491 -75738.38 119586.238 -75881.238 119681.476 -75976.476 119776.714 -76024.095 M 118776.714 -76643.142 118729.095 -76690.761 118776.714 -76738.38 118824.333 -76690.761 118776.714 -76643.142 118776.714 -76738.38 M 118395.761 -75738.38 117776.714 -75738.38 118110.047 -76119.333 117967.19 -76119.333 117871.952 -76166.952 117824.333 -76214.571 117776.714 -76309.809 117776.714 -76547.904 117824.333 -76643.142 117871.952 -76690.761 117967.19 -76738.38 118252.904 -76738.38 118348.142 -76690.761 118395.761 -76643.142 M 117348.142 -76643.142 117300.523 -76690.761 117348.142 -76738.38 117395.761 -76690.761 117348.142 -76643.142 117348.142 -76738.38 M 116681.476 -75738.38 116586.238 -75738.38 116491 -75786 116443.38 -75833.619 116395.761 -75928.857 116348.142 -76119.333 116348.142 -76357.428 116395.761 -76547.904 116443.38 -76643.142 116491 -76690.761 116586.238 -76738.38 116681.476 -76738.38 116776.714 -76690.761 116824.333 -76643.142 116871.952 -76547.904 116919.571 -76357.428 116919.571 -76119.333 116871.952 -75928.857 116824.333 -75833.619 116776.714 -75786 116681.476 -75738.38" fill="none" stroke-width="250"/><path d="M 112700 -82250 A 700 700 0 0 1 111300 -82250 700 700 0 0 1 112700 -82250 M 112200 -77250 A 700 700 0 0 1 110800 -77250 700 700 0 0 1 112200 -77250" fill="none" stroke-width="120"/></g><g id="nde2_HPFZcR9_bottom_drill1" transform="scale(25.4,25.4)"><use xlink:href="#tmL_X5vGPtYv_pad-1" x="4301.2" y="-3041.3"/><use xlink:href="#tmL_X5vGPtYv_pad-1" x="4301.2" y="-3238.2"/><use xlink:href="#tmL_X5vGPtYv_pad-1" x="4389.8" y="-3041.3"/><use xlink:href="#tmL_X5vGPtYv_pad-1" x="4409.4" y="-3238.2"/><use xlink:href="#tmL_X5vGPtYv_pad-1" x="4437.6" y="-3280"/><use xlink:href="#tmL_X5vGPtYv_pad-1" x="4465.5" y="-3250"/><use xlink:href="#tmL_X5vGPtYv_pad-1" x="4488.2" y="-3366.1"/><use xlink:href="#tmL_X5vGPtYv_pad-1" x="4694" y="-3041.3"/><use xlink:href="#tmL_X5vGPtYv_pad-1" x="4714.6" y="-3228.3"/><use xlink:href="#tmL_X5vGPtYv_pad-1" x="4734.3" y="-3041.3"/><use xlink:href="#tmL_X5vGPtYv_pad-1" x="4773.6" y="-3041.3"/><use xlink:href="#tmL_X5vGPtYv_pad-1" x="4921.3" y="-3041.3"/><use xlink:href="#tmL_X5vGPtYv_pad-2" x="4590.6" y="-3411.4"/><use xlink:href="#tmL_X5vGPtYv_pad-2" x="4640.6" y="-3411.4"/><use xlink:href="#tmL_X5vGPtYv_pad-2" x="4690.6" y="-3411.4"/><use xlink:href="#tmL_X5vGPtYv_pad-2" x="4740.6" y="-3411.4"/><use xlink:href="#tmL_X5vGPtYv_pad-3" x="4350.4" y="-2874"/><use xlink:href="#tmL_X5vGPtYv_pad-3" x="4350.4" y="-3405.5"/><use xlink:href="#tmL_X5vGPtYv_pad-3" x="4970.5" y="-2874"/><use xlink:href="#tmL_X5vGPtYv_pad-3" x="4970.5" y="-3405.5"/></g><clipPath id="nde2_HPFZcR9_bottom_outline"><path d="M 115500 -77000 116750 -77000 116750 -82250 115500 -82250 115500 -77000 M 123500 -82250 122250 -82250 122250 -77000 123500 -77000 123500 -82250 M 128500 -70750 128500 -88750 108250 -88750 108250 -70750 115250 -70750 115250 -71750 121500 -71750 121500 -70750 128500 -70750" fill="none" stroke-width="200"/></clipPath><mask id="nde2_HPFZcR9_bottom_mech-mask"><g fill="#000" stroke="#000"><rect x="108250" y="-88750" width="20250" height="18000" fill="#fff"/><use xlink:href="#nde2_HPFZcR9_bottom_drill1"/></g></mask><mask id="nde2_HPFZcR9_bottom_cf-mask"><g fill="#fff" stroke="#fff"><use xlink:href="#nde2_HPFZcR9_bottom_soldermask"/></g></mask><mask id="nde2_HPFZcR9_bottom_sm-mask"><g fill="#000" stroke="#000"><rect x="108250" y="-88750" width="20250" height="18000" fill="#fff"/><use xlink:href="#nde2_HPFZcR9_bottom_soldermask"/></g></mask></defs><g transform="translate(0,-159500) scale(1,-1)"><g mask="url(#nde2_HPFZcR9_bottom_mech-mask)" clip-path="url(#nde2_HPFZcR9_bottom_outline)" transform="translate(236750,0) scale(-1,1)"><rect x="108250" y="-88750" width="20250" height="18000" fill="currentColor" class="nde2_HPFZcR9_fr4"/><use xlink:href="#nde2_HPFZcR9_bottom_copper" fill="currentColor" stroke="currentColor" class="nde2_HPFZcR9_cu"/><use xlink:href="#nde2_HPFZcR9_bottom_copper" fill="currentColor" stroke="currentColor" class="nde2_HPFZcR9_cf" mask="url(#nde2_HPFZcR9_bottom_cf-mask)"/><g mask="url(#nde2_HPFZcR9_bottom_sm-mask)"><rect x="108250" y="-88750" width="20250" height="18000" fill="currentColor" class="nde2_HPFZcR9_sm"/><use xlink:href="#nde2_HPFZcR9_bottom_silkscreen" fill="currentColor" stroke="currentColor" class="nde2_HPFZcR9_ss"/></g></g></g></svg>