<svg version="1.1" xmlns="http://www.w3.org/2000/svg" xmlns:xlink="http://www.w3.org/1999/xlink" stroke-linecap="round" stroke-linejoin="round" stroke-width="0" fill-rule="evenodd" clip-rule="evenodd" id="JRDf_kxd9Edu_bottom" viewBox="97750 -107250 32171 15250" width="32.171mm" height="15.25mm"><defs><style>.JRDf_kxd9Edu_fr4 {color: #666666;}
.JRDf_kxd9Edu_cu {color: #cccccc;}
.JRDf_kxd9Edu_cf {color: #cc9933;}
.JRDf_kxd9Edu_sm {color: #004200; opacity: 0.7490196078431373;}
.JRDf_kxd9Edu_ss {color: #ffffff;}
.JRDf_kxd9Edu_sp {color: #999999;}
.JRDf_kxd9Edu_out {color: #000000;}</style><rect x="-760" y="-760" width="1520" height="1520" id="jrONy6IIaWJT_pad-10"/><circle cx="0" cy="0" r="760" id="jrONy6IIaWJT_pad-11"/><g id="jrONy6IIaWJT_pad-12"><polygon points="-250,225 -250,-225 250,-225 250,225"/><circle cx="-250" cy="225" r="225"/><circle cx="-250" cy="-225" r="225"/><circle cx="250" cy="-225" r="225"/><circle cx="250" cy="225" r="225"/><polygon points="-25,225 -25,-225 -475,-225 -475,225"/><polygon points="-250,-450 250,-450 250,0 -250,0"/><polygon points="475,-225 475,225 25,225 25,-225"/><polygon points="250,0 -250,0 -250,450 250,450"/></g><g id="jrONy6IIaWJT_pad-13"><polygon points="-275,200 -275,-200 275,-200 275,200"/><circle cx="-275" cy="200" r="200"/><circle cx="-275" cy="-200" r="200"/><circle cx="275" cy="-200" r="200"/><circle cx="275" cy="200" r="200"/><polygon points="-75,200 -75,-200 -475,-200 -475,200"/><polygon points="-275,-400 275,-400 275,0 -275,0"/><polygon points="475,-200 475,200 75,200 75,-200"/><polygon points="275,0 -275,0 -275,400 275,400"/></g><g id="jrONy6IIaWJT_pad-14"><polygon points="275,-200 275,200 -275,200 -275,-200"/><circle cx="275" cy="-200" r="200"/><circle cx="275" cy="200" r="200"/><circle cx="-275" cy="200" r="200"/><circle cx="-275" cy="-200" r="200"/><polygon points="475,-200 475,200 75,200 75,-200"/><polygon points="275,0 -275,0 -275,400 275,400"/><polygon points="-75,200 -75,-200 -475,-200 -475,200"/><polygon points="-275,-400 275,-400 275,0 -275,0"/></g><rect x="-500" y="-500" width="1000" height="1000" id="jrONy6IIaWJT_pad-15"/><rect x="-500" y="-500" width="1000" height="1000" rx="500" ry="500" id="jrONy6IIaWJT_pad-16"/><rect x="-571.5" y="-254" width="1143" height="508" id="jrONy6IIaWJT_pad-17"/><g id="jrONy6IIaWJT_pad-18"><polygon points="587.5,150 -587.5,150 -587.5,-150 587.5,-150"/><circle cx="587.5" cy="150" r="150"/><circle cx="-587.5" cy="150" r="150"/><circle cx="-587.5" cy="-150" r="150"/><circle cx="587.5" cy="-150" r="150"/><polygon points="587.5,0 -587.5,0 -587.5,300 587.5,300"/><polygon points="-437.5,150 -437.5,-150 -737.5,-150 -737.5,150"/><polygon points="-587.5,-300 587.5,-300 587.5,0 -587.5,0"/><polygon points="737.5,-150 737.5,150 437.5,150 437.5,-150"/></g><circle cx="0" cy="0" r="400" id="jrONy6IIaWJT_pad-19"/><circle cx="0" cy="0" r="1825" id="JLGb1JRcLKVA_pad-10"/><g id="JLGb1JRcLKVA_pad-11"><polygon points="760,-760 760,760 -760,760 -760,-760"/><circle cx="760" cy="-760" r="200"/><circle cx="760" cy="760" r="200"/><circle cx="-760" cy="760" r="200"/><circle cx="-760" cy="-760" r="200"/><polygon points="960,-760 960,760 560,760 560,-760"/><polygon points="760,560 -760,560 -760,960 760,960"/><polygon points="-560,760 -560,-760 -960,-760 -960,760"/><polygon points="-760,-960 760,-960 760,-560 -760,-560"/></g><circle cx="0" cy="0" r="960" id="JLGb1JRcLKVA_pad-12"/><g id="JLGb1JRcLKVA_pad-13"><polygon points="-250,225 -250,-225 250,-225 250,225"/><circle cx="-250" cy="225" r="425"/><circle cx="-250" cy="-225" r="425"/><circle cx="250" cy="-225" r="425"/><circle cx="250" cy="225" r="425"/><polygon points="175,225 175,-225 -675,-225 -675,225"/><polygon points="-250,-650 250,-650 250,200 -250,200"/><polygon points="675,-225 675,225 -175,225 -175,-225"/><polygon points="250,-200 -250,-200 -250,650 250,650"/></g><g id="JLGb1JRcLKVA_pad-14"><polygon points="-275,200 -275,-200 275,-200 275,200"/><circle cx="-275" cy="200" r="400"/><circle cx="-275" cy="-200" r="400"/><circle cx="275" cy="-200" r="400"/><circle cx="275" cy="200" r="400"/><polygon points="125,200 125,-200 -675,-200 -675,200"/><polygon points="-275,-600 275,-600 275,200 -275,200"/><polygon points="675,-200 675,200 -125,200 -125,-200"/><polygon points="275,-200 -275,-200 -275,600 275,600"/></g><g id="JLGb1JRcLKVA_pad-15"><polygon points="275,-200 275,200 -275,200 -275,-200"/><circle cx="275" cy="-200" r="400"/><circle cx="275" cy="200" r="400"/><circle cx="-275" cy="200" r="400"/><circle cx="-275" cy="-200" r="400"/><polygon points="675,-200 675,200 -125,200 -125,-200"/><polygon points="275,-200 -275,-200 -275,600 275,600"/><polygon points="125,200 125,-200 -675,-200 -675,200"/><polygon points="-275,-600 275,-600 275,200 -275,200"/></g><g id="JLGb1JRcLKVA_pad-16"><polygon points="-500,-500 500,-500 500,500 -500,500"/><circle cx="-500" cy="-500" r="200"/><circle cx="500" cy="-500" r="200"/><circle cx="500" cy="500" r="200"/><circle cx="-500" cy="500" r="200"/><polygon points="-500,-700 500,-700 500,-300 -500,-300"/><polygon points="700,-500 700,500 300,500 300,-500"/><polygon points="500,300 -500,300 -500,700 500,700"/><polygon points="-300,500 -300,-500 -700,-500 -700,500"/></g><rect x="-700" y="-700" width="1400" height="1400" rx="700" ry="700" id="JLGb1JRcLKVA_pad-17"/><g id="JLGb1JRcLKVA_pad-18"><polygon points="571.5,-254 571.5,254 -571.5,254 -571.5,-254"/><circle cx="571.5" cy="-254" r="200"/><circle cx="571.5" cy="254" r="200"/><circle cx="-571.5" cy="254" r="200"/><circle cx="-571.5" cy="-254" r="200"/><polygon points="771.5,-254 771.5,254 371.5,254 371.5,-254"/><polygon points="571.5,54 -571.5,54 -571.5,454 571.5,454"/><polygon points="-371.5,254 -371.5,-254 -771.5,-254 -771.5,254"/><polygon points="-571.5,-454 571.5,-454 571.5,-54 -571.5,-54"/></g><g id="JLGb1JRcLKVA_pad-19"><polygon points="587.5,150 -587.5,150 -587.5,-150 587.5,-150"/><circle cx="587.5" cy="150" r="350"/><circle cx="-587.5" cy="150" r="350"/><circle cx="-587.5" cy="-150" r="350"/><circle cx="587.5" cy="-150" r="350"/><polygon points="587.5,-200 -587.5,-200 -587.5,500 587.5,500"/><polygon points="-237.5,150 -237.5,-150 -937.5,-150 -937.5,150"/><polygon points="-587.5,-500 587.5,-500 587.5,200 -587.5,200"/><polygon points="937.5,-150 937.5,150 237.5,150 237.5,-150"/></g><circle cx="0" cy="0" r="64" id="h-1_gaIWTGIa_pad-1"/><circle cx="0" cy="0" r="7.85" id="FSYuMuERSf-C_pad-1"/><circle cx="0" cy="0" r="12.8" id="FSYuMuERSf-C_pad-2"/><circle cx="0" cy="0" r="14.95" id="FSYuMuERSf-C_pad-3"/><g id="JRDf_kxd9Edu_bottom_copper"><use xlink:href="#jrONy6IIaWJT_pad-10" x="115390" y="-102800"/><use xlink:href="#jrONy6IIaWJT_pad-11" x="112850" y="-101530"/><use xlink:href="#jrONy6IIaWJT_pad-11" x="115390" y="-100260"/><use xlink:href="#jrONy6IIaWJT_pad-11" x="112850" y="-98990"/><use xlink:href="#jrONy6IIaWJT_pad-11" x="115390" y="-97720"/><use xlink:href="#jrONy6IIaWJT_pad-11" x="112850" y="-96450"/><use xlink:href="#jrONy6IIaWJT_pad-12" x="118999" y="-93941.5"/><use xlink:href="#jrONy6IIaWJT_pad-12" x="118999" y="-95491.5"/><use xlink:href="#jrONy6IIaWJT_pad-12" x="124460" y="-93941.5"/><use xlink:href="#jrONy6IIaWJT_pad-12" x="124460" y="-95491.5"/><use xlink:href="#jrONy6IIaWJT_pad-13" x="124460" y="-103632"/><use xlink:href="#jrONy6IIaWJT_pad-13" x="124460" y="-105282"/><use xlink:href="#jrONy6IIaWJT_pad-14" x="128016" y="-95541.5"/><use xlink:href="#jrONy6IIaWJT_pad-14" x="128016" y="-93891.5"/><use xlink:href="#jrONy6IIaWJT_pad-15" x="128000" y="-101473"/><use xlink:href="#jrONy6IIaWJT_pad-16" x="128000" y="-100203"/><use xlink:href="#jrONy6IIaWJT_pad-16" x="128000" y="-98933"/><use xlink:href="#jrONy6IIaWJT_pad-16" x="128000" y="-97663"/><use xlink:href="#jrONy6IIaWJT_pad-17" x="118575" y="-101473"/><use xlink:href="#jrONy6IIaWJT_pad-17" x="118575" y="-100203"/><use xlink:href="#jrONy6IIaWJT_pad-17" x="118575" y="-98933"/><use xlink:href="#jrONy6IIaWJT_pad-17" x="118575" y="-97663"/><use xlink:href="#jrONy6IIaWJT_pad-17" x="124925" y="-97663"/><use xlink:href="#jrONy6IIaWJT_pad-17" x="124925" y="-98933"/><use xlink:href="#jrONy6IIaWJT_pad-17" x="124925" y="-100203"/><use xlink:href="#jrONy6IIaWJT_pad-17" x="124925" y="-101473"/><use xlink:href="#jrONy6IIaWJT_pad-14" x="118999" y="-105282"/><use xlink:href="#jrONy6IIaWJT_pad-14" x="118999" y="-103632"/><use xlink:href="#jrONy6IIaWJT_pad-18" x="128588.5" y="-103759"/><use xlink:href="#jrONy6IIaWJT_pad-18" x="128588.5" y="-105659"/><use xlink:href="#jrONy6IIaWJT_pad-18" x="126713.5" y="-104709"/><use xlink:href="#jrONy6IIaWJT_pad-19" x="117602" y="-94488"/><use xlink:href="#jrONy6IIaWJT_pad-19" x="117602" y="-105282"/><use xlink:href="#jrONy6IIaWJT_pad-19" x="117602" y="-103632"/><use xlink:href="#jrONy6IIaWJT_pad-19" x="124460" y="-96520"/><use xlink:href="#jrONy6IIaWJT_pad-19" x="127254" y="-106172"/><use xlink:href="#jrONy6IIaWJT_pad-19" x="125730" y="-102870"/><use xlink:href="#jrONy6IIaWJT_pad-19" x="125984" y="-94234"/><use xlink:href="#jrONy6IIaWJT_pad-19" x="126746" y="-96012"/><use xlink:href="#jrONy6IIaWJT_pad-19" x="127508" y="-103632"/><path d="M 116713 -101473 119050 -101473 M 118999 -105282 117730 -105282 M 115390 -102796 116713 -101473 M 118999 -93929 118161 -93929 M 117730 -105282 116204 -105282 M 115390 -102800 115390 -104468 M 118161 -93929 117602 -94488 M 115390 -104468 116204 -105282 M 119050 -100203 117052.802 -100203 M 115655.802 -101600 112776 -101600 M 117052.802 -100203 115655.802 -101600 M 118999 -103632 117602 -103632 M 119050 -98933 116459 -98933 115316 -97790 M 119050 -97663 119050 -95682 M 124450 -96530 124450 -95514 M 124450 -97663 124450 -96530 M 128651 -105659 127767 -105659 M 124450 -96530 124460 -96520 M 127767 -105659 127254 -106172 M 125349 -100203 126619 -98933 128000 -98933 M 124460 -103632 124910 -103632 M 124450 -101473 124450 -103622 M 125730 -102870 124968 -103632 M 125679 -93929 125984 -94234 M 124460 -93929 125679 -93929 M 124968 -103632 124587 -103632 M 125475 -98933 126020.999 -98387.001 126020.999 -95663.999 127704.998 -93980 M 124450 -98933 125475 -98933 M 126112 -105282 126746 -104648 M 128000 -100203 127508 -100203 M 126782.999 -100928.001 126782.999 -104611.001 M 127508 -100203 126782.999 -100928.001 M 124460 -105282 126112 -105282 M 128016 -95541.5 127216.5 -95541.5 126746 -96012 M 127508 -103632 128524 -103632" fill="none" stroke-width="250"/><path d="M 129346.093 -104579.411 129396.653 -104629.253 129412.5 -104690.427 129412.5 -104728.076 129392.498 -104796.197 129338.842 -104842.69 129276.615 -104853.688 129244.916 -104851.193 129239.986 -104851 128860.615 -104851 128845.376 -104855.475 128844.171 -104856.865 128842.5 -104864.548 128842.5 -106448.884 128846.975 -106464.123 128848.365 -106465.328 128856.048 -106466.999 129239.984 -106466.999 129244.924 -106466.805 129276.62 -106464.312 129346.099 -106478.911 129396.656 -106528.756 129412.5 -106589.924 129412.5 -106615.5 129392.498 -106683.621 129338.842 -106730.114 129286.5 -106741.5 123626 -106741.5 123557.879 -106721.498 123511.386 -106667.842 123500 -106615.5 123500 -106103.21 123520.002 -106035.089 123573.658 -105988.596 123643.932 -105978.492 123708.512 -106007.986 123715.095 -106014.115 123744.619 -106043.639 123891.301 -106132.472 123898.548 -106134.743 123898.55 -106134.744 123964.836 -106155.517 124054.938 -106183.753 124128.365 -106190.5 124131.263 -106190.5 124460.86 -106190.499 124791.634 -106190.499 124794.492 -106190.236 124794.501 -106190.236 124830.004 -106186.974 124865.062 -106183.753 124871.447 -106181.752 125021.45 -106134.744 125021.452 -106134.743 125028.699 -106132.472 125175.381 -106043.639 125266.615 -105952.405 125317.038 -105924.871 127349.456 -105924.871 127390.107 -106064.79 127396.352 -106079.221 127472.911 -106208.678 127482.551 -106221.104 127588.896 -106327.449 127601.322 -106337.089 127730.779 -106413.648 127745.21 -106419.893 127891.065 -106462.269 127903.667 -106464.57 127932.084 -106466.807 127937.014 -106467 128316.385 -106467 128331.624 -106462.525 128332.829 -106461.135 128334.5 -106453.452 128334.5 -105931.115 128330.025 -105915.876 128328.635 -105914.671 128320.952 -105913 127364.122 -105913 127350.591 -105916.973 127349.456 -105924.871 125317.038 -105924.871 125328.927 -105918.379 125355.71 -105915.5 126033.233 -105915.5 126044.416 -105916.027 126051.909 -105917.702 126059.835 -105917.453 126059.836 -105917.453 126119.986 -105915.562 126123.945 -105915.5 126151.856 -105915.5 126155.791 -105915.003 126155.856 -105914.995 126167.693 -105914.062 126201.488 -105913 126203.97 -105912.922 126211.889 -105912.673 126231.343 -105907.021 126250.7 -105903.013 126262.93 -105901.468 126262.931 -105901.468 126270.797 -105900.474 126278.168 -105897.555 126278.17 -105897.555 126311.912 -105884.196 126323.142 -105880.351 126357.983 -105870.229 126357.984 -105870.229 126365.593 -105868.018 126372.412 -105863.985 126372.417 -105863.983 126383.028 -105857.707 126400.776 -105849.012 126419.617 -105841.552 126455.387 -105815.564 126465.307 -105809.048 126496.535 -105790.58 126496.538 -105790.578 126503.362 -105786.542 126517.683 -105772.221 126532.717 -105759.38 126542.694 -105752.131 126549.107 -105747.472 126577.298 -105713.395 126585.288 -105704.616 126735.499 -105554.405 126797.811 -105520.379 126824.594 -105517.5 127367.502 -105517.5 127369.95 -105517.307 127369.958 -105517.307 127398.421 -105515.067 127398.426 -105515.066 127404.831 -105514.562 127504.769 -105485.528 127556.988 -105470.357 127556.99 -105470.356 127564.601 -105468.145 127641.703 -105422.547 127705.842 -105405 128316.385 -105405 128331.624 -105400.525 128332.829 -105399.135 128334.5 -105391.452 128334.5 -104869.116 128330.025 -104853.877 128328.635 -104852.672 128320.952 -104851.001 128085.5 -104851.001 128017.379 -104830.999 127970.886 -104777.343 127959.5 -104725.001 127959.5 -104693.5 127979.502 -104625.379 128033.158 -104578.886 128085.5 -104567.5 129242.502 -104567.5 129244.953 -104567.307 129244.981 -104567.306 129276.613 -104564.816 129346.093 -104579.411"/><path d="M 129354.621 -92528.502 129401.114 -92582.158 129412.5 -92634.5 129412.5 -102827.573 129392.498 -102895.694 129338.842 -102942.187 129276.613 -102953.184 129244.981 -102950.694 129244.953 -102950.693 129242.502 -102950.5 128156.568 -102950.5 128082.507 -102926.436 127970.094 -102844.763 127970.093 -102844.762 127964.752 -102840.882 127958.724 -102838.198 127958.722 -102838.197 127796.319 -102765.891 127796.318 -102765.891 127790.288 -102763.206 127635.229 -102730.247 127572.756 -102696.518 127538.434 -102634.369 127543.162 -102563.53 127585.438 -102506.492 127651.839 -102481.365 127661.426 -102481 127727.885 -102481 127743.124 -102476.525 127744.329 -102475.135 127746 -102467.452 127746 -102462.884 128254 -102462.884 128258.475 -102478.123 128259.865 -102479.328 128267.548 -102480.999 128544.669 -102480.999 128551.49 -102480.629 128602.352 -102475.105 128617.604 -102471.479 128738.054 -102426.324 128753.649 -102417.786 128855.724 -102341.285 128868.285 -102328.724 128944.786 -102226.649 128953.324 -102211.054 128998.478 -102090.606 129002.105 -102075.351 129007.631 -102024.486 129008 -102017.672 129008 -101745.115 129003.525 -101729.876 129002.135 -101728.671 128994.452 -101727 128272.115 -101727 128256.876 -101731.475 128255.671 -101732.865 128254 -101740.548 128254 -102462.884 127746 -102462.884 127746 -101345 127766.002 -101276.879 127819.658 -101230.386 127872 -101219 128989.884 -101219 129005.123 -101214.525 129006.328 -101213.135 129007.999 -101205.452 129007.999 -100928.331 129007.629 -100921.51 129002.105 -100870.648 128998.479 -100855.396 128953.324 -100734.946 128940.478 -100711.483 128942.602 -100710.32 128922.313 -100656.007 128928.429 -100607.183 128961.346 -100508.231 128988.197 -100427.513 129012.985 -100231.295 129013.38 -100203 128994.08 -100006.167 128936.916 -99816.831 128844.066 -99642.204 128840.167 -99637.424 128839.715 -99636.743 128818.676 -99568.935 128835.105 -99504.775 128922.723 -99350.542 128922.725 -99350.537 128925.769 -99345.179 128988.197 -99157.513 129012.985 -98961.295 129013.38 -98933 128994.08 -98736.167 128936.916 -98546.831 128844.066 -98372.204 128840.167 -98367.424 128839.715 -98366.743 128818.676 -98298.935 128835.105 -98234.775 128922.723 -98080.542 128922.725 -98080.537 128925.769 -98075.179 128988.197 -97887.513 129012.985 -97691.295 129013.38 -97663 128994.08 -97466.167 128975.05 -97403.135 128961.276 -97357.514 128936.916 -97276.831 128844.066 -97102.204 128731.524 -96964.214 128722.96 -96953.713 128722.957 -96953.71 128719.065 -96948.938 128714.316 -96945.009 128571.425 -96826.799 128571.421 -96826.797 128566.675 -96822.87 128392.701 -96728.802 128287.91 -96696.364 128228.75 -96657.113 128200.203 -96592.109 128211.331 -96521.99 128258.603 -96469.018 128325.169 -96449.999 128347.634 -96449.999 128350.492 -96449.736 128350.501 -96449.736 128386.004 -96446.474 128421.062 -96443.253 128427.441 -96441.254 128577.45 -96394.244 128577.452 -96394.243 128584.699 -96391.972 128731.381 -96303.139 128852.639 -96181.881 128941.472 -96035.199 128992.753 -95871.562 128999.5 -95798.135 128999.499 -95284.866 128996.491 -95252.119 128993.364 -95218.092 128992.753 -95211.438 128941.472 -95047.801 128852.639 -94901.119 128757.115 -94805.595 128723.089 -94743.283 128728.154 -94672.468 128757.115 -94627.405 128852.639 -94531.881 128941.472 -94385.199 128992.753 -94221.562 128999.5 -94148.135 128999.499 -93634.866 128999.234 -93631.974 128993.364 -93568.092 128992.753 -93561.438 128941.472 -93397.801 128852.639 -93251.119 128731.381 -93129.861 128584.699 -93041.028 128577.452 -93038.757 128577.45 -93038.756 128511.164 -93017.983 128421.062 -92989.747 128347.635 -92983 128344.737 -92983 128015.14 -92983.001 127684.366 -92983.001 127681.508 -92983.264 127681.499 -92983.264 127645.996 -92986.526 127610.938 -92989.747 127604.56 -92991.746 127604.559 -92991.746 127454.55 -93038.756 127454.548 -93038.757 127447.301 -93041.028 127300.619 -93129.861 127179.361 -93251.119 127090.528 -93397.801 127039.247 -93561.438 127032.5 -93634.865 127032.5 -93704.403 127012.498 -93772.524 126995.595 -93793.498 126974.214 -93814.879 126911.902 -93848.905 126841.087 -93843.84 126784.251 -93801.293 126776 -93788.785 126757.414 -93756.593 126723.04 -93697.056 126669.653 -93637.763 126599.675 -93560.045 126599.674 -93560.044 126595.253 -93555.134 126440.752 -93442.882 126434.724 -93440.198 126434.722 -93440.197 126272.319 -93367.891 126272.318 -93367.891 126266.288 -93365.206 126172.888 -93345.353 126085.944 -93326.872 126085.939 -93326.872 126079.487 -93325.5 125904.84 -93325.5 125869.686 -93320.497 125864.42 -93318.967 125857.145 -93315.819 125849.317 -93314.579 125849.31 -93314.577 125813.476 -93308.901 125801.856 -93306.495 125766.711 -93297.472 125766.71 -93297.472 125759.03 -93295.5 125738.776 -93295.5 125719.065 -93293.949 125706.886 -93292.02 125699.057 -93290.78 125691.165 -93291.526 125655.039 -93294.941 125643.181 -93295.5 125378.472 -93295.5 125310.351 -93275.498 125289.723 -93256.814 125288.752 -93257.787 125172.882 -93142.119 125167.702 -93136.948 125022.101 -93047.198 124859.757 -92993.351 124852.92 -92992.651 124852.918 -92992.65 124811.599 -92988.417 124758.732 -92983 124161.268 -92983 124158.022 -92983.337 124158.018 -92983.337 124123.917 -92986.875 124058.981 -92993.613 124052.44 -92995.795 124052.441 -92995.795 123903.676 -93045.427 123903.674 -93045.428 123896.732 -93047.744 123751.287 -93137.748 123746.114 -93142.93 123715.173 -93173.925 123652.891 -93208.004 123582.07 -93203.001 123525.198 -93160.504 123500.329 -93094.005 123500 -93084.907 123500 -92634.5 123520.002 -92566.379 123573.658 -92519.886 123626 -92508.5 129286.5 -92508.5 129354.621 -92528.502"/><path d="M 124656.121 -95257.502 124702.614 -95311.158 124714 -95363.5 124714 -96431.385 124718.475 -96446.624 124719.865 -96447.829 124727.548 -96449.5 124755.438 -96449.5 124761.953 -96449.163 124854.057 -96439.606 124867.456 -96436.712 125016.107 -96387.119 125029.286 -96380.945 125162.173 -96298.712 125179.311 -96285.129 125180.403 -96286.507 125234.606 -96256.847 125305.426 -96261.849 125362.3 -96304.345 125387.17 -96370.843 125387.499 -96379.944 125387.499 -96775 125367.497 -96843.121 125313.841 -96889.614 125261.499 -96901 125197.115 -96901 125181.876 -96905.475 125180.671 -96906.865 125179 -96914.548 125179 -97791 125158.998 -97859.121 125105.342 -97905.614 125053 -97917 123863.616 -97917 123848.377 -97921.475 123847.172 -97922.865 123845.501 -97930.548 123845.501 -97961.669 123845.871 -97968.49 123851.395 -98019.352 123855.021 -98034.604 123900.176 -98155.054 123908.714 -98170.649 123947.213 -98222.018 123972.061 -98288.525 123957.008 -98357.907 123947.213 -98373.148 123902.885 -98432.295 123851.755 -98568.684 123845 -98630.866 123845 -98711.915 123841.28 -98735.408 123842.717 -98735.682 123812.725 -98892.906 123822.775 -99052.65 123825.224 -99060.186 123825.224 -99060.188 123838.833 -99102.071 123845 -99141.007 123845 -99235.134 123851.755 -99297.316 123902.885 -99433.705 123908.271 -99440.891 123946.901 -99492.435 123971.749 -99558.941 123956.696 -99628.324 123946.902 -99643.563 123902.885 -99702.295 123851.755 -99838.684 123845 -99900.866 123845 -100505.134 123851.755 -100567.316 123902.885 -100703.705 123946.901 -100762.435 123971.749 -100828.941 123956.696 -100898.324 123946.902 -100913.563 123902.885 -100972.295 123851.755 -101108.684 123845 -101170.866 123845 -101266.054 123841.041 -101297.389 123816.5 -101392.97 123816.5 -102755.831 123796.498 -102823.952 123755.772 -102863.606 123751.123 -102866.422 123744.619 -102870.361 123715.095 -102899.885 123652.783 -102933.911 123581.968 -102928.846 123525.132 -102886.299 123500.321 -102819.779 123500 -102810.79 123500 -97390.885 123845.5 -97390.885 123849.975 -97406.124 123851.365 -97407.329 123859.048 -97409 124652.885 -97409 124668.124 -97404.525 124669.329 -97403.135 124671 -97395.452 124671 -96919.116 124666.525 -96903.877 124665.135 -96902.672 124657.452 -96901.001 124308.831 -96901.001 124302.01 -96901.371 124251.148 -96906.895 124235.896 -96910.521 124115.446 -96955.676 124099.851 -96964.214 123997.776 -97040.715 123985.215 -97053.276 123908.714 -97155.351 123900.176 -97170.946 123855.022 -97291.394 123851.395 -97306.649 123845.869 -97357.514 123845.5 -97364.328 123845.5 -97390.885 123500 -97390.885 123500 -96347.305 123520.002 -96279.184 123573.658 -96232.691 123643.932 -96222.587 123708.512 -96252.081 123715.017 -96258.131 123747.428 -96290.485 123758.84 -96299.498 123891.88 -96381.504 123905.061 -96387.651 124053.814 -96436.991 124067.19 -96439.858 124158.097 -96449.172 124164.513 -96449.5 124187.885 -96449.5 124203.124 -96445.025 124204.329 -96443.635 124206 -96435.952 124206 -95363.5 124226.002 -95295.379 124279.658 -95248.886 124332 -95237.5 124588 -95237.5 124656.121 -95257.502"/><path d="M 105364.014 -92528.502 105410.507 -92582.158 105420.611 -92652.432 105391.117 -92717.012 105368.344 -92737.587 105157.713 -92885.621 105157.707 -92885.626 105154.208 -92888.085 105151.067 -92891.004 104978.85 -93051.038 104941.112 -93086.106 104938.398 -93089.422 104938.395 -93089.425 104894.602 -93142.93 104756.861 -93311.216 104604.867 -93559.248 104603.148 -93563.165 104603.146 -93563.168 104595.977 -93579.5 104487.941 -93825.614 104486.765 -93829.742 104486.764 -93829.745 104462.218 -93915.913 104408.246 -94105.384 104407.642 -94109.626 104407.641 -94109.632 104405.125 -94127.313 104367.258 -94393.381 104367.141 -94415.723 104365.803 -94671.365 104365.735 -94684.277 104366.294 -94688.521 104366.294 -94688.525 104383.017 -94815.544 104403.705 -94972.687 104480.465 -95253.276 104482.149 -95257.224 104539.917 -95392.658 104594.596 -95520.852 104743.985 -95770.462 104746.669 -95773.813 104746.671 -95773.815 104816.164 -95860.557 104925.867 -95997.489 105077.379 -96141.268 105126.857 -96188.221 105136.878 -96197.731 105373.113 -96367.483 105398.538 -96380.945 105522.644 -96446.655 105630.2 -96503.603 105634.223 -96505.075 105634.227 -96505.077 105899.351 -96602.099 105903.382 -96603.574 106187.604 -96665.544 106216.65 -96667.83 106413.297 -96683.307 106413.304 -96683.307 106415.753 -96683.5 106573.121 -96683.5 106575.257 -96683.354 106575.268 -96683.354 106785.949 -96668.991 106785.955 -96668.99 106790.226 -96668.699 106794.421 -96667.83 106794.423 -96667.83 106932.653 -96639.204 107075.081 -96609.709 107318.678 -96523.447 107345.254 -96514.036 107349.295 -96512.605 107459.983 -96455.475 111577.635 -96455.475 111596.013 -96665.544 111597.917 -96676.34 111652.495 -96880.028 111656.241 -96890.32 111745.359 -97081.435 111750.842 -97090.931 111781.23 -97134.329 111791.707 -97142.704 111805.155 -97135.635 112477.978 -96462.812 112484.356 -96451.132 113214.408 -96451.132 113214.539 -96452.965 113218.79 -96459.58 113895.567 -97136.357 113907.342 -97142.787 113919.357 -97133.491 113949.158 -97090.931 113954.641 -97081.435 114043.759 -96890.32 114047.505 -96880.028 114102.083 -96676.34 114103.987 -96665.544 114122.365 -96455.475 114122.365 -96444.525 114103.986 -96234.453 114102.083 -96223.66 114047.505 -96019.972 114043.759 -96009.68 113954.641 -95818.565 113949.158 -95809.069 113918.77 -95765.671 113914.1 -95761.938 118016 -95761.938 118016.337 -95768.453 118025.894 -95860.557 118028.788 -95873.956 118078.381 -96022.607 118084.555 -96035.786 118166.788 -96168.673 118175.824 -96180.074 118286.429 -96290.486 118297.84 -96299.498 118430.88 -96381.504 118444.061 -96387.651 118592.814 -96436.991 118606.19 -96439.858 118697.097 -96449.172 118703.513 -96449.5 118726.885 -96449.5 118742.124 -96445.025 118743.329 -96443.635 118745 -96435.952 118745 -95763.615 118740.525 -95748.376 118739.135 -95747.171 118731.452 -95745.5 118034.115 -95745.5 118018.876 -95749.975 118017.671 -95751.365 118016 -95759.048 118016 -95761.938 113914.1 -95761.938 113908.293 -95757.296 113894.845 -95764.365 113222.022 -96437.188 113214.408 -96451.132 112484.356 -96451.132 112485.592 -96448.868 112485.461 -96447.035 112481.21 -96440.42 111804.433 -95763.643 111792.658 -95757.213 111780.643 -95766.509 111750.842 -95809.069 111745.359 -95818.565 111656.241 -96009.68 111652.495 -96019.972 111597.917 -96223.66 111596.014 -96234.453 111577.635 -96444.525 111577.635 -96455.475 107459.983 -96455.475 107468.397 -96451.132 107603.986 -96381.149 107603.987 -96381.149 107607.793 -96379.184 107611.294 -96376.723 107611.298 -96376.721 107735.15 -96289.676 107845.792 -96211.915 107981.873 -96085.461 108055.745 -96016.815 108055.748 -96016.812 108058.888 -96013.894 108062.338 -96009.68 108240.423 -95792.102 108243.139 -95788.784 108395.133 -95540.752 108403.869 -95520.852 108460.559 -95391.707 112157.296 -95391.707 112164.365 -95405.155 112837.188 -96077.978 112851.132 -96085.592 112852.965 -96085.461 112859.58 -96081.21 113536.357 -95404.433 113542.787 -95392.658 113533.491 -95380.643 113490.931 -95350.842 113481.435 -95345.359 113290.32 -95256.241 113280.028 -95252.495 113076.34 -95197.917 113065.547 -95196.014 112855.475 -95177.635 112844.525 -95177.635 112634.453 -95196.014 112623.66 -95197.917 112419.972 -95252.495 112409.68 -95256.241 112218.565 -95345.359 112209.069 -95350.842 112165.671 -95381.23 112157.296 -95391.707 108460.559 -95391.707 108475.282 -95358.166 108512.059 -95274.386 108515.712 -95261.564 108544.086 -95161.955 108591.754 -94994.616 108594.286 -94976.829 108632.137 -94710.87 108632.742 -94706.619 108634.265 -94415.723 108596.295 -94127.313 108519.535 -93846.724 108443.204 -93667.768 108407.09 -93583.1 108407.088 -93583.096 108405.404 -93579.148 108256.015 -93329.538 108243.122 -93313.444 108147.461 -93194.04 108074.133 -93102.511 107863.122 -92902.269 107632.878 -92736.822 107589.231 -92680.828 107582.785 -92610.125 107615.588 -92547.16 107677.224 -92511.926 107706.405 -92508.5 119874 -92508.5 119942.121 -92528.502 119988.614 -92582.158 120000 -92634.5 120000 -93125.919 119979.998 -93194.04 119926.342 -93240.533 119856.068 -93250.637 119791.488 -93221.143 119784.982 -93215.092 119763.894 -93194.04 119706.702 -93136.948 119650.835 -93102.511 119567.331 -93051.038 119567.329 -93051.037 119561.101 -93047.198 119398.757 -92993.351 119391.92 -92992.651 119391.918 -92992.65 119350.599 -92988.417 119297.732 -92983 118700.268 -92983 118697.022 -92983.337 118697.018 -92983.337 118662.917 -92986.875 118597.981 -92993.613 118591.44 -92995.795 118591.441 -92995.795 118442.676 -93045.427 118442.674 -93045.428 118435.732 -93047.744 118429.508 -93051.596 118429.507 -93051.596 118368.376 -93089.425 118290.287 -93137.748 118169.448 -93258.798 118167.582 -93256.935 118119.685 -93290.875 118082.709 -93297.648 118072.024 -93297.984 118061.11 -93298.327 118043.744 -93303.372 118041.658 -93303.978 118022.306 -93307.986 118010.068 -93309.532 118010.066 -93309.533 118002.203 -93310.526 117961.086 -93326.806 117949.885 -93330.641 117907.406 -93342.982 117900.587 -93347.015 117900.582 -93347.017 117889.971 -93353.293 117872.221 -93361.99 117853.383 -93369.448 117846.967 -93374.109 117846.966 -93374.11 117817.625 -93395.428 117807.701 -93401.947 117776.46 -93420.422 117776.455 -93420.426 117769.637 -93424.458 117755.313 -93438.782 117740.281 -93451.621 117723.893 -93463.528 117695.712 -93497.593 117687.722 -93506.373 117651.5 -93542.595 117589.188 -93576.621 117562.405 -93579.5 117506.513 -93579.5 117500.061 -93580.872 117500.056 -93580.872 117413.113 -93599.353 117319.712 -93619.206 117313.682 -93621.891 117313.681 -93621.891 117151.278 -93694.197 117151.276 -93694.198 117145.248 -93696.882 116990.747 -93809.134 116862.96 -93951.056 116859.659 -93956.774 116773.859 -94105.384 116767.473 -94116.444 116708.458 -94298.072 116707.768 -94304.633 116707.768 -94304.635 116695.642 -94420.009 116688.496 -94488 116708.458 -94677.928 116767.473 -94859.556 116862.96 -95024.944 116990.747 -95166.866 117030.866 -95196.014 117115.114 -95257.224 117145.248 -95279.118 117151.276 -95281.802 117151.278 -95281.803 117313.681 -95354.109 117319.712 -95356.794 117413.113 -95376.647 117500.056 -95395.128 117500.061 -95395.128 117506.513 -95396.5 117697.487 -95396.5 117703.939 -95395.128 117703.944 -95395.128 117790.887 -95376.647 117884.288 -95356.794 117890.319 -95354.109 118052.722 -95281.803 118052.724 -95281.802 118058.752 -95279.118 118082.913 -95261.564 118149.781 -95237.705 118156.974 -95237.5 119127 -95237.5 119195.121 -95257.502 119241.614 -95311.158 119253 -95363.5 119253 -96431.385 119257.475 -96446.624 119258.865 -96447.829 119266.548 -96449.5 119294.438 -96449.5 119300.953 -96449.163 119393.057 -96439.606 119406.456 -96436.712 119555.107 -96387.119 119568.286 -96380.945 119701.173 -96298.712 119712.574 -96289.676 119784.827 -96217.297 119847.11 -96183.218 119917.93 -96188.221 119974.802 -96230.718 119999.671 -96297.217 120000 -96306.315 120000 -102851.79 119979.998 -102919.911 119926.342 -102966.404 119856.068 -102976.508 119791.488 -102947.014 119784.905 -102940.885 119714.381 -102870.361 119567.699 -102781.528 119560.452 -102779.257 119560.45 -102779.256 119482.803 -102754.923 119404.062 -102730.247 119330.635 -102723.5 119327.737 -102723.5 118998.14 -102723.501 118667.366 -102723.501 118664.508 -102723.764 118664.499 -102723.764 118628.996 -102727.026 118593.938 -102730.247 118587.56 -102732.246 118587.559 -102732.246 118437.55 -102779.256 118437.548 -102779.257 118430.301 -102781.528 118283.619 -102870.361 118278.243 -102875.737 118272.272 -102880.419 118270.515 -102878.178 118219.85 -102905.844 118149.035 -102900.779 118119.006 -102884.659 118064.094 -102844.763 118064.093 -102844.762 118058.752 -102840.882 118052.724 -102838.198 118052.722 -102838.197 117890.319 -102765.891 117890.318 -102765.891 117884.288 -102763.206 117790.887 -102743.353 117703.944 -102724.872 117703.939 -102724.872 117697.487 -102723.5 117506.513 -102723.5 117500.061 -102724.872 117500.056 -102724.872 117413.113 -102743.353 117319.712 -102763.206 117313.682 -102765.891 117313.681 -102765.891 117151.278 -102838.197 117151.276 -102838.198 117145.248 -102840.882 117139.907 -102844.762 117139.906 -102844.763 117104.674 -102870.361 116990.747 -102953.134 116878.135 -103078.203 116817.69 -103115.441 116746.706 -103114.089 116687.722 -103074.575 116659.464 -103009.445 116658.5 -102993.891 116658.5 -102475.594 116678.502 -102407.473 116695.405 -102386.499 116938.499 -102143.405 117000.811 -102109.379 117027.594 -102106.5 117619.931 -102106.5 117688.052 -102126.502 117695.496 -102131.674 117756.795 -102177.615 117893.184 -102228.745 117955.366 -102235.5 119194.634 -102235.5 119256.816 -102228.745 119393.205 -102177.615 119509.761 -102090.261 119597.115 -101973.705 119648.245 -101837.316 119655 -101775.134 119655 -101694.085 119658.72 -101670.592 119657.283 -101670.318 119685.79 -101520.879 119685.79 -101520.878 119687.275 -101513.094 119677.225 -101353.35 119661.167 -101303.929 119655 -101264.993 119655 -101170.866 119648.245 -101108.684 119597.115 -100972.295 119553.099 -100913.564 119528.251 -100847.059 119543.304 -100777.676 119553.099 -100762.435 119597.115 -100703.705 119648.245 -100567.316 119655 -100505.134 119655 -100424.085 119658.72 -100400.592 119657.283 -100400.318 119685.79 -100250.879 119685.79 -100250.878 119687.275 -100243.094 119677.963 -100095.075 119677.723 -100091.262 119677.723 -100091.26 119677.225 -100083.35 119661.167 -100033.929 119655 -99994.993 119655 -99900.866 119648.245 -99838.684 119597.115 -99702.295 119553.099 -99643.564 119528.251 -99577.059 119543.304 -99507.676 119553.099 -99492.435 119597.115 -99433.705 119648.245 -99297.316 119655 -99235.134 119655 -99154.085 119658.72 -99130.592 119657.283 -99130.318 119685.79 -98980.879 119685.79 -98980.878 119687.275 -98973.094 119677.963 -98825.075 119677.723 -98821.262 119677.723 -98821.26 119677.225 -98813.35 119661.167 -98763.929 119655 -98724.993 119655 -98630.866 119648.245 -98568.684 119597.115 -98432.295 119552.787 -98373.148 119527.939 -98306.641 119542.992 -98237.259 119552.787 -98222.018 119591.286 -98170.649 119599.824 -98155.054 119644.978 -98034.606 119648.605 -98019.351 119654.131 -97968.486 119654.5 -97961.672 119654.5 -97935.115 119650.025 -97919.876 119648.635 -97918.671 119640.952 -97917 117513.616 -97917 117498.377 -97921.475 117497.172 -97922.865 117495.501 -97930.548 117495.501 -97961.669 117495.871 -97968.49 117501.395 -98019.352 117505.021 -98034.603 117540.51 -98129.27 117545.693 -98200.077 117511.772 -98262.446 117449.517 -98296.576 117422.528 -98299.5 116773.595 -98299.5 116705.474 -98279.498 116684.499 -98262.595 116636.061 -98214.156 116602.036 -98151.843 116603.45 -98092.45 116642.576 -97946.429 116642.576 -97946.427 116644 -97941.114 116663.345 -97720 116644 -97498.886 116619.915 -97409 116615.061 -97390.885 117495.5 -97390.885 117499.975 -97406.124 117501.365 -97407.329 117509.048 -97409 118302.885 -97409 118318.124 -97404.525 118319.329 -97403.135 118321 -97395.452 118321 -97390.885 118829 -97390.885 118833.475 -97406.124 118834.865 -97407.329 118842.548 -97409 119636.384 -97409 119651.623 -97404.525 119652.828 -97403.135 119654.499 -97395.452 119654.499 -97364.331 119654.129 -97357.51 119648.605 -97306.648 119644.979 -97291.396 119599.824 -97170.946 119591.286 -97155.351 119514.785 -97053.276 119502.224 -97040.715 119400.149 -96964.214 119384.554 -96955.676 119264.106 -96910.522 119248.851 -96906.895 119197.986 -96901.369 119191.172 -96901 118847.115 -96901 118831.876 -96905.475 118830.671 -96906.865 118829 -96914.548 118829 -97390.885 118321 -97390.885 118321 -96919.116 118316.525 -96903.877 118315.135 -96902.672 118307.452 -96901.001 117958.831 -96901.001 117952.01 -96901.371 117901.148 -96906.895 117885.896 -96910.521 117765.446 -96955.676 117749.851 -96964.214 117647.776 -97040.715 117635.215 -97053.276 117558.714 -97155.351 117550.176 -97170.946 117505.022 -97291.394 117501.395 -97306.649 117495.869 -97357.514 117495.5 -97364.328 117495.5 -97390.885 116615.061 -97390.885 116587.976 -97289.8 116587.975 -97289.798 116586.553 -97284.49 116584.23 -97279.508 116495.075 -97088.315 116495.072 -97088.31 116492.749 -97083.328 116489.592 -97078.819 116368.598 -96906.021 116368.596 -96906.018 116365.439 -96901.51 116208.49 -96744.561 116203.982 -96741.404 116203.979 -96741.402 116121.01 -96683.307 116026.673 -96617.251 116021.691 -96614.928 116021.686 -96614.925 115830.492 -96525.77 115830.491 -96525.769 115825.51 -96523.447 115820.202 -96522.025 115820.2 -96522.024 115616.429 -96467.424 115616.427 -96467.424 115611.114 -96466 115390 -96446.655 115168.886 -96466 115163.573 -96467.424 115163.571 -96467.424 114959.8 -96522.024 114959.798 -96522.025 114954.49 -96523.447 114949.51 -96525.769 114949.508 -96525.77 114758.315 -96614.925 114758.31 -96614.928 114753.328 -96617.251 114748.821 -96620.407 114748.819 -96620.408 114576.021 -96741.402 114576.018 -96741.404 114571.51 -96744.561 114414.561 -96901.51 114411.404 -96906.018 114411.402 -96906.021 114290.408 -97078.819 114287.251 -97083.328 114284.928 -97088.31 114284.925 -97088.315 114195.77 -97279.508 114193.447 -97284.49 114192.025 -97289.798 114192.024 -97289.8 114160.085 -97409 114136 -97498.886 114116.655 -97720 114136 -97941.114 114137.424 -97946.427 114137.424 -97946.429 114154.834 -98011.402 114193.447 -98155.51 114195.769 -98160.49 114195.77 -98160.492 114284.925 -98351.685 114284.928 -98351.69 114287.251 -98356.672 114290.407 -98361.179 114290.408 -98361.181 114340.203 -98432.295 114414.561 -98538.49 114571.51 -98695.439 114576.018 -98698.596 114576.021 -98698.598 114613.717 -98724.993 114753.327 -98822.749 114758.309 -98825.072 114758.314 -98825.075 114867.697 -98876.081 114920.982 -98922.999 114940.443 -98991.276 114919.901 -99059.236 114867.696 -99104.471 114758.569 -99155.357 114749.069 -99160.842 114705.671 -99191.23 114697.296 -99201.707 114704.365 -99215.155 115660.115 -100170.905 115694.141 -100233.217 115689.076 -100304.032 115660.115 -100349.095 115479.095 -100530.115 115416.783 -100564.141 115345.968 -100559.076 115300.905 -100530.115 114344.433 -99573.643 114332.658 -99567.213 114320.643 -99576.509 114290.842 -99619.069 114285.359 -99628.565 114196.241 -99819.68 114192.495 -99829.972 114137.917 -100033.66 114136.014 -100044.453 114117.635 -100254.525 114117.635 -100265.475 114136.014 -100475.547 114137.917 -100486.34 114192.495 -100690.028 114196.241 -100700.32 114236.777 -100787.25 114247.438 -100857.442 114218.458 -100922.255 114159.038 -100961.111 114122.582 -100966.5 114067.141 -100966.5 113999.02 -100946.498 113959.988 -100901.83 113957.825 -100903.079 113955.074 -100898.315 113952.749 -100893.328 113949.592 -100888.819 113828.598 -100716.021 113828.596 -100716.018 113825.439 -100711.51 113668.49 -100554.561 113663.982 -100551.404 113663.979 -100551.402 113588.313 -100498.42 113486.673 -100427.251 113481.691 -100424.928 113481.686 -100424.925 113372.894 -100374.195 113319.609 -100327.278 113300.148 -100259 113320.69 -100191.041 113372.894 -100145.805 113481.686 -100095.075 113481.691 -100095.072 113486.673 -100092.749 113626.283 -99994.993 113663.979 -99968.598 113663.982 -99968.596 113668.49 -99965.439 113825.439 -99808.49 113899.798 -99702.295 113949.592 -99631.181 113949.593 -99631.179 113952.749 -99626.672 113955.072 -99621.69 113955.075 -99621.685 114044.23 -99430.492 114044.231 -99430.49 114046.553 -99425.51 114069.461 -99340.018 114102.576 -99216.429 114102.576 -99216.427 114104 -99211.114 114123.345 -98990 114104 -98768.886 114092.239 -98724.993 114047.976 -98559.8 114047.975 -98559.798 114046.553 -98554.49 113993.493 -98440.703 113955.075 -98358.315 113955.072 -98358.31 113952.749 -98353.328 113926.429 -98315.739 113828.598 -98176.021 113828.596 -98176.018 113825.439 -98171.51 113668.49 -98014.561 113663.982 -98011.404 113663.979 -98011.402 113555.771 -97935.634 113486.673 -97887.251 113481.691 -97884.928 113481.686 -97884.925 113372.303 -97833.919 113319.018 -97787.001 113299.557 -97718.724 113320.099 -97650.764 113372.304 -97605.529 113481.431 -97554.643 113490.931 -97549.158 113534.329 -97518.77 113542.704 -97508.293 113535.635 -97494.845 112862.812 -96822.022 112848.868 -96814.408 112847.035 -96814.539 112840.42 -96818.79 112163.643 -97495.567 112157.213 -97507.342 112166.509 -97519.357 112209.069 -97549.158 112218.565 -97554.641 112327.697 -97605.53 112380.982 -97652.448 112400.443 -97720.725 112379.901 -97788.685 112327.698 -97833.919 112273.878 -97859.016 112218.315 -97884.925 112218.31 -97884.928 112213.328 -97887.251 112208.821 -97890.407 112208.819 -97890.408 112036.021 -98011.402 112036.018 -98011.404 112031.51 -98014.561 111874.561 -98171.51 111871.404 -98176.018 111871.402 -98176.021 111773.571 -98315.739 111747.251 -98353.328 111744.928 -98358.31 111744.925 -98358.315 111706.507 -98440.703 111653.447 -98554.49 111652.025 -98559.798 111652.024 -98559.8 111607.761 -98724.993 111596 -98768.886 111576.655 -98990 111596 -99211.114 111597.424 -99216.427 111597.424 -99216.429 111630.54 -99340.018 111653.447 -99425.51 111655.769 -99430.49 111655.77 -99430.492 111744.925 -99621.685 111744.928 -99621.69 111747.251 -99626.672 111750.407 -99631.179 111750.408 -99631.181 111800.203 -99702.295 111874.561 -99808.49 112031.51 -99965.439 112036.018 -99968.596 112036.021 -99968.598 112073.717 -99994.993 112213.327 -100092.749 112218.309 -100095.072 112218.314 -100095.075 112327.106 -100145.805 112380.391 -100192.722 112399.852 -100261 112379.31 -100328.959 112327.106 -100374.195 112218.315 -100424.925 112218.31 -100424.928 112213.328 -100427.251 112208.821 -100430.407 112208.819 -100430.408 112036.021 -100551.402 112036.018 -100551.404 112031.51 -100554.561 111874.561 -100711.51 111871.404 -100716.018 111871.402 -100716.021 111750.408 -100888.819 111747.251 -100893.328 111744.928 -100898.31 111744.925 -100898.315 111706.507 -100980.703 111653.447 -101094.49 111652.025 -101099.798 111652.024 -101099.8 111607.761 -101264.993 111596 -101308.886 111576.655 -101530 111596 -101751.114 111597.424 -101756.427 111597.424 -101756.429 111619.098 -101837.316 111653.447 -101965.51 111655.769 -101970.49 111655.77 -101970.492 111744.925 -102161.685 111744.928 -102161.69 111747.251 -102166.672 111750.407 -102171.179 111750.408 -102171.181 111871.399 -102343.974 111874.561 -102348.49 112031.51 -102505.439 112036.018 -102508.596 112036.021 -102508.598 112111.687 -102561.58 112213.327 -102632.749 112218.309 -102635.072 112218.314 -102635.075 112407.943 -102723.5 112414.49 -102726.553 112419.798 -102727.975 112419.8 -102727.976 112623.571 -102782.576 112623.573 -102782.576 112628.886 -102784 112850 -102803.345 113071.114 -102784 113076.427 -102782.576 113076.429 -102782.576 113280.2 -102727.976 113280.202 -102727.975 113285.51 -102726.553 113292.057 -102723.5 113481.686 -102635.075 113481.691 -102635.072 113486.673 -102632.749 113588.313 -102561.58 113663.979 -102508.598 113663.982 -102508.596 113668.49 -102505.439 113825.439 -102348.49 113828.598 -102343.979 113828.602 -102343.974 113868.334 -102287.23 113923.79 -102242.901 113971.547 -102233.5 113995.5 -102233.5 114063.621 -102253.502 114110.114 -102307.158 114121.5 -102359.5 114121.5 -103608.134 114128.255 -103670.316 114179.385 -103806.705 114266.739 -103923.261 114383.295 -104010.615 114519.684 -104061.745 114581.866 -104068.5 114630.5 -104068.5 114698.621 -104088.502 114745.114 -104142.158 114756.5 -104194.5 114756.5 -104389.233 114755.973 -104400.416 114754.298 -104407.909 114754.547 -104415.835 114754.547 -104415.836 114756.438 -104475.986 114756.5 -104479.945 114756.5 -104507.856 114756.997 -104511.79 114756.997 -104511.791 114757.005 -104511.856 114757.938 -104523.693 114759.327 -104567.889 114764.978 -104587.339 114768.987 -104606.7 114771.526 -104626.797 114774.445 -104634.168 114774.445 -104634.17 114787.804 -104667.912 114791.649 -104679.142 114803.982 -104721.593 114808.015 -104728.412 114808.017 -104728.417 114814.293 -104739.028 114822.988 -104756.776 114830.448 -104775.617 114835.11 -104782.033 114835.11 -104782.034 114856.436 -104811.387 114862.952 -104821.307 114876.537 -104844.277 114885.458 -104859.362 114899.779 -104873.683 114912.619 -104888.716 114924.528 -104905.107 114930.633 -104910.158 114930.638 -104910.163 114958.604 -104933.299 114967.382 -104941.287 115700.348 -105674.253 115707.888 -105682.539 115712 -105689.018 115717.777 -105694.443 115761.651 -105735.643 115764.493 -105738.398 115784.23 -105758.135 115787.427 -105760.615 115796.447 -105768.318 115828.679 -105798.586 115835.625 -105802.405 115835.628 -105802.407 115846.434 -105808.348 115862.953 -105819.199 115878.959 -105831.614 115886.228 -105834.759 115886.232 -105834.762 115919.537 -105849.174 115930.187 -105854.391 115968.94 -105875.695 115976.615 -105877.666 115976.616 -105877.666 115988.562 -105880.733 116007.267 -105887.137 116025.855 -105895.181 116033.678 -105896.42 116033.688 -105896.423 116069.524 -105902.099 116081.144 -105904.505 116116.289 -105913.528 116123.97 -105915.5 116144.224 -105915.5 116163.934 -105917.051 116183.943 -105920.22 116191.835 -105919.474 116227.961 -105916.059 116239.819 -105915.5 116893.8 -105915.5 116961.921 -105935.502 116981.147 -105951.843 116981.42 -105951.54 116986.332 -105955.963 116990.747 -105960.866 116996.086 -105964.745 117110.093 -106047.576 117145.248 -106073.118 117151.276 -106075.802 117151.278 -106075.803 117283.663 -106134.744 117319.712 -106150.794 117412.774 -106170.575 117500.056 -106189.128 117500.061 -106189.128 117506.513 -106190.5 117697.487 -106190.5 117703.939 -106189.128 117703.944 -106189.128 117791.226 -106170.575 117884.288 -106150.794 117920.337 -106134.744 118052.722 -106075.803 118052.724 -106075.802 118058.752 -106073.118 118086.138 -106053.221 118119.006 -106029.341 118185.874 -106005.482 118255.025 -106021.563 118271.738 -106034.262 118272.272 -106033.581 118278.243 -106038.263 118283.619 -106043.639 118430.301 -106132.472 118437.548 -106134.743 118437.55 -106134.744 118480.198 -106148.109 118593.938 -106183.753 118667.365 -106190.5 118670.263 -106190.5 118999.86 -106190.499 119330.634 -106190.499 119333.492 -106190.236 119333.501 -106190.236 119369.004 -106186.974 119404.062 -106183.753 119446.113 -106170.575 119560.45 -106134.744 119560.452 -106134.743 119567.699 -106132.472 119714.381 -106043.639 119784.905 -105973.115 119847.217 -105939.089 119918.032 -105944.154 119974.868 -105986.701 119999.679 -106053.221 120000 -106062.21 120000 -106615.5 119979.998 -106683.621 119926.342 -106730.114 119874 -106741.5 107718.335 -106741.5 107650.214 -106721.498 107603.721 -106667.842 107593.617 -106597.568 107623.111 -106532.988 107645.884 -106512.413 107845.792 -106371.915 108041.304 -106190.234 108055.745 -106176.815 108055.748 -106176.812 108058.888 -106173.894 108069.895 -106160.447 108223.224 -105973.115 108243.139 -105948.784 108395.133 -105700.752 108397.903 -105694.443 108510.334 -105438.315 108512.059 -105434.386 108518.073 -105413.276 108537.782 -105344.087 108591.754 -105154.616 108594.286 -105136.829 108632.137 -104870.87 108632.742 -104866.619 108633.724 -104679.142 108634.243 -104580.009 108634.243 -104580.003 108634.265 -104575.723 108626.977 -104520.361 108613.215 -104415.836 108596.295 -104287.313 108519.535 -104006.724 108480.873 -103916.082 108407.09 -103743.1 108407.088 -103743.096 108405.404 -103739.148 108256.015 -103489.538 108241.337 -103471.216 108076.823 -103265.869 108074.133 -103262.511 107863.122 -103062.269 107626.887 -102892.517 107419.244 -102782.576 107373.587 -102758.402 107373.586 -102758.401 107369.8 -102756.397 107365.777 -102754.925 107365.773 -102754.923 107100.649 -102657.901 107100.647 -102657.9 107096.618 -102656.426 106812.396 -102594.456 106768.598 -102591.009 106586.703 -102576.693 106586.696 -102576.693 106584.247 -102576.5 106426.879 -102576.5 106424.743 -102576.646 106424.732 -102576.646 106214.051 -102591.009 106214.045 -102591.01 106209.774 -102591.301 106205.579 -102592.17 106205.577 -102592.17 106190.13 -102595.369 105924.919 -102650.291 105650.705 -102747.395 105392.207 -102880.816 105388.706 -102883.277 105388.702 -102883.279 105306.738 -102940.885 105154.208 -103048.085 104941.112 -103246.106 104938.398 -103249.422 104938.395 -103249.425 104924.936 -103265.869 104756.861 -103471.216 104604.867 -103719.248 104603.148 -103723.165 104603.146 -103723.168 104594.397 -103743.1 104487.941 -103985.614 104486.765 -103989.742 104486.764 -103989.745 104479.921 -104013.767 104408.246 -104265.384 104407.642 -104269.626 104407.641 -104269.632 104385.797 -104423.118 104367.258 -104553.381 104365.735 -104844.277 104366.294 -104848.521 104366.294 -104848.525 104372.899 -104898.694 104403.705 -105132.687 104480.465 -105413.276 104482.149 -105417.224 104565.255 -105612.062 104594.596 -105680.852 104743.985 -105930.462 104746.669 -105933.813 104746.671 -105933.815 104761.114 -105951.843 104925.867 -106157.489 105136.878 -106357.731 105334.194 -106499.517 105353.204 -106513.177 105396.852 -106569.172 105403.298 -106639.875 105370.495 -106702.84 105308.859 -106738.074 105279.678 -106741.5 98384.5 -106741.5 98316.379 -106721.498 98269.886 -106667.842 98258.5 -106615.5 98258.5 -92634.5 98278.502 -92566.379 98332.158 -92519.886 98384.5 -92508.5 105295.893 -92508.5 105364.014 -92528.502"/></g><g id="JRDf_kxd9Edu_bottom_soldermask"><use xlink:href="#JLGb1JRcLKVA_pad-10" x="106500" y="-94550"/><use xlink:href="#JLGb1JRcLKVA_pad-10" x="106500" y="-104710"/><use xlink:href="#JLGb1JRcLKVA_pad-11" x="115390" y="-102800"/><use xlink:href="#JLGb1JRcLKVA_pad-12" x="112850" y="-101530"/><use xlink:href="#JLGb1JRcLKVA_pad-12" x="115390" y="-100260"/><use xlink:href="#JLGb1JRcLKVA_pad-12" x="112850" y="-98990"/><use xlink:href="#JLGb1JRcLKVA_pad-12" x="115390" y="-97720"/><use xlink:href="#JLGb1JRcLKVA_pad-12" x="112850" y="-96450"/><use xlink:href="#JLGb1JRcLKVA_pad-13" x="118999" y="-93941.5"/><use xlink:href="#JLGb1JRcLKVA_pad-13" x="118999" y="-95491.5"/><use xlink:href="#JLGb1JRcLKVA_pad-13" x="124460" y="-93941.5"/><use xlink:href="#JLGb1JRcLKVA_pad-13" x="124460" y="-95491.5"/><use xlink:href="#JLGb1JRcLKVA_pad-14" x="124460" y="-103632"/><use xlink:href="#JLGb1JRcLKVA_pad-14" x="124460" y="-105282"/><use xlink:href="#JLGb1JRcLKVA_pad-15" x="128016" y="-95541.5"/><use xlink:href="#JLGb1JRcLKVA_pad-15" x="128016" y="-93891.5"/><use xlink:href="#JLGb1JRcLKVA_pad-16" x="128000" y="-101473"/><use xlink:href="#JLGb1JRcLKVA_pad-17" x="128000" y="-100203"/><use xlink:href="#JLGb1JRcLKVA_pad-17" x="128000" y="-98933"/><use xlink:href="#JLGb1JRcLKVA_pad-17" x="128000" y="-97663"/><use xlink:href="#JLGb1JRcLKVA_pad-18" x="118575" y="-101473"/><use xlink:href="#JLGb1JRcLKVA_pad-18" x="118575" y="-100203"/><use xlink:href="#JLGb1JRcLKVA_pad-18" x="118575" y="-98933"/><use xlink:href="#JLGb1JRcLKVA_pad-18" x="118575" y="-97663"/><use xlink:href="#JLGb1JRcLKVA_pad-18" x="124925" y="-97663"/><use xlink:href="#JLGb1JRcLKVA_pad-18" x="124925" y="-98933"/><use xlink:href="#JLGb1JRcLKVA_pad-18" x="124925" y="-100203"/><use xlink:href="#JLGb1JRcLKVA_pad-18" x="124925" y="-101473"/><use xlink:href="#JLGb1JRcLKVA_pad-15" x="118999" y="-105282"/><use xlink:href="#JLGb1JRcLKVA_pad-15" x="118999" y="-103632"/><use xlink:href="#JLGb1JRcLKVA_pad-19" x="128588.5" y="-103759"/><use xlink:href="#JLGb1JRcLKVA_pad-19" x="128588.5" y="-105659"/><use xlink:href="#JLGb1JRcLKVA_pad-19" x="126713.5" y="-104709"/></g><g id="JRDf_kxd9Edu_bottom_silkscreen"><path d="M 117959.142 -94575.333 118006.761 -94527.714 118054.38 -94384.857 118054.38 -94289.619 118006.761 -94146.761 117911.523 -94051.523 117816.285 -94003.904 117625.809 -93956.285 117482.952 -93956.285 117292.476 -94003.904 117197.238 -94051.523 117102 -94146.761 117054.38 -94289.619 117054.38 -94384.857 117102 -94527.714 117149.619 -94575.333 M 118054.38 -95527.714 118054.38 -94956.285 M 118054.38 -95242 117054.38 -95242 117197.238 -95146.761 117292.476 -95051.523 117340.095 -94956.285 M 123387.142 -94549.833 123434.761 -94502.214 123482.38 -94359.357 123482.38 -94264.119 123434.761 -94121.261 123339.523 -94026.023 123244.285 -93978.404 123053.809 -93930.785 122910.952 -93930.785 122720.476 -93978.404 122625.238 -94026.023 122530 -94121.261 122482.38 -94264.119 122482.38 -94359.357 122530 -94502.214 122577.619 -94549.833 M 122577.619 -94930.785 122530 -94978.404 122482.38 -95073.642 122482.38 -95311.738 122530 -95406.976 122577.619 -95454.595 122672.857 -95502.214 122768.095 -95502.214 122910.952 -95454.595 123482.38 -94883.166 123482.38 -95502.214 M 123482.38 -104290.333 123006.19 -103957 M 123482.38 -103718.904 122482.38 -103718.904 122482.38 -104099.857 122530 -104195.095 122577.619 -104242.714 122672.857 -104290.333 122815.714 -104290.333 122910.952 -104242.714 122958.571 -104195.095 123006.19 -104099.857 123006.19 -103718.904 M 122482.38 -104623.666 122482.38 -105242.714 122863.333 -104909.38 122863.333 -105052.238 122910.952 -105147.476 122958.571 -105195.095 123053.809 -105242.714 123291.904 -105242.714 123387.142 -105195.095 123434.761 -105147.476 123482.38 -105052.238 123482.38 -104766.523 123434.761 -104671.285 123387.142 -104623.666 M 126944.38 -94549.833 126468.19 -94216.5 M 126944.38 -93978.404 125944.38 -93978.404 125944.38 -94359.357 125992 -94454.595 126039.619 -94502.214 126134.857 -94549.833 126277.714 -94549.833 126372.952 -94502.214 126420.571 -94454.595 126468.19 -94359.357 126468.19 -93978.404 M 126039.619 -94930.785 125992 -94978.404 125944.38 -95073.642 125944.38 -95311.738 125992 -95406.976 126039.619 -95454.595 126134.857 -95502.214 126230.095 -95502.214 126372.952 -95454.595 126944.38 -94883.166 126944.38 -95502.214 M 121202.38 -98806.095 122011.904 -98806.095 122107.142 -98853.714 122154.761 -98901.333 122202.38 -98996.571 122202.38 -99187.047 122154.761 -99282.285 122107.142 -99329.904 122011.904 -99377.523 121202.38 -99377.523 M 122202.38 -100377.523 122202.38 -99806.095 M 122202.38 -100091.809 121202.38 -100091.809 121345.238 -99996.571 121440.476 -99901.333 121488.095 -99806.095 M 118054.38 -104290.333 117578.19 -103957 M 118054.38 -103718.904 117054.38 -103718.904 117054.38 -104099.857 117102 -104195.095 117149.619 -104242.714 117244.857 -104290.333 117387.714 -104290.333 117482.952 -104242.714 117530.571 -104195.095 117578.19 -104099.857 117578.19 -103718.904 M 118054.38 -105242.714 118054.38 -104671.285 M 118054.38 -104957 117054.38 -104957 117197.238 -104861.761 117292.476 -104766.523 117340.095 -104671.285" fill="none" stroke-width="150"/><path d="M 98740 -93030 98620 -93030" fill="none" stroke-width="100"/><path d="M 116620 -93030 107600 -93030" fill="none" stroke-width="120"/><path d="M 98630 -93030 98620 -93030" fill="none" stroke-width="100"/><path d="M 98620 -93030 105400 -93030 M 107600 -106230 116620 -106230 M 114620 -106700 116150 -106700 M 116620 -106230 116620 -93030 M 98620 -93030 98620 -106230 105400 -106230" fill="none" stroke-width="120"/><path d="M 107670 -106230 107600 -106230" fill="none" stroke-width="100"/><path d="M 118489 -94575.92 118489 -94857.08 M 119509 -94575.92 119509 -94857.08 M 123950 -94575.92 123950 -94857.08 M 124970 -94575.92 124970 -94857.08 M 123937.5 -104219.742 123937.5 -104694.258 M 124982.5 -104219.742 124982.5 -104694.258 M 128538.5 -94953.758 128538.5 -94479.242 M 127493.5 -94953.758 127493.5 -94479.242 M 126890 -100713 126890 -96968 M 129110 -100713 129110 -96968 M 126890 -96968 127692.47 -96968 M 126890 -101473 126890 -102233 128000 -102233 M 128307.53 -96968 129110 -96968 M 128563.471 -100713 129110 -100713 M 126890 -100713 127436.529 -100713" fill="none" stroke-width="120"/><path d="M 124036 -97028 119464 -97028 M 124036 -102108 124036 -97028 M 119464 -97028 119464 -102108 124036 -102108 M 122512 -101600 121242 -101600 121242 -102108 M 122512 -102108 122512 -101600" fill="none" stroke-width="150"/><path d="M 119521.5 -104694.258 119521.5 -104219.742 M 118476.5 -104694.258 118476.5 -104219.742 M 127651 -103149 127001 -103149 M 127651 -106269 127001 -106269 M 127651 -103149 129326 -103149 M 127651 -106269 128301 -106269" fill="none" stroke-width="120"/></g><g id="JRDf_kxd9Edu_bottom_drill1" transform="scale(25.4,25.4)"><use xlink:href="#h-1_gaIWTGIa_pad-1" x="4192.9" y="-3722.4"/><use xlink:href="#h-1_gaIWTGIa_pad-1" x="4192.9" y="-4122.4"/></g><g id="JRDf_kxd9Edu_bottom_drill2" transform="scale(25.4,25.4)"><use xlink:href="#FSYuMuERSf-C_pad-1" x="4630" y="-3720"/><use xlink:href="#FSYuMuERSf-C_pad-1" x="4630" y="-4080"/><use xlink:href="#FSYuMuERSf-C_pad-1" x="4630" y="-4145"/><use xlink:href="#FSYuMuERSf-C_pad-1" x="4900" y="-3800"/><use xlink:href="#FSYuMuERSf-C_pad-1" x="4950" y="-4050"/><use xlink:href="#FSYuMuERSf-C_pad-1" x="4960" y="-3710"/><use xlink:href="#FSYuMuERSf-C_pad-1" x="4990" y="-3780"/><use xlink:href="#FSYuMuERSf-C_pad-1" x="5010" y="-4180"/><use xlink:href="#FSYuMuERSf-C_pad-1" x="5020" y="-4080"/><use xlink:href="#FSYuMuERSf-C_pad-2" x="5039.4" y="-3845"/><use xlink:href="#FSYuMuERSf-C_pad-2" x="5039.4" y="-3895"/><use xlink:href="#FSYuMuERSf-C_pad-2" x="5039.4" y="-3945"/><use xlink:href="#FSYuMuERSf-C_pad-2" x="5039.4" y="-3995"/><use xlink:href="#FSYuMuERSf-C_pad-3" x="4442.9" y="-3797.2"/><use xlink:href="#FSYuMuERSf-C_pad-3" x="4442.9" y="-3897.2"/><use xlink:href="#FSYuMuERSf-C_pad-3" x="4442.9" y="-3997.2"/><use xlink:href="#FSYuMuERSf-C_pad-3" x="4542.9" y="-3847.2"/><use xlink:href="#FSYuMuERSf-C_pad-3" x="4542.9" y="-3947.2"/><use xlink:href="#FSYuMuERSf-C_pad-3" x="4542.9" y="-4047.2"/></g><clipPath id="JRDf_kxd9Edu_bottom_outline"><path d="M 129921 -107250 129921 -92000 97750 -92000 97750 -107250 129921 -107250" fill="none" stroke-width="150"/></clipPath><mask id="JRDf_kxd9Edu_bottom_mech-mask"><g fill="#000" stroke="#000"><rect x="97750" y="-107250" width="32171" height="15250" fill="#fff"/><use xlink:href="#JRDf_kxd9Edu_bottom_drill1"/><use xlink:href="#JRDf_kxd9Edu_bottom_drill2"/></g></mask><mask id="JRDf_kxd9Edu_bottom_cf-mask"><g fill="#fff" stroke="#fff"><use xlink:href="#JRDf_kxd9Edu_bottom_soldermask"/></g></mask><mask id="JRDf_kxd9Edu_bottom_sm-mask"><g fill="#000" stroke="#000"><rect x="97750" y="-107250" width="32171" height="15250" fill="#fff"/><use xlink:href="#JRDf_kxd9Edu_bottom_soldermask"/></g></mask></defs><g transform="translate(0,-199250) scale(1,-1)"><g mask="url(#JRDf_kxd9Edu_bottom_mech-mask)" clip-path="url(#JRDf_kxd9Edu_bottom_outline)" transform="translate(227671,0) scale(-1,1)"><rect x="97750" y="-107250" width="32171" height="15250" fill="currentColor" class="JRDf_kxd9Edu_fr4"/><use xlink:href="#JRDf_kxd9Edu_bottom_copper" fill="currentColor" stroke="currentColor" class="JRDf_kxd9Edu_cu"/><use xlink:href="#JRDf_kxd9Edu_bottom_copper" fill="currentColor" stroke="currentColor" class="JRDf_kxd9Edu_cf" mask="url(#JRDf_kxd9Edu_bottom_cf-mask)"/><g mask="url(#JRDf_kxd9Edu_bottom_sm-mask)"><rect x="97750" y="-107250" width="32171" height="15250" fill="currentColor" class="JRDf_kxd9Edu_sm"/><use xlink:href="#JRDf_kxd9Edu_bottom_silkscreen" fill="currentColor" stroke="currentColor" class="JRDf_kxd9Edu_ss"/></g></g></g></svg>