<svg version="1.1" xmlns="http://www.w3.org/2000/svg" xmlns:xlink="http://www.w3.org/1999/xlink" stroke-linecap="round" stroke-linejoin="round" stroke-width="0" fill-rule="evenodd" clip-rule="evenodd" id="JRDf_kxd9Edu_top" viewBox="97750 -107250 32171 15250" width="32.171mm" height="15.25mm"><defs><style>.JRDf_kxd9Edu_fr4 {color: #666666;}
.JRDf_kxd9Edu_cu {color: #cccccc;}
.JRDf_kxd9Edu_cf {color: #cc9933;}
.JRDf_kxd9Edu_sm {color: #004200; opacity: 0.7490196078431373;}
.JRDf_kxd9Edu_ss {color: #ffffff;}
.JRDf_kxd9Edu_sp {color: #999999;}
.JRDf_kxd9Edu_out {color: #000000;}</style><rect x="-760" y="-760" width="1520" height="1520" id="fJIPOM7i4rR3_pad-10"/><circle cx="0" cy="0" r="760" id="fJIPOM7i4rR3_pad-11"/><rect x="-500" y="-500" width="1000" height="1000" id="fJIPOM7i4rR3_pad-12"/><rect x="-500" y="-500" width="1000" height="1000" rx="500" ry="500" id="fJIPOM7i4rR3_pad-13"/><circle cx="0" cy="0" r="400" id="fJIPOM7i4rR3_pad-14"/><circle cx="0" cy="0" r="1825" id="aQiu2ch126b4_pad-10"/><g id="aQiu2ch126b4_pad-11"><polygon points="760,-760 760,760 -760,760 -760,-760"/><circle cx="760" cy="-760" r="200"/><circle cx="760" cy="760" r="200"/><circle cx="-760" cy="760" r="200"/><circle cx="-760" cy="-760" r="200"/><polygon points="960,-760 960,760 560,760 560,-760"/><polygon points="760,560 -760,560 -760,960 760,960"/><polygon points="-560,760 -560,-760 -960,-760 -960,760"/><polygon points="-760,-960 760,-960 760,-560 -760,-560"/></g><circle cx="0" cy="0" r="960" id="aQiu2ch126b4_pad-12"/><g id="aQiu2ch126b4_pad-13"><polygon points="-500,-500 500,-500 500,500 -500,500"/><circle cx="-500" cy="-500" r="200"/><circle cx="500" cy="-500" r="200"/><circle cx="500" cy="500" r="200"/><circle cx="-500" cy="500" r="200"/><polygon points="-500,-700 500,-700 500,-300 -500,-300"/><polygon points="700,-500 700,500 300,500 300,-500"/><polygon points="500,300 -500,300 -500,700 500,700"/><polygon points="-300,500 -300,-500 -700,-500 -700,500"/></g><rect x="-700" y="-700" width="1400" height="1400" rx="700" ry="700" id="aQiu2ch126b4_pad-14"/><circle cx="0" cy="0" r="64" id="h-1_gaIWTGIa_pad-1"/><circle cx="0" cy="0" r="7.85" id="FSYuMuERSf-C_pad-1"/><circle cx="0" cy="0" r="12.8" id="FSYuMuERSf-C_pad-2"/><circle cx="0" cy="0" r="14.95" id="FSYuMuERSf-C_pad-3"/><g id="JRDf_kxd9Edu_top_copper"><use xlink:href="#fJIPOM7i4rR3_pad-10" x="115390" y="-102800"/><use xlink:href="#fJIPOM7i4rR3_pad-11" x="112850" y="-101530"/><use xlink:href="#fJIPOM7i4rR3_pad-11" x="115390" y="-100260"/><use xlink:href="#fJIPOM7i4rR3_pad-11" x="112850" y="-98990"/><use xlink:href="#fJIPOM7i4rR3_pad-11" x="115390" y="-97720"/><use xlink:href="#fJIPOM7i4rR3_pad-11" x="112850" y="-96450"/><use xlink:href="#fJIPOM7i4rR3_pad-12" x="128000" y="-101473"/><use xlink:href="#fJIPOM7i4rR3_pad-13" x="128000" y="-100203"/><use xlink:href="#fJIPOM7i4rR3_pad-13" x="128000" y="-98933"/><use xlink:href="#fJIPOM7i4rR3_pad-13" x="128000" y="-97663"/><use xlink:href="#fJIPOM7i4rR3_pad-14" x="117602" y="-94488"/><use xlink:href="#fJIPOM7i4rR3_pad-14" x="117602" y="-105282"/><use xlink:href="#fJIPOM7i4rR3_pad-14" x="117602" y="-103632"/><use xlink:href="#fJIPOM7i4rR3_pad-14" x="124460" y="-96520"/><use xlink:href="#fJIPOM7i4rR3_pad-14" x="127254" y="-106172"/><use xlink:href="#fJIPOM7i4rR3_pad-14" x="125730" y="-102870"/><use xlink:href="#fJIPOM7i4rR3_pad-14" x="125984" y="-94234"/><use xlink:href="#fJIPOM7i4rR3_pad-14" x="126746" y="-96012"/><use xlink:href="#fJIPOM7i4rR3_pad-14" x="127508" y="-103632"/><path d="M 117602 -98806 118327.001 -99531.001 M 118327.001 -104556.999 118327.001 -99531.001 M 117602 -94488 117602 -98806 M 117602 -105282 118327.001 -104556.999 M 117602 -99932 117602 -103632 M 115390 -97720 117602 -99932 M 125984 -102616 125730 -102870 M 128000 -95684.315 126549.685 -94234 M 125984 -94234 125984 -102616 M 126549.685 -94234 125984 -94234 M 128000 -97663 128000 -95684.315 M 126746 -102870 127508 -103632 M 126746 -96012 126746 -102870" fill="none" stroke-width="250"/><path d="M 129354.621 -92528.502 129401.114 -92582.158 129412.5 -92634.5 129412.5 -106615.5 129392.498 -106683.621 129338.842 -106730.114 129286.5 -106741.5 123626 -106741.5 123557.879 -106721.498 123511.386 -106667.842 123500 -106615.5 123500 -102870 124816.496 -102870 124817.186 -102876.565 124824.826 -102949.251 124836.458 -103059.928 124895.473 -103241.556 124990.96 -103406.944 124995.378 -103411.851 124995.379 -103411.852 125022.589 -103442.072 125118.747 -103548.866 125211.251 -103616.074 125242.207 -103638.565 125273.248 -103661.118 125279.276 -103663.802 125279.278 -103663.803 125441.681 -103736.109 125447.712 -103738.794 125541.112 -103758.647 125628.056 -103777.128 125628.061 -103777.128 125634.513 -103778.5 125825.487 -103778.5 125831.939 -103777.128 125831.944 -103777.128 125918.887 -103758.647 126012.288 -103738.794 126018.319 -103736.109 126180.722 -103663.803 126180.724 -103663.802 126186.752 -103661.118 126217.794 -103638.565 126319.671 -103564.546 126341.253 -103548.866 126345.668 -103543.963 126350.58 -103539.54 126352.614 -103541.799 126401.895 -103511.496 126472.878 -103512.909 126524.076 -103543.98 126560.878 -103580.782 126594.904 -103643.094 126597.092 -103656.703 126597.839 -103663.803 126609.894 -103778.5 126614.458 -103821.928 126673.473 -104003.556 126768.96 -104168.944 126896.747 -104310.866 127051.248 -104423.118 127057.276 -104425.802 127057.278 -104425.803 127219.681 -104498.109 127225.712 -104500.794 127319.113 -104520.647 127406.056 -104539.128 127406.061 -104539.128 127412.513 -104540.5 127603.487 -104540.5 127609.939 -104539.128 127609.944 -104539.128 127696.888 -104520.647 127790.288 -104500.794 127796.319 -104498.109 127958.722 -104425.803 127958.724 -104425.802 127964.752 -104423.118 128119.253 -104310.866 128247.04 -104168.944 128342.527 -104003.556 128401.542 -103821.928 128406.107 -103778.5 128420.814 -103638.565 128421.504 -103632 128416.121 -103580.782 128402.232 -103448.635 128402.232 -103448.633 128401.542 -103442.072 128342.527 -103260.444 128247.04 -103095.056 128221.064 -103066.206 128123.675 -102958.045 128123.674 -102958.044 128119.253 -102953.134 128004.829 -102870 127970.094 -102844.763 127970.093 -102844.762 127964.752 -102840.882 127958.724 -102838.198 127958.722 -102838.197 127796.319 -102765.891 127796.318 -102765.891 127790.288 -102763.206 127635.229 -102730.247 127572.756 -102696.518 127538.434 -102634.369 127543.162 -102563.53 127585.438 -102506.492 127651.839 -102481.365 127661.426 -102481 127727.885 -102481 127743.124 -102476.525 127744.329 -102475.135 127746 -102467.452 127746 -102462.884 128254 -102462.884 128258.475 -102478.123 128259.865 -102479.328 128267.548 -102480.999 128544.669 -102480.999 128551.49 -102480.629 128602.352 -102475.105 128617.604 -102471.479 128738.054 -102426.324 128753.649 -102417.786 128855.724 -102341.285 128868.285 -102328.724 128944.786 -102226.649 128953.324 -102211.054 128998.478 -102090.606 129002.105 -102075.351 129007.631 -102024.486 129008 -102017.672 129008 -101745.115 129003.525 -101729.876 129002.135 -101728.671 128994.452 -101727 128272.115 -101727 128256.876 -101731.475 128255.671 -101732.865 128254 -101740.548 128254 -102462.884 127746 -102462.884 127746 -101345 127766.002 -101276.879 127819.658 -101230.386 127872 -101219 128989.884 -101219 129005.123 -101214.525 129006.328 -101213.135 129007.999 -101205.452 129007.999 -100928.331 129007.629 -100921.51 129002.105 -100870.648 128998.479 -100855.396 128953.324 -100734.946 128940.478 -100711.483 128942.602 -100710.32 128922.313 -100656.007 128928.429 -100607.183 128986.25 -100433.365 128988.197 -100427.513 129012.985 -100231.295 129013.38 -100203 128994.08 -100006.167 128936.916 -99816.831 128844.066 -99642.204 128840.167 -99637.424 128839.715 -99636.743 128818.676 -99568.935 128835.105 -99504.775 128922.723 -99350.542 128922.725 -99350.537 128925.769 -99345.179 128988.197 -99157.513 129012.985 -98961.295 129013.38 -98933 128994.08 -98736.167 128936.916 -98546.831 128844.066 -98372.204 128840.167 -98367.424 128839.715 -98366.743 128818.676 -98298.935 128835.105 -98234.775 128922.723 -98080.542 128922.725 -98080.537 128925.769 -98075.179 128988.197 -97887.513 129012.985 -97691.295 129013.38 -97663 128994.08 -97466.167 128936.916 -97276.831 128844.066 -97102.204 128773.709 -97015.938 128722.96 -96953.713 128722.957 -96953.71 128719.065 -96948.938 128679.184 -96915.945 128639.446 -96857.111 128633.5 -96818.861 128633.5 -95763.082 128634.027 -95751.899 128635.702 -95744.406 128633.562 -95676.329 128633.5 -95672.37 128633.5 -95644.459 128632.995 -95640.459 128632.062 -95628.616 128630.922 -95592.344 128630.673 -95584.425 128625.022 -95564.973 128621.014 -95545.621 128619.467 -95533.378 128618.474 -95525.518 128615.556 -95518.147 128602.2 -95484.412 128598.355 -95473.185 128597.721 -95471.002 128586.018 -95430.722 128575.707 -95413.287 128567.012 -95395.539 128559.552 -95376.698 128533.564 -95340.928 128527.048 -95331.008 128508.58 -95299.78 128508.578 -95299.777 128504.542 -95292.953 128490.221 -95278.632 128477.38 -95263.598 128470.131 -95253.621 128465.472 -95247.208 128431.395 -95219.017 128422.616 -95211.027 127053.337 -93841.747 127045.797 -93833.461 127041.685 -93826.982 126992.033 -93780.356 126989.192 -93777.602 126969.455 -93757.865 126966.258 -93755.385 126957.236 -93747.68 126930.785 -93722.841 126925.006 -93717.414 126918.06 -93713.595 126918.057 -93713.593 126907.251 -93707.652 126890.732 -93696.801 126884.733 -93692.148 126874.726 -93684.386 126867.457 -93681.241 126867.453 -93681.238 126834.148 -93666.826 126823.498 -93661.609 126784.745 -93640.305 126765.122 -93635.267 126746.419 -93628.863 126735.105 -93623.967 126735.104 -93623.967 126727.83 -93620.819 126720.005 -93619.58 126720.003 -93619.579 126697.497 -93616.014 126686.25 -93614.233 126622.097 -93583.82 126612.329 -93574.099 126595.253 -93555.134 126440.752 -93442.882 126434.724 -93440.198 126434.722 -93440.197 126272.319 -93367.891 126272.318 -93367.891 126266.288 -93365.206 126172.888 -93345.353 126085.944 -93326.872 126085.939 -93326.872 126079.487 -93325.5 125888.513 -93325.5 125882.061 -93326.872 125882.056 -93326.872 125795.113 -93345.353 125701.712 -93365.206 125695.682 -93367.891 125695.681 -93367.891 125533.278 -93440.197 125533.276 -93440.198 125527.248 -93442.882 125372.747 -93555.134 125368.329 -93560.041 125368.325 -93560.045 125259.203 -93681.238 125244.96 -93697.056 125149.473 -93862.444 125090.458 -94044.072 125070.496 -94234 125090.458 -94423.928 125149.473 -94605.556 125244.96 -94770.944 125318.137 -94852.215 125348.853 -94916.221 125350.5 -94936.524 125350.5 -101962.661 125330.498 -102030.782 125283.82 -102070.847 125285.001 -102072.893 125279.278 -102076.197 125273.248 -102078.882 125118.747 -102191.134 124990.96 -102333.056 124987.659 -102338.774 124905.334 -102481.365 124895.473 -102498.444 124836.458 -102680.072 124835.768 -102686.633 124835.768 -102686.635 124827.72 -102763.206 124816.496 -102870 123500 -102870 123500 -92634.5 123520.002 -92566.379 123573.658 -92519.886 123626 -92508.5 129286.5 -92508.5 129354.621 -92528.502"/><path d="M 105364.014 -92528.502 105410.507 -92582.158 105420.611 -92652.432 105391.117 -92717.012 105368.344 -92737.587 105157.713 -92885.621 105157.707 -92885.626 105154.208 -92888.085 104941.112 -93086.106 104938.398 -93089.422 104938.395 -93089.425 104924.936 -93105.869 104756.861 -93311.216 104604.867 -93559.248 104603.148 -93563.165 104603.146 -93563.168 104595.977 -93579.5 104487.941 -93825.614 104486.765 -93829.742 104486.764 -93829.745 104462.218 -93915.913 104408.246 -94105.384 104407.642 -94109.626 104407.641 -94109.632 104405.125 -94127.313 104367.258 -94393.381 104367.141 -94415.723 104365.803 -94671.365 104365.735 -94684.277 104403.705 -94972.687 104480.465 -95253.276 104482.149 -95257.224 104539.917 -95392.658 104594.596 -95520.852 104743.985 -95770.462 104746.669 -95773.813 104746.671 -95773.815 104833.907 -95882.703 104925.867 -95997.489 105136.878 -96197.731 105373.113 -96367.483 105398.924 -96381.149 105522.644 -96446.655 105630.2 -96503.603 105634.223 -96505.075 105634.227 -96505.077 105899.351 -96602.099 105903.382 -96603.574 106187.604 -96665.544 106216.65 -96667.83 106413.297 -96683.307 106413.304 -96683.307 106415.753 -96683.5 106573.121 -96683.5 106575.257 -96683.354 106575.268 -96683.354 106785.949 -96668.991 106785.955 -96668.99 106790.226 -96668.699 106794.421 -96667.83 106794.423 -96667.83 106932.653 -96639.204 107075.081 -96609.709 107318.678 -96523.447 107345.254 -96514.036 107349.295 -96512.605 107459.982 -96455.475 111577.635 -96455.475 111596.013 -96665.544 111597.917 -96676.34 111652.495 -96880.028 111656.241 -96890.32 111745.359 -97081.435 111750.842 -97090.931 111781.23 -97134.329 111791.707 -97142.704 111805.155 -97135.635 112477.978 -96462.812 112484.356 -96451.132 113214.408 -96451.132 113214.539 -96452.965 113218.79 -96459.58 113895.567 -97136.357 113907.342 -97142.787 113919.357 -97133.491 113949.158 -97090.931 113954.641 -97081.435 114043.759 -96890.32 114047.505 -96880.028 114102.083 -96676.34 114103.987 -96665.544 114122.365 -96455.475 114122.365 -96444.525 114103.986 -96234.453 114102.083 -96223.66 114047.505 -96019.972 114043.759 -96009.68 113954.641 -95818.565 113949.158 -95809.069 113918.77 -95765.671 113908.293 -95757.296 113894.845 -95764.365 113222.022 -96437.188 113214.408 -96451.132 112484.356 -96451.132 112485.592 -96448.868 112485.461 -96447.035 112481.21 -96440.42 111804.433 -95763.643 111792.658 -95757.213 111780.643 -95766.509 111750.842 -95809.069 111745.359 -95818.565 111656.241 -96009.68 111652.495 -96019.972 111597.917 -96223.66 111596.014 -96234.453 111577.635 -96444.525 111577.635 -96455.475 107459.982 -96455.475 107607.793 -96379.184 107611.294 -96376.723 107611.298 -96376.721 107726.792 -96295.55 107845.792 -96211.915 107981.873 -96085.461 108055.745 -96016.815 108055.748 -96016.812 108058.888 -96013.894 108062.338 -96009.68 108240.423 -95792.102 108243.139 -95788.784 108395.133 -95540.752 108403.869 -95520.852 108460.559 -95391.707 112157.296 -95391.707 112164.365 -95405.155 112837.188 -96077.978 112851.132 -96085.592 112852.965 -96085.461 112859.58 -96081.21 113536.357 -95404.433 113542.787 -95392.658 113533.491 -95380.643 113490.931 -95350.842 113481.435 -95345.359 113290.32 -95256.241 113280.028 -95252.495 113076.34 -95197.917 113065.547 -95196.014 112855.475 -95177.635 112844.525 -95177.635 112634.453 -95196.014 112623.66 -95197.917 112419.972 -95252.495 112409.68 -95256.241 112218.565 -95345.359 112209.069 -95350.842 112165.671 -95381.23 112157.296 -95391.707 108460.559 -95391.707 108510.334 -95278.315 108512.059 -95274.386 108518.073 -95253.276 108555.353 -95122.403 108591.754 -94994.616 108594.286 -94976.829 108632.137 -94710.87 108632.742 -94706.619 108634.265 -94415.723 108596.295 -94127.313 108519.535 -93846.724 108454.477 -93694.197 108407.09 -93583.1 108407.088 -93583.096 108405.404 -93579.148 108256.015 -93329.538 108241.337 -93311.216 108076.823 -93105.869 108074.133 -93102.511 107863.122 -92902.269 107632.878 -92736.822 107589.231 -92680.828 107582.785 -92610.125 107615.588 -92547.16 107677.224 -92511.926 107706.405 -92508.5 119874 -92508.5 119942.121 -92528.502 119988.614 -92582.158 120000 -92634.5 120000 -106615.5 119979.998 -106683.621 119926.342 -106730.114 119874 -106741.5 107718.335 -106741.5 107650.214 -106721.498 107603.721 -106667.842 107593.617 -106597.568 107623.111 -106532.988 107645.884 -106512.413 107845.792 -106371.915 108041.018 -106190.5 108055.745 -106176.815 108055.748 -106176.812 108058.888 -106173.894 108069.895 -106160.447 108233.25 -105960.866 108243.139 -105948.784 108395.133 -105700.752 108403.869 -105680.852 108510.334 -105438.315 108512.059 -105434.386 108518.073 -105413.276 108537.782 -105344.087 108591.754 -105154.616 108594.286 -105136.829 108632.137 -104870.87 108632.742 -104866.619 108634.102 -104606.857 108634.243 -104580.009 108634.243 -104580.003 108634.265 -104575.723 108633.402 -104569.164 108614.174 -104423.118 108596.295 -104287.313 108519.535 -104006.724 108480.873 -103916.082 108407.09 -103743.1 108407.088 -103743.096 108405.404 -103739.148 108256.015 -103489.538 108241.337 -103471.216 108076.823 -103265.869 108074.133 -103262.511 107863.122 -103062.269 107626.887 -102892.517 107369.8 -102756.397 107365.777 -102754.925 107365.773 -102754.923 107100.649 -102657.901 107100.647 -102657.9 107096.618 -102656.426 106812.396 -102594.456 106768.598 -102591.009 106586.703 -102576.693 106586.696 -102576.693 106584.247 -102576.5 106426.879 -102576.5 106424.743 -102576.646 106424.732 -102576.646 106214.051 -102591.009 106214.045 -102591.01 106209.774 -102591.301 106205.579 -102592.17 106205.577 -102592.17 106190.13 -102595.369 105924.919 -102650.291 105650.705 -102747.395 105392.207 -102880.816 105388.706 -102883.277 105388.702 -102883.279 105375.558 -102892.517 105154.208 -103048.085 104941.112 -103246.106 104938.398 -103249.422 104938.395 -103249.425 104924.936 -103265.869 104756.861 -103471.216 104604.867 -103719.248 104603.148 -103723.165 104603.146 -103723.168 104594.397 -103743.1 104487.941 -103985.614 104486.765 -103989.742 104486.764 -103989.745 104479.921 -104013.767 104408.246 -104265.384 104407.642 -104269.626 104407.641 -104269.632 104387.481 -104411.287 104367.258 -104553.381 104367.018 -104599.251 104366.049 -104784.377 104365.735 -104844.277 104366.294 -104848.521 104366.294 -104848.525 104376.411 -104925.371 104403.705 -105132.687 104480.465 -105413.276 104594.596 -105680.852 104743.985 -105930.462 104746.669 -105933.813 104746.671 -105933.815 104768.343 -105960.866 104925.867 -106157.489 105136.878 -106357.731 105334.194 -106499.517 105353.204 -106513.177 105396.852 -106569.172 105403.298 -106639.875 105370.495 -106702.84 105308.859 -106738.074 105279.678 -106741.5 98384.5 -106741.5 98316.379 -106721.498 98269.886 -106667.842 98258.5 -106615.5 98258.5 -101530 111576.655 -101530 111596 -101751.114 111653.447 -101965.51 111655.769 -101970.49 111655.77 -101970.492 111744.925 -102161.685 111744.928 -102161.69 111747.251 -102166.672 111750.407 -102171.179 111750.408 -102171.181 111858.318 -102325.292 111874.561 -102348.49 112031.51 -102505.439 112036.018 -102508.596 112036.021 -102508.598 112111.687 -102561.58 112213.327 -102632.749 112218.309 -102635.072 112218.314 -102635.075 112409.508 -102724.23 112414.49 -102726.553 112419.798 -102727.975 112419.8 -102727.976 112623.571 -102782.576 112623.573 -102782.576 112628.886 -102784 112850 -102803.345 113071.114 -102784 113076.427 -102782.576 113076.429 -102782.576 113280.2 -102727.976 113280.202 -102727.975 113285.51 -102726.553 113290.492 -102724.23 113481.686 -102635.075 113481.691 -102635.072 113486.673 -102632.749 113588.313 -102561.58 113663.979 -102508.598 113663.982 -102508.596 113668.49 -102505.439 113825.439 -102348.49 113841.683 -102325.292 113892.287 -102253.021 113947.744 -102208.693 114018.363 -102201.384 114081.724 -102233.415 114117.709 -102294.616 114121.5 -102325.292 114121.5 -103608.134 114128.255 -103670.316 114179.385 -103806.705 114266.739 -103923.261 114383.295 -104010.615 114519.684 -104061.745 114581.866 -104068.5 116198.134 -104068.5 116260.316 -104061.745 116396.705 -104010.615 116513.261 -103923.261 116526.769 -103905.237 116583.627 -103862.722 116654.446 -103857.696 116716.739 -103891.755 116747.428 -103941.865 116767.473 -104003.556 116770.776 -104009.278 116770.777 -104009.279 116801.561 -104062.598 116862.96 -104168.944 116990.747 -104310.866 117044.098 -104349.628 117051.58 -104355.064 117094.934 -104411.287 117101.009 -104482.023 117067.877 -104544.814 117051.58 -104558.936 116990.747 -104603.134 116986.326 -104608.044 116986.325 -104608.045 116978.465 -104616.775 116862.96 -104745.056 116767.473 -104910.444 116708.458 -105092.072 116707.768 -105098.633 116707.768 -105098.635 116704.189 -105132.687 116688.496 -105282 116708.458 -105471.928 116767.473 -105653.556 116862.96 -105818.944 116990.747 -105960.866 117145.248 -106073.118 117151.276 -106075.802 117151.278 -106075.803 117313.681 -106148.109 117319.712 -106150.794 117412.774 -106170.575 117500.056 -106189.128 117500.061 -106189.128 117506.513 -106190.5 117697.487 -106190.5 117703.939 -106189.128 117703.944 -106189.128 117791.226 -106170.575 117884.288 -106150.794 117890.319 -106148.109 118052.722 -106075.803 118052.724 -106075.802 118058.752 -106073.118 118213.253 -105960.866 118341.04 -105818.944 118436.527 -105653.556 118495.542 -105471.928 118512.907 -105306.706 118539.92 -105241.05 118549.122 -105230.782 118719.248 -105060.656 118727.538 -105053.112 118734.019 -105048.999 118780.66 -104999.331 118783.414 -104996.49 118803.135 -104976.769 118805.613 -104973.574 118813.319 -104964.552 118838.159 -104938.1 118843.587 -104932.32 118853.347 -104914.567 118864.2 -104898.044 118871.754 -104888.305 118876.614 -104882.04 118894.177 -104841.456 118899.384 -104830.826 118920.696 -104792.059 118922.667 -104784.382 118922.669 -104784.377 118925.733 -104772.441 118932.139 -104753.729 118935.893 -104745.056 118940.182 -104735.144 118941.422 -104727.316 118941.424 -104727.309 118947.1 -104691.475 118949.506 -104679.855 118958.529 -104644.71 118958.529 -104644.709 118960.501 -104637.029 118960.501 -104616.775 118962.052 -104597.064 118963.981 -104584.885 118965.221 -104577.056 118961.06 -104533.037 118960.501 -104521.18 118960.501 -99609.768 118961.028 -99598.585 118962.703 -99591.092 118962.155 -99573.643 118960.563 -99523.015 118960.501 -99519.056 118960.501 -99491.145 118959.996 -99487.145 118959.063 -99475.302 118957.923 -99439.03 118957.674 -99431.111 118952.023 -99411.659 118948.015 -99392.307 118946.468 -99380.064 118945.475 -99372.204 118942.557 -99364.833 118929.201 -99331.098 118925.356 -99319.871 118924.722 -99317.688 118913.019 -99277.408 118908.985 -99270.586 118908.982 -99270.58 118902.707 -99259.969 118894.011 -99242.219 118889.473 -99230.757 118889.47 -99230.752 118886.553 -99223.384 118860.574 -99187.626 118854.058 -99177.708 118835.576 -99146.458 118831.543 -99139.638 118817.219 -99125.314 118804.377 -99110.279 118792.473 -99093.894 118758.407 -99065.712 118749.628 -99057.723 118272.405 -98580.5 118238.379 -98518.188 118235.5 -98491.405 118235.5 -95190.524 118255.502 -95122.403 118267.858 -95106.221 118341.04 -95024.944 118436.527 -94859.556 118495.542 -94677.928 118515.504 -94488 118508.358 -94420.009 118496.232 -94304.635 118496.232 -94304.633 118495.542 -94298.072 118436.527 -94116.444 118430.142 -94105.384 118344.341 -93956.774 118341.04 -93951.056 118213.253 -93809.134 118058.752 -93696.882 118052.724 -93694.198 118052.722 -93694.197 117890.319 -93621.891 117890.318 -93621.891 117884.288 -93619.206 117790.887 -93599.353 117703.944 -93580.872 117703.939 -93580.872 117697.487 -93579.5 117506.513 -93579.5 117500.061 -93580.872 117500.056 -93580.872 117413.113 -93599.353 117319.712 -93619.206 117313.682 -93621.891 117313.681 -93621.891 117151.278 -93694.197 117151.276 -93694.198 117145.248 -93696.882 116990.747 -93809.134 116862.96 -93951.056 116859.659 -93956.774 116773.859 -94105.384 116767.473 -94116.444 116708.458 -94298.072 116707.768 -94304.633 116707.768 -94304.635 116695.642 -94420.009 116688.496 -94488 116708.458 -94677.928 116767.473 -94859.556 116862.96 -95024.944 116936.137 -95106.215 116966.853 -95170.221 116968.5 -95190.524 116968.5 -98098.405 116948.498 -98166.526 116894.842 -98213.019 116824.568 -98223.123 116759.988 -98193.629 116753.405 -98187.5 116666.492 -98100.587 116632.466 -98038.275 116633.881 -97978.88 116642.575 -97946.436 116642.577 -97946.425 116644 -97941.114 116663.345 -97720 116644 -97498.886 116586.553 -97284.49 116584.23 -97279.508 116495.075 -97088.315 116495.072 -97088.31 116492.749 -97083.328 116365.439 -96901.51 116208.49 -96744.561 116203.982 -96741.404 116203.979 -96741.402 116121.01 -96683.307 116026.673 -96617.251 116021.691 -96614.928 116021.686 -96614.925 115830.492 -96525.77 115830.491 -96525.769 115825.51 -96523.447 115820.202 -96522.025 115820.2 -96522.024 115616.429 -96467.424 115616.427 -96467.424 115611.114 -96466 115390 -96446.655 115168.886 -96466 115163.573 -96467.424 115163.571 -96467.424 114959.8 -96522.024 114959.798 -96522.025 114954.49 -96523.447 114949.51 -96525.769 114949.508 -96525.77 114758.315 -96614.925 114758.31 -96614.928 114753.328 -96617.251 114748.821 -96620.407 114748.819 -96620.408 114576.021 -96741.402 114576.018 -96741.404 114571.51 -96744.561 114414.561 -96901.51 114287.251 -97083.328 114284.928 -97088.31 114284.925 -97088.315 114195.77 -97279.508 114193.447 -97284.49 114136 -97498.886 114116.655 -97720 114136 -97941.114 114137.424 -97946.427 114137.424 -97946.429 114164.948 -98049.148 114193.447 -98155.51 114195.769 -98160.49 114195.77 -98160.492 114284.925 -98351.685 114284.928 -98351.69 114287.251 -98356.672 114290.407 -98361.179 114290.408 -98361.181 114381.592 -98491.405 114414.561 -98538.49 114571.51 -98695.439 114576.018 -98698.596 114576.021 -98698.598 114651.687 -98751.58 114753.327 -98822.749 114758.309 -98825.072 114758.314 -98825.075 114867.697 -98876.081 114920.982 -98922.999 114940.443 -98991.276 114919.901 -99059.236 114867.696 -99104.471 114758.569 -99155.357 114749.069 -99160.842 114705.671 -99191.23 114697.296 -99201.707 114704.365 -99215.155 116435.567 -100946.357 116447.342 -100952.787 116459.357 -100943.491 116489.158 -100900.931 116494.641 -100891.435 116583.759 -100700.32 116587.505 -100690.028 116642.083 -100486.34 116643.986 -100475.547 116662.365 -100265.475 116662.365 -100254.515 116657.422 -100198.018 116671.41 -100128.413 116720.809 -100077.421 116789.935 -100061.23 116856.841 -100084.982 116872.037 -100097.941 116931.595 -100157.499 116965.621 -100219.811 116968.5 -100246.594 116968.5 -102929.476 116948.498 -102997.597 116936.142 -103013.779 116878.135 -103078.203 116817.69 -103115.441 116746.706 -103114.089 116687.722 -103074.575 116659.464 -103009.444 116658.5 -102993.891 116658.5 -101991.866 116651.745 -101929.684 116600.615 -101793.295 116513.261 -101676.739 116396.705 -101589.385 116260.316 -101538.255 116198.134 -101531.5 116174.303 -101531.5 116106.182 -101511.498 116059.689 -101457.842 116049.585 -101387.568 116075.881 -101326.83 116082.704 -101318.294 116075.635 -101304.845 115402.812 -100632.022 115388.868 -100624.408 115387.035 -100624.539 115380.42 -100628.79 114703.643 -101305.567 114697.213 -101317.342 114705.768 -101328.4 114731.631 -101394.518 114717.643 -101464.123 114668.244 -101515.115 114606.111 -101531.5 114581.866 -101531.5 114519.684 -101538.255 114383.295 -101589.385 114376.11 -101594.77 114376.108 -101594.771 114324.431 -101633.501 114257.924 -101658.349 114188.542 -101643.296 114138.312 -101593.122 114123.048 -101533.389 114123.345 -101530 114104 -101308.886 114046.553 -101094.49 114044.23 -101089.508 113955.075 -100898.315 113955.072 -100898.31 113952.749 -100893.328 113825.439 -100711.51 113668.49 -100554.561 113663.982 -100551.404 113663.979 -100551.402 113588.313 -100498.42 113486.673 -100427.251 113481.691 -100424.928 113481.686 -100424.925 113372.894 -100374.195 113319.609 -100327.278 113301.994 -100265.475 114117.635 -100265.475 114136.014 -100475.547 114137.917 -100486.34 114192.495 -100690.028 114196.241 -100700.32 114285.359 -100891.435 114290.842 -100900.931 114321.23 -100944.329 114331.707 -100952.704 114345.155 -100945.635 115017.978 -100272.812 115025.592 -100258.868 115025.461 -100257.035 115021.21 -100250.42 114344.433 -99573.643 114332.658 -99567.213 114320.643 -99576.509 114290.842 -99619.069 114285.359 -99628.565 114196.241 -99819.68 114192.495 -99829.972 114137.917 -100033.66 114136.014 -100044.453 114117.635 -100254.525 114117.635 -100265.475 113301.994 -100265.475 113300.148 -100259 113320.69 -100191.041 113372.894 -100145.805 113481.686 -100095.075 113481.691 -100095.072 113486.673 -100092.749 113588.313 -100021.58 113663.979 -99968.598 113663.982 -99968.596 113668.49 -99965.439 113825.439 -99808.49 113952.749 -99626.672 113955.072 -99621.69 113955.075 -99621.685 114044.23 -99430.492 114044.231 -99430.49 114046.553 -99425.51 114050.265 -99411.659 114102.576 -99216.429 114102.576 -99216.427 114104 -99211.114 114123.345 -98990 114104 -98768.886 114102.576 -98763.571 114047.976 -98559.8 114047.975 -98559.798 114046.553 -98554.49 113956.411 -98361.181 113955.075 -98358.315 113955.072 -98358.31 113952.749 -98353.328 113840.927 -98193.629 113828.598 -98176.021 113828.596 -98176.018 113825.439 -98171.51 113668.49 -98014.561 113663.982 -98011.404 113663.979 -98011.402 113555.771 -97935.634 113486.673 -97887.251 113481.691 -97884.928 113481.686 -97884.925 113372.303 -97833.919 113319.018 -97787.001 113299.557 -97718.724 113320.099 -97650.764 113372.304 -97605.529 113481.431 -97554.643 113490.931 -97549.158 113534.329 -97518.77 113542.704 -97508.293 113535.635 -97494.845 112862.812 -96822.022 112848.868 -96814.408 112847.035 -96814.539 112840.42 -96818.79 112163.643 -97495.567 112157.213 -97507.342 112166.509 -97519.357 112209.069 -97549.158 112218.565 -97554.641 112327.697 -97605.53 112380.982 -97652.448 112400.443 -97720.725 112379.901 -97788.685 112327.698 -97833.919 112273.878 -97859.016 112218.315 -97884.925 112218.31 -97884.928 112213.328 -97887.251 112208.821 -97890.407 112208.819 -97890.408 112036.021 -98011.402 112036.018 -98011.404 112031.51 -98014.561 111874.561 -98171.51 111871.404 -98176.018 111871.402 -98176.021 111859.073 -98193.629 111747.251 -98353.328 111744.928 -98358.31 111744.925 -98358.315 111743.589 -98361.181 111653.447 -98554.49 111652.025 -98559.798 111652.024 -98559.8 111597.424 -98763.571 111596 -98768.886 111576.655 -98990 111596 -99211.114 111597.424 -99216.427 111597.424 -99216.429 111649.736 -99411.659 111653.447 -99425.51 111655.769 -99430.49 111655.77 -99430.492 111744.925 -99621.685 111744.928 -99621.69 111747.251 -99626.672 111874.561 -99808.49 112031.51 -99965.439 112036.018 -99968.596 112036.021 -99968.598 112111.687 -100021.58 112213.327 -100092.749 112218.309 -100095.072 112218.314 -100095.075 112327.106 -100145.805 112380.391 -100192.722 112399.852 -100261 112379.31 -100328.959 112327.106 -100374.195 112218.315 -100424.925 112218.31 -100424.928 112213.328 -100427.251 112208.821 -100430.407 112208.819 -100430.408 112036.021 -100551.402 112036.018 -100551.404 112031.51 -100554.561 111874.561 -100711.51 111747.251 -100893.328 111744.928 -100898.31 111744.925 -100898.315 111655.77 -101089.508 111653.447 -101094.49 111596 -101308.886 111576.655 -101530 98258.5 -101530 98258.5 -92634.5 98278.502 -92566.379 98332.158 -92519.886 98384.5 -92508.5 105295.893 -92508.5 105364.014 -92528.502"/></g><g id="JRDf_kxd9Edu_top_soldermask"><use xlink:href="#aQiu2ch126b4_pad-10" x="106500" y="-94550"/><use xlink:href="#aQiu2ch126b4_pad-10" x="106500" y="-104710"/><use xlink:href="#aQiu2ch126b4_pad-11" x="115390" y="-102800"/><use xlink:href="#aQiu2ch126b4_pad-12" x="112850" y="-101530"/><use xlink:href="#aQiu2ch126b4_pad-12" x="115390" y="-100260"/><use xlink:href="#aQiu2ch126b4_pad-12" x="112850" y="-98990"/><use xlink:href="#aQiu2ch126b4_pad-12" x="115390" y="-97720"/><use xlink:href="#aQiu2ch126b4_pad-12" x="112850" y="-96450"/><use xlink:href="#aQiu2ch126b4_pad-13" x="128000" y="-101473"/><use xlink:href="#aQiu2ch126b4_pad-14" x="128000" y="-100203"/><use xlink:href="#aQiu2ch126b4_pad-14" x="128000" y="-98933"/><use xlink:href="#aQiu2ch126b4_pad-14" x="128000" y="-97663"/></g><g id="JRDf_kxd9Edu_top_silkscreen"><path d="M 119143.857 -102853.714 119215.285 -102639.428 119286.714 -102568 119429.571 -102496.571 119643.857 -102496.571 119786.714 -102568 119858.142 -102639.428 119929.571 -102782.285 119929.571 -103353.714 118429.571 -103353.714 118429.571 -102853.714 118501 -102710.857 118572.428 -102639.428 118715.285 -102568 118858.142 -102568 119001 -102639.428 119072.428 -102710.857 119143.857 -102853.714 119143.857 -103353.714 M 119929.571 -101210.857 119143.857 -101210.857 119001 -101282.285 118929.571 -101425.142 118929.571 -101710.857 119001 -101853.714 M 119858.142 -101210.857 119929.571 -101353.714 119929.571 -101710.857 119858.142 -101853.714 119715.285 -101925.142 119572.428 -101925.142 119429.571 -101853.714 119358.142 -101710.857 119358.142 -101353.714 119286.714 -101210.857 M 119858.142 -100568 119929.571 -100425.142 119929.571 -100139.428 119858.142 -99996.571 119715.285 -99925.142 119643.857 -99925.142 119501 -99996.571 119429.571 -100139.428 119429.571 -100353.714 119358.142 -100496.571 119215.285 -100568 119143.857 -100568 119001 -100496.571 118929.571 -100353.714 118929.571 -100139.428 119001 -99996.571 M 119929.571 -99282.285 118929.571 -99282.285 M 118429.571 -99282.285 118501 -99353.714 118572.428 -99282.285 118501 -99210.857 118429.571 -99282.285 118572.428 -99282.285 M 119929.571 -98353.714 119858.142 -98496.571 119715.285 -98568 118429.571 -98568 M 119143.857 -97282.285 119143.857 -97782.285 M 119929.571 -97782.285 118429.571 -97782.285 118429.571 -97068 M 118429.571 -96639.428 119929.571 -95639.428 M 118429.571 -95639.428 119929.571 -96639.428 M 120844.571 -103996.571 120844.571 -103853.714 120916 -103710.857 120987.428 -103639.428 121130.285 -103568 121416 -103496.571 121773.142 -103496.571 122058.857 -103568 122201.714 -103639.428 122273.142 -103710.857 122344.571 -103853.714 122344.571 -103996.571 122273.142 -104139.428 122201.714 -104210.857 122058.857 -104282.285 121773.142 -104353.714 121416 -104353.714 121130.285 -104282.285 120987.428 -104210.857 120916 -104139.428 120844.571 -103996.571 M 122344.571 -102782.285 122344.571 -102496.571 122273.142 -102353.714 122201.714 -102282.285 121987.428 -102139.428 121701.714 -102068 121130.285 -102068 120987.428 -102139.428 120916 -102210.857 120844.571 -102353.714 120844.571 -102639.428 120916 -102782.285 120987.428 -102853.714 121130.285 -102925.142 121487.428 -102925.142 121630.285 -102853.714 121701.714 -102782.285 121773.142 -102639.428 121773.142 -102353.714 121701.714 -102210.857 121630.285 -102139.428 121487.428 -102068 M 120773.142 -100353.714 122701.714 -101639.428 M 120987.428 -99925.142 120916 -99853.714 120844.571 -99710.857 120844.571 -99353.714 120916 -99210.857 120987.428 -99139.428 121130.285 -99068 121273.142 -99068 121487.428 -99139.428 122344.571 -99996.571 122344.571 -99068 M 120844.571 -98139.428 120844.571 -97996.571 120916 -97853.714 120987.428 -97782.285 121130.285 -97710.857 121416 -97639.428 121773.142 -97639.428 122058.857 -97710.857 122201.714 -97782.285 122273.142 -97853.714 122344.571 -97996.571 122344.571 -98139.428 122273.142 -98282.285 122201.714 -98353.714 122058.857 -98425.142 121773.142 -98496.571 121416 -98496.571 121130.285 -98425.142 120987.428 -98353.714 120916 -98282.285 120844.571 -98139.428 M 120987.428 -97068 120916 -96996.571 120844.571 -96853.714 120844.571 -96496.571 120916 -96353.714 120987.428 -96282.285 121130.285 -96210.857 121273.142 -96210.857 121487.428 -96282.285 122344.571 -97139.428 122344.571 -96210.857 M 120987.428 -95639.428 120916 -95568 120844.571 -95425.142 120844.571 -95068 120916 -94925.142 120987.428 -94853.714 121130.285 -94782.285 121273.142 -94782.285 121487.428 -94853.714 122344.571 -95710.857 122344.571 -94782.285 M 123259.571 -102925.142 124759.571 -102425.142 123259.571 -101925.142 M 124759.571 -100639.428 124759.571 -101496.571 M 124759.571 -101068 123259.571 -101068 123473.857 -101210.857 123616.714 -101353.714 123688.142 -101496.571 M 124616.714 -99996.571 124688.142 -99925.142 124759.571 -99996.571 124688.142 -100068 124616.714 -99996.571 124759.571 -99996.571 M 123402.428 -99353.714 123331 -99282.285 123259.571 -99139.428 123259.571 -98782.285 123331 -98639.428 123402.428 -98568 123545.285 -98496.571 123688.142 -98496.571 123902.428 -98568 124759.571 -99425.142 124759.571 -98496.571 M 124616.714 -97853.714 124688.142 -97782.285 124759.571 -97853.714 124688.142 -97925.142 124616.714 -97853.714 124759.571 -97853.714 M 123259.571 -96853.714 123259.571 -96710.857 123331 -96568 123402.428 -96496.571 123545.285 -96425.142 123831 -96353.714 124188.142 -96353.714 124473.857 -96425.142 124616.714 -96496.571 124688.142 -96568 124759.571 -96710.857 124759.571 -96853.714 124688.142 -96996.571 124616.714 -97068 124473.857 -97139.428 124188.142 -97210.857 123831 -97210.857 123545.285 -97139.428 123402.428 -97068 123331 -96996.571 123259.571 -96853.714" fill="none" stroke-width="300"/></g><g id="JRDf_kxd9Edu_top_drill1" transform="scale(25.4,25.4)"><use xlink:href="#h-1_gaIWTGIa_pad-1" x="4192.9" y="-3722.4"/><use xlink:href="#h-1_gaIWTGIa_pad-1" x="4192.9" y="-4122.4"/></g><g id="JRDf_kxd9Edu_top_drill2" transform="scale(25.4,25.4)"><use xlink:href="#FSYuMuERSf-C_pad-1" x="4630" y="-3720"/><use xlink:href="#FSYuMuERSf-C_pad-1" x="4630" y="-4080"/><use xlink:href="#FSYuMuERSf-C_pad-1" x="4630" y="-4145"/><use xlink:href="#FSYuMuERSf-C_pad-1" x="4900" y="-3800"/><use xlink:href="#FSYuMuERSf-C_pad-1" x="4950" y="-4050"/><use xlink:href="#FSYuMuERSf-C_pad-1" x="4960" y="-3710"/><use xlink:href="#FSYuMuERSf-C_pad-1" x="4990" y="-3780"/><use xlink:href="#FSYuMuERSf-C_pad-1" x="5010" y="-4180"/><use xlink:href="#FSYuMuERSf-C_pad-1" x="5020" y="-4080"/><use xlink:href="#FSYuMuERSf-C_pad-2" x="5039.4" y="-3845"/><use xlink:href="#FSYuMuERSf-C_pad-2" x="5039.4" y="-3895"/><use xlink:href="#FSYuMuERSf-C_pad-2" x="5039.4" y="-3945"/><use xlink:href="#FSYuMuERSf-C_pad-2" x="5039.4" y="-3995"/><use xlink:href="#FSYuMuERSf-C_pad-3" x="4442.9" y="-3797.2"/><use xlink:href="#FSYuMuERSf-C_pad-3" x="4442.9" y="-3897.2"/><use xlink:href="#FSYuMuERSf-C_pad-3" x="4442.9" y="-3997.2"/><use xlink:href="#FSYuMuERSf-C_pad-3" x="4542.9" y="-3847.2"/><use xlink:href="#FSYuMuERSf-C_pad-3" x="4542.9" y="-3947.2"/><use xlink:href="#FSYuMuERSf-C_pad-3" x="4542.9" y="-4047.2"/></g><clipPath id="JRDf_kxd9Edu_top_outline"><path d="M 129921 -107250 129921 -92000 97750 -92000 97750 -107250 129921 -107250" fill="none" stroke-width="150"/></clipPath><mask id="JRDf_kxd9Edu_top_mech-mask"><g fill="#000" stroke="#000"><rect x="97750" y="-107250" width="32171" height="15250" fill="#fff"/><use xlink:href="#JRDf_kxd9Edu_top_drill1"/><use xlink:href="#JRDf_kxd9Edu_top_drill2"/></g></mask><mask id="JRDf_kxd9Edu_top_cf-mask"><g fill="#fff" stroke="#fff"><use xlink:href="#JRDf_kxd9Edu_top_soldermask"/></g></mask><mask id="JRDf_kxd9Edu_top_sm-mask"><g fill="#000" stroke="#000"><rect x="97750" y="-107250" width="32171" height="15250" fill="#fff"/><use xlink:href="#JRDf_kxd9Edu_top_soldermask"/></g></mask></defs><g transform="translate(0,-199250) scale(1,-1)"><g mask="url(#JRDf_kxd9Edu_top_mech-mask)" clip-path="url(#JRDf_kxd9Edu_top_outline)"><rect x="97750" y="-107250" width="32171" height="15250" fill="currentColor" class="JRDf_kxd9Edu_fr4"/><use xlink:href="#JRDf_kxd9Edu_top_copper" fill="currentColor" stroke="currentColor" class="JRDf_kxd9Edu_cu"/><use xlink:href="#JRDf_kxd9Edu_top_copper" fill="currentColor" stroke="currentColor" class="JRDf_kxd9Edu_cf" mask="url(#JRDf_kxd9Edu_top_cf-mask)"/><g mask="url(#JRDf_kxd9Edu_top_sm-mask)"><rect x="97750" y="-107250" width="32171" height="15250" fill="currentColor" class="JRDf_kxd9Edu_sm"/><use xlink:href="#JRDf_kxd9Edu_top_silkscreen" fill="currentColor" stroke="currentColor" class="JRDf_kxd9Edu_ss"/></g></g></g></svg>