<svg version="1.1" xmlns="http://www.w3.org/2000/svg" xmlns:xlink="http://www.w3.org/1999/xlink" stroke-linecap="round" stroke-linejoin="round" stroke-width="0" fill-rule="evenodd" clip-rule="evenodd" id="ZLZ60YHT8OgN_top" viewBox="151500 -103500 43000 17500" width="43mm" height="17.5mm"><defs><style>.ZLZ60YHT8OgN_fr4 {color: #666666;}
.ZLZ60YHT8OgN_cu {color: #cccccc;}
.ZLZ60YHT8OgN_cf {color: #cc9933;}
.ZLZ60YHT8OgN_sm {color: #004200; opacity: 0.7490196078431373;}
.ZLZ60YHT8OgN_ss {color: #ffffff;}
.ZLZ60YHT8OgN_sp {color: #999999;}
.ZLZ60YHT8OgN_out {color: #000000;}</style><g id="DorgVQOi_3oc_pad-10"><polygon points="-250,225 -250,-225 250,-225 250,225"/><circle cx="-250" cy="225" r="225"/><circle cx="-250" cy="-225" r="225"/><circle cx="250" cy="-225" r="225"/><circle cx="250" cy="225" r="225"/><polygon points="-25,225 -25,-225 -475,-225 -475,225"/><polygon points="-250,-450 250,-450 250,0 -250,0"/><polygon points="475,-225 475,225 25,225 25,-225"/><polygon points="250,0 -250,0 -250,450 250,450"/></g><g id="DorgVQOi_3oc_pad-11"><polygon points="200,275 -200,275 -200,-275 200,-275"/><circle cx="200" cy="275" r="200"/><circle cx="-200" cy="275" r="200"/><circle cx="-200" cy="-275" r="200"/><circle cx="200" cy="-275" r="200"/><polygon points="200,75 -200,75 -200,475 200,475"/><polygon points="0,275 0,-275 -400,-275 -400,275"/><polygon points="-200,-475 200,-475 200,-75 -200,-75"/><polygon points="400,-275 400,275 0,275 0,-275"/></g><g id="DorgVQOi_3oc_pad-12"><polygon points="-200,-275 200,-275 200,275 -200,275"/><circle cx="-200" cy="-275" r="200"/><circle cx="200" cy="-275" r="200"/><circle cx="200" cy="275" r="200"/><circle cx="-200" cy="275" r="200"/><polygon points="-200,-475 200,-475 200,-75 -200,-75"/><polygon points="400,-275 400,275 0,275 0,-275"/><polygon points="200,75 -200,75 -200,475 200,475"/><polygon points="0,275 0,-275 -400,-275 -400,275"/></g><rect x="-500" y="-500" width="1000" height="1000" id="DorgVQOi_3oc_pad-13"/><rect x="-500" y="-500" width="1000" height="1000" rx="500" ry="500" id="DorgVQOi_3oc_pad-14"/><rect x="-1050" y="-1050" width="2100" height="2100" id="DorgVQOi_3oc_pad-15"/><circle cx="0" cy="0" r="1050" id="DorgVQOi_3oc_pad-16"/><g id="DorgVQOi_3oc_pad-17"><polygon points="275,-200 275,200 -275,200 -275,-200"/><circle cx="275" cy="-200" r="200"/><circle cx="275" cy="200" r="200"/><circle cx="-275" cy="200" r="200"/><circle cx="-275" cy="-200" r="200"/><polygon points="475,-200 475,200 75,200 75,-200"/><polygon points="275,0 -275,0 -275,400 275,400"/><polygon points="-75,200 -75,-200 -475,-200 -475,200"/><polygon points="-275,-400 275,-400 275,0 -275,0"/></g><g id="DorgVQOi_3oc_pad-18"><polygon points="-875,-150 875,-150 875,150 -875,150"/><circle cx="-875" cy="-150" r="150"/><circle cx="875" cy="-150" r="150"/><circle cx="875" cy="150" r="150"/><circle cx="-875" cy="150" r="150"/><polygon points="-875,-300 875,-300 875,0 -875,0"/><polygon points="1025,-150 1025,150 725,150 725,-150"/><polygon points="875,0 -875,0 -875,300 875,300"/><polygon points="-725,150 -725,-150 -1025,-150 -1025,150"/></g><circle cx="0" cy="0" r="400" id="DorgVQOi_3oc_pad-19"/><g id="vbTlqRPtQTqQ_pad-10"><polygon points="-250,225 -250,-225 250,-225 250,225"/><circle cx="-250" cy="225" r="425"/><circle cx="-250" cy="-225" r="425"/><circle cx="250" cy="-225" r="425"/><circle cx="250" cy="225" r="425"/><polygon points="175,225 175,-225 -675,-225 -675,225"/><polygon points="-250,-650 250,-650 250,200 -250,200"/><polygon points="675,-225 675,225 -175,225 -175,-225"/><polygon points="250,-200 -250,-200 -250,650 250,650"/></g><g id="vbTlqRPtQTqQ_pad-11"><polygon points="200,275 -200,275 -200,-275 200,-275"/><circle cx="200" cy="275" r="400"/><circle cx="-200" cy="275" r="400"/><circle cx="-200" cy="-275" r="400"/><circle cx="200" cy="-275" r="400"/><polygon points="200,-125 -200,-125 -200,675 200,675"/><polygon points="200,275 200,-275 -600,-275 -600,275"/><polygon points="-200,-675 200,-675 200,125 -200,125"/><polygon points="600,-275 600,275 -200,275 -200,-275"/></g><g id="vbTlqRPtQTqQ_pad-12"><polygon points="-200,-275 200,-275 200,275 -200,275"/><circle cx="-200" cy="-275" r="400"/><circle cx="200" cy="-275" r="400"/><circle cx="200" cy="275" r="400"/><circle cx="-200" cy="275" r="400"/><polygon points="-200,-675 200,-675 200,125 -200,125"/><polygon points="600,-275 600,275 -200,275 -200,-275"/><polygon points="200,-125 -200,-125 -200,675 200,675"/><polygon points="200,275 200,-275 -600,-275 -600,275"/></g><g id="vbTlqRPtQTqQ_pad-13"><polygon points="500,500 -500,500 -500,-500 500,-500"/><circle cx="500" cy="500" r="200"/><circle cx="-500" cy="500" r="200"/><circle cx="-500" cy="-500" r="200"/><circle cx="500" cy="-500" r="200"/><polygon points="500,300 -500,300 -500,700 500,700"/><polygon points="-300,500 -300,-500 -700,-500 -700,500"/><polygon points="-500,-700 500,-700 500,-300 -500,-300"/><polygon points="700,-500 700,500 300,500 300,-500"/></g><rect x="-700" y="-700" width="1400" height="1400" rx="700" ry="700" id="vbTlqRPtQTqQ_pad-14"/><g id="vbTlqRPtQTqQ_pad-15"><polygon points="1050,-1050 1050,1050 -1050,1050 -1050,-1050"/><circle cx="1050" cy="-1050" r="200"/><circle cx="1050" cy="1050" r="200"/><circle cx="-1050" cy="1050" r="200"/><circle cx="-1050" cy="-1050" r="200"/><polygon points="1250,-1050 1250,1050 850,1050 850,-1050"/><polygon points="1050,850 -1050,850 -1050,1250 1050,1250"/><polygon points="-850,1050 -850,-1050 -1250,-1050 -1250,1050"/><polygon points="-1050,-1250 1050,-1250 1050,-850 -1050,-850"/></g><circle cx="0" cy="0" r="1250" id="vbTlqRPtQTqQ_pad-16"/><g id="vbTlqRPtQTqQ_pad-17"><polygon points="275,-200 275,200 -275,200 -275,-200"/><circle cx="275" cy="-200" r="400"/><circle cx="275" cy="200" r="400"/><circle cx="-275" cy="200" r="400"/><circle cx="-275" cy="-200" r="400"/><polygon points="675,-200 675,200 -125,200 -125,-200"/><polygon points="275,-200 -275,-200 -275,600 275,600"/><polygon points="125,200 125,-200 -675,-200 -675,200"/><polygon points="-275,-600 275,-600 275,200 -275,200"/></g><g id="vbTlqRPtQTqQ_pad-18"><polygon points="-875,-150 875,-150 875,150 -875,150"/><circle cx="-875" cy="-150" r="350"/><circle cx="875" cy="-150" r="350"/><circle cx="875" cy="150" r="350"/><circle cx="-875" cy="150" r="350"/><polygon points="-875,-500 875,-500 875,200 -875,200"/><polygon points="1225,-150 1225,150 525,150 525,-150"/><polygon points="875,-200 -875,-200 -875,500 875,500"/><polygon points="-525,150 -525,-150 -1225,-150 -1225,150"/></g><circle cx="0" cy="0" r="7.85" id="z7-8ptvzf6_v_pad-1"/><circle cx="0" cy="0" r="12.8" id="z7-8ptvzf6_v_pad-2"/><circle cx="0" cy="0" r="21.65" id="z7-8ptvzf6_v_pad-3"/><g id="ZLZ60YHT8OgN_top_copper"><use xlink:href="#DorgVQOi_3oc_pad-10" x="175250" y="-90475"/><use xlink:href="#DorgVQOi_3oc_pad-10" x="175250" y="-92025"/><use xlink:href="#DorgVQOi_3oc_pad-11" x="175075" y="-99250"/><use xlink:href="#DorgVQOi_3oc_pad-11" x="173425" y="-99250"/><use xlink:href="#DorgVQOi_3oc_pad-12" x="173425" y="-97500"/><use xlink:href="#DorgVQOi_3oc_pad-12" x="175075" y="-97500"/><use xlink:href="#DorgVQOi_3oc_pad-11" x="179825" y="-98250"/><use xlink:href="#DorgVQOi_3oc_pad-11" x="178175" y="-98250"/><use xlink:href="#DorgVQOi_3oc_pad-11" x="184825" y="-90500"/><use xlink:href="#DorgVQOi_3oc_pad-11" x="183175" y="-90500"/><use xlink:href="#DorgVQOi_3oc_pad-11" x="184825" y="-93250"/><use xlink:href="#DorgVQOi_3oc_pad-11" x="183175" y="-93250"/><use xlink:href="#DorgVQOi_3oc_pad-11" x="184825" y="-95750"/><use xlink:href="#DorgVQOi_3oc_pad-11" x="183175" y="-95750"/><use xlink:href="#DorgVQOi_3oc_pad-11" x="184825" y="-98250"/><use xlink:href="#DorgVQOi_3oc_pad-11" x="183175" y="-98250"/><use xlink:href="#DorgVQOi_3oc_pad-12" x="178175" y="-96500"/><use xlink:href="#DorgVQOi_3oc_pad-12" x="179825" y="-96500"/><use xlink:href="#DorgVQOi_3oc_pad-13" x="153500" y="-99330"/><use xlink:href="#DorgVQOi_3oc_pad-14" x="153500" y="-98060"/><use xlink:href="#DorgVQOi_3oc_pad-14" x="153500" y="-96790"/><use xlink:href="#DorgVQOi_3oc_pad-14" x="153500" y="-95520"/><use xlink:href="#DorgVQOi_3oc_pad-14" x="153500" y="-94250"/><use xlink:href="#DorgVQOi_3oc_pad-14" x="153500" y="-92980"/><use xlink:href="#DorgVQOi_3oc_pad-14" x="153500" y="-91710"/><use xlink:href="#DorgVQOi_3oc_pad-14" x="153500" y="-90440"/><use xlink:href="#DorgVQOi_3oc_pad-10" x="173500" y="-90475"/><use xlink:href="#DorgVQOi_3oc_pad-10" x="173500" y="-92025"/><use xlink:href="#DorgVQOi_3oc_pad-12" x="178175" y="-91000"/><use xlink:href="#DorgVQOi_3oc_pad-12" x="179825" y="-91000"/><use xlink:href="#DorgVQOi_3oc_pad-15" x="190250" y="-101080"/><use xlink:href="#DorgVQOi_3oc_pad-16" x="190250" y="-98540"/><use xlink:href="#DorgVQOi_3oc_pad-16" x="190250" y="-96000"/><use xlink:href="#DorgVQOi_3oc_pad-16" x="190250" y="-93460"/><use xlink:href="#DorgVQOi_3oc_pad-16" x="190250" y="-90920"/><use xlink:href="#DorgVQOi_3oc_pad-16" x="190250" y="-88380"/><use xlink:href="#DorgVQOi_3oc_pad-10" x="158500" y="-90475"/><use xlink:href="#DorgVQOi_3oc_pad-10" x="158500" y="-92025"/><use xlink:href="#DorgVQOi_3oc_pad-10" x="156750" y="-90475"/><use xlink:href="#DorgVQOi_3oc_pad-10" x="156750" y="-92025"/><use xlink:href="#DorgVQOi_3oc_pad-17" x="158500" y="-95862.5"/><use xlink:href="#DorgVQOi_3oc_pad-17" x="158500" y="-94212.5"/><use xlink:href="#DorgVQOi_3oc_pad-18" x="161350" y="-90305"/><use xlink:href="#DorgVQOi_3oc_pad-18" x="161350" y="-91575"/><use xlink:href="#DorgVQOi_3oc_pad-18" x="161350" y="-92845"/><use xlink:href="#DorgVQOi_3oc_pad-18" x="161350" y="-94115"/><use xlink:href="#DorgVQOi_3oc_pad-18" x="161350" y="-95385"/><use xlink:href="#DorgVQOi_3oc_pad-18" x="161350" y="-96655"/><use xlink:href="#DorgVQOi_3oc_pad-18" x="161350" y="-97925"/><use xlink:href="#DorgVQOi_3oc_pad-18" x="161350" y="-99195"/><use xlink:href="#DorgVQOi_3oc_pad-18" x="170650" y="-99195"/><use xlink:href="#DorgVQOi_3oc_pad-18" x="170650" y="-97925"/><use xlink:href="#DorgVQOi_3oc_pad-18" x="170650" y="-96655"/><use xlink:href="#DorgVQOi_3oc_pad-18" x="170650" y="-95385"/><use xlink:href="#DorgVQOi_3oc_pad-18" x="170650" y="-94115"/><use xlink:href="#DorgVQOi_3oc_pad-18" x="170650" y="-92845"/><use xlink:href="#DorgVQOi_3oc_pad-18" x="170650" y="-91575"/><use xlink:href="#DorgVQOi_3oc_pad-18" x="170650" y="-90305"/><use xlink:href="#DorgVQOi_3oc_pad-11" x="179825" y="-89250"/><use xlink:href="#DorgVQOi_3oc_pad-11" x="178175" y="-89250"/><use xlink:href="#DorgVQOi_3oc_pad-19" x="177500" y="-95500"/><use xlink:href="#DorgVQOi_3oc_pad-19" x="181250" y="-94000"/><use xlink:href="#DorgVQOi_3oc_pad-19" x="181250" y="-100000"/><use xlink:href="#DorgVQOi_3oc_pad-19" x="181250" y="-89250"/><use xlink:href="#DorgVQOi_3oc_pad-19" x="179750" y="-92250"/><use xlink:href="#DorgVQOi_3oc_pad-19" x="181250" y="-98500"/><use xlink:href="#DorgVQOi_3oc_pad-19" x="181250" y="-97000"/><use xlink:href="#DorgVQOi_3oc_pad-19" x="177449.989" y="-94250"/><use xlink:href="#DorgVQOi_3oc_pad-19" x="177500" y="-93000"/><use xlink:href="#DorgVQOi_3oc_pad-19" x="181250" y="-95500"/><use xlink:href="#DorgVQOi_3oc_pad-19" x="172250" y="-93000"/><use xlink:href="#DorgVQOi_3oc_pad-19" x="172250" y="-94250"/><use xlink:href="#DorgVQOi_3oc_pad-19" x="172250" y="-95500"/><use xlink:href="#DorgVQOi_3oc_pad-19" x="172250" y="-96750"/><path d="M 161350 -91575 162350 -91575 162750 -91975 M 162750 -98795 162750 -92250 M 162750 -91975 162750 -92250 M 161350 -99195 162350 -99195 162750 -98795 M 161350 -91575 158962.5 -91575 M 156750 -92037.5 158500 -92037.5 M 158962.5 -91575 158500 -92037.5 M 156750 -90462.5 158500 -90462.5 M 161350 -90305 158657.5 -90305 M 153500 -90440 156727.5 -90440 M 170650 -99195 170650 -99745 171155 -100250 M 170650 -91575 169650 -91575 169250 -91975 169250 -98795 M 170650 -99195 169650 -99195 169250 -98795 M 174750 -100250 175037.5 -99962.5 M 171155 -100250 174750 -100250 M 170650 -91575 173037.5 -91575 173500 -92037.5 175250 -92037.5 M 175037.5 -99962.5 175037.5 -99250 M 170650 -90305 173342.5 -90305 M 176530 -97155 176530 -95504 M 176534 -95500 176530 -95504 176530 -90805 M 175250 -90462.5 176187.5 -90462.5 M 175037.5 -97500 176185 -97500 M 177500 -95500 176534 -95500 M 176185 -97500 176530 -97155 M 175250 -90462.5 173500 -90462.5 M 176187.5 -90462.5 176530 -90805 M 184787.5 -98250 189960 -98250 M 184787.5 -95750 190000 -95750 M 184787.5 -93250 190040 -93250 M 184787.5 -90500 189830 -90500 M 155000 -94250 156000 -93250 159945 -93250 160350 -92845 161350 -92845 M 153500 -94250 155000 -94250 M 155230 -95520 156500 -94250 158500 -94250 M 161350 -94115 158635 -94115 M 155230 -95520 153500 -95520 M 156425 -95825 155460 -96790 M 158500 -95825 156425 -95825 M 161350 -95385 158940 -95385 158500 -95825 M 155460 -96790 153500 -96790 M 159345 -96655 157940 -98060 M 161350 -96655 159345 -96655 M 157940 -98060 153500 -98060 M 173462.5 -97500 173462.5 -99250 M 170650 -97925 173037.5 -97925 173462.5 -97500 M 178212.5 -98250 178212.5 -98825 M 179387.5 -100000 181250 -100000 M 182000 -93250 181250 -94000 M 178212.5 -98825 179387.5 -100000 M 183212.5 -93250 182000 -93250 M 181250 -89250 179787.5 -89250 M 179750 -92250 179750 -91037.5 M 179787.5 -98250 181000 -98250 M 181250 -98500 181224.694 -98250 M 183212.5 -90500 180287.5 -90500 M 181000 -98250 181250 -98500 M 180287.5 -90500 179787.5 -91000 M 181250 -97000 180750 -96500 179787.5 -96500 M 178225.002 -91762.502 178225.002 -93474.987 M 177449.989 -94250 178225.002 -93474.987 M 178212.5 -91000 178212.5 -91750 M 182500 -98250 180750 -96500 M 183212.5 -98250 182500 -98250 M 178212.5 -91750 178225.002 -91762.502 M 181350.001 -95350.001 178649.999 -95350.001 178212.5 -95787.5 M 177250 -90212.5 178212.5 -89250 M 177250 -92750 177250 -90212.5 M 178212.5 -95787.5 178212.5 -96500 M 181750 -95750 181350.001 -95350.001 M 177500 -93000 177250 -92750 M 181750 -95750 183212.5 -95750 M 170650 -92845 172095 -92845 172250 -93000 M 172250 -94250 170785 -94250 M 170650 -95385 172135 -95385 172250 -95500 M 170650 -96655 172405 -96655" fill="none" stroke-width="250"/><path d="M 193933.621 -86528.502 193980.114 -86582.158 193991.5 -86634.5 193991.5 -102865.5 193971.498 -102933.621 193917.842 -102980.114 193865.5 -102991.5 168626 -102991.5 168557.879 -102971.498 168511.386 -102917.842 168500 -102865.5 168500 -102174.669 188692.001 -102174.669 188692.371 -102181.49 188697.895 -102232.352 188701.521 -102247.604 188746.676 -102368.054 188755.214 -102383.649 188831.715 -102485.724 188844.276 -102498.285 188946.351 -102574.786 188961.946 -102583.324 189082.394 -102628.478 189097.649 -102632.105 189148.514 -102637.631 189155.328 -102638 189977.885 -102638 189993.124 -102633.525 189994.329 -102632.135 189996 -102624.452 189996 -102619.884 190504 -102619.884 190508.475 -102635.123 190509.865 -102636.328 190517.548 -102637.999 191344.669 -102637.999 191351.49 -102637.629 191402.352 -102632.105 191417.604 -102628.479 191538.054 -102583.324 191553.649 -102574.786 191655.724 -102498.285 191668.285 -102485.724 191744.786 -102383.649 191753.324 -102368.054 191798.478 -102247.606 191802.105 -102232.351 191807.631 -102181.486 191808 -102174.672 191808 -101352.115 191803.525 -101336.876 191802.135 -101335.671 191794.452 -101334 190522.115 -101334 190506.876 -101338.475 190505.671 -101339.865 190504 -101347.548 190504 -102619.884 189996 -102619.884 189996 -101352.115 189991.525 -101336.876 189990.135 -101335.671 189982.452 -101334 188710.116 -101334 188694.877 -101338.475 188693.672 -101339.865 188692.001 -101347.548 188692.001 -102174.669 168500 -102174.669 168500 -99460.871 169123.456 -99460.871 169164.107 -99600.79 169170.352 -99615.221 169246.911 -99744.678 169256.551 -99757.104 169362.896 -99863.449 169375.322 -99873.089 169504.779 -99949.648 169519.21 -99955.893 169665.065 -99998.269 169677.667 -100000.57 169706.084 -100002.807 169711.014 -100003 170377.885 -100003 170393.124 -99998.525 170394.329 -99997.135 170396 -99989.452 170396 -99984.884 170904 -99984.884 170908.475 -100000.123 170909.865 -100001.328 170917.548 -100002.999 171588.984 -100002.999 171593.92 -100002.805 171622.336 -100000.57 171634.931 -99998.27 171780.79 -99955.893 171795.221 -99949.648 171924.678 -99873.089 171937.104 -99863.449 172043.449 -99757.104 172053.089 -99744.678 172129.648 -99615.221 172135.893 -99600.79 172174.939 -99466.395 172174.899 -99452.294 172167.63 -99449 170922.115 -99449 170906.876 -99453.475 170905.671 -99454.865 170904 -99462.548 170904 -99984.884 170396 -99984.884 170396 -99467.115 170391.525 -99451.876 170390.135 -99450.671 170382.452 -99449 169138.122 -99449 169124.591 -99452.973 169123.456 -99460.871 168500 -99460.871 168500 -98141.502 169116.5 -98141.502 169119.438 -98178.831 169128.168 -98208.88 169153.317 -98295.443 169165.855 -98338.601 169250.547 -98481.807 169253.487 -98484.747 169278.82 -98549.266 169264.921 -98618.889 169252.874 -98637.636 169246.91 -98645.324 169170.352 -98774.779 169164.107 -98789.21 169125.061 -98923.605 169125.101 -98937.706 169132.37 -98941 172161.878 -98941 172175.409 -98937.027 172176.544 -98929.129 172135.893 -98789.21 172129.648 -98774.779 172114.189 -98748.639 172096.73 -98679.823 172119.247 -98612.491 172174.591 -98568.022 172222.643 -98558.5 172441.484 -98558.5 172509.605 -98578.502 172556.098 -98632.158 172566.202 -98702.432 172561.72 -98722.171 172523.247 -98844.938 172516.5 -98918.365 172516.5 -98921.263 172516.501 -99250.86 172516.501 -99581.634 172523.247 -99655.062 172574.528 -99818.699 172663.361 -99965.381 172784.619 -100086.639 172931.301 -100175.472 172938.548 -100177.743 172938.55 -100177.744 172956.487 -100183.365 173094.938 -100226.753 173168.365 -100233.5 173171.263 -100233.5 173425.665 -100233.499 173681.634 -100233.499 173684.492 -100233.236 173684.501 -100233.236 173720.004 -100229.974 173755.062 -100226.753 173763.03 -100224.256 173911.45 -100177.744 173911.452 -100177.743 173918.699 -100175.472 174065.381 -100086.639 174161.259 -99990.761 174223.571 -99956.735 174294.386 -99961.8 174339.449 -99990.761 174429.557 -100080.869 174441.426 -100090.176 174575.012 -100171.079 174588.757 -100177.285 174738.644 -100224.256 174751.694 -100226.869 174806.586 -100231.913 174818.124 -100228.525 174819.329 -100227.135 174821 -100219.452 174821 -100214.884 175329 -100214.884 175333.475 -100230.123 175334.865 -100231.328 175339.294 -100232.291 175398.315 -100226.868 175411.351 -100224.257 175561.243 -100177.285 175574.988 -100171.079 175708.574 -100090.176 175720.443 -100080.869 175830.869 -99970.443 175840.176 -99958.574 175921.079 -99824.988 175927.285 -99811.243 175974.256 -99661.356 175976.869 -99648.306 175982.734 -99584.479 175983 -99578.691 175983 -99522.115 175978.525 -99506.876 175977.135 -99505.671 175969.452 -99504 175347.115 -99504 175331.876 -99508.475 175330.671 -99509.865 175329 -99517.548 175329 -100214.884 174821 -100214.884 174821 -99122 174841.002 -99053.879 174894.658 -99007.386 174947 -98996 175964.884 -98996 175980.123 -98991.525 175981.328 -98990.135 175982.999 -98982.452 175982.999 -98921.295 175982.736 -98915.546 175976.868 -98851.685 175974.257 -98838.649 175927.285 -98688.757 175921.079 -98675.012 175840.176 -98541.426 175830.869 -98529.557 175765.761 -98464.449 175731.735 -98402.137 175736.8 -98331.322 175765.761 -98286.259 175836.639 -98215.381 175849.449 -98194.229 175901.846 -98146.322 175957.225 -98133.5 176106.233 -98133.5 176117.416 -98134.027 176124.909 -98135.702 176132.835 -98135.453 176132.836 -98135.453 176192.986 -98133.562 176196.945 -98133.5 176224.856 -98133.5 176228.791 -98133.003 176228.856 -98132.995 176240.693 -98132.062 176272.951 -98131.048 176276.97 -98130.922 176284.889 -98130.673 176304.343 -98125.021 176323.7 -98121.013 176335.93 -98119.468 176335.931 -98119.468 176343.797 -98118.474 176351.168 -98115.555 176351.17 -98115.555 176384.912 -98102.196 176396.142 -98098.351 176430.983 -98088.229 176430.984 -98088.229 176438.593 -98086.018 176445.412 -98081.985 176445.417 -98081.983 176456.028 -98075.707 176473.776 -98067.012 176492.617 -98059.552 176528.387 -98033.564 176538.307 -98027.048 176569.535 -98008.58 176569.538 -98008.578 176576.362 -98004.542 176590.683 -97990.221 176605.717 -97977.38 176615.694 -97970.131 176622.107 -97965.472 176650.298 -97931.395 176658.288 -97922.616 176922.247 -97658.657 176930.537 -97651.113 176937.018 -97647 176983.659 -97597.332 176986.413 -97594.491 177006.135 -97574.769 177008.612 -97571.576 177016.317 -97562.555 177022.687 -97555.771 177046.586 -97530.321 177052.803 -97519.012 177056.346 -97512.568 177067.202 -97496.041 177074.757 -97486.302 177074.758 -97486.3 177079.614 -97480.04 177097.174 -97439.46 177102.391 -97428.812 177119.875 -97397.009 177119.876 -97397.007 177123.695 -97390.06 177128.733 -97370.437 177135.137 -97351.734 177140.033 -97340.42 177140.033 -97340.419 177143.181 -97333.145 177144.42 -97325.322 177144.423 -97325.312 177150.099 -97289.476 177152.505 -97277.856 177161.53 -97242.705 177161.531 -97242.701 177163.5 -97235.03 177163.5 -97232.722 177190.885 -97169.933 177249.945 -97130.532 177320.931 -97129.317 177381.306 -97166.672 177395.284 -97185.532 177413.361 -97215.381 177483.885 -97285.905 177517.911 -97348.217 177512.846 -97419.032 177483.885 -97464.095 177413.361 -97534.619 177324.528 -97681.301 177322.257 -97688.548 177322.256 -97688.55 177316.005 -97708.498 177273.247 -97844.938 177266.5 -97918.365 177266.501 -98581.634 177273.247 -98655.062 177275.246 -98661.44 177275.246 -98661.441 177315.287 -98789.21 177324.528 -98818.699 177413.361 -98965.381 177534.619 -99086.639 177541.121 -99090.576 177541.12 -99090.576 177658.084 -99161.412 177701.264 -99205.045 177703.92 -99209.536 177703.925 -99209.542 177707.958 -99216.362 177722.279 -99230.683 177735.119 -99245.716 177747.028 -99262.107 177781.105 -99290.298 177789.884 -99298.288 178883.848 -100392.253 178891.388 -100400.539 178895.5 -100407.018 178901.277 -100412.443 178945.151 -100453.643 178947.993 -100456.398 178967.73 -100476.135 178970.927 -100478.615 178979.947 -100486.318 179012.179 -100516.586 179019.125 -100520.405 179019.128 -100520.407 179029.934 -100526.348 179046.453 -100537.199 179062.459 -100549.614 179069.728 -100552.759 179069.732 -100552.762 179103.037 -100567.174 179113.687 -100572.391 179152.44 -100593.695 179160.115 -100595.666 179160.116 -100595.666 179172.062 -100598.733 179190.767 -100605.137 179209.355 -100613.181 179217.178 -100614.42 179217.188 -100614.423 179253.024 -100620.099 179264.644 -100622.505 179299.789 -100631.528 179307.47 -100633.5 179327.724 -100633.5 179347.434 -100635.051 179367.443 -100638.22 179375.335 -100637.474 179411.461 -100634.059 179423.319 -100633.5 180541.8 -100633.5 180609.921 -100653.502 180629.147 -100669.843 180629.42 -100669.54 180634.332 -100673.963 180638.747 -100678.866 180793.248 -100791.118 180799.276 -100793.802 180799.278 -100793.803 180961.681 -100866.109 180967.712 -100868.794 181061.112 -100888.647 181148.056 -100907.128 181148.061 -100907.128 181154.513 -100908.5 181345.487 -100908.5 181351.939 -100907.128 181351.944 -100907.128 181438.887 -100888.647 181532.288 -100868.794 181538.319 -100866.109 181700.722 -100793.803 181700.724 -100793.802 181706.752 -100791.118 181861.253 -100678.866 181897.851 -100638.22 181984.621 -100541.852 181984.622 -100541.851 181989.04 -100536.944 182084.527 -100371.556 182143.542 -100189.928 182145.062 -100175.472 182162.814 -100006.565 182163.504 -100000 182161.245 -99978.51 182144.232 -99816.635 182144.232 -99816.633 182143.542 -99810.072 182084.527 -99628.444 182059.157 -99584.501 182015.263 -99508.475 181989.04 -99463.056 181979.35 -99452.294 181873.117 -99334.31 181842.399 -99270.303 181851.164 -99199.849 181873.117 -99165.69 181984.621 -99041.852 181984.622 -99041.851 181989.04 -99036.944 182078.51 -98881.978 182129.893 -98832.985 182199.606 -98819.549 182248.327 -98834.562 182264.94 -98843.695 182272.615 -98845.666 182272.616 -98845.666 182284.562 -98848.733 182303.266 -98855.137 182321.855 -98863.181 182320.791 -98865.64 182369.704 -98896.889 182382.477 -98914.385 182413.361 -98965.381 182534.619 -99086.639 182681.301 -99175.472 182688.548 -99177.743 182688.55 -99177.744 182754.836 -99198.517 182844.938 -99226.753 182918.365 -99233.5 182921.263 -99233.5 183175.665 -99233.499 183431.634 -99233.499 183434.492 -99233.236 183434.501 -99233.236 183470.004 -99229.974 183505.062 -99226.753 183538.22 -99216.362 183661.45 -99177.744 183661.452 -99177.743 183668.699 -99175.472 183815.381 -99086.639 183910.905 -98991.115 183973.217 -98957.089 184044.032 -98962.154 184089.095 -98991.115 184184.619 -99086.639 184331.301 -99175.472 184338.548 -99177.743 184338.55 -99177.744 184404.836 -99198.517 184494.938 -99226.753 184568.365 -99233.5 184571.263 -99233.5 184825.665 -99233.499 185081.634 -99233.499 185084.492 -99233.236 185084.501 -99233.236 185120.004 -99229.974 185155.062 -99226.753 185188.22 -99216.362 185311.45 -99177.744 185311.452 -99177.743 185318.699 -99175.472 185465.381 -99086.639 185586.639 -98965.381 185599.449 -98944.229 185651.846 -98896.322 185707.225 -98883.5 188630.351 -98883.5 188698.472 -98903.502 188744.965 -98957.158 188752.869 -98980.085 188762.037 -99018.271 188762.039 -99018.278 188763.195 -99023.092 188857.073 -99249.732 188886.828 -99298.288 188966.095 -99427.641 188984.633 -99496.174 188963.176 -99563.851 188934.227 -99594.302 188844.272 -99661.719 188831.715 -99674.276 188755.214 -99776.351 188746.676 -99791.946 188701.522 -99912.394 188697.895 -99927.649 188692.369 -99978.514 188692 -99985.328 188692 -100807.885 188696.475 -100823.124 188697.865 -100824.329 188705.548 -100826 191789.884 -100826 191805.123 -100821.525 191806.328 -100820.135 191807.999 -100812.452 191807.999 -99985.331 191807.629 -99978.51 191802.105 -99927.648 191798.479 -99912.396 191753.324 -99791.946 191744.786 -99776.351 191668.285 -99674.276 191655.728 -99661.719 191565.773 -99594.302 191523.258 -99537.442 191518.232 -99466.624 191533.905 -99427.641 191613.172 -99298.288 191642.927 -99249.732 191736.805 -99023.092 191761.948 -98918.365 191792.917 -98789.37 191792.918 -98789.364 191794.072 -98784.557 191813.319 -98540 191794.072 -98295.443 191791.868 -98286.259 191747.153 -98100.01 191736.805 -98056.908 191724.437 -98027.048 191698.931 -97965.472 191642.927 -97830.268 191545.432 -97671.169 191517.342 -97625.33 191517.34 -97625.327 191514.752 -97621.104 191494.45 -97597.333 191358.641 -97438.323 191355.433 -97434.567 191311.459 -97397.009 191274.931 -97365.811 191236.122 -97306.36 191235.616 -97235.365 191274.931 -97174.189 191351.677 -97108.641 191355.433 -97105.433 191393.393 -97060.988 191511.535 -96922.663 191511.537 -96922.66 191514.752 -96918.896 191523.23 -96905.062 191628.362 -96733.5 191642.927 -96709.732 191722.858 -96516.764 191734.911 -96487.665 191734.912 -96487.663 191736.805 -96483.092 191763.302 -96372.723 191792.917 -96249.37 191792.918 -96249.364 191794.072 -96244.557 191813.319 -96000 191794.072 -95755.443 191778.344 -95689.928 191740.878 -95533.875 191736.805 -95516.908 191729.802 -95500 191702.864 -95434.967 191642.927 -95290.268 191543.762 -95128.444 191517.342 -95085.33 191517.34 -95085.327 191514.752 -95081.104 191493.116 -95055.771 191358.641 -94898.323 191355.433 -94894.567 191300.008 -94847.229 191274.931 -94825.811 191236.122 -94766.36 191235.616 -94695.365 191274.931 -94634.189 191351.677 -94568.641 191355.433 -94565.433 191393.393 -94520.988 191511.535 -94382.663 191511.537 -94382.66 191514.752 -94378.896 191523.102 -94365.271 191603.85 -94233.5 191642.927 -94169.732 191728.909 -93962.154 191734.911 -93947.665 191734.912 -93947.663 191736.805 -93943.092 191769.649 -93806.288 191792.917 -93709.37 191792.918 -93709.364 191794.072 -93704.557 191813.319 -93460 191794.072 -93215.443 191791.853 -93206.197 191742.349 -93000 191736.805 -92976.908 191734.032 -92970.212 191677.195 -92832.998 191642.927 -92750.268 191545.432 -92591.169 191517.342 -92545.33 191517.34 -92545.327 191514.752 -92541.104 191509.214 -92534.619 191358.641 -92358.323 191355.433 -92354.567 191351.677 -92351.359 191274.931 -92285.811 191236.122 -92226.36 191235.616 -92155.365 191274.931 -92094.189 191351.677 -92028.641 191355.433 -92025.433 191480.975 -91878.444 191511.535 -91842.663 191511.537 -91842.66 191514.752 -91838.896 191518.709 -91832.44 191588.7 -91718.223 191642.927 -91629.732 191736.805 -91403.092 191780.58 -91220.757 191792.917 -91169.37 191792.918 -91169.364 191794.072 -91164.557 191813.319 -90920 191794.072 -90675.443 191736.805 -90436.908 191642.927 -90210.268 191545.432 -90051.169 191517.342 -90005.33 191517.34 -90005.327 191514.752 -90001.104 191484.242 -89965.381 191358.641 -89818.323 191355.433 -89814.567 191168.896 -89655.248 191166.549 -89653.81 191153.185 -89642.395 190262.812 -88752.022 190248.868 -88744.408 190247.035 -88744.539 190240.42 -88748.79 189346.815 -89642.395 189333.451 -89653.81 189331.104 -89655.248 189254.704 -89720.5 189154.866 -89805.771 189144.567 -89814.567 189137.936 -89822.331 189078.489 -89861.139 189042.126 -89866.5 185707.225 -89866.5 185639.104 -89846.498 185599.449 -89805.771 185590.576 -89791.12 185586.639 -89784.619 185465.381 -89663.361 185318.699 -89574.528 185311.452 -89572.257 185311.45 -89572.256 185220.145 -89543.643 185155.062 -89523.247 185081.635 -89516.5 185078.737 -89516.5 184824.335 -89516.501 184568.366 -89516.501 184565.508 -89516.764 184565.499 -89516.764 184529.996 -89520.026 184494.938 -89523.247 184488.56 -89525.246 184488.559 -89525.246 184338.55 -89572.256 184338.548 -89572.257 184331.301 -89574.528 184184.619 -89663.361 184089.095 -89758.885 184026.783 -89792.911 183955.968 -89787.846 183910.905 -89758.885 183815.381 -89663.361 183668.699 -89574.528 183661.452 -89572.257 183661.45 -89572.256 183570.145 -89543.643 183505.062 -89523.247 183431.635 -89516.5 183428.737 -89516.5 183174.335 -89516.501 182918.366 -89516.501 182915.508 -89516.764 182915.499 -89516.764 182879.996 -89520.026 182844.938 -89523.247 182838.56 -89525.246 182838.559 -89525.246 182688.55 -89572.256 182688.548 -89572.257 182681.301 -89574.528 182534.619 -89663.361 182413.361 -89784.619 182409.424 -89791.12 182400.551 -89805.771 182348.154 -89853.678 182292.775 -89866.5 182161.347 -89866.5 182093.226 -89846.498 182046.733 -89792.842 182036.629 -89722.568 182052.228 -89677.5 182081.223 -89627.279 182081.224 -89627.278 182084.527 -89621.556 182143.542 -89439.928 182159.91 -89284.2 182162.814 -89256.565 182163.504 -89250 182162.814 -89243.435 182144.232 -89066.635 182144.232 -89066.633 182143.542 -89060.072 182084.527 -88878.444 182061.497 -88838.554 181992.341 -88718.774 181989.04 -88713.056 181904.843 -88619.545 181865.675 -88576.045 181865.674 -88576.044 181861.253 -88571.134 181706.752 -88458.882 181700.724 -88456.198 181700.722 -88456.197 181540.653 -88384.93 188687.57 -88384.93 188706.035 -88619.545 188707.578 -88629.292 188762.517 -88858.125 188765.566 -88867.51 188855.625 -89084.933 188860.107 -89093.728 188971.072 -89274.805 188981.53 -89284.267 188990.306 -89280.484 189877.978 -88392.812 189884.356 -88381.132 190614.408 -88381.132 190614.539 -88382.965 190618.79 -88389.58 191506.65 -89277.44 191519.03 -89284.2 191526.68 -89278.473 191639.893 -89093.728 191644.375 -89084.933 191734.434 -88867.51 191737.483 -88858.125 191792.422 -88629.292 191793.965 -88619.545 191812.43 -88384.93 191812.43 -88375.07 191793.965 -88140.455 191792.422 -88130.708 191737.483 -87901.875 191734.434 -87892.49 191644.375 -87675.067 191639.893 -87666.272 191528.928 -87485.195 191518.47 -87475.733 191509.694 -87479.516 190622.022 -88367.188 190614.408 -88381.132 189884.356 -88381.132 189885.592 -88378.868 189885.461 -88377.035 189881.21 -88370.42 188993.35 -87482.56 188980.97 -87475.8 188973.32 -87481.527 188860.107 -87666.272 188855.625 -87675.067 188765.566 -87892.49 188762.517 -87901.875 188707.578 -88130.708 188706.035 -88140.455 188687.57 -88375.07 188687.57 -88384.93 181540.653 -88384.93 181538.319 -88383.891 181538.318 -88383.891 181532.288 -88381.206 181438.888 -88361.353 181351.944 -88342.872 181351.939 -88342.872 181345.487 -88341.5 181154.513 -88341.5 181148.061 -88342.872 181148.056 -88342.872 181061.113 -88361.353 180967.712 -88381.206 180961.682 -88383.891 180961.681 -88383.891 180799.278 -88456.197 180799.276 -88456.198 180793.248 -88458.882 180787.907 -88462.762 180787.906 -88462.763 180716.777 -88514.442 180649.91 -88538.3 180580.758 -88522.22 180553.621 -88501.601 180465.381 -88413.361 180318.699 -88324.528 180311.452 -88322.257 180311.45 -88322.256 180245.164 -88301.483 180155.062 -88273.247 180081.635 -88266.5 180078.737 -88266.5 179824.335 -88266.501 179568.366 -88266.501 179565.508 -88266.764 179565.499 -88266.764 179529.996 -88270.026 179494.938 -88273.247 179488.56 -88275.246 179488.559 -88275.246 179338.55 -88322.256 179338.548 -88322.257 179331.301 -88324.528 179184.619 -88413.361 179089.095 -88508.885 179026.783 -88542.911 178955.968 -88537.846 178910.905 -88508.885 178815.381 -88413.361 178668.699 -88324.528 178661.452 -88322.257 178661.45 -88322.256 178595.164 -88301.483 178505.062 -88273.247 178431.635 -88266.5 178428.737 -88266.5 178174.335 -88266.501 177918.366 -88266.501 177915.508 -88266.764 177915.499 -88266.764 177879.996 -88270.026 177844.938 -88273.247 177838.56 -88275.246 177838.559 -88275.246 177688.55 -88322.256 177688.548 -88322.257 177681.301 -88324.528 177534.619 -88413.361 177413.361 -88534.619 177324.528 -88681.301 177322.257 -88688.548 177322.256 -88688.55 177304.751 -88744.408 177273.247 -88844.938 177266.5 -88918.365 177266.501 -89093.728 177266.501 -89247.904 177246.499 -89316.024 177229.596 -89337 177043.348 -89523.247 176857.742 -89708.853 176849.463 -89716.387 176842.982 -89720.5 176796.357 -89770.151 176793.602 -89772.993 176773.865 -89792.73 176771.385 -89795.927 176763.682 -89804.947 176733.414 -89837.179 176729.595 -89844.125 176729.593 -89844.128 176723.652 -89854.934 176712.801 -89871.453 176700.387 -89887.458 176699.686 -89886.914 176652.65 -89930.828 176582.799 -89943.531 176526.229 -89920.758 176525.626 -89921.778 176518.941 -89917.825 176518.873 -89917.797 176512.541 -89912.886 176505.272 -89909.741 176505.268 -89909.738 176471.963 -89895.326 176461.313 -89890.109 176422.56 -89868.805 176402.937 -89863.767 176384.234 -89857.363 176372.92 -89852.467 176372.919 -89852.467 176365.645 -89849.319 176357.822 -89848.08 176357.812 -89848.077 176321.976 -89842.401 176310.356 -89839.995 176275.211 -89830.972 176275.21 -89830.972 176267.53 -89829 176247.276 -89829 176227.565 -89827.449 176224.573 -89826.975 176207.557 -89824.28 176179.047 -89826.975 176109.346 -89813.472 176078.171 -89790.707 176042.422 -89755.02 175957.702 -89670.448 175933.043 -89655.248 175818.331 -89584.538 175818.329 -89584.537 175812.101 -89580.698 175649.757 -89526.851 175642.92 -89526.151 175642.918 -89526.15 175601.599 -89521.917 175548.732 -89516.5 174951.268 -89516.5 174948.022 -89516.837 174948.018 -89516.837 174913.917 -89520.375 174848.981 -89527.113 174842.44 -89529.295 174842.441 -89529.295 174693.676 -89578.927 174693.674 -89578.928 174686.732 -89581.244 174680.508 -89585.096 174680.507 -89585.096 174567.143 -89655.248 174541.287 -89671.248 174536.114 -89676.43 174536.109 -89676.434 174464.203 -89748.466 174401.921 -89782.546 174331.101 -89777.543 174286.013 -89748.623 174207.702 -89670.448 174183.043 -89655.248 174068.331 -89584.538 174068.329 -89584.537 174062.101 -89580.698 173899.757 -89526.851 173892.92 -89526.151 173892.918 -89526.15 173851.599 -89521.917 173798.732 -89516.5 173201.268 -89516.5 173198.022 -89516.837 173198.018 -89516.837 173163.917 -89520.375 173098.981 -89527.113 173092.44 -89529.295 173092.441 -89529.295 172943.676 -89578.927 172943.674 -89578.928 172936.732 -89581.244 172863.585 -89626.509 172821.351 -89652.644 172755.048 -89671.5 172024.95 -89671.5 171956.829 -89651.498 171943.729 -89640.941 171943.675 -89641.011 171937.415 -89636.155 171931.807 -89630.547 171924.983 -89626.511 171924.98 -89626.509 171795.427 -89549.892 171795.428 -89549.892 171788.601 -89545.855 171780.99 -89543.644 171780.988 -89543.643 171720.775 -89526.15 171628.831 -89499.438 171622.426 -89498.934 171622.421 -89498.933 171593.958 -89496.693 171593.95 -89496.693 171591.502 -89496.5 169708.498 -89496.5 169706.05 -89496.693 169706.042 -89496.693 169677.579 -89498.933 169677.574 -89498.934 169671.169 -89499.438 169579.225 -89526.15 169519.012 -89543.643 169519.01 -89543.644 169511.399 -89545.855 169504.572 -89549.892 169504.573 -89549.892 169375.02 -89626.509 169375.017 -89626.511 169368.193 -89630.547 169250.547 -89748.193 169246.511 -89755.017 169246.509 -89755.02 169201.338 -89831.4 169165.855 -89891.399 169163.644 -89899.01 169163.643 -89899.012 169157.029 -89921.778 169119.438 -90051.169 169116.5 -90088.498 169116.5 -90521.502 169119.438 -90558.831 169121.233 -90565.008 169153.317 -90675.443 169165.855 -90718.601 169250.547 -90861.807 169253.487 -90864.747 169278.82 -90929.266 169264.921 -90998.889 169252.874 -91017.636 169246.91 -91025.324 169170.352 -91154.779 169164.107 -91169.21 169125.061 -91303.605 169125.101 -91317.706 169132.37 -91321 172161.878 -91321 172175.409 -91317.027 172176.544 -91309.129 172135.893 -91169.21 172129.648 -91154.779 172114.189 -91128.639 172096.73 -91059.823 172119.247 -90992.491 172174.591 -90948.022 172222.643 -90938.5 172467.04 -90938.5 172535.161 -90958.502 172580.111 -91009.872 172581.244 -91013.268 172671.248 -91158.713 172676.43 -91163.886 172680.977 -91169.623 172679.17 -91171.055 172707.902 -91223.575 172702.892 -91294.395 172679.501 -91330.853 172680.552 -91331.683 172667.002 -91348.84 172584.996 -91481.88 172578.849 -91495.061 172529.509 -91643.814 172526.642 -91657.19 172517.328 -91748.097 172517.071 -91753.126 172521.475 -91768.124 172522.865 -91769.329 172530.548 -91771 175378 -91771 175446.121 -91791.002 175492.614 -91844.658 175504 -91897 175504 -92964.885 175508.475 -92980.124 175509.865 -92981.329 175517.548 -92983 175545.438 -92983 175551.953 -92982.663 175644.057 -92973.106 175657.459 -92970.211 175730.625 -92945.802 175801.574 -92943.218 175862.658 -92979.402 175894.482 -93042.867 175896.5 -93065.326 175896.5 -95444.224 175894.949 -95463.934 175891.78 -95483.943 175892.526 -95491.835 175895.941 -95527.961 175896.5 -95539.819 175896.5 -96549.437 175876.498 -96617.558 175822.842 -96664.051 175752.568 -96674.155 175705.229 -96657.213 175568.699 -96574.528 175561.452 -96572.257 175561.45 -96572.256 175488.634 -96549.437 175405.062 -96523.247 175331.635 -96516.5 175328.737 -96516.5 175074.335 -96516.501 174818.366 -96516.501 174815.508 -96516.764 174815.499 -96516.764 174780.52 -96519.978 174744.938 -96523.247 174738.56 -96525.246 174738.559 -96525.246 174588.55 -96572.256 174588.548 -96572.257 174581.301 -96574.528 174434.619 -96663.361 174339.095 -96758.885 174276.783 -96792.911 174205.968 -96787.846 174160.905 -96758.885 174065.381 -96663.361 173918.699 -96574.528 173911.452 -96572.257 173911.45 -96572.256 173838.634 -96549.437 173755.062 -96523.247 173681.635 -96516.5 173654.815 -96516.5 173220.929 -96516.501 173152.808 -96496.499 173106.315 -96442.844 173101.096 -96429.437 173086.569 -96384.728 173086.568 -96384.727 173084.527 -96378.444 172989.04 -96213.056 172984.62 -96208.148 172980.741 -96202.808 172982.08 -96201.835 172954.95 -96145.304 172963.713 -96074.851 172981.25 -96047.562 172980.741 -96047.192 172984.62 -96041.852 172989.04 -96036.944 173084.527 -95871.556 173143.542 -95689.928 173148.913 -95638.831 173162.814 -95506.565 173163.504 -95500 173143.542 -95310.072 173084.527 -95128.444 172989.04 -94963.056 172984.62 -94958.148 172980.741 -94952.808 172982.08 -94951.835 172954.95 -94895.304 172963.713 -94824.851 172981.25 -94797.562 172980.741 -94797.192 172984.62 -94791.852 172989.04 -94786.944 173060.26 -94663.588 173081.223 -94627.279 173081.224 -94627.278 173084.527 -94621.556 173143.542 -94439.928 173163.504 -94250 173157.19 -94189.928 173144.232 -94066.635 173144.232 -94066.633 173143.542 -94060.072 173084.527 -93878.444 173048.495 -93816.034 173035.054 -93792.755 172989.04 -93713.056 172984.62 -93708.148 172980.741 -93702.808 172982.08 -93701.835 172954.95 -93645.304 172963.713 -93574.851 172981.25 -93547.562 172980.741 -93547.192 172984.62 -93541.852 172989.04 -93536.944 173084.527 -93371.556 173143.542 -93189.928 173146.845 -93158.5 173154.475 -93085.909 173181.488 -93020.252 173242.22 -92979.569 173244.329 -92977.135 173246 -92969.452 173246 -92964.885 173754 -92964.885 173758.475 -92980.124 173759.865 -92981.329 173767.548 -92983 173795.438 -92983 173801.953 -92982.663 173894.057 -92973.106 173907.456 -92970.212 174056.107 -92920.619 174069.286 -92914.445 174202.173 -92832.212 174213.574 -92823.176 174285.795 -92750.828 174348.078 -92716.748 174418.898 -92721.751 174463.987 -92750.672 174537.429 -92823.986 174548.84 -92832.998 174681.88 -92915.004 174695.061 -92921.151 174843.814 -92970.491 174857.19 -92973.358 174948.097 -92982.672 174954.513 -92983 174977.885 -92983 174993.124 -92978.525 174994.329 -92977.135 174996 -92969.452 174996 -92297.115 174991.525 -92281.876 174990.135 -92280.671 174982.452 -92279 173772.115 -92279 173756.876 -92283.475 173755.671 -92284.865 173754 -92292.548 173754 -92964.885 173246 -92964.885 173246 -92297.115 173241.525 -92281.876 173240.135 -92280.671 173232.452 -92279 172844.201 -92279 172770.14 -92254.936 172712.094 -92212.763 172712.093 -92212.762 172706.752 -92208.882 172700.724 -92206.198 172700.722 -92206.197 172538.319 -92133.891 172538.318 -92133.891 172532.288 -92131.206 172438.888 -92111.353 172351.944 -92092.872 172351.939 -92092.872 172345.487 -92091.5 172271.546 -92091.5 172203.425 -92071.498 172156.932 -92017.842 172146.828 -91947.568 172150.549 -91930.347 172174.939 -91846.396 172174.899 -91832.294 172167.63 -91829 169138.122 -91829 169124.591 -91832.973 169123.456 -91840.871 169164.107 -91980.79 169170.352 -91995.221 169246.911 -92124.677 169252.871 -92132.36 169278.82 -92198.444 169264.922 -92268.067 169254.579 -92284.161 169250.547 -92288.193 169165.855 -92431.399 169119.438 -92591.169 169118.934 -92597.574 169118.933 -92597.579 169117.046 -92621.556 169116.5 -92628.498 169116.5 -93061.502 169119.438 -93098.831 169128.445 -93129.834 169153.317 -93215.443 169165.855 -93258.601 169250.547 -93401.807 169253.229 -93404.489 169278.502 -93468.861 169264.6 -93538.484 169254.428 -93554.312 169250.547 -93558.193 169165.855 -93701.399 169163.644 -93709.01 169163.643 -93709.012 169162.468 -93713.056 169119.438 -93861.169 169118.934 -93867.574 169118.933 -93867.579 169117.415 -93886.867 169116.5 -93898.498 169116.5 -94331.502 169119.438 -94368.831 169165.855 -94528.601 169250.547 -94671.807 169253.229 -94674.489 169278.502 -94738.861 169264.6 -94808.484 169254.428 -94824.312 169250.547 -94828.193 169165.855 -94971.399 169119.438 -95131.169 169118.934 -95137.574 169118.933 -95137.579 169116.693 -95166.042 169116.5 -95168.498 169116.5 -95601.502 169119.438 -95638.831 169121.233 -95645.008 169153.317 -95755.443 169165.855 -95798.601 169250.547 -95941.807 169253.229 -95944.489 169278.502 -96008.861 169264.6 -96078.484 169254.428 -96094.312 169250.547 -96098.193 169165.855 -96241.399 169119.438 -96401.169 169116.5 -96438.498 169116.5 -96871.502 169119.438 -96908.831 169165.855 -97068.601 169250.547 -97211.807 169253.229 -97214.489 169278.502 -97278.861 169264.6 -97348.484 169254.428 -97364.312 169250.547 -97368.193 169165.855 -97511.399 169163.644 -97519.01 169163.643 -97519.012 169157.22 -97541.12 169119.438 -97671.169 169118.934 -97677.574 169118.933 -97677.579 169118.07 -97688.55 169116.5 -97708.498 169116.5 -98141.502 168500 -98141.502 168500 -87111.53 189345.733 -87111.53 189349.516 -87120.306 190237.188 -88007.978 190251.132 -88015.592 190252.965 -88015.461 190259.58 -88011.21 191147.44 -87123.35 191154.2 -87110.97 191148.473 -87103.32 190963.728 -86990.107 190954.933 -86985.625 190737.51 -86895.566 190728.125 -86892.517 190499.292 -86837.578 190489.545 -86836.035 190254.93 -86817.57 190245.07 -86817.57 190010.455 -86836.035 190000.708 -86837.578 189771.875 -86892.517 189762.49 -86895.566 189545.067 -86985.625 189536.272 -86990.107 189355.195 -87101.072 189345.733 -87111.53 168500 -87111.53 168500 -86634.5 168520.002 -86566.379 168573.658 -86519.886 168626 -86508.5 193865.5 -86508.5 193933.621 -86528.502"/><path d="M 163442.121 -86528.502 163488.614 -86582.158 163500 -86634.5 163500 -102865.5 163479.998 -102933.621 163426.342 -102980.114 163374 -102991.5 152134.5 -102991.5 152066.379 -102971.498 152019.886 -102917.842 152008.5 -102865.5 152008.5 -99874.669 152492.001 -99874.669 152492.371 -99881.49 152497.895 -99932.352 152501.521 -99947.604 152546.676 -100068.054 152555.214 -100083.649 152631.715 -100185.724 152644.276 -100198.285 152746.351 -100274.786 152761.946 -100283.324 152882.394 -100328.478 152897.649 -100332.105 152948.514 -100337.631 152955.328 -100338 153227.885 -100338 153243.124 -100333.525 153244.329 -100332.135 153246 -100324.452 153246 -100319.884 153754 -100319.884 153758.475 -100335.123 153759.865 -100336.328 153767.548 -100337.999 154044.669 -100337.999 154051.49 -100337.629 154102.352 -100332.105 154117.604 -100328.479 154238.054 -100283.324 154253.649 -100274.786 154355.724 -100198.285 154368.285 -100185.724 154444.786 -100083.649 154453.324 -100068.054 154498.478 -99947.606 154502.105 -99932.351 154507.631 -99881.486 154508 -99874.672 154508 -99602.115 154503.525 -99586.876 154502.135 -99585.671 154494.452 -99584 153772.115 -99584 153756.876 -99588.475 153755.671 -99589.865 153754 -99597.548 153754 -100319.884 153246 -100319.884 153246 -99602.115 153241.525 -99586.876 153240.135 -99585.671 153232.452 -99584 152510.116 -99584 152494.877 -99588.475 152493.672 -99589.865 152492.001 -99597.548 152492.001 -99874.669 152008.5 -99874.669 152008.5 -99460.871 159823.456 -99460.871 159864.107 -99600.79 159870.352 -99615.221 159946.911 -99744.678 159956.551 -99757.104 160062.896 -99863.449 160075.322 -99873.089 160204.779 -99949.648 160219.21 -99955.893 160365.065 -99998.269 160377.667 -100000.57 160406.084 -100002.807 160411.014 -100003 161077.885 -100003 161093.124 -99998.525 161094.329 -99997.135 161096 -99989.452 161096 -99984.884 161604 -99984.884 161608.475 -100000.123 161609.865 -100001.328 161617.548 -100002.999 162288.984 -100002.999 162293.92 -100002.805 162322.336 -100000.57 162334.931 -99998.27 162480.79 -99955.893 162495.221 -99949.648 162624.678 -99873.089 162637.104 -99863.449 162743.449 -99757.104 162753.089 -99744.678 162829.648 -99615.221 162835.893 -99600.79 162874.939 -99466.395 162874.899 -99452.294 162867.63 -99449 161622.115 -99449 161606.876 -99453.475 161605.671 -99454.865 161604 -99462.548 161604 -99984.884 161096 -99984.884 161096 -99467.115 161091.525 -99451.876 161090.135 -99450.671 161082.452 -99449 159838.122 -99449 159824.591 -99452.973 159823.456 -99460.871 152008.5 -99460.871 152008.5 -98045.851 152486.719 -98045.851 152503.268 -98242.934 152557.783 -98433.05 152560.602 -98438.535 152564.402 -98445.929 152577.75 -98515.66 152557.667 -98567.468 152559.521 -98568.483 152546.677 -98591.942 152501.522 -98712.394 152497.895 -98727.649 152492.369 -98778.514 152492 -98785.328 152492 -99057.885 152496.475 -99073.124 152497.865 -99074.329 152505.548 -99076 154489.884 -99076 154505.123 -99071.525 154506.328 -99070.135 154507.999 -99062.452 154507.999 -98819.5 154528.001 -98751.379 154581.657 -98704.886 154633.999 -98693.5 157861.233 -98693.5 157872.416 -98694.027 157879.909 -98695.702 157887.835 -98695.453 157887.836 -98695.453 157947.986 -98693.562 157951.945 -98693.5 157979.856 -98693.5 157983.791 -98693.003 157983.856 -98692.995 157995.693 -98692.062 158027.951 -98691.048 158031.97 -98690.922 158039.889 -98690.673 158059.343 -98685.021 158078.7 -98681.013 158090.93 -98679.468 158090.931 -98679.468 158098.797 -98678.474 158106.168 -98675.555 158106.17 -98675.555 158139.912 -98662.196 158151.142 -98658.351 158185.983 -98648.229 158185.984 -98648.229 158193.593 -98646.018 158200.412 -98641.985 158200.417 -98641.983 158211.028 -98635.707 158228.776 -98627.012 158247.617 -98619.552 158262.202 -98608.956 158283.387 -98593.564 158293.307 -98587.048 158324.535 -98568.58 158324.538 -98568.578 158331.362 -98564.542 158345.683 -98550.221 158360.717 -98537.38 158370.694 -98530.131 158377.107 -98525.472 158405.298 -98491.395 158413.288 -98482.616 159570.5 -97325.405 159632.812 -97291.379 159659.595 -97288.5 159776.776 -97288.5 159844.897 -97308.502 159891.39 -97362.158 159901.494 -97432.432 159885.231 -97478.636 159865.855 -97511.399 159819.438 -97671.169 159816.5 -97708.498 159816.5 -98141.502 159819.438 -98178.831 159865.855 -98338.601 159950.547 -98481.807 159953.487 -98484.747 159978.82 -98549.266 159964.921 -98618.889 159952.874 -98637.636 159946.91 -98645.324 159870.352 -98774.779 159864.107 -98789.21 159825.061 -98923.605 159825.101 -98937.706 159832.37 -98941 162861.878 -98941 162875.409 -98937.027 162876.544 -98929.129 162835.893 -98789.21 162829.648 -98774.779 162753.089 -98645.323 162747.129 -98637.64 162721.18 -98571.556 162735.078 -98501.933 162745.421 -98485.839 162749.453 -98481.807 162834.145 -98338.601 162880.562 -98178.831 162883.5 -98141.502 162883.5 -97708.498 162880.562 -97671.169 162834.145 -97511.399 162749.453 -97368.193 162746.771 -97365.511 162721.498 -97301.139 162735.4 -97231.516 162745.572 -97215.688 162749.453 -97211.807 162834.145 -97068.601 162880.562 -96908.831 162883.5 -96871.502 162883.5 -96438.498 162880.562 -96401.169 162834.145 -96241.399 162749.453 -96098.193 162746.771 -96095.511 162721.498 -96031.139 162735.4 -95961.516 162745.572 -95945.688 162749.453 -95941.807 162834.145 -95798.601 162880.562 -95638.831 162883.5 -95601.502 162883.5 -95168.498 162880.562 -95131.169 162834.145 -94971.399 162749.453 -94828.193 162746.771 -94825.511 162721.498 -94761.139 162735.4 -94691.516 162745.572 -94675.688 162749.453 -94671.807 162834.145 -94528.601 162880.562 -94368.831 162883.5 -94331.502 162883.5 -93898.498 162880.562 -93861.169 162834.145 -93701.399 162749.453 -93558.193 162746.771 -93555.511 162721.498 -93491.139 162735.4 -93421.516 162745.572 -93405.688 162749.453 -93401.807 162834.145 -93258.601 162880.562 -93098.831 162883.5 -93061.502 162883.5 -92628.498 162882.556 -92616.5 162881.067 -92597.579 162881.066 -92597.574 162880.562 -92591.169 162834.145 -92431.399 162749.453 -92288.193 162746.513 -92285.253 162721.18 -92220.734 162735.079 -92151.111 162747.126 -92132.364 162753.09 -92124.676 162829.648 -91995.221 162835.893 -91980.79 162874.939 -91846.395 162874.899 -91832.294 162867.63 -91829 159838.122 -91829 159824.591 -91832.973 159823.456 -91840.871 159864.107 -91980.79 159870.352 -91995.221 159946.911 -92124.677 159952.871 -92132.36 159978.82 -92198.444 159964.922 -92268.067 159954.579 -92284.161 159950.547 -92288.193 159880.766 -92406.186 159871.293 -92422.204 159851.935 -92447.16 159719.5 -92579.595 159657.188 -92613.621 159630.405 -92616.5 159575.275 -92616.5 159507.154 -92596.498 159460.661 -92542.842 159450.557 -92472.568 159455.682 -92450.832 159470.491 -92406.186 159473.358 -92392.81 159482.672 -92301.903 159482.929 -92296.874 159478.525 -92281.876 159477.135 -92280.671 159469.452 -92279 155785.115 -92279 155769.876 -92283.475 155768.671 -92284.865 155767 -92292.548 155767 -92295.438 155767.337 -92301.953 155776.894 -92394.057 155779.788 -92407.456 155814.106 -92510.322 155816.69 -92581.272 155780.506 -92642.356 155748.296 -92663.432 155746.407 -92663.981 155739.586 -92668.015 155739.581 -92668.017 155728.966 -92674.295 155711.213 -92682.992 155703.568 -92686.019 155692.383 -92690.448 155685.968 -92695.109 155656.612 -92716.437 155646.695 -92722.951 155608.638 -92745.458 155594.317 -92759.779 155579.284 -92772.619 155562.893 -92784.528 155557.843 -92790.632 155557.838 -92790.637 155534.707 -92818.598 155526.717 -92827.379 154774.499 -93579.596 154712.187 -93613.621 154685.404 -93616.5 154514.826 -93616.5 154446.705 -93596.498 154400.212 -93542.842 154390.108 -93472.568 154405.269 -93428.266 154425.769 -93392.179 154488.197 -93204.513 154512.985 -93008.295 154513.38 -92980 154494.08 -92783.167 154489.137 -92766.793 154462.733 -92679.342 154436.916 -92593.831 154344.066 -92419.204 154340.167 -92414.424 154339.715 -92413.743 154318.676 -92345.935 154335.105 -92281.775 154336.682 -92279 154398.292 -92170.547 154422.723 -92127.542 154422.725 -92127.537 154425.769 -92122.179 154488.197 -91934.513 154512.985 -91738.295 154513.38 -91710 154494.08 -91513.167 154488.614 -91495.061 154466.823 -91422.887 154436.916 -91323.831 154434.024 -91318.392 154434.022 -91318.387 154402.261 -91258.652 154387.942 -91189.115 154413.49 -91122.874 154470.795 -91080.962 154513.513 -91073.5 155798.313 -91073.5 155866.434 -91093.502 155905.457 -91133.196 155917.397 -91152.49 155921.248 -91158.713 155926.427 -91163.883 155930.974 -91169.62 155929.168 -91171.051 155957.902 -91223.575 155952.892 -91294.395 155929.501 -91330.853 155930.552 -91331.683 155917.002 -91348.84 155834.996 -91481.88 155828.849 -91495.061 155779.509 -91643.814 155776.642 -91657.19 155767.328 -91748.097 155767.071 -91753.126 155771.475 -91768.124 155772.865 -91769.329 155780.548 -91771 159464.885 -91771 159480.124 -91766.525 159481.329 -91765.135 159483 -91757.452 159483 -91754.562 159482.663 -91748.047 159473.106 -91655.943 159470.212 -91642.544 159420.619 -91493.893 159414.445 -91480.714 159332.212 -91347.827 159318.629 -91330.689 159320.559 -91329.159 159292.097 -91277.12 159297.113 -91206.301 159320.799 -91169.383 159319.843 -91168.628 159324.381 -91162.882 159329.552 -91157.702 159419.302 -91012.101 159420.08 -91009.755 159465.678 -90957.966 159532.958 -90938.5 159777.357 -90938.5 159845.478 -90958.502 159891.971 -91012.158 159902.075 -91082.432 159885.811 -91128.639 159870.352 -91154.779 159864.107 -91169.21 159825.061 -91303.605 159825.101 -91317.706 159832.37 -91321 162861.878 -91321 162875.409 -91317.027 162876.544 -91309.129 162835.893 -91169.21 162829.648 -91154.779 162753.089 -91025.323 162747.129 -91017.64 162721.18 -90951.556 162735.078 -90881.933 162745.421 -90865.839 162749.453 -90861.807 162834.145 -90718.601 162880.562 -90558.831 162883.5 -90521.502 162883.5 -90088.498 162880.562 -90051.169 162834.145 -89891.399 162772.107 -89786.498 162753.491 -89755.02 162753.489 -89755.017 162749.453 -89748.193 162631.807 -89630.547 162624.983 -89626.511 162624.98 -89626.509 162495.427 -89549.892 162495.428 -89549.892 162488.601 -89545.855 162480.99 -89543.644 162480.988 -89543.643 162387.559 -89516.5 162328.831 -89499.438 162322.426 -89498.934 162322.421 -89498.933 162293.958 -89496.693 162293.95 -89496.693 162291.502 -89496.5 160408.498 -89496.5 160406.05 -89496.693 160406.042 -89496.693 160377.579 -89498.933 160377.574 -89498.934 160371.169 -89499.438 160312.441 -89516.5 160219.012 -89543.643 160219.01 -89543.644 160211.399 -89545.855 160204.572 -89549.892 160204.573 -89549.892 160075.02 -89626.509 160075.017 -89626.511 160068.193 -89630.547 160062.585 -89636.155 160056.325 -89641.011 160055.156 -89639.504 160001.833 -89668.621 159975.05 -89671.5 159245.123 -89671.5 159179.007 -89652.76 159068.331 -89584.538 159068.329 -89584.537 159062.101 -89580.698 158899.757 -89526.851 158892.92 -89526.151 158892.918 -89526.15 158851.599 -89521.917 158798.732 -89516.5 158201.268 -89516.5 158198.022 -89516.837 158198.018 -89516.837 158163.917 -89520.375 158098.981 -89527.113 158092.44 -89529.295 158092.441 -89529.295 157943.676 -89578.927 157943.674 -89578.928 157936.732 -89581.244 157930.508 -89585.096 157930.507 -89585.096 157821.163 -89652.76 157791.287 -89671.248 157786.114 -89676.43 157786.109 -89676.434 157714.203 -89748.466 157651.921 -89782.546 157581.101 -89777.543 157536.013 -89748.623 157457.702 -89670.448 157429.007 -89652.76 157318.331 -89584.538 157318.329 -89584.537 157312.101 -89580.698 157149.757 -89526.851 157142.92 -89526.151 157142.918 -89526.15 157101.599 -89521.917 157048.732 -89516.5 156451.268 -89516.5 156448.022 -89516.837 156448.018 -89516.837 156413.917 -89520.375 156348.981 -89527.113 156342.44 -89529.295 156342.441 -89529.295 156193.676 -89578.927 156193.674 -89578.928 156186.732 -89581.244 156180.508 -89585.096 156180.507 -89585.096 156071.163 -89652.76 156041.287 -89671.248 156036.114 -89676.43 155943.188 -89769.518 155880.905 -89803.597 155854.015 -89806.5 154344.599 -89806.5 154276.478 -89786.498 154246.956 -89760.135 154222.964 -89730.718 154222.961 -89730.715 154219.065 -89725.938 154212.724 -89720.692 154071.425 -89603.799 154071.421 -89603.797 154066.675 -89599.87 153892.701 -89505.802 153703.768 -89447.318 153697.643 -89446.674 153697.642 -89446.674 153513.204 -89427.289 153513.202 -89427.289 153507.075 -89426.645 153424.576 -89434.153 153316.251 -89444.011 153316.248 -89444.012 153310.112 -89444.57 153304.206 -89446.308 153304.202 -89446.309 153199.076 -89477.249 153120.381 -89500.41 153114.923 -89503.263 153114.919 -89503.265 153088.976 -89516.828 152945.11 -89592.04 152790.975 -89715.968 152663.846 -89867.474 152660.879 -89872.872 152660.875 -89872.877 152582.095 -90016.18 152568.567 -90040.787 152566.706 -90046.654 152566.705 -90046.656 152510.627 -90223.436 152508.765 -90229.306 152486.719 -90425.851 152503.268 -90622.934 152557.783 -90813.05 152648.187 -90988.956 152652.016 -90993.787 152653.839 -90996.088 152654.414 -90997.509 152655.353 -90998.966 152655.076 -90999.144 152680.474 -91061.898 152667.301 -91131.662 152663.846 -91137.474 152568.567 -91310.787 152566.706 -91316.654 152566.705 -91316.656 152529.64 -91433.5 152508.765 -91499.306 152486.719 -91695.851 152503.268 -91892.934 152557.783 -92083.05 152648.187 -92258.956 152652.016 -92263.787 152653.839 -92266.088 152654.414 -92267.509 152655.353 -92268.966 152655.076 -92269.144 152680.474 -92331.898 152667.301 -92401.662 152663.846 -92407.474 152568.567 -92580.787 152566.706 -92586.654 152566.705 -92586.656 152533.78 -92690.448 152508.765 -92769.306 152486.719 -92965.851 152503.268 -93162.934 152557.783 -93353.05 152560.602 -93358.535 152628.752 -93491.139 152648.187 -93528.956 152652.016 -93533.787 152653.839 -93536.088 152654.414 -93537.509 152655.353 -93538.966 152655.076 -93539.144 152680.474 -93601.898 152667.301 -93671.662 152663.846 -93677.474 152568.567 -93850.787 152566.706 -93856.654 152566.705 -93856.656 152510.627 -94033.436 152508.765 -94039.306 152486.719 -94235.851 152503.268 -94432.934 152557.783 -94623.05 152560.602 -94628.535 152628.752 -94761.139 152648.187 -94798.956 152652.016 -94803.787 152653.839 -94806.088 152654.414 -94807.509 152655.353 -94808.966 152655.076 -94809.144 152680.474 -94871.898 152667.301 -94941.662 152663.846 -94947.474 152568.567 -95120.787 152566.706 -95126.654 152566.705 -95126.656 152552.48 -95171.498 152508.765 -95309.306 152486.719 -95505.851 152503.268 -95702.934 152557.783 -95893.05 152560.602 -95898.535 152628.752 -96031.139 152648.187 -96068.956 152652.016 -96073.787 152653.839 -96076.088 152654.414 -96077.509 152655.353 -96078.966 152655.076 -96079.144 152680.474 -96141.898 152667.301 -96211.662 152663.846 -96217.474 152568.567 -96390.787 152566.706 -96396.654 152566.705 -96396.656 152533 -96502.908 152508.765 -96579.306 152486.719 -96775.851 152503.268 -96972.934 152557.783 -97163.05 152560.602 -97168.535 152628.752 -97301.139 152648.187 -97338.956 152652.016 -97343.787 152653.839 -97346.088 152654.414 -97347.509 152655.353 -97348.966 152655.076 -97349.144 152680.474 -97411.898 152667.301 -97481.662 152663.846 -97487.474 152568.567 -97660.787 152566.706 -97666.654 152566.705 -97666.656 152510.627 -97843.436 152508.765 -97849.306 152486.719 -98045.851 152008.5 -98045.851 152008.5 -86634.5 152028.502 -86566.379 152082.158 -86519.886 152134.5 -86508.5 163374 -86508.5 163442.121 -86528.502"/></g><g id="ZLZ60YHT8OgN_top_soldermask"><use xlink:href="#vbTlqRPtQTqQ_pad-10" x="175250" y="-90475"/><use xlink:href="#vbTlqRPtQTqQ_pad-10" x="175250" y="-92025"/><use xlink:href="#vbTlqRPtQTqQ_pad-11" x="175075" y="-99250"/><use xlink:href="#vbTlqRPtQTqQ_pad-11" x="173425" y="-99250"/><use xlink:href="#vbTlqRPtQTqQ_pad-12" x="173425" y="-97500"/><use xlink:href="#vbTlqRPtQTqQ_pad-12" x="175075" y="-97500"/><use xlink:href="#vbTlqRPtQTqQ_pad-11" x="179825" y="-98250"/><use xlink:href="#vbTlqRPtQTqQ_pad-11" x="178175" y="-98250"/><use xlink:href="#vbTlqRPtQTqQ_pad-11" x="184825" y="-90500"/><use xlink:href="#vbTlqRPtQTqQ_pad-11" x="183175" y="-90500"/><use xlink:href="#vbTlqRPtQTqQ_pad-11" x="184825" y="-93250"/><use xlink:href="#vbTlqRPtQTqQ_pad-11" x="183175" y="-93250"/><use xlink:href="#vbTlqRPtQTqQ_pad-11" x="184825" y="-95750"/><use xlink:href="#vbTlqRPtQTqQ_pad-11" x="183175" y="-95750"/><use xlink:href="#vbTlqRPtQTqQ_pad-11" x="184825" y="-98250"/><use xlink:href="#vbTlqRPtQTqQ_pad-11" x="183175" y="-98250"/><use xlink:href="#vbTlqRPtQTqQ_pad-12" x="178175" y="-96500"/><use xlink:href="#vbTlqRPtQTqQ_pad-12" x="179825" y="-96500"/><use xlink:href="#vbTlqRPtQTqQ_pad-13" x="153500" y="-99330"/><use xlink:href="#vbTlqRPtQTqQ_pad-14" x="153500" y="-98060"/><use xlink:href="#vbTlqRPtQTqQ_pad-14" x="153500" y="-96790"/><use xlink:href="#vbTlqRPtQTqQ_pad-14" x="153500" y="-95520"/><use xlink:href="#vbTlqRPtQTqQ_pad-14" x="153500" y="-94250"/><use xlink:href="#vbTlqRPtQTqQ_pad-14" x="153500" y="-92980"/><use xlink:href="#vbTlqRPtQTqQ_pad-14" x="153500" y="-91710"/><use xlink:href="#vbTlqRPtQTqQ_pad-14" x="153500" y="-90440"/><use xlink:href="#vbTlqRPtQTqQ_pad-10" x="173500" y="-90475"/><use xlink:href="#vbTlqRPtQTqQ_pad-10" x="173500" y="-92025"/><use xlink:href="#vbTlqRPtQTqQ_pad-12" x="178175" y="-91000"/><use xlink:href="#vbTlqRPtQTqQ_pad-12" x="179825" y="-91000"/><use xlink:href="#vbTlqRPtQTqQ_pad-15" x="190250" y="-101080"/><use xlink:href="#vbTlqRPtQTqQ_pad-16" x="190250" y="-98540"/><use xlink:href="#vbTlqRPtQTqQ_pad-16" x="190250" y="-96000"/><use xlink:href="#vbTlqRPtQTqQ_pad-16" x="190250" y="-93460"/><use xlink:href="#vbTlqRPtQTqQ_pad-16" x="190250" y="-90920"/><use xlink:href="#vbTlqRPtQTqQ_pad-16" x="190250" y="-88380"/><use xlink:href="#vbTlqRPtQTqQ_pad-10" x="158500" y="-90475"/><use xlink:href="#vbTlqRPtQTqQ_pad-10" x="158500" y="-92025"/><use xlink:href="#vbTlqRPtQTqQ_pad-10" x="156750" y="-90475"/><use xlink:href="#vbTlqRPtQTqQ_pad-10" x="156750" y="-92025"/><use xlink:href="#vbTlqRPtQTqQ_pad-17" x="158500" y="-95862.5"/><use xlink:href="#vbTlqRPtQTqQ_pad-17" x="158500" y="-94212.5"/><use xlink:href="#vbTlqRPtQTqQ_pad-18" x="161350" y="-90305"/><use xlink:href="#vbTlqRPtQTqQ_pad-18" x="161350" y="-91575"/><use xlink:href="#vbTlqRPtQTqQ_pad-18" x="161350" y="-92845"/><use xlink:href="#vbTlqRPtQTqQ_pad-18" x="161350" y="-94115"/><use xlink:href="#vbTlqRPtQTqQ_pad-18" x="161350" y="-95385"/><use xlink:href="#vbTlqRPtQTqQ_pad-18" x="161350" y="-96655"/><use xlink:href="#vbTlqRPtQTqQ_pad-18" x="161350" y="-97925"/><use xlink:href="#vbTlqRPtQTqQ_pad-18" x="161350" y="-99195"/><use xlink:href="#vbTlqRPtQTqQ_pad-18" x="170650" y="-99195"/><use xlink:href="#vbTlqRPtQTqQ_pad-18" x="170650" y="-97925"/><use xlink:href="#vbTlqRPtQTqQ_pad-18" x="170650" y="-96655"/><use xlink:href="#vbTlqRPtQTqQ_pad-18" x="170650" y="-95385"/><use xlink:href="#vbTlqRPtQTqQ_pad-18" x="170650" y="-94115"/><use xlink:href="#vbTlqRPtQTqQ_pad-18" x="170650" y="-92845"/><use xlink:href="#vbTlqRPtQTqQ_pad-18" x="170650" y="-91575"/><use xlink:href="#vbTlqRPtQTqQ_pad-18" x="170650" y="-90305"/><use xlink:href="#vbTlqRPtQTqQ_pad-11" x="179825" y="-89250"/><use xlink:href="#vbTlqRPtQTqQ_pad-11" x="178175" y="-89250"/></g><g id="ZLZ60YHT8OgN_top_silkscreen"><path d="M 174740 -91109.42 174740 -91390.58 M 175760 -91109.42 175760 -91390.58 M 174487.258 -98727.5 174012.742 -98727.5 M 174487.258 -99772.5 174012.742 -99772.5 M 174012.742 -96977.5 174487.258 -96977.5 M 174012.742 -98022.5 174487.258 -98022.5 M 179237.258 -97727.5 178762.742 -97727.5 M 179237.258 -98772.5 178762.742 -98772.5 M 184237.258 -89977.5 183762.742 -89977.5 M 184237.258 -91022.5 183762.742 -91022.5 M 184237.258 -93772.5 183762.742 -93772.5 M 184237.258 -92727.5 183762.742 -92727.5 M 184237.258 -95227.5 183762.742 -95227.5 M 184237.258 -96272.5 183762.742 -96272.5 M 184237.258 -97727.5 183762.742 -97727.5 M 184237.258 -98772.5 183762.742 -98772.5 M 178762.742 -97022.5 179237.258 -97022.5 M 178762.742 -95977.5 179237.258 -95977.5 M 154610 -100090 153500 -100090 M 153192.47 -89745 152390 -89745 M 154610 -98570 154063.471 -98570 M 154610 -98570 154610 -89745 M 154610 -99330 154610 -100090 M 154610 -89745 153807.53 -89745 M 152390 -98570 152390 -89745 M 152936.529 -98570 152390 -98570 M 172990 -91109.42 172990 -91390.58 M 174010 -91109.42 174010 -91390.58 M 178762.742 -91522.5 179237.258 -91522.5 M 178762.742 -90477.5 179237.258 -90477.5 M 193100 -102700 193100 -86760 M 186880 -86760 193620 -86760 M 186880 -102700 193620 -102700 M 186880 -102700 186880 -86760 M 193860 -102940 193860 -102540 M 193620 -102700 193620 -86760 M 188000 -102700 188000 -86760 M 193220 -102940 193860 -102940 M 157990 -91109.42 157990 -91390.58 M 159010 -91109.42 159010 -91390.58 M 157260 -91109.42 157260 -91390.58 M 156240 -91109.42 156240 -91390.58 M 157977.5 -95274.758 157977.5 -94800.242 M 159022.5 -95274.758 159022.5 -94800.242 M 166000 -89490 162140 -89490 162140 -89745 M 169860 -100010 169860 -99755 M 162140 -100010 162140 -99755 M 169860 -89490 169860 -89745 M 162140 -89745 160325 -89745 M 166000 -100010 169860 -100010 M 166000 -100010 162140 -100010 M 166000 -89490 169860 -89490 M 179237.258 -89772.5 178762.742 -89772.5 M 179237.258 -88727.5 178762.742 -88727.5" fill="none" stroke-width="120"/></g><g id="ZLZ60YHT8OgN_top_drill1" transform="scale(25.4,25.4)"><use xlink:href="#z7-8ptvzf6_v_pad-1" x="6781.5" y="-3661.4"/><use xlink:href="#z7-8ptvzf6_v_pad-1" x="6781.5" y="-3710.6"/><use xlink:href="#z7-8ptvzf6_v_pad-1" x="6781.5" y="-3759.8"/><use xlink:href="#z7-8ptvzf6_v_pad-1" x="6781.5" y="-3809.1"/><use xlink:href="#z7-8ptvzf6_v_pad-1" x="6986.2" y="-3710.6"/><use xlink:href="#z7-8ptvzf6_v_pad-1" x="6988.2" y="-3661.4"/><use xlink:href="#z7-8ptvzf6_v_pad-1" x="6988.2" y="-3759.8"/><use xlink:href="#z7-8ptvzf6_v_pad-1" x="7076.8" y="-3631.9"/><use xlink:href="#z7-8ptvzf6_v_pad-1" x="7135.8" y="-3513.8"/><use xlink:href="#z7-8ptvzf6_v_pad-1" x="7135.8" y="-3700.8"/><use xlink:href="#z7-8ptvzf6_v_pad-1" x="7135.8" y="-3759.8"/><use xlink:href="#z7-8ptvzf6_v_pad-1" x="7135.8" y="-3818.9"/><use xlink:href="#z7-8ptvzf6_v_pad-1" x="7135.8" y="-3878"/><use xlink:href="#z7-8ptvzf6_v_pad-1" x="7135.8" y="-3937"/><use xlink:href="#z7-8ptvzf6_v_pad-2" x="6043.3" y="-3560.6"/><use xlink:href="#z7-8ptvzf6_v_pad-2" x="6043.3" y="-3610.6"/><use xlink:href="#z7-8ptvzf6_v_pad-2" x="6043.3" y="-3660.6"/><use xlink:href="#z7-8ptvzf6_v_pad-2" x="6043.3" y="-3710.6"/><use xlink:href="#z7-8ptvzf6_v_pad-2" x="6043.3" y="-3760.6"/><use xlink:href="#z7-8ptvzf6_v_pad-2" x="6043.3" y="-3810.6"/><use xlink:href="#z7-8ptvzf6_v_pad-2" x="6043.3" y="-3860.6"/><use xlink:href="#z7-8ptvzf6_v_pad-2" x="6043.3" y="-3910.6"/><use xlink:href="#z7-8ptvzf6_v_pad-3" x="7490.2" y="-3479.5"/><use xlink:href="#z7-8ptvzf6_v_pad-3" x="7490.2" y="-3579.5"/><use xlink:href="#z7-8ptvzf6_v_pad-3" x="7490.2" y="-3679.5"/><use xlink:href="#z7-8ptvzf6_v_pad-3" x="7490.2" y="-3779.5"/><use xlink:href="#z7-8ptvzf6_v_pad-3" x="7490.2" y="-3879.5"/><use xlink:href="#z7-8ptvzf6_v_pad-3" x="7490.2" y="-3979.5"/></g><clipPath id="ZLZ60YHT8OgN_top_outline"><path d="M 194500 -86000 194500 -103500 151500 -103500 151500 -86000 194500 -86000" fill="none" stroke-width="200"/></clipPath><mask id="ZLZ60YHT8OgN_top_mech-mask"><g fill="#000" stroke="#000"><rect x="151500" y="-103500" width="43000" height="17500" fill="#fff"/><use xlink:href="#ZLZ60YHT8OgN_top_drill1"/></g></mask><mask id="ZLZ60YHT8OgN_top_cf-mask"><g fill="#fff" stroke="#fff"><use xlink:href="#ZLZ60YHT8OgN_top_soldermask"/></g></mask><mask id="ZLZ60YHT8OgN_top_sm-mask"><g fill="#000" stroke="#000"><rect x="151500" y="-103500" width="43000" height="17500" fill="#fff"/><use xlink:href="#ZLZ60YHT8OgN_top_soldermask"/></g></mask></defs><g transform="translate(0,-189500) scale(1,-1)"><g mask="url(#ZLZ60YHT8OgN_top_mech-mask)" clip-path="url(#ZLZ60YHT8OgN_top_outline)"><rect x="151500" y="-103500" width="43000" height="17500" fill="currentColor" class="ZLZ60YHT8OgN_fr4"/><use xlink:href="#ZLZ60YHT8OgN_top_copper" fill="currentColor" stroke="currentColor" class="ZLZ60YHT8OgN_cu"/><use xlink:href="#ZLZ60YHT8OgN_top_copper" fill="currentColor" stroke="currentColor" class="ZLZ60YHT8OgN_cf" mask="url(#ZLZ60YHT8OgN_top_cf-mask)"/><g mask="url(#ZLZ60YHT8OgN_top_sm-mask)"><rect x="151500" y="-103500" width="43000" height="17500" fill="currentColor" class="ZLZ60YHT8OgN_sm"/><use xlink:href="#ZLZ60YHT8OgN_top_silkscreen" fill="currentColor" stroke="currentColor" class="ZLZ60YHT8OgN_ss"/></g></g></g></svg>