<svg version="1.1" xmlns="http://www.w3.org/2000/svg" xmlns:xlink="http://www.w3.org/1999/xlink" stroke-linecap="round" stroke-linejoin="round" stroke-width="0" fill-rule="evenodd" clip-rule="evenodd" id="ZLZ60YHT8OgN_bottom" viewBox="151500 -103500 43000 17500" width="43mm" height="17.5mm"><defs><style>.ZLZ60YHT8OgN_fr4 {color: #666666;}
.ZLZ60YHT8OgN_cu {color: #cccccc;}
.ZLZ60YHT8OgN_cf {color: #cc9933;}
.ZLZ60YHT8OgN_sm {color: #004200; opacity: 0.7490196078431373;}
.ZLZ60YHT8OgN_ss {color: #ffffff;}
.ZLZ60YHT8OgN_sp {color: #999999;}
.ZLZ60YHT8OgN_out {color: #000000;}</style><rect x="-500" y="-500" width="1000" height="1000" id="tLliQJ1ZsTrU_pad-10"/><rect x="-500" y="-500" width="1000" height="1000" rx="500" ry="500" id="tLliQJ1ZsTrU_pad-11"/><rect x="-1050" y="-1050" width="2100" height="2100" id="tLliQJ1ZsTrU_pad-12"/><circle cx="0" cy="0" r="1050" id="tLliQJ1ZsTrU_pad-13"/><g id="tLliQJ1ZsTrU_pad-14"><polygon points="218.75,256.25 -218.75,256.25 -218.75,-256.25 218.75,-256.25"/><circle cx="218.75" cy="256.25" r="218.75"/><circle cx="-218.75" cy="256.25" r="218.75"/><circle cx="-218.75" cy="-256.25" r="218.75"/><circle cx="218.75" cy="-256.25" r="218.75"/><polygon points="218.75,37.5 -218.75,37.5 -218.75,475 218.75,475"/><polygon points="0,256.25 0,-256.25 -437.5,-256.25 -437.5,256.25"/><polygon points="-218.75,-475 218.75,-475 218.75,-37.5 -218.75,-37.5"/><polygon points="437.5,-256.25 437.5,256.25 0,256.25 0,-256.25"/></g><rect x="-700" y="-150" width="1400" height="300" id="tLliQJ1ZsTrU_pad-15"/><circle cx="0" cy="0" r="400" id="tLliQJ1ZsTrU_pad-16"/><g id="bLX9DbFs_Z5b_pad-10"><polygon points="500,500 -500,500 -500,-500 500,-500"/><circle cx="500" cy="500" r="200"/><circle cx="-500" cy="500" r="200"/><circle cx="-500" cy="-500" r="200"/><circle cx="500" cy="-500" r="200"/><polygon points="500,300 -500,300 -500,700 500,700"/><polygon points="-300,500 -300,-500 -700,-500 -700,500"/><polygon points="-500,-700 500,-700 500,-300 -500,-300"/><polygon points="700,-500 700,500 300,500 300,-500"/></g><rect x="-700" y="-700" width="1400" height="1400" rx="700" ry="700" id="bLX9DbFs_Z5b_pad-11"/><g id="bLX9DbFs_Z5b_pad-12"><polygon points="1050,-1050 1050,1050 -1050,1050 -1050,-1050"/><circle cx="1050" cy="-1050" r="200"/><circle cx="1050" cy="1050" r="200"/><circle cx="-1050" cy="1050" r="200"/><circle cx="-1050" cy="-1050" r="200"/><polygon points="1250,-1050 1250,1050 850,1050 850,-1050"/><polygon points="1050,850 -1050,850 -1050,1250 1050,1250"/><polygon points="-850,1050 -850,-1050 -1250,-1050 -1250,1050"/><polygon points="-1050,-1250 1050,-1250 1050,-850 -1050,-850"/></g><circle cx="0" cy="0" r="1250" id="bLX9DbFs_Z5b_pad-13"/><g id="bLX9DbFs_Z5b_pad-14"><polygon points="218.75,256.25 -218.75,256.25 -218.75,-256.25 218.75,-256.25"/><circle cx="218.75" cy="256.25" r="418.75"/><circle cx="-218.75" cy="256.25" r="418.75"/><circle cx="-218.75" cy="-256.25" r="418.75"/><circle cx="218.75" cy="-256.25" r="418.75"/><polygon points="218.75,-162.5 -218.75,-162.5 -218.75,675 218.75,675"/><polygon points="200,256.25 200,-256.25 -637.5,-256.25 -637.5,256.25"/><polygon points="-218.75,-675 218.75,-675 218.75,162.5 -218.75,162.5"/><polygon points="637.5,-256.25 637.5,256.25 -200,256.25 -200,-256.25"/></g><g id="bLX9DbFs_Z5b_pad-15"><polygon points="-700,-150 700,-150 700,150 -700,150"/><circle cx="-700" cy="-150" r="200"/><circle cx="700" cy="-150" r="200"/><circle cx="700" cy="150" r="200"/><circle cx="-700" cy="150" r="200"/><polygon points="-700,-350 700,-350 700,50 -700,50"/><polygon points="900,-150 900,150 500,150 500,-150"/><polygon points="700,-50 -700,-50 -700,350 700,350"/><polygon points="-500,150 -500,-150 -900,-150 -900,150"/></g><circle cx="0" cy="0" r="7.85" id="z7-8ptvzf6_v_pad-1"/><circle cx="0" cy="0" r="12.8" id="z7-8ptvzf6_v_pad-2"/><circle cx="0" cy="0" r="21.65" id="z7-8ptvzf6_v_pad-3"/><g id="ZLZ60YHT8OgN_bottom_copper"><use xlink:href="#tLliQJ1ZsTrU_pad-10" x="153500" y="-99330"/><use xlink:href="#tLliQJ1ZsTrU_pad-11" x="153500" y="-98060"/><use xlink:href="#tLliQJ1ZsTrU_pad-11" x="153500" y="-96790"/><use xlink:href="#tLliQJ1ZsTrU_pad-11" x="153500" y="-95520"/><use xlink:href="#tLliQJ1ZsTrU_pad-11" x="153500" y="-94250"/><use xlink:href="#tLliQJ1ZsTrU_pad-11" x="153500" y="-92980"/><use xlink:href="#tLliQJ1ZsTrU_pad-11" x="153500" y="-91710"/><use xlink:href="#tLliQJ1ZsTrU_pad-11" x="153500" y="-90440"/><use xlink:href="#tLliQJ1ZsTrU_pad-12" x="190250" y="-101080"/><use xlink:href="#tLliQJ1ZsTrU_pad-13" x="190250" y="-98540"/><use xlink:href="#tLliQJ1ZsTrU_pad-13" x="190250" y="-96000"/><use xlink:href="#tLliQJ1ZsTrU_pad-13" x="190250" y="-93460"/><use xlink:href="#tLliQJ1ZsTrU_pad-13" x="190250" y="-90920"/><use xlink:href="#tLliQJ1ZsTrU_pad-13" x="190250" y="-88380"/><use xlink:href="#tLliQJ1ZsTrU_pad-14" x="184787.5" y="-95750"/><use xlink:href="#tLliQJ1ZsTrU_pad-14" x="183212.5" y="-95750"/><use xlink:href="#tLliQJ1ZsTrU_pad-14" x="184787.5" y="-98250"/><use xlink:href="#tLliQJ1ZsTrU_pad-14" x="183212.5" y="-98250"/><use xlink:href="#tLliQJ1ZsTrU_pad-14" x="184787.5" y="-90500"/><use xlink:href="#tLliQJ1ZsTrU_pad-14" x="183212.5" y="-90500"/><use xlink:href="#tLliQJ1ZsTrU_pad-15" x="174800" y="-95500"/><use xlink:href="#tLliQJ1ZsTrU_pad-15" x="174800" y="-95000"/><use xlink:href="#tLliQJ1ZsTrU_pad-15" x="174800" y="-94500"/><use xlink:href="#tLliQJ1ZsTrU_pad-15" x="174800" y="-94000"/><use xlink:href="#tLliQJ1ZsTrU_pad-15" x="174800" y="-93500"/><use xlink:href="#tLliQJ1ZsTrU_pad-15" x="179200" y="-93500"/><use xlink:href="#tLliQJ1ZsTrU_pad-15" x="179200" y="-94000"/><use xlink:href="#tLliQJ1ZsTrU_pad-15" x="179200" y="-94500"/><use xlink:href="#tLliQJ1ZsTrU_pad-15" x="179200" y="-95000"/><use xlink:href="#tLliQJ1ZsTrU_pad-15" x="179200" y="-95500"/><use xlink:href="#tLliQJ1ZsTrU_pad-14" x="184825" y="-93250"/><use xlink:href="#tLliQJ1ZsTrU_pad-14" x="183250" y="-93250"/><use xlink:href="#tLliQJ1ZsTrU_pad-16" x="177500" y="-95500"/><use xlink:href="#tLliQJ1ZsTrU_pad-16" x="181250" y="-94000"/><use xlink:href="#tLliQJ1ZsTrU_pad-16" x="181250" y="-100000"/><use xlink:href="#tLliQJ1ZsTrU_pad-16" x="181250" y="-89250"/><use xlink:href="#tLliQJ1ZsTrU_pad-16" x="179750" y="-92250"/><use xlink:href="#tLliQJ1ZsTrU_pad-16" x="181250" y="-98500"/><use xlink:href="#tLliQJ1ZsTrU_pad-16" x="181250" y="-97000"/><use xlink:href="#tLliQJ1ZsTrU_pad-16" x="177449.989" y="-94250"/><use xlink:href="#tLliQJ1ZsTrU_pad-16" x="177500" y="-93000"/><use xlink:href="#tLliQJ1ZsTrU_pad-16" x="181250" y="-95500"/><use xlink:href="#tLliQJ1ZsTrU_pad-16" x="172250" y="-93000"/><use xlink:href="#tLliQJ1ZsTrU_pad-16" x="172250" y="-94250"/><use xlink:href="#tLliQJ1ZsTrU_pad-16" x="172250" y="-95500"/><use xlink:href="#tLliQJ1ZsTrU_pad-16" x="172250" y="-96750"/><path d="M 192250 -100500 192250 -89500 M 181812.498 -88524.998 183212.5 -89925 M 192250 -88895.076 192250 -89500 M 183212.5 -98250 183212.5 -95750 M 174800 -93500 174800 -89950 M 183250 -93250 183250 -95712.5 M 183212.5 -90500 183212.5 -93212.5 M 190250 -101080 191670 -101080 192250 -100500 M 176225.002 -88524.998 181812.498 -88524.998 M 191734.924 -88380 192250 -88895.076 M 190250 -88380 191734.924 -88380 M 183212.5 -89925 183212.5 -90500 M 174800 -89950 176225.002 -88524.998 M 179200 -95500 177500 -95500 M 184787.5 -98250 189960 -98250 M 184787.5 -95750 190000 -95750 M 184825 -93250 190040 -93250 M 184787.5 -90500 189830 -90500 M 182250 -99000 181250 -100000 M 179200 -94000 181250 -94000 182250 -95000 182250 -99000 M 181250 -94000 181250 -89250 M 179200 -93500 179200 -92800 M 179000 -98500 176500 -96000 M 181250 -98500 179000 -98500 M 179200 -92800 179750 -92250 M 177250 -91750 179250 -91750 179750 -92250 M 176500 -96000 176500 -92500 177250 -91750 M 177449.989 -94321.402 177449.989 -94250 M 180524.999 -95411.409 180524.999 -96274.999 M 178128.587 -95000 177449.989 -94321.402 M 180113.59 -95000 180524.999 -95411.409 M 179200 -95000 180113.59 -95000 M 180524.999 -96274.999 181250 -97000 M 179200 -95000 178128.587 -95000 M 177500 -93000 178174.999 -93674.999 M 180500 -94500 181500 -95500 M 178264.998 -94500 179200 -94500 180500 -94500 M 178174.999 -93674.999 178174.999 -94410.001 178264.998 -94500 M 173250 -94000 174800 -94000 M 172250 -93000 173250 -94000 M 172500 -94500 172250 -94250 M 174800 -94500 172500 -94500 M 174800 -95000 172750 -95000 172250 -95500 M 172500 -95500 172250 -95750 M 174800 -95500 173500 -95500 172250 -96750" fill="none" stroke-width="250"/><path d="M 163442.121 -86528.502 163488.614 -86582.158 163500 -86634.5 163500 -102865.5 163479.998 -102933.621 163426.342 -102980.114 163374 -102991.5 152134.5 -102991.5 152066.379 -102971.498 152019.886 -102917.842 152008.5 -102865.5 152008.5 -99874.669 152492.001 -99874.669 152492.371 -99881.49 152497.895 -99932.352 152501.521 -99947.604 152546.676 -100068.054 152555.214 -100083.649 152631.715 -100185.724 152644.276 -100198.285 152746.351 -100274.786 152761.946 -100283.324 152882.394 -100328.478 152897.649 -100332.105 152948.514 -100337.631 152955.328 -100338 153227.885 -100338 153243.124 -100333.525 153244.329 -100332.135 153246 -100324.452 153246 -100319.884 153754 -100319.884 153758.475 -100335.123 153759.865 -100336.328 153767.548 -100337.999 154044.669 -100337.999 154051.49 -100337.629 154102.352 -100332.105 154117.604 -100328.479 154238.054 -100283.324 154253.649 -100274.786 154355.724 -100198.285 154368.285 -100185.724 154444.786 -100083.649 154453.324 -100068.054 154498.478 -99947.606 154502.105 -99932.351 154507.631 -99881.486 154508 -99874.672 154508 -99602.115 154503.525 -99586.876 154502.135 -99585.671 154494.452 -99584 153772.115 -99584 153756.876 -99588.475 153755.671 -99589.865 153754 -99597.548 153754 -100319.884 153246 -100319.884 153246 -99602.115 153241.525 -99586.876 153240.135 -99585.671 153232.452 -99584 152510.116 -99584 152494.877 -99588.475 152493.672 -99589.865 152492.001 -99597.548 152492.001 -99874.669 152008.5 -99874.669 152008.5 -98045.851 152486.719 -98045.851 152503.268 -98242.934 152557.783 -98433.05 152560.602 -98438.535 152564.402 -98445.929 152577.75 -98515.66 152557.667 -98567.468 152559.521 -98568.483 152546.677 -98591.942 152501.522 -98712.394 152497.895 -98727.649 152492.369 -98778.514 152492 -98785.328 152492 -99057.885 152496.475 -99073.124 152497.865 -99074.329 152505.548 -99076 154489.884 -99076 154505.123 -99071.525 154506.328 -99070.135 154507.999 -99062.452 154507.999 -98785.331 154507.629 -98778.51 154502.105 -98727.648 154498.479 -98712.396 154453.324 -98591.946 154440.478 -98568.483 154442.602 -98567.32 154422.313 -98513.007 154428.429 -98464.183 154486.25 -98290.365 154488.197 -98284.513 154512.985 -98088.295 154513.38 -98060 154494.08 -97863.167 154436.916 -97673.831 154344.066 -97499.204 154340.167 -97494.424 154339.715 -97493.743 154318.676 -97425.935 154335.105 -97361.775 154422.723 -97207.542 154422.725 -97207.537 154425.769 -97202.179 154488.197 -97014.513 154512.985 -96818.295 154513.38 -96790 154494.08 -96593.167 154436.916 -96403.831 154344.066 -96229.204 154340.167 -96224.424 154339.715 -96223.743 154318.676 -96155.935 154335.105 -96091.775 154422.723 -95937.542 154422.725 -95937.537 154425.769 -95932.179 154488.197 -95744.513 154512.985 -95548.295 154513.38 -95520 154494.08 -95323.167 154436.916 -95133.831 154344.066 -94959.204 154340.167 -94954.424 154339.715 -94953.743 154318.676 -94885.935 154335.105 -94821.775 154422.723 -94667.542 154422.725 -94667.537 154425.769 -94662.179 154488.197 -94474.513 154512.985 -94278.295 154513.38 -94250 154494.08 -94053.167 154436.916 -93863.831 154344.066 -93689.204 154340.167 -93684.424 154339.715 -93683.743 154318.676 -93615.935 154335.105 -93551.775 154422.723 -93397.542 154422.725 -93397.537 154425.769 -93392.179 154488.197 -93204.513 154512.985 -93008.295 154513.38 -92980 154494.08 -92783.167 154436.916 -92593.831 154344.066 -92419.204 154340.167 -92414.424 154339.715 -92413.743 154318.676 -92345.935 154335.105 -92281.775 154422.723 -92127.542 154422.725 -92127.537 154425.769 -92122.179 154488.197 -91934.513 154512.985 -91738.295 154513.38 -91710 154494.08 -91513.167 154436.916 -91323.831 154344.066 -91149.204 154340.167 -91144.424 154339.715 -91143.743 154318.676 -91075.935 154335.105 -91011.775 154422.723 -90857.542 154422.725 -90857.537 154425.769 -90852.179 154488.197 -90664.513 154512.985 -90468.295 154513.38 -90440 154494.08 -90243.167 154436.916 -90053.831 154344.066 -89879.204 154273.709 -89792.938 154222.96 -89730.713 154222.957 -89730.71 154219.065 -89725.938 154212.724 -89720.692 154071.425 -89603.799 154071.421 -89603.797 154066.675 -89599.87 153892.701 -89505.802 153703.768 -89447.318 153697.643 -89446.674 153697.642 -89446.674 153513.204 -89427.289 153513.202 -89427.289 153507.075 -89426.645 153424.576 -89434.153 153316.251 -89444.011 153316.248 -89444.012 153310.112 -89444.57 153304.206 -89446.308 153304.202 -89446.309 153199.076 -89477.249 153120.381 -89500.41 153114.923 -89503.263 153114.919 -89503.265 153024.147 -89550.72 152945.11 -89592.04 152790.975 -89715.968 152663.846 -89867.474 152660.879 -89872.872 152660.875 -89872.877 152657.397 -89879.204 152568.567 -90040.787 152566.706 -90046.654 152566.705 -90046.656 152510.627 -90223.436 152508.765 -90229.306 152486.719 -90425.851 152503.268 -90622.934 152557.783 -90813.05 152648.187 -90988.956 152652.016 -90993.787 152653.839 -90996.088 152654.414 -90997.509 152655.353 -90998.966 152655.076 -90999.144 152680.474 -91061.898 152667.301 -91131.662 152663.846 -91137.474 152568.567 -91310.787 152566.706 -91316.654 152566.705 -91316.656 152510.627 -91493.436 152508.765 -91499.306 152486.719 -91695.851 152503.268 -91892.934 152557.783 -92083.05 152648.187 -92258.956 152652.016 -92263.787 152653.839 -92266.088 152654.414 -92267.509 152655.353 -92268.966 152655.076 -92269.144 152680.474 -92331.898 152667.301 -92401.662 152663.846 -92407.474 152568.567 -92580.787 152566.706 -92586.654 152566.705 -92586.656 152510.627 -92763.436 152508.765 -92769.306 152486.719 -92965.851 152503.268 -93162.934 152557.783 -93353.05 152648.187 -93528.956 152652.016 -93533.787 152653.839 -93536.088 152654.414 -93537.509 152655.353 -93538.966 152655.076 -93539.144 152680.474 -93601.898 152667.301 -93671.662 152663.846 -93677.474 152568.567 -93850.787 152566.706 -93856.654 152566.705 -93856.656 152510.627 -94033.436 152508.765 -94039.306 152486.719 -94235.851 152503.268 -94432.934 152557.783 -94623.05 152648.187 -94798.956 152652.016 -94803.787 152653.839 -94806.088 152654.414 -94807.509 152655.353 -94808.966 152655.076 -94809.144 152680.474 -94871.898 152667.301 -94941.662 152663.846 -94947.474 152568.567 -95120.787 152566.706 -95126.654 152566.705 -95126.656 152510.627 -95303.436 152508.765 -95309.306 152486.719 -95505.851 152503.268 -95702.934 152557.783 -95893.05 152648.187 -96068.956 152652.016 -96073.787 152653.839 -96076.088 152654.414 -96077.509 152655.353 -96078.966 152655.076 -96079.144 152680.474 -96141.898 152667.301 -96211.662 152663.846 -96217.474 152568.567 -96390.787 152566.706 -96396.654 152566.705 -96396.656 152510.627 -96573.436 152508.765 -96579.306 152486.719 -96775.851 152503.268 -96972.934 152557.783 -97163.05 152648.187 -97338.956 152652.016 -97343.787 152653.839 -97346.088 152654.414 -97347.509 152655.353 -97348.966 152655.076 -97349.144 152680.474 -97411.898 152667.301 -97481.662 152663.846 -97487.474 152568.567 -97660.787 152566.706 -97666.654 152566.705 -97666.656 152510.627 -97843.436 152508.765 -97849.306 152486.719 -98045.851 152008.5 -98045.851 152008.5 -86634.5 152028.502 -86566.379 152082.158 -86519.886 152134.5 -86508.5 163374 -86508.5 163442.121 -86528.502"/><path d="M 193933.621 -86528.502 193980.114 -86582.158 193991.5 -86634.5 193991.5 -102865.5 193971.498 -102933.621 193917.842 -102980.114 193865.5 -102991.5 168626 -102991.5 168557.879 -102971.498 168511.386 -102917.842 168500 -102865.5 168500 -102174.669 188692.001 -102174.669 188692.371 -102181.49 188697.895 -102232.352 188701.521 -102247.604 188746.676 -102368.054 188755.214 -102383.649 188831.715 -102485.724 188844.276 -102498.285 188946.351 -102574.786 188961.946 -102583.324 189082.394 -102628.478 189097.649 -102632.105 189148.514 -102637.631 189155.328 -102638 189977.885 -102638 189993.124 -102633.525 189994.329 -102632.135 189996 -102624.452 189996 -102619.884 190504 -102619.884 190508.475 -102635.123 190509.865 -102636.328 190517.548 -102637.999 191344.669 -102637.999 191351.49 -102637.629 191402.352 -102632.105 191417.604 -102628.479 191538.054 -102583.324 191553.649 -102574.786 191655.724 -102498.285 191668.285 -102485.724 191744.786 -102383.649 191753.324 -102368.054 191798.478 -102247.606 191802.105 -102232.351 191807.631 -102181.486 191808 -102174.672 191808 -101352.115 191803.525 -101336.876 191802.135 -101335.671 191794.452 -101334 190522.115 -101334 190506.876 -101338.475 190505.671 -101339.865 190504 -101347.548 190504 -102619.884 189996 -102619.884 189996 -101352.115 189991.525 -101336.876 189990.135 -101335.671 189982.452 -101334 188710.116 -101334 188694.877 -101338.475 188693.672 -101339.865 188692.001 -101347.548 188692.001 -102174.669 168500 -102174.669 168500 -96750 171336.496 -96750 171356.458 -96939.928 171415.473 -97121.556 171510.96 -97286.944 171638.747 -97428.866 171661.386 -97445.314 171783.139 -97533.773 171793.248 -97541.118 171799.276 -97543.802 171799.278 -97543.803 171961.681 -97616.109 171967.712 -97618.794 172061.112 -97638.647 172148.056 -97657.128 172148.061 -97657.128 172154.513 -97658.5 172345.487 -97658.5 172351.939 -97657.128 172351.944 -97657.128 172438.888 -97638.647 172532.288 -97618.794 172538.319 -97616.109 172700.722 -97543.803 172700.724 -97543.802 172706.752 -97541.118 172716.862 -97533.773 172838.614 -97445.314 172861.253 -97428.866 172989.04 -97286.944 173084.527 -97121.556 173143.542 -96939.928 173160.907 -96774.708 173187.92 -96709.051 173197.122 -96698.782 173725.501 -96170.404 173787.813 -96136.379 173814.596 -96133.5 173918.174 -96133.5 173962.404 -96141.518 173989.684 -96151.745 174051.866 -96158.5 175548.134 -96158.5 175610.316 -96151.745 175728.204 -96107.551 175799.009 -96102.368 175861.378 -96136.289 175889.584 -96179.151 175897.804 -96199.913 175901.649 -96211.142 175913.982 -96253.593 175918.015 -96260.412 175918.017 -96260.417 175924.293 -96271.028 175932.988 -96288.776 175940.448 -96307.617 175945.11 -96314.033 175945.11 -96314.034 175966.436 -96343.387 175972.952 -96353.307 175990.215 -96382.496 175995.458 -96391.362 176009.779 -96405.683 176022.619 -96420.716 176034.528 -96437.107 176062.265 -96460.053 176068.605 -96465.298 176077.384 -96473.288 178496.348 -98892.253 178503.888 -98900.539 178508 -98907.018 178513.777 -98912.443 178557.651 -98953.643 178560.493 -98956.398 178580.23 -98976.135 178583.427 -98978.615 178592.447 -98986.318 178624.679 -99016.586 178631.625 -99020.405 178631.628 -99020.407 178642.434 -99026.348 178658.953 -99037.199 178674.959 -99049.614 178682.228 -99052.759 178682.232 -99052.762 178715.537 -99067.174 178726.187 -99072.391 178764.94 -99093.695 178772.615 -99095.666 178772.616 -99095.666 178784.562 -99098.733 178803.267 -99105.137 178821.855 -99113.181 178829.678 -99114.42 178829.688 -99114.423 178865.524 -99120.099 178877.144 -99122.505 178912.289 -99131.528 178919.97 -99133.5 178940.224 -99133.5 178959.934 -99135.051 178979.943 -99138.22 178987.835 -99137.474 179023.961 -99134.059 179035.819 -99133.5 180524.693 -99133.5 180592.814 -99153.502 180639.307 -99207.158 180649.411 -99277.432 180618.329 -99343.81 180547.412 -99422.572 180510.96 -99463.056 180415.473 -99628.444 180356.458 -99810.072 180336.496 -100000 180356.458 -100189.928 180415.473 -100371.556 180510.96 -100536.944 180638.747 -100678.866 180793.248 -100791.118 180799.276 -100793.802 180799.278 -100793.803 180961.681 -100866.109 180967.712 -100868.794 181061.112 -100888.647 181148.056 -100907.128 181148.061 -100907.128 181154.513 -100908.5 181345.487 -100908.5 181351.939 -100907.128 181351.944 -100907.128 181438.887 -100888.647 181532.288 -100868.794 181538.319 -100866.109 181700.722 -100793.803 181700.724 -100793.802 181706.752 -100791.118 181861.253 -100678.866 181989.04 -100536.944 182084.527 -100371.556 182143.542 -100189.928 182160.907 -100024.706 182187.92 -99959.05 182197.122 -99948.782 182642.247 -99503.657 182650.537 -99496.113 182657.018 -99492 182678.829 -99468.774 182703.658 -99442.333 182706.413 -99439.491 182726.135 -99419.769 182728.612 -99416.576 182736.317 -99407.555 182761.159 -99381.1 182766.586 -99375.321 182770.407 -99368.371 182776.346 -99357.568 182787.202 -99341.041 182794.757 -99331.302 182794.758 -99331.3 182799.614 -99325.04 182807.286 -99307.311 182852.695 -99252.737 182920.401 -99231.375 182935.765 -99232.006 182941.699 -99232.614 182955.624 -99228.525 182956.829 -99227.135 182958.5 -99219.452 182958.5 -99214.885 183466.5 -99214.885 183470.975 -99230.124 183472.365 -99231.329 183479.321 -99232.842 183482.782 -99232.663 183574.021 -99223.196 183587.417 -99220.303 183734.687 -99171.17 183747.866 -99164.996 183879.514 -99083.53 183890.915 -99074.494 183910.533 -99054.842 183972.816 -99020.763 184043.636 -99025.766 184088.723 -99054.686 184101.233 -99067.174 184114.947 -99080.864 184259.308 -99169.849 184266.256 -99172.154 184266.257 -99172.154 184413.738 -99221.072 184413.74 -99221.072 184420.269 -99223.238 184520.428 -99233.5 185054.572 -99233.5 185057.818 -99233.163 185057.822 -99233.163 185091.603 -99229.658 185155.982 -99222.978 185316.849 -99169.308 185461.055 -99080.071 185580.864 -98960.053 185591.139 -98943.384 185643.912 -98895.89 185698.399 -98883.5 188630.351 -98883.5 188698.472 -98903.502 188744.965 -98957.158 188752.869 -98980.085 188762.037 -99018.271 188762.039 -99018.278 188763.195 -99023.092 188765.088 -99027.663 188765.089 -99027.665 188784.652 -99074.893 188857.073 -99249.732 188907.059 -99331.302 188966.095 -99427.641 188984.633 -99496.174 188963.176 -99563.851 188934.227 -99594.302 188844.272 -99661.719 188831.715 -99674.276 188755.214 -99776.351 188746.676 -99791.946 188701.522 -99912.394 188697.895 -99927.649 188692.369 -99978.514 188692 -99985.328 188692 -100807.885 188696.475 -100823.124 188697.865 -100824.329 188705.548 -100826 191789.884 -100826 191805.123 -100821.525 191806.328 -100820.135 191807.999 -100812.452 191807.999 -99985.331 191807.629 -99978.51 191802.105 -99927.648 191798.479 -99912.396 191753.324 -99791.946 191744.786 -99776.351 191668.285 -99674.276 191655.728 -99661.719 191565.773 -99594.302 191523.258 -99537.442 191518.232 -99466.624 191533.905 -99427.641 191592.941 -99331.302 191642.927 -99249.732 191715.348 -99074.893 191734.911 -99027.665 191734.912 -99027.663 191736.805 -99023.092 191766.717 -98898.498 191792.917 -98789.37 191792.918 -98789.364 191794.072 -98784.557 191813.319 -98540 191794.072 -98295.443 191736.805 -98056.908 191642.927 -97830.268 191537.668 -97658.5 191517.342 -97625.33 191517.34 -97625.327 191514.752 -97621.104 191493.737 -97596.498 191358.641 -97438.323 191355.433 -97434.567 191274.931 -97365.811 191236.122 -97306.36 191235.616 -97235.365 191274.931 -97174.189 191351.677 -97108.641 191355.433 -97105.433 191445.482 -97000 191511.535 -96922.663 191511.537 -96922.66 191514.752 -96918.896 191642.927 -96709.732 191736.805 -96483.092 191763.783 -96370.72 191792.917 -96249.37 191792.918 -96249.364 191794.072 -96244.557 191813.319 -96000 191794.072 -95755.443 191778.344 -95689.928 191737.96 -95521.72 191736.805 -95516.908 191729.802 -95500 191665.709 -95345.269 191642.927 -95290.268 191533.158 -95111.14 191517.342 -95085.33 191517.34 -95085.327 191514.752 -95081.104 191479.601 -95039.947 191358.641 -94898.323 191355.433 -94894.567 191327.996 -94871.133 191274.931 -94825.811 191236.122 -94766.36 191235.616 -94695.365 191274.931 -94634.189 191351.677 -94568.641 191355.433 -94565.433 191388.504 -94526.712 191511.535 -94382.663 191511.537 -94382.66 191514.752 -94378.896 191642.927 -94169.732 191727.634 -93965.233 191734.911 -93947.665 191734.912 -93947.663 191736.805 -93943.092 191794.072 -93704.557 191813.319 -93460 191794.072 -93215.443 191787.947 -93189.928 191742.349 -93000 191736.805 -92976.908 191723.766 -92945.428 191686.536 -92855.548 191642.927 -92750.268 191514.752 -92541.104 191505.162 -92529.875 191358.641 -92358.323 191355.433 -92354.567 191322.038 -92326.045 191274.931 -92285.811 191236.122 -92226.36 191235.616 -92155.365 191274.931 -92094.189 191351.677 -92028.641 191355.433 -92025.433 191514.752 -91838.896 191642.927 -91629.732 191730.088 -91419.308 191734.911 -91407.665 191734.912 -91407.663 191736.805 -91403.092 191766.388 -91279.87 191792.917 -91169.37 191792.918 -91169.364 191794.072 -91164.557 191813.319 -90920 191794.072 -90675.443 191736.805 -90436.908 191642.927 -90210.268 191514.752 -90001.104 191473.261 -89952.524 191358.641 -89818.323 191355.433 -89814.567 191168.896 -89655.248 191166.549 -89653.81 191153.185 -89642.395 190262.812 -88752.022 190248.868 -88744.408 190247.035 -88744.539 190240.42 -88748.79 189346.815 -89642.395 189333.451 -89653.81 189331.104 -89655.248 189307.852 -89675.107 189153.659 -89806.802 189144.567 -89814.567 189137.936 -89822.331 189078.489 -89861.139 189042.126 -89866.5 185698.266 -89866.5 185630.145 -89846.498 185591.121 -89806.802 185584.741 -89796.491 185580.071 -89788.945 185460.053 -89669.136 185437.523 -89655.248 185392.148 -89627.279 185315.692 -89580.151 185308.743 -89577.846 185161.262 -89528.928 185161.26 -89528.928 185154.731 -89526.762 185054.572 -89516.5 184520.428 -89516.5 184517.182 -89516.837 184517.178 -89516.837 184487.89 -89519.876 184419.018 -89527.022 184258.151 -89580.692 184113.945 -89669.929 184108.776 -89675.107 184088.759 -89695.159 184026.477 -89729.238 183955.657 -89724.235 183910.568 -89695.314 183889.92 -89674.702 183878.509 -89665.69 183746.709 -89584.447 183733.532 -89578.303 183586.157 -89529.421 183572.79 -89526.555 183483.3 -89517.386 183469.376 -89521.475 183468.171 -89522.865 183466.5 -89530.548 183466.5 -91464.885 183470.975 -91480.124 183472.365 -91481.329 183479.321 -91482.842 183482.782 -91482.663 183574.021 -91473.196 183587.417 -91470.303 183734.687 -91421.17 183747.866 -91414.996 183879.514 -91333.53 183890.915 -91324.494 183910.533 -91304.842 183972.816 -91270.763 184043.636 -91275.766 184088.723 -91304.686 184105.565 -91321.498 184114.947 -91330.864 184259.308 -91419.849 184266.256 -91422.154 184266.257 -91422.154 184413.738 -91471.072 184413.74 -91471.072 184420.269 -91473.238 184520.428 -91483.5 185054.572 -91483.5 185057.818 -91483.163 185057.822 -91483.163 185091.603 -91479.658 185155.982 -91472.978 185316.849 -91419.308 185461.055 -91330.071 185580.864 -91210.053 185591.139 -91193.384 185643.912 -91145.89 185698.399 -91133.5 188599.141 -91133.5 188667.262 -91153.502 188713.755 -91207.158 188721.66 -91230.086 188763.195 -91403.092 188765.088 -91407.663 188765.089 -91407.665 188769.912 -91419.308 188857.073 -91629.732 188985.248 -91838.896 189144.567 -92025.433 189148.323 -92028.641 189225.069 -92094.189 189263.878 -92153.64 189264.384 -92224.635 189225.069 -92285.811 189177.962 -92326.045 189144.567 -92354.567 189141.359 -92358.323 188994.839 -92529.875 188985.248 -92541.104 188981.947 -92546.491 188975.915 -92556.335 188923.267 -92603.966 188868.482 -92616.5 185735.766 -92616.5 185667.645 -92596.498 185628.621 -92556.802 185622.241 -92546.491 185617.571 -92538.945 185497.553 -92419.136 185353.192 -92330.151 185326.007 -92321.134 185198.762 -92278.928 185198.76 -92278.928 185192.231 -92276.762 185092.072 -92266.5 184557.928 -92266.5 184554.682 -92266.837 184554.678 -92266.837 184525.39 -92269.876 184456.518 -92277.022 184295.651 -92330.692 184151.445 -92419.929 184146.276 -92425.107 184126.259 -92445.159 184063.977 -92479.238 183993.157 -92474.235 183948.068 -92445.314 183927.42 -92424.702 183916.009 -92415.69 183784.209 -92334.447 183771.032 -92328.303 183623.657 -92279.421 183610.29 -92276.555 183520.8 -92267.386 183506.876 -92271.475 183505.671 -92272.865 183504 -92280.548 183504 -94214.885 183508.475 -94230.124 183509.865 -94231.329 183516.821 -94232.842 183520.282 -94232.663 183611.521 -94223.196 183624.917 -94220.303 183772.187 -94171.17 183785.366 -94164.996 183917.014 -94083.53 183928.415 -94074.494 183948.033 -94054.842 184010.316 -94020.763 184081.136 -94025.766 184126.223 -94054.686 184138.193 -94066.635 184152.447 -94080.864 184296.808 -94169.849 184303.756 -94172.154 184303.757 -94172.154 184451.238 -94221.072 184451.24 -94221.072 184457.769 -94223.238 184557.928 -94233.5 185092.072 -94233.5 185095.318 -94233.163 185095.322 -94233.163 185129.103 -94229.658 185193.482 -94222.978 185354.349 -94169.308 185498.555 -94080.071 185618.364 -93960.053 185628.639 -93943.384 185681.412 -93895.89 185735.899 -93883.5 188654.321 -93883.5 188722.442 -93903.502 188770.729 -93961.281 188857.073 -94169.732 188985.248 -94378.896 188988.463 -94382.66 188988.465 -94382.663 189111.496 -94526.712 189144.567 -94565.433 189148.323 -94568.641 189225.069 -94634.189 189263.878 -94693.64 189264.384 -94764.635 189225.069 -94825.811 189172.004 -94871.133 189144.567 -94894.567 188994.781 -95069.943 188992.741 -95072.331 188933.29 -95111.14 188896.93 -95116.5 185698.266 -95116.5 185630.145 -95096.498 185591.121 -95056.802 185583.923 -95045.17 185580.071 -95038.945 185460.053 -94919.136 185315.692 -94830.151 185308.743 -94827.846 185161.262 -94778.928 185161.26 -94778.928 185154.731 -94776.762 185054.572 -94766.5 184520.428 -94766.5 184517.182 -94766.837 184517.178 -94766.837 184487.89 -94769.876 184419.018 -94777.022 184258.151 -94830.692 184113.945 -94919.929 184108.776 -94925.107 184088.759 -94945.159 184026.477 -94979.238 183955.657 -94974.235 183910.568 -94945.314 183889.92 -94924.702 183878.509 -94915.69 183746.709 -94834.447 183733.532 -94828.303 183586.157 -94779.421 183572.79 -94776.555 183483.3 -94767.386 183469.376 -94771.475 183468.171 -94772.865 183466.5 -94780.548 183466.5 -96714.885 183470.975 -96730.124 183472.365 -96731.329 183479.321 -96732.842 183482.782 -96732.663 183574.021 -96723.196 183587.417 -96720.303 183734.687 -96671.17 183747.866 -96664.996 183879.514 -96583.53 183890.915 -96574.494 183910.533 -96554.842 183972.816 -96520.763 184043.636 -96525.766 184088.723 -96554.686 184097.839 -96563.786 184114.947 -96580.864 184121.177 -96584.704 184121.178 -96584.705 184152.514 -96604.02 184259.308 -96669.849 184266.256 -96672.154 184266.257 -96672.154 184413.738 -96721.072 184413.74 -96721.072 184420.269 -96723.238 184520.428 -96733.5 185054.572 -96733.5 185057.818 -96733.163 185057.822 -96733.163 185091.603 -96729.658 185155.982 -96722.978 185316.849 -96669.308 185461.055 -96580.071 185580.864 -96460.053 185591.139 -96443.384 185643.912 -96395.89 185698.399 -96383.5 188639.954 -96383.5 188708.075 -96403.502 188754.568 -96457.158 188760.256 -96473.651 188760.509 -96473.569 188762.04 -96478.28 188763.195 -96483.092 188857.073 -96709.732 188985.248 -96918.896 188988.463 -96922.66 188988.465 -96922.663 189054.518 -97000 189144.567 -97105.433 189148.323 -97108.641 189225.069 -97174.189 189263.878 -97233.64 189264.384 -97304.635 189225.069 -97365.811 189144.567 -97434.567 189141.359 -97438.323 189026.904 -97572.331 188967.453 -97611.14 188931.093 -97616.5 185698.266 -97616.5 185630.145 -97596.498 185591.121 -97556.802 185583.923 -97545.17 185580.071 -97538.945 185460.053 -97419.136 185315.692 -97330.151 185308.743 -97327.846 185161.262 -97278.928 185161.26 -97278.928 185154.731 -97276.762 185054.572 -97266.5 184520.428 -97266.5 184517.182 -97266.837 184517.178 -97266.837 184487.89 -97269.876 184419.018 -97277.022 184258.151 -97330.692 184113.945 -97419.929 184099.333 -97434.567 184088.759 -97445.159 184026.477 -97479.238 183955.657 -97474.235 183910.568 -97445.314 183889.92 -97424.702 183878.509 -97415.69 183746.709 -97334.447 183733.532 -97328.303 183586.157 -97279.421 183572.79 -97276.555 183483.3 -97267.386 183469.376 -97271.475 183468.171 -97272.865 183466.5 -97280.548 183466.5 -99214.885 182958.5 -99214.885 182958.5 -97285.115 182954.025 -97269.876 182928.33 -97247.611 182929.562 -97246.189 182920.4 -97241.185 182886.378 -97178.871 182883.5 -97152.094 182883.5 -96844.025 182903.502 -96775.904 182947.922 -96737.414 182956.829 -96727.135 182958.5 -96719.452 182958.5 -94785.115 182954.025 -94769.876 182952.635 -94768.671 182945.679 -94767.158 182942.227 -94767.337 182937.773 -94767.799 182867.951 -94754.936 182814.351 -94703.174 182812.47 -94699.753 182809.552 -94692.383 182783.563 -94656.612 182777.047 -94646.692 182765.566 -94627.279 182754.542 -94608.638 182740.221 -94594.317 182727.38 -94579.283 182720.131 -94569.306 182715.472 -94562.893 182681.395 -94534.702 182672.616 -94526.712 182423.016 -94277.112 182388.99 -94214.8 182394.055 -94143.985 182436.602 -94087.149 182503.122 -94062.338 182578.227 -94080.757 182715.791 -94165.553 182728.968 -94171.697 182876.343 -94220.579 182889.71 -94223.445 182979.2 -94232.614 182993.124 -94228.525 182994.329 -94227.135 182996 -94219.452 182996 -93522.115 182991.525 -93506.876 182990.135 -93505.671 182982.452 -93504 182322.615 -93504 182307.376 -93508.475 182306.171 -93509.865 182304.5 -93517.548 182304.5 -93539.21 182284.498 -93607.331 182230.842 -93653.824 182160.568 -93663.928 182095.988 -93634.434 182069.381 -93602.21 182015.263 -93508.475 181989.04 -93463.056 181915.863 -93381.785 181885.147 -93317.779 181883.5 -93297.476 181883.5 -92977.885 182304.5 -92977.885 182308.975 -92993.124 182310.365 -92994.329 182318.048 -92996 182977.885 -92996 182993.124 -92991.525 182994.329 -92990.135 182996 -92982.452 182996 -92285.115 182991.525 -92269.876 182990.135 -92268.671 182983.179 -92267.158 182979.718 -92267.337 182888.479 -92276.804 182875.083 -92279.697 182727.813 -92328.83 182714.634 -92335.004 182582.986 -92416.47 182571.585 -92425.506 182462.202 -92535.08 182453.19 -92546.491 182371.947 -92678.291 182365.803 -92691.468 182316.921 -92838.843 182314.055 -92852.21 182304.828 -92942.27 182304.5 -92948.685 182304.5 -92977.885 181883.5 -92977.885 181883.5 -90801.266 182267 -90801.266 182267.337 -90807.782 182276.804 -90899.021 182279.697 -90912.417 182328.83 -91059.687 182335.004 -91072.866 182416.47 -91204.514 182425.506 -91215.915 182535.08 -91325.298 182546.491 -91334.31 182678.291 -91415.553 182691.468 -91421.697 182838.843 -91470.579 182852.21 -91473.445 182941.7 -91482.614 182955.624 -91478.525 182956.829 -91477.135 182958.5 -91469.452 182958.5 -90772.115 182954.025 -90756.876 182952.635 -90755.671 182944.952 -90754 182285.115 -90754 182269.876 -90758.475 182268.671 -90759.865 182267 -90767.548 182267 -90801.266 181883.5 -90801.266 181883.5 -90227.885 182267 -90227.885 182271.475 -90243.124 182272.865 -90244.329 182280.548 -90246 182940.385 -90246 182955.624 -90241.525 182956.829 -90240.135 182958.5 -90232.452 182958.5 -89535.115 182954.025 -89519.876 182952.635 -89518.671 182945.679 -89517.158 182942.218 -89517.337 182850.979 -89526.804 182837.583 -89529.697 182690.313 -89578.83 182677.134 -89585.004 182545.486 -89666.47 182534.085 -89675.506 182424.702 -89785.08 182415.69 -89796.491 182334.447 -89928.291 182328.303 -89941.468 182279.421 -90088.843 182276.555 -90102.21 182267.328 -90192.27 182267 -90198.685 182267 -90227.885 181883.5 -90227.885 181883.5 -89952.524 181903.502 -89884.403 181915.858 -89868.221 181989.04 -89786.944 182084.527 -89621.556 182143.542 -89439.928 182159.91 -89284.2 182162.814 -89256.565 182163.504 -89250 182162.814 -89243.435 182144.232 -89066.635 182144.232 -89066.633 182143.542 -89060.072 182084.527 -88878.444 181989.04 -88713.056 181904.843 -88619.545 181865.675 -88576.045 181865.674 -88576.044 181861.253 -88571.134 181706.752 -88458.882 181700.724 -88456.198 181700.722 -88456.197 181540.653 -88384.93 188687.57 -88384.93 188706.035 -88619.545 188707.578 -88629.292 188762.517 -88858.125 188765.566 -88867.51 188855.625 -89084.933 188860.107 -89093.728 188971.072 -89274.805 188981.53 -89284.267 188990.306 -89280.484 189877.978 -88392.812 189884.356 -88381.132 190614.408 -88381.132 190614.539 -88382.965 190618.79 -88389.58 191506.65 -89277.44 191519.03 -89284.2 191526.68 -89278.473 191639.893 -89093.728 191644.375 -89084.933 191734.434 -88867.51 191737.483 -88858.125 191792.422 -88629.292 191793.965 -88619.545 191812.43 -88384.93 191812.43 -88375.07 191793.965 -88140.455 191792.422 -88130.708 191737.483 -87901.875 191734.434 -87892.49 191644.375 -87675.067 191639.893 -87666.272 191528.928 -87485.195 191518.47 -87475.733 191509.694 -87479.516 190622.022 -88367.188 190614.408 -88381.132 189884.356 -88381.132 189885.592 -88378.868 189885.461 -88377.035 189881.21 -88370.42 188993.35 -87482.56 188980.97 -87475.8 188973.32 -87481.527 188860.107 -87666.272 188855.625 -87675.067 188765.566 -87892.49 188762.517 -87901.875 188707.578 -88130.708 188706.035 -88140.455 188687.57 -88375.07 188687.57 -88384.93 181540.653 -88384.93 181538.319 -88383.891 181538.318 -88383.891 181532.288 -88381.206 181438.888 -88361.353 181351.944 -88342.872 181351.939 -88342.872 181345.487 -88341.5 181154.513 -88341.5 181148.061 -88342.872 181148.056 -88342.872 181061.113 -88361.353 180967.712 -88381.206 180961.682 -88383.891 180961.681 -88383.891 180799.278 -88456.197 180799.276 -88456.198 180793.248 -88458.882 180638.747 -88571.134 180634.326 -88576.044 180634.325 -88576.045 180595.158 -88619.545 180510.96 -88713.056 180415.473 -88878.444 180356.458 -89060.072 180355.768 -89066.633 180355.768 -89066.635 180337.186 -89243.435 180336.496 -89250 180337.186 -89256.565 180340.091 -89284.2 180356.458 -89439.928 180415.473 -89621.556 180510.96 -89786.944 180584.137 -89868.215 180614.853 -89932.221 180616.5 -89952.524 180616.5 -91526.374 180596.498 -91594.495 180542.842 -91640.988 180472.568 -91651.092 180407.988 -91621.598 180396.864 -91610.684 180365.675 -91576.045 180365.674 -91576.044 180361.253 -91571.134 180226.511 -91473.238 180212.094 -91462.763 180212.093 -91462.762 180206.752 -91458.882 180200.724 -91456.198 180200.722 -91456.197 180038.319 -91383.891 180038.318 -91383.891 180032.288 -91381.206 179938.887 -91361.353 179851.944 -91342.872 179851.939 -91342.872 179845.487 -91341.5 179790.309 -91341.5 179722.188 -91321.498 179704.058 -91307.352 179692.349 -91296.357 179689.505 -91293.6 179669.77 -91273.865 179666.573 -91271.385 179657.551 -91263.68 179644.116 -91251.064 179625.321 -91233.414 179618.375 -91229.595 179618.372 -91229.593 179607.566 -91223.652 179591.047 -91212.801 179587.504 -91210.053 179575.041 -91200.386 179567.772 -91197.241 179567.768 -91197.238 179534.463 -91182.826 179523.813 -91177.609 179485.06 -91156.305 179465.437 -91151.267 179446.734 -91144.863 179435.42 -91139.967 179435.419 -91139.967 179428.145 -91136.819 179420.322 -91135.58 179420.312 -91135.577 179384.476 -91129.901 179372.856 -91127.495 179337.711 -91118.472 179337.71 -91118.472 179330.03 -91116.5 179309.776 -91116.5 179290.065 -91114.949 179277.886 -91113.02 179270.057 -91111.78 179240.786 -91114.547 179226.039 -91115.941 179214.181 -91116.5 177328.767 -91116.5 177317.584 -91115.973 177310.091 -91114.298 177302.165 -91114.547 177302.164 -91114.547 177242.014 -91116.438 177238.055 -91116.5 177210.144 -91116.5 177206.21 -91116.997 177206.209 -91116.997 177206.144 -91117.005 177194.307 -91117.938 177162.49 -91118.938 177158.029 -91119.078 177150.11 -91119.327 177132.454 -91124.456 177130.658 -91124.978 177111.306 -91128.986 177104.235 -91129.88 177091.203 -91131.526 177083.834 -91134.443 177083.832 -91134.444 177050.097 -91147.8 177038.869 -91151.645 176996.407 -91163.982 176989.585 -91168.016 176989.579 -91168.019 176978.968 -91174.294 176961.218 -91182.99 176949.756 -91187.528 176949.751 -91187.531 176942.383 -91190.448 176924.97 -91203.099 176906.625 -91216.427 176896.707 -91222.943 176879.002 -91233.414 176858.637 -91245.458 176844.313 -91259.782 176829.281 -91272.621 176812.893 -91284.528 176784.712 -91318.593 176776.722 -91327.373 176107.747 -91996.348 176099.461 -92003.888 176092.982 -92008 176087.557 -92013.777 176046.357 -92057.651 176043.602 -92060.493 176023.865 -92080.23 176021.385 -92083.427 176013.682 -92092.447 175983.414 -92124.679 175979.595 -92131.625 175979.593 -92131.628 175973.652 -92142.434 175962.801 -92158.953 175950.386 -92174.959 175947.241 -92182.228 175947.238 -92182.232 175932.826 -92215.537 175927.609 -92226.187 175906.305 -92264.94 175904.334 -92272.615 175904.334 -92272.616 175901.267 -92284.562 175894.863 -92303.266 175886.819 -92321.855 175885.58 -92329.678 175885.577 -92329.688 175879.901 -92365.524 175877.495 -92377.144 175874.677 -92388.12 175866.5 -92419.97 175866.5 -92440.224 175864.949 -92459.934 175861.78 -92479.943 175862.526 -92487.835 175865.941 -92523.961 175866.5 -92535.819 175866.5 -92763.03 175846.498 -92831.151 175792.842 -92877.644 175722.568 -92887.748 175696.27 -92881.012 175617.606 -92851.522 175602.351 -92847.895 175551.486 -92842.369 175544.672 -92842 174968.115 -92842 174952.876 -92846.475 174951.671 -92847.865 174950 -92855.548 174950 -93215.5 174929.998 -93283.621 174876.342 -93330.114 174824 -93341.5 174776 -93341.5 174707.879 -93321.498 174661.386 -93267.842 174650 -93215.5 174650 -92860.116 174645.525 -92844.877 174644.135 -92843.672 174636.452 -92842.001 174055.331 -92842.001 174048.51 -92842.371 173997.648 -92847.895 173982.396 -92851.521 173861.946 -92896.676 173846.351 -92905.214 173744.276 -92981.715 173731.715 -92994.276 173655.214 -93096.351 173646.676 -93111.946 173609.352 -93211.506 173566.71 -93268.27 173500.148 -93292.97 173430.8 -93277.762 173402.275 -93256.371 173197.122 -93051.218 173163.096 -92988.906 173160.907 -92975.293 173158.111 -92948.685 173147.899 -92851.522 173144.232 -92816.635 173144.232 -92816.633 173143.542 -92810.072 173084.527 -92628.444 172989.04 -92463.056 172972.926 -92445.159 172865.675 -92326.045 172865.674 -92326.044 172861.253 -92321.134 172730.808 -92226.36 172712.094 -92212.763 172712.093 -92212.762 172706.752 -92208.882 172700.724 -92206.198 172700.722 -92206.197 172538.319 -92133.891 172538.318 -92133.891 172532.288 -92131.206 172438.888 -92111.353 172351.944 -92092.872 172351.939 -92092.872 172345.487 -92091.5 172154.513 -92091.5 172148.061 -92092.872 172148.056 -92092.872 172061.112 -92111.353 171967.712 -92131.206 171961.682 -92133.891 171961.681 -92133.891 171799.278 -92206.197 171799.276 -92206.198 171793.248 -92208.882 171787.907 -92212.762 171787.906 -92212.763 171769.192 -92226.36 171638.747 -92321.134 171634.326 -92326.044 171634.325 -92326.045 171527.075 -92445.159 171510.96 -92463.056 171415.473 -92628.444 171356.458 -92810.072 171355.768 -92816.633 171355.768 -92816.635 171339.404 -92972.335 171336.496 -93000 171337.186 -93006.565 171347.353 -93103.295 171356.458 -93189.928 171415.473 -93371.556 171510.96 -93536.944 171515.38 -93541.852 171519.259 -93547.192 171517.92 -93548.165 171545.05 -93604.696 171536.287 -93675.149 171518.75 -93702.438 171519.259 -93702.808 171515.38 -93708.148 171510.96 -93713.056 171415.473 -93878.444 171356.458 -94060.072 171355.768 -94066.633 171355.768 -94066.635 171344.726 -94171.697 171336.496 -94250 171356.458 -94439.928 171415.473 -94621.556 171510.96 -94786.944 171515.38 -94791.852 171519.259 -94797.192 171517.92 -94798.165 171545.05 -94854.696 171536.287 -94925.149 171518.75 -94952.438 171519.259 -94952.808 171515.38 -94958.148 171510.96 -94963.056 171415.473 -95128.444 171356.458 -95310.072 171336.496 -95500 171356.458 -95689.928 171415.473 -95871.556 171510.96 -96036.944 171515.38 -96041.852 171519.259 -96047.192 171517.92 -96048.165 171545.05 -96104.696 171536.287 -96175.149 171518.75 -96202.438 171519.259 -96202.808 171515.38 -96208.148 171510.96 -96213.056 171415.473 -96378.444 171356.458 -96560.072 171355.768 -96566.633 171355.768 -96566.635 171343.044 -96687.696 171336.496 -96750 168500 -96750 168500 -87111.53 189345.733 -87111.53 189349.516 -87120.306 190237.188 -88007.978 190251.132 -88015.592 190252.965 -88015.461 190259.58 -88011.21 191147.44 -87123.35 191154.2 -87110.97 191148.473 -87103.32 190963.728 -86990.107 190954.933 -86985.625 190737.51 -86895.566 190728.125 -86892.517 190499.292 -86837.578 190489.545 -86836.035 190254.93 -86817.57 190245.07 -86817.57 190010.455 -86836.035 190000.708 -86837.578 189771.875 -86892.517 189762.49 -86895.566 189545.067 -86985.625 189536.272 -86990.107 189355.195 -87101.072 189345.733 -87111.53 168500 -87111.53 168500 -86634.5 168520.002 -86566.379 168573.658 -86519.886 168626 -86508.5 193865.5 -86508.5 193933.621 -86528.502"/></g><g id="ZLZ60YHT8OgN_bottom_soldermask"><use xlink:href="#bLX9DbFs_Z5b_pad-10" x="153500" y="-99330"/><use xlink:href="#bLX9DbFs_Z5b_pad-11" x="153500" y="-98060"/><use xlink:href="#bLX9DbFs_Z5b_pad-11" x="153500" y="-96790"/><use xlink:href="#bLX9DbFs_Z5b_pad-11" x="153500" y="-95520"/><use xlink:href="#bLX9DbFs_Z5b_pad-11" x="153500" y="-94250"/><use xlink:href="#bLX9DbFs_Z5b_pad-11" x="153500" y="-92980"/><use xlink:href="#bLX9DbFs_Z5b_pad-11" x="153500" y="-91710"/><use xlink:href="#bLX9DbFs_Z5b_pad-11" x="153500" y="-90440"/><use xlink:href="#bLX9DbFs_Z5b_pad-12" x="190250" y="-101080"/><use xlink:href="#bLX9DbFs_Z5b_pad-13" x="190250" y="-98540"/><use xlink:href="#bLX9DbFs_Z5b_pad-13" x="190250" y="-96000"/><use xlink:href="#bLX9DbFs_Z5b_pad-13" x="190250" y="-93460"/><use xlink:href="#bLX9DbFs_Z5b_pad-13" x="190250" y="-90920"/><use xlink:href="#bLX9DbFs_Z5b_pad-13" x="190250" y="-88380"/><use xlink:href="#bLX9DbFs_Z5b_pad-14" x="184787.5" y="-95750"/><use xlink:href="#bLX9DbFs_Z5b_pad-14" x="183212.5" y="-95750"/><use xlink:href="#bLX9DbFs_Z5b_pad-14" x="184787.5" y="-98250"/><use xlink:href="#bLX9DbFs_Z5b_pad-14" x="183212.5" y="-98250"/><use xlink:href="#bLX9DbFs_Z5b_pad-14" x="184787.5" y="-90500"/><use xlink:href="#bLX9DbFs_Z5b_pad-14" x="183212.5" y="-90500"/><use xlink:href="#bLX9DbFs_Z5b_pad-15" x="174800" y="-95500"/><use xlink:href="#bLX9DbFs_Z5b_pad-15" x="174800" y="-95000"/><use xlink:href="#bLX9DbFs_Z5b_pad-15" x="174800" y="-94500"/><use xlink:href="#bLX9DbFs_Z5b_pad-15" x="174800" y="-94000"/><use xlink:href="#bLX9DbFs_Z5b_pad-15" x="174800" y="-93500"/><use xlink:href="#bLX9DbFs_Z5b_pad-15" x="179200" y="-93500"/><use xlink:href="#bLX9DbFs_Z5b_pad-15" x="179200" y="-94000"/><use xlink:href="#bLX9DbFs_Z5b_pad-15" x="179200" y="-94500"/><use xlink:href="#bLX9DbFs_Z5b_pad-15" x="179200" y="-95000"/><use xlink:href="#bLX9DbFs_Z5b_pad-15" x="179200" y="-95500"/><use xlink:href="#bLX9DbFs_Z5b_pad-14" x="184825" y="-93250"/><use xlink:href="#bLX9DbFs_Z5b_pad-14" x="183250" y="-93250"/></g><g id="ZLZ60YHT8OgN_bottom_silkscreen"><path d="M 159683.642 -98269.047 159628.88 -98104.761 159574.119 -98050 159464.595 -97995.238 159300.309 -97995.238 159190.785 -98050 159136.023 -98104.761 159081.261 -98214.285 159081.261 -98652.38 160231.261 -98652.38 160231.261 -98269.047 160176.5 -98159.523 160121.738 -98104.761 160012.214 -98050 159902.69 -98050 159793.166 -98104.761 159738.404 -98159.523 159683.642 -98269.047 159683.642 -98652.38 M 159081.261 -97009.523 159683.642 -97009.523 159793.166 -97064.285 159847.928 -97173.809 159847.928 -97392.857 159793.166 -97502.38 M 159136.023 -97009.523 159081.261 -97119.047 159081.261 -97392.857 159136.023 -97502.38 159245.547 -97557.142 159355.071 -97557.142 159464.595 -97502.38 159519.357 -97392.857 159519.357 -97119.047 159574.119 -97009.523 M 159136.023 -96516.666 159081.261 -96407.142 159081.261 -96188.095 159136.023 -96078.571 159245.547 -96023.809 159300.309 -96023.809 159409.833 -96078.571 159464.595 -96188.095 159464.595 -96352.38 159519.357 -96461.904 159628.88 -96516.666 159683.642 -96516.666 159793.166 -96461.904 159847.928 -96352.38 159847.928 -96188.095 159793.166 -96078.571 M 159081.261 -95530.952 159847.928 -95530.952 M 160231.261 -95530.952 160176.5 -95585.714 160121.738 -95530.952 160176.5 -95476.19 160231.261 -95530.952 160121.738 -95530.952 M 159081.261 -94819.047 159136.023 -94928.571 159245.547 -94983.333 160231.261 -94983.333 M 159683.642 -93997.619 159683.642 -94380.952 M 159081.261 -94380.952 160231.261 -94380.952 160231.261 -93833.333 M 160231.261 -93504.761 159081.261 -92738.095 M 160231.261 -92738.095 159081.261 -93504.761 M 158379.761 -99145.238 158379.761 -99035.714 158325 -98926.19 158270.238 -98871.428 158160.714 -98816.666 157941.666 -98761.904 157667.857 -98761.904 157448.809 -98816.666 157339.285 -98871.428 157284.523 -98926.19 157229.761 -99035.714 157229.761 -99145.238 157284.523 -99254.761 157339.285 -99309.523 157448.809 -99364.285 157667.857 -99419.047 157941.666 -99419.047 158160.714 -99364.285 158270.238 -99309.523 158325 -99254.761 158379.761 -99145.238 M 157229.761 -98214.285 157229.761 -97995.238 157284.523 -97885.714 157339.285 -97830.952 157503.571 -97721.428 157722.619 -97666.666 158160.714 -97666.666 158270.238 -97721.428 158325 -97776.19 158379.761 -97885.714 158379.761 -98104.761 158325 -98214.285 158270.238 -98269.047 158160.714 -98323.809 157886.904 -98323.809 157777.38 -98269.047 157722.619 -98214.285 157667.857 -98104.761 157667.857 -97885.714 157722.619 -97776.19 157777.38 -97721.428 157886.904 -97666.666 M 158434.523 -96352.38 156955.952 -97338.095 M 158270.238 -96023.809 158325 -95969.047 158379.761 -95859.523 158379.761 -95585.714 158325 -95476.19 158270.238 -95421.428 158160.714 -95366.666 158051.19 -95366.666 157886.904 -95421.428 157229.761 -96078.571 157229.761 -95366.666 M 158379.761 -94654.761 158379.761 -94545.238 158325 -94435.714 158270.238 -94380.952 158160.714 -94326.19 157941.666 -94271.428 157667.857 -94271.428 157448.809 -94326.19 157339.285 -94380.952 157284.523 -94435.714 157229.761 -94545.238 157229.761 -94654.761 157284.523 -94764.285 157339.285 -94819.047 157448.809 -94873.809 157667.857 -94928.571 157941.666 -94928.571 158160.714 -94873.809 158270.238 -94819.047 158325 -94764.285 158379.761 -94654.761 M 158270.238 -93833.333 158325 -93778.571 158379.761 -93669.047 158379.761 -93395.238 158325 -93285.714 158270.238 -93230.952 158160.714 -93176.19 158051.19 -93176.19 157886.904 -93230.952 157229.761 -93888.095 157229.761 -93176.19 M 158270.238 -92738.095 158325 -92683.333 158379.761 -92573.809 158379.761 -92300 158325 -92190.476 158270.238 -92135.714 158160.714 -92080.952 158051.19 -92080.952 157886.904 -92135.714 157229.761 -92792.857 157229.761 -92080.952 M 156528.261 -98323.809 155378.261 -97940.476 156528.261 -97557.142 M 155378.261 -96571.428 155378.261 -97228.571 M 155378.261 -96900 156528.261 -96900 156363.976 -97009.523 156254.452 -97119.047 156199.69 -97228.571 M 155487.785 -96078.571 155433.023 -96023.809 155378.261 -96078.571 155433.023 -96133.333 155487.785 -96078.571 155378.261 -96078.571 M 155378.261 -94928.571 155378.261 -95585.714 M 155378.261 -95257.142 156528.261 -95257.142 156363.976 -95366.666 156254.452 -95476.19 156199.69 -95585.714 M 155487.785 -94435.714 155433.023 -94380.952 155378.261 -94435.714 155433.023 -94490.476 155487.785 -94435.714 155378.261 -94435.714 M 156528.261 -93669.047 156528.261 -93559.523 156473.5 -93450 156418.738 -93395.238 156309.214 -93340.476 156090.166 -93285.714 155816.357 -93285.714 155597.309 -93340.476 155487.785 -93395.238 155433.023 -93450 155378.261 -93559.523 155378.261 -93669.047 155433.023 -93778.571 155487.785 -93833.333 155597.309 -93888.095 155816.357 -93942.857 156090.166 -93942.857 156309.214 -93888.095 156418.738 -93833.333 156473.5 -93778.571 156528.261 -93669.047" fill="none" stroke-width="150"/><path d="M 183200 -95015 185485 -95015 185485 -96485 183200 -96485 M 185485 -97515 185485 -98985 183200 -98985 M 183200 -97515 185485 -97515 M 185485 -91235 183200 -91235 M 183200 -89765 185485 -89765 185485 -91235" fill="none" stroke-width="120"/><path d="M 175325 -95950 174100 -95950 M 178675 -92825 178675 -93125 M 175325 -92825 178675 -92825 M 175325 -96175 175325 -95950 M 175325 -96175 178675 -96175 M 175325 -92825 175325 -93125 M 178675 -96175 178675 -95875" fill="none" stroke-width="150"/><path d="M 185522.5 -93985 183237.5 -93985 M 183237.5 -92515 185522.5 -92515 185522.5 -93985" fill="none" stroke-width="120"/></g><g id="ZLZ60YHT8OgN_bottom_drill1" transform="scale(25.4,25.4)"><use xlink:href="#z7-8ptvzf6_v_pad-1" x="6781.5" y="-3661.4"/><use xlink:href="#z7-8ptvzf6_v_pad-1" x="6781.5" y="-3710.6"/><use xlink:href="#z7-8ptvzf6_v_pad-1" x="6781.5" y="-3759.8"/><use xlink:href="#z7-8ptvzf6_v_pad-1" x="6781.5" y="-3809.1"/><use xlink:href="#z7-8ptvzf6_v_pad-1" x="6986.2" y="-3710.6"/><use xlink:href="#z7-8ptvzf6_v_pad-1" x="6988.2" y="-3661.4"/><use xlink:href="#z7-8ptvzf6_v_pad-1" x="6988.2" y="-3759.8"/><use xlink:href="#z7-8ptvzf6_v_pad-1" x="7076.8" y="-3631.9"/><use xlink:href="#z7-8ptvzf6_v_pad-1" x="7135.8" y="-3513.8"/><use xlink:href="#z7-8ptvzf6_v_pad-1" x="7135.8" y="-3700.8"/><use xlink:href="#z7-8ptvzf6_v_pad-1" x="7135.8" y="-3759.8"/><use xlink:href="#z7-8ptvzf6_v_pad-1" x="7135.8" y="-3818.9"/><use xlink:href="#z7-8ptvzf6_v_pad-1" x="7135.8" y="-3878"/><use xlink:href="#z7-8ptvzf6_v_pad-1" x="7135.8" y="-3937"/><use xlink:href="#z7-8ptvzf6_v_pad-2" x="6043.3" y="-3560.6"/><use xlink:href="#z7-8ptvzf6_v_pad-2" x="6043.3" y="-3610.6"/><use xlink:href="#z7-8ptvzf6_v_pad-2" x="6043.3" y="-3660.6"/><use xlink:href="#z7-8ptvzf6_v_pad-2" x="6043.3" y="-3710.6"/><use xlink:href="#z7-8ptvzf6_v_pad-2" x="6043.3" y="-3760.6"/><use xlink:href="#z7-8ptvzf6_v_pad-2" x="6043.3" y="-3810.6"/><use xlink:href="#z7-8ptvzf6_v_pad-2" x="6043.3" y="-3860.6"/><use xlink:href="#z7-8ptvzf6_v_pad-2" x="6043.3" y="-3910.6"/><use xlink:href="#z7-8ptvzf6_v_pad-3" x="7490.2" y="-3479.5"/><use xlink:href="#z7-8ptvzf6_v_pad-3" x="7490.2" y="-3579.5"/><use xlink:href="#z7-8ptvzf6_v_pad-3" x="7490.2" y="-3679.5"/><use xlink:href="#z7-8ptvzf6_v_pad-3" x="7490.2" y="-3779.5"/><use xlink:href="#z7-8ptvzf6_v_pad-3" x="7490.2" y="-3879.5"/><use xlink:href="#z7-8ptvzf6_v_pad-3" x="7490.2" y="-3979.5"/></g><clipPath id="ZLZ60YHT8OgN_bottom_outline"><path d="M 194500 -86000 194500 -103500 151500 -103500 151500 -86000 194500 -86000" fill="none" stroke-width="200"/></clipPath><mask id="ZLZ60YHT8OgN_bottom_mech-mask"><g fill="#000" stroke="#000"><rect x="151500" y="-103500" width="43000" height="17500" fill="#fff"/><use xlink:href="#ZLZ60YHT8OgN_bottom_drill1"/></g></mask><mask id="ZLZ60YHT8OgN_bottom_cf-mask"><g fill="#fff" stroke="#fff"><use xlink:href="#ZLZ60YHT8OgN_bottom_soldermask"/></g></mask><mask id="ZLZ60YHT8OgN_bottom_sm-mask"><g fill="#000" stroke="#000"><rect x="151500" y="-103500" width="43000" height="17500" fill="#fff"/><use xlink:href="#ZLZ60YHT8OgN_bottom_soldermask"/></g></mask></defs><g transform="translate(0,-189500) scale(1,-1)"><g mask="url(#ZLZ60YHT8OgN_bottom_mech-mask)" clip-path="url(#ZLZ60YHT8OgN_bottom_outline)" transform="translate(346000,0) scale(-1,1)"><rect x="151500" y="-103500" width="43000" height="17500" fill="currentColor" class="ZLZ60YHT8OgN_fr4"/><use xlink:href="#ZLZ60YHT8OgN_bottom_copper" fill="currentColor" stroke="currentColor" class="ZLZ60YHT8OgN_cu"/><use xlink:href="#ZLZ60YHT8OgN_bottom_copper" fill="currentColor" stroke="currentColor" class="ZLZ60YHT8OgN_cf" mask="url(#ZLZ60YHT8OgN_bottom_cf-mask)"/><g mask="url(#ZLZ60YHT8OgN_bottom_sm-mask)"><rect x="151500" y="-103500" width="43000" height="17500" fill="currentColor" class="ZLZ60YHT8OgN_sm"/><use xlink:href="#ZLZ60YHT8OgN_bottom_silkscreen" fill="currentColor" stroke="currentColor" class="ZLZ60YHT8OgN_ss"/></g></g></g></svg>